M48
; DRILL file {KiCad (5.1.4-0-10_14)} date 2019 October 06, Sunday 23:41:35
; FORMAT={-:-/ absolute / inch / decimal}
; #@! TF.CreationDate,2019-10-06T23:41:35+09:00
; #@! TF.GenerationSoftware,Kicad,Pcbnew,(5.1.4-0-10_14)
; #@! TF.FileFunction,Plated,1,2,PTH
FMAT,2
INCH
T1C0.0157
T2C0.0276
T3C0.0579
%
G90
G05
T1
X3.025Y-3.275
X3.025Y-3.88
X3.195Y-3.27
X3.27Y-3.58
X3.271Y-3.751
X3.815Y-4.005
X4.045Y-3.505
T3
X5.0375Y-3.1187
X5.0891Y-3.0613
X5.2859Y-3.0416
X5.2875Y-3.0187
X5.0375Y-3.8687
X5.0891Y-3.8113
X5.2859Y-3.7916
X5.2875Y-3.7687
X4.2875Y-3.8687
X4.3391Y-3.8113
X4.5359Y-3.7916
X4.5375Y-3.7687
X4.2875Y-3.1187
X4.3391Y-3.0613
X4.5359Y-3.0416
X4.5375Y-3.0187
T2
G00X2.665Y-2.8864
M15
G01X2.665Y-2.9336
M16
G05
G00X2.665Y-3.0635
M15
G01X2.665Y-3.1108
M16
G05
G00X2.9524Y-2.8864
M15
G01X2.9524Y-2.9336
M16
G05
G00X2.9524Y-3.0635
M15
G01X2.9524Y-3.1108
M16
G05
T0
M30
