G04 #@! TF.GenerationSoftware,KiCad,Pcbnew,(5.1.4-0-10_14)*
G04 #@! TF.CreationDate,2019-10-06T23:39:38+09:00*
G04 #@! TF.ProjectId,dombrick45,646f6d62-7269-4636-9b34-352e6b696361,rev?*
G04 #@! TF.SameCoordinates,Original*
G04 #@! TF.FileFunction,Soldermask,Bot*
G04 #@! TF.FilePolarity,Negative*
%FSLAX46Y46*%
G04 Gerber Fmt 4.6, Leading zero omitted, Abs format (unit mm)*
G04 Created by KiCad (PCBNEW (5.1.4-0-10_14)) date 2019-10-06 23:39:38*
%MOMM*%
%LPD*%
G04 APERTURE LIST*
%ADD10C,0.100000*%
G04 APERTURE END LIST*
D10*
G36*
X140351000Y-102957250D02*
G01*
X139049000Y-102957250D01*
X139049000Y-101955250D01*
X140351000Y-101955250D01*
X140351000Y-102957250D01*
X140351000Y-102957250D01*
G37*
G36*
X121301000Y-102957250D02*
G01*
X119999000Y-102957250D01*
X119999000Y-101955250D01*
X121301000Y-101955250D01*
X121301000Y-102957250D01*
X121301000Y-102957250D01*
G37*
G36*
X75933000Y-102853000D02*
G01*
X74031000Y-102853000D01*
X74031000Y-101651000D01*
X75933000Y-101651000D01*
X75933000Y-102853000D01*
X75933000Y-102853000D01*
G37*
G36*
X69733000Y-102853000D02*
G01*
X67831000Y-102853000D01*
X67831000Y-101651000D01*
X69733000Y-101651000D01*
X69733000Y-102853000D01*
X69733000Y-102853000D01*
G37*
G36*
X132358974Y-98839934D02*
G01*
X132576974Y-98930233D01*
X132731123Y-98994083D01*
X133066048Y-99217873D01*
X133350877Y-99502702D01*
X133574667Y-99837627D01*
X133607062Y-99915836D01*
X133728816Y-100209776D01*
X133807400Y-100604844D01*
X133807400Y-101007656D01*
X133728816Y-101402724D01*
X133677951Y-101525522D01*
X133574667Y-101774873D01*
X133350877Y-102109798D01*
X133066048Y-102394627D01*
X132731123Y-102618417D01*
X132576974Y-102682267D01*
X132358974Y-102772566D01*
X131963906Y-102851150D01*
X131561094Y-102851150D01*
X131166026Y-102772566D01*
X130948026Y-102682267D01*
X130793877Y-102618417D01*
X130458952Y-102394627D01*
X130174123Y-102109798D01*
X129950333Y-101774873D01*
X129847049Y-101525522D01*
X129796184Y-101402724D01*
X129717600Y-101007656D01*
X129717600Y-100604844D01*
X129796184Y-100209776D01*
X129917938Y-99915836D01*
X129950333Y-99837627D01*
X130174123Y-99502702D01*
X130458952Y-99217873D01*
X130793877Y-98994083D01*
X130948026Y-98930233D01*
X131166026Y-98839934D01*
X131561094Y-98761350D01*
X131963906Y-98761350D01*
X132358974Y-98839934D01*
X132358974Y-98839934D01*
G37*
G36*
X113308974Y-98839934D02*
G01*
X113526974Y-98930233D01*
X113681123Y-98994083D01*
X114016048Y-99217873D01*
X114300877Y-99502702D01*
X114524667Y-99837627D01*
X114557062Y-99915836D01*
X114678816Y-100209776D01*
X114757400Y-100604844D01*
X114757400Y-101007656D01*
X114678816Y-101402724D01*
X114627951Y-101525522D01*
X114524667Y-101774873D01*
X114300877Y-102109798D01*
X114016048Y-102394627D01*
X113681123Y-102618417D01*
X113526974Y-102682267D01*
X113308974Y-102772566D01*
X112913906Y-102851150D01*
X112511094Y-102851150D01*
X112116026Y-102772566D01*
X111898026Y-102682267D01*
X111743877Y-102618417D01*
X111408952Y-102394627D01*
X111124123Y-102109798D01*
X110900333Y-101774873D01*
X110797049Y-101525522D01*
X110746184Y-101402724D01*
X110667600Y-101007656D01*
X110667600Y-100604844D01*
X110746184Y-100209776D01*
X110867938Y-99915836D01*
X110900333Y-99837627D01*
X111124123Y-99502702D01*
X111408952Y-99217873D01*
X111743877Y-98994083D01*
X111898026Y-98930233D01*
X112116026Y-98839934D01*
X112511094Y-98761350D01*
X112913906Y-98761350D01*
X113308974Y-98839934D01*
X113308974Y-98839934D01*
G37*
G36*
X95801174Y-100853465D02*
G01*
X95838867Y-100864899D01*
X95873603Y-100883466D01*
X95904048Y-100908452D01*
X95929034Y-100938897D01*
X95947601Y-100973633D01*
X95959035Y-101011326D01*
X95963500Y-101056661D01*
X95963500Y-102143339D01*
X95959035Y-102188674D01*
X95947601Y-102226367D01*
X95929034Y-102261103D01*
X95904048Y-102291548D01*
X95873603Y-102316534D01*
X95838867Y-102335101D01*
X95801174Y-102346535D01*
X95755839Y-102351000D01*
X94919161Y-102351000D01*
X94873826Y-102346535D01*
X94836133Y-102335101D01*
X94801397Y-102316534D01*
X94770952Y-102291548D01*
X94745966Y-102261103D01*
X94727399Y-102226367D01*
X94715965Y-102188674D01*
X94711500Y-102143339D01*
X94711500Y-101056661D01*
X94715965Y-101011326D01*
X94727399Y-100973633D01*
X94745966Y-100938897D01*
X94770952Y-100908452D01*
X94801397Y-100883466D01*
X94836133Y-100864899D01*
X94873826Y-100853465D01*
X94919161Y-100849000D01*
X95755839Y-100849000D01*
X95801174Y-100853465D01*
X95801174Y-100853465D01*
G37*
G36*
X93751174Y-100853465D02*
G01*
X93788867Y-100864899D01*
X93823603Y-100883466D01*
X93854048Y-100908452D01*
X93879034Y-100938897D01*
X93897601Y-100973633D01*
X93909035Y-101011326D01*
X93913500Y-101056661D01*
X93913500Y-102143339D01*
X93909035Y-102188674D01*
X93897601Y-102226367D01*
X93879034Y-102261103D01*
X93854048Y-102291548D01*
X93823603Y-102316534D01*
X93788867Y-102335101D01*
X93751174Y-102346535D01*
X93705839Y-102351000D01*
X92869161Y-102351000D01*
X92823826Y-102346535D01*
X92786133Y-102335101D01*
X92751397Y-102316534D01*
X92720952Y-102291548D01*
X92695966Y-102261103D01*
X92677399Y-102226367D01*
X92665965Y-102188674D01*
X92661500Y-102143339D01*
X92661500Y-101056661D01*
X92665965Y-101011326D01*
X92677399Y-100973633D01*
X92695966Y-100938897D01*
X92720952Y-100908452D01*
X92751397Y-100883466D01*
X92786133Y-100864899D01*
X92823826Y-100853465D01*
X92869161Y-100849000D01*
X93705839Y-100849000D01*
X93751174Y-100853465D01*
X93751174Y-100853465D01*
G37*
G36*
X137112604Y-99915835D02*
G01*
X137281126Y-99985639D01*
X137432791Y-100086978D01*
X137561772Y-100215959D01*
X137663111Y-100367624D01*
X137732915Y-100536146D01*
X137768500Y-100715047D01*
X137768500Y-100897453D01*
X137732915Y-101076354D01*
X137663111Y-101244876D01*
X137561772Y-101396541D01*
X137432791Y-101525522D01*
X137281126Y-101626861D01*
X137112604Y-101696665D01*
X136933703Y-101732250D01*
X136751297Y-101732250D01*
X136572396Y-101696665D01*
X136403874Y-101626861D01*
X136252209Y-101525522D01*
X136123228Y-101396541D01*
X136021889Y-101244876D01*
X135952085Y-101076354D01*
X135916500Y-100897453D01*
X135916500Y-100715047D01*
X135952085Y-100536146D01*
X136021889Y-100367624D01*
X136123228Y-100215959D01*
X136252209Y-100086978D01*
X136403874Y-99985639D01*
X136572396Y-99915835D01*
X136751297Y-99880250D01*
X136933703Y-99880250D01*
X137112604Y-99915835D01*
X137112604Y-99915835D01*
G37*
G36*
X126952604Y-99915835D02*
G01*
X127121126Y-99985639D01*
X127272791Y-100086978D01*
X127401772Y-100215959D01*
X127503111Y-100367624D01*
X127572915Y-100536146D01*
X127608500Y-100715047D01*
X127608500Y-100897453D01*
X127572915Y-101076354D01*
X127503111Y-101244876D01*
X127401772Y-101396541D01*
X127272791Y-101525522D01*
X127121126Y-101626861D01*
X126952604Y-101696665D01*
X126773703Y-101732250D01*
X126591297Y-101732250D01*
X126412396Y-101696665D01*
X126243874Y-101626861D01*
X126092209Y-101525522D01*
X125963228Y-101396541D01*
X125861889Y-101244876D01*
X125792085Y-101076354D01*
X125756500Y-100897453D01*
X125756500Y-100715047D01*
X125792085Y-100536146D01*
X125861889Y-100367624D01*
X125963228Y-100215959D01*
X126092209Y-100086978D01*
X126243874Y-99985639D01*
X126412396Y-99915835D01*
X126591297Y-99880250D01*
X126773703Y-99880250D01*
X126952604Y-99915835D01*
X126952604Y-99915835D01*
G37*
G36*
X107902604Y-99915835D02*
G01*
X108071126Y-99985639D01*
X108222791Y-100086978D01*
X108351772Y-100215959D01*
X108453111Y-100367624D01*
X108522915Y-100536146D01*
X108558500Y-100715047D01*
X108558500Y-100897453D01*
X108522915Y-101076354D01*
X108453111Y-101244876D01*
X108351772Y-101396541D01*
X108222791Y-101525522D01*
X108071126Y-101626861D01*
X107902604Y-101696665D01*
X107723703Y-101732250D01*
X107541297Y-101732250D01*
X107362396Y-101696665D01*
X107193874Y-101626861D01*
X107042209Y-101525522D01*
X106913228Y-101396541D01*
X106811889Y-101244876D01*
X106742085Y-101076354D01*
X106706500Y-100897453D01*
X106706500Y-100715047D01*
X106742085Y-100536146D01*
X106811889Y-100367624D01*
X106913228Y-100215959D01*
X107042209Y-100086978D01*
X107193874Y-99985639D01*
X107362396Y-99915835D01*
X107541297Y-99880250D01*
X107723703Y-99880250D01*
X107902604Y-99915835D01*
X107902604Y-99915835D01*
G37*
G36*
X118062604Y-99915835D02*
G01*
X118231126Y-99985639D01*
X118382791Y-100086978D01*
X118511772Y-100215959D01*
X118613111Y-100367624D01*
X118682915Y-100536146D01*
X118718500Y-100715047D01*
X118718500Y-100897453D01*
X118682915Y-101076354D01*
X118613111Y-101244876D01*
X118511772Y-101396541D01*
X118382791Y-101525522D01*
X118231126Y-101626861D01*
X118062604Y-101696665D01*
X117883703Y-101732250D01*
X117701297Y-101732250D01*
X117522396Y-101696665D01*
X117353874Y-101626861D01*
X117202209Y-101525522D01*
X117073228Y-101396541D01*
X116971889Y-101244876D01*
X116902085Y-101076354D01*
X116866500Y-100897453D01*
X116866500Y-100715047D01*
X116902085Y-100536146D01*
X116971889Y-100367624D01*
X117073228Y-100215959D01*
X117202209Y-100086978D01*
X117353874Y-99985639D01*
X117522396Y-99915835D01*
X117701297Y-99880250D01*
X117883703Y-99880250D01*
X118062604Y-99915835D01*
X118062604Y-99915835D01*
G37*
G36*
X121301000Y-99657250D02*
G01*
X119999000Y-99657250D01*
X119999000Y-98655250D01*
X121301000Y-98655250D01*
X121301000Y-99657250D01*
X121301000Y-99657250D01*
G37*
G36*
X140351000Y-99657250D02*
G01*
X139049000Y-99657250D01*
X139049000Y-98655250D01*
X140351000Y-98655250D01*
X140351000Y-99657250D01*
X140351000Y-99657250D01*
G37*
G36*
X129285705Y-95630131D02*
G01*
X129291145Y-95630250D01*
X129378328Y-95630250D01*
X129394597Y-95633486D01*
X129413456Y-95635765D01*
X129430032Y-95636496D01*
X129514723Y-95657260D01*
X129520018Y-95658434D01*
X129605527Y-95675443D01*
X129620862Y-95681795D01*
X129638901Y-95687705D01*
X129655021Y-95691657D01*
X129734004Y-95728530D01*
X129738994Y-95730727D01*
X129819545Y-95764092D01*
X129833341Y-95773310D01*
X129849893Y-95782632D01*
X129864926Y-95789650D01*
X129935194Y-95841221D01*
X129939692Y-95844372D01*
X130012156Y-95892791D01*
X130023883Y-95904518D01*
X130038309Y-95916898D01*
X130051679Y-95926711D01*
X130096646Y-95975827D01*
X130110521Y-95990983D01*
X130114329Y-95994964D01*
X130175959Y-96056594D01*
X130185174Y-96070385D01*
X130196896Y-96085328D01*
X130208105Y-96097571D01*
X130253299Y-96172124D01*
X130256246Y-96176751D01*
X130304658Y-96249205D01*
X130311005Y-96264527D01*
X130319592Y-96281481D01*
X130328191Y-96295667D01*
X130357978Y-96377618D01*
X130359952Y-96382698D01*
X130393307Y-96463223D01*
X130393307Y-96463224D01*
X130396541Y-96479483D01*
X130401658Y-96497792D01*
X130407325Y-96513384D01*
X130420555Y-96599595D01*
X130421501Y-96604963D01*
X130438500Y-96690423D01*
X130438500Y-96707002D01*
X130439944Y-96725942D01*
X130442463Y-96742354D01*
X130438620Y-96829499D01*
X130438500Y-96834939D01*
X130438500Y-96922075D01*
X130435266Y-96938333D01*
X130432988Y-96957191D01*
X130432256Y-96973781D01*
X130411488Y-97058487D01*
X130410312Y-97063787D01*
X130393307Y-97149277D01*
X130386957Y-97164607D01*
X130381049Y-97182643D01*
X130377095Y-97198770D01*
X130340211Y-97277776D01*
X130338011Y-97282773D01*
X130304658Y-97363295D01*
X130295444Y-97377085D01*
X130286122Y-97393637D01*
X130279102Y-97408674D01*
X130227511Y-97478970D01*
X130224366Y-97483460D01*
X130175961Y-97555904D01*
X130118960Y-97612905D01*
X130114311Y-97617813D01*
X129748216Y-98025827D01*
X128789223Y-99094626D01*
X128661179Y-99211852D01*
X128562131Y-99271895D01*
X128463083Y-99331939D01*
X128245366Y-99411073D01*
X128016395Y-99446211D01*
X127784970Y-99436004D01*
X127559981Y-99380843D01*
X127455227Y-99331939D01*
X127350079Y-99282852D01*
X127253338Y-99211852D01*
X127163323Y-99145789D01*
X127088894Y-99064491D01*
X127006898Y-98974929D01*
X126925064Y-98839935D01*
X126886811Y-98776833D01*
X126807677Y-98559116D01*
X126772539Y-98330145D01*
X126782746Y-98098720D01*
X126837907Y-97873731D01*
X126889472Y-97763278D01*
X126935898Y-97663830D01*
X126935900Y-97663827D01*
X127038614Y-97523872D01*
X127793745Y-96682277D01*
X128325287Y-96089871D01*
X128336181Y-96075839D01*
X128349039Y-96056596D01*
X128406073Y-95999562D01*
X128410723Y-95994653D01*
X128425778Y-95977874D01*
X128447201Y-95958261D01*
X128451182Y-95954453D01*
X128512846Y-95892789D01*
X128526643Y-95883570D01*
X128541602Y-95871835D01*
X128553821Y-95860648D01*
X128618813Y-95821250D01*
X128628330Y-95815481D01*
X128632921Y-95812558D01*
X128705455Y-95764092D01*
X128720800Y-95757736D01*
X128737748Y-95749151D01*
X128751916Y-95740562D01*
X128751917Y-95740562D01*
X128751918Y-95740561D01*
X128833812Y-95710795D01*
X128838910Y-95708813D01*
X128919473Y-95675443D01*
X128935752Y-95672205D01*
X128954042Y-95667094D01*
X128969635Y-95661427D01*
X129055800Y-95648204D01*
X129061163Y-95647259D01*
X129146673Y-95630250D01*
X129163266Y-95630250D01*
X129182209Y-95628805D01*
X129198606Y-95626289D01*
X129285705Y-95630131D01*
X129285705Y-95630131D01*
G37*
G36*
X110235705Y-95630131D02*
G01*
X110241145Y-95630250D01*
X110328328Y-95630250D01*
X110344597Y-95633486D01*
X110363456Y-95635765D01*
X110380032Y-95636496D01*
X110464723Y-95657260D01*
X110470018Y-95658434D01*
X110555527Y-95675443D01*
X110570862Y-95681795D01*
X110588901Y-95687705D01*
X110605021Y-95691657D01*
X110684004Y-95728530D01*
X110688994Y-95730727D01*
X110769545Y-95764092D01*
X110783341Y-95773310D01*
X110799893Y-95782632D01*
X110814926Y-95789650D01*
X110885194Y-95841221D01*
X110889692Y-95844372D01*
X110962156Y-95892791D01*
X110973883Y-95904518D01*
X110988309Y-95916898D01*
X111001679Y-95926711D01*
X111046646Y-95975827D01*
X111060521Y-95990983D01*
X111064329Y-95994964D01*
X111125959Y-96056594D01*
X111135174Y-96070385D01*
X111146896Y-96085328D01*
X111158105Y-96097571D01*
X111203299Y-96172124D01*
X111206246Y-96176751D01*
X111254658Y-96249205D01*
X111261005Y-96264527D01*
X111269592Y-96281481D01*
X111278191Y-96295667D01*
X111307978Y-96377618D01*
X111309952Y-96382698D01*
X111343307Y-96463223D01*
X111343307Y-96463224D01*
X111346541Y-96479483D01*
X111351658Y-96497792D01*
X111357325Y-96513384D01*
X111370555Y-96599595D01*
X111371501Y-96604963D01*
X111388500Y-96690423D01*
X111388500Y-96707002D01*
X111389944Y-96725942D01*
X111392463Y-96742354D01*
X111388620Y-96829499D01*
X111388500Y-96834939D01*
X111388500Y-96922075D01*
X111385266Y-96938333D01*
X111382988Y-96957191D01*
X111382256Y-96973781D01*
X111361488Y-97058487D01*
X111360312Y-97063787D01*
X111343307Y-97149277D01*
X111336957Y-97164607D01*
X111331049Y-97182643D01*
X111327095Y-97198770D01*
X111290211Y-97277776D01*
X111288011Y-97282773D01*
X111254658Y-97363295D01*
X111245444Y-97377085D01*
X111236122Y-97393637D01*
X111229102Y-97408674D01*
X111177511Y-97478970D01*
X111174366Y-97483460D01*
X111125961Y-97555904D01*
X111068960Y-97612905D01*
X111064311Y-97617813D01*
X110698216Y-98025827D01*
X109739223Y-99094626D01*
X109611179Y-99211852D01*
X109512131Y-99271895D01*
X109413083Y-99331939D01*
X109195366Y-99411073D01*
X108966395Y-99446211D01*
X108734970Y-99436004D01*
X108509981Y-99380843D01*
X108405227Y-99331939D01*
X108300079Y-99282852D01*
X108203338Y-99211852D01*
X108113323Y-99145789D01*
X108038894Y-99064491D01*
X107956898Y-98974929D01*
X107875064Y-98839935D01*
X107836811Y-98776833D01*
X107757677Y-98559116D01*
X107722539Y-98330145D01*
X107732746Y-98098720D01*
X107787907Y-97873731D01*
X107839472Y-97763278D01*
X107885898Y-97663830D01*
X107885900Y-97663827D01*
X107988614Y-97523872D01*
X108743745Y-96682277D01*
X109275287Y-96089871D01*
X109286181Y-96075839D01*
X109299039Y-96056596D01*
X109356073Y-95999562D01*
X109360723Y-95994653D01*
X109375778Y-95977874D01*
X109397201Y-95958261D01*
X109401182Y-95954453D01*
X109462846Y-95892789D01*
X109476643Y-95883570D01*
X109491602Y-95871835D01*
X109503821Y-95860648D01*
X109568813Y-95821250D01*
X109578330Y-95815481D01*
X109582921Y-95812558D01*
X109655455Y-95764092D01*
X109670800Y-95757736D01*
X109687748Y-95749151D01*
X109701916Y-95740562D01*
X109701917Y-95740562D01*
X109701918Y-95740561D01*
X109783812Y-95710795D01*
X109788910Y-95708813D01*
X109869473Y-95675443D01*
X109885752Y-95672205D01*
X109904042Y-95667094D01*
X109919635Y-95661427D01*
X110005800Y-95648204D01*
X110011163Y-95647259D01*
X110096673Y-95630250D01*
X110113266Y-95630250D01*
X110132209Y-95628805D01*
X110148606Y-95626289D01*
X110235705Y-95630131D01*
X110235705Y-95630131D01*
G37*
G36*
X75933000Y-99153000D02*
G01*
X74031000Y-99153000D01*
X74031000Y-97951000D01*
X75933000Y-97951000D01*
X75933000Y-99153000D01*
X75933000Y-99153000D01*
G37*
G36*
X69733000Y-99153000D02*
G01*
X67831000Y-99153000D01*
X67831000Y-97951000D01*
X69733000Y-97951000D01*
X69733000Y-99153000D01*
X69733000Y-99153000D01*
G37*
G36*
X94813500Y-98576000D02*
G01*
X86161500Y-98576000D01*
X86161500Y-96974000D01*
X94813500Y-96974000D01*
X94813500Y-98576000D01*
X94813500Y-98576000D01*
G37*
G36*
X100787468Y-97431565D02*
G01*
X100826138Y-97443296D01*
X100861777Y-97462346D01*
X100893017Y-97487983D01*
X100918654Y-97519223D01*
X100937704Y-97554862D01*
X100949435Y-97593532D01*
X100954000Y-97639888D01*
X100954000Y-98291112D01*
X100949435Y-98337468D01*
X100937704Y-98376138D01*
X100918654Y-98411777D01*
X100893017Y-98443017D01*
X100861777Y-98468654D01*
X100826138Y-98487704D01*
X100787468Y-98499435D01*
X100741112Y-98504000D01*
X99664888Y-98504000D01*
X99618532Y-98499435D01*
X99579862Y-98487704D01*
X99544223Y-98468654D01*
X99512983Y-98443017D01*
X99487346Y-98411777D01*
X99468296Y-98376138D01*
X99456565Y-98337468D01*
X99452000Y-98291112D01*
X99452000Y-97639888D01*
X99456565Y-97593532D01*
X99468296Y-97554862D01*
X99487346Y-97519223D01*
X99512983Y-97487983D01*
X99544223Y-97462346D01*
X99579862Y-97443296D01*
X99618532Y-97431565D01*
X99664888Y-97427000D01*
X100741112Y-97427000D01*
X100787468Y-97431565D01*
X100787468Y-97431565D01*
G37*
G36*
X81487674Y-97050465D02*
G01*
X81525367Y-97061899D01*
X81560103Y-97080466D01*
X81590548Y-97105452D01*
X81615534Y-97135897D01*
X81634101Y-97170633D01*
X81645535Y-97208326D01*
X81650000Y-97253661D01*
X81650000Y-98090339D01*
X81645535Y-98135674D01*
X81634101Y-98173367D01*
X81615534Y-98208103D01*
X81590548Y-98238548D01*
X81560103Y-98263534D01*
X81525367Y-98282101D01*
X81487674Y-98293535D01*
X81442339Y-98298000D01*
X80355661Y-98298000D01*
X80310326Y-98293535D01*
X80272633Y-98282101D01*
X80237897Y-98263534D01*
X80207452Y-98238548D01*
X80182466Y-98208103D01*
X80163899Y-98173367D01*
X80152465Y-98135674D01*
X80148000Y-98090339D01*
X80148000Y-97253661D01*
X80152465Y-97208326D01*
X80163899Y-97170633D01*
X80182466Y-97135897D01*
X80207452Y-97105452D01*
X80237897Y-97080466D01*
X80272633Y-97061899D01*
X80310326Y-97050465D01*
X80355661Y-97046000D01*
X81442339Y-97046000D01*
X81487674Y-97050465D01*
X81487674Y-97050465D01*
G37*
G36*
X115340627Y-94548511D02*
G01*
X115361400Y-94550250D01*
X115368327Y-94550250D01*
X115463254Y-94569132D01*
X115466848Y-94569792D01*
X115562230Y-94585874D01*
X115568703Y-94588335D01*
X115588728Y-94594091D01*
X115595527Y-94595443D01*
X115657914Y-94621284D01*
X115684943Y-94632480D01*
X115688344Y-94633831D01*
X115778755Y-94668211D01*
X115784627Y-94671890D01*
X115803136Y-94681437D01*
X115809545Y-94684092D01*
X115890063Y-94737892D01*
X115893054Y-94739828D01*
X115975057Y-94791209D01*
X115980084Y-94795950D01*
X115996396Y-94808941D01*
X116002152Y-94812787D01*
X116070610Y-94881245D01*
X116073189Y-94883749D01*
X116143590Y-94950139D01*
X116147595Y-94955769D01*
X116161059Y-94971694D01*
X116165959Y-94976594D01*
X116209575Y-95041869D01*
X116219744Y-95057089D01*
X116221791Y-95060057D01*
X116277880Y-95138895D01*
X116280714Y-95145208D01*
X116290808Y-95163443D01*
X116294658Y-95169205D01*
X116331720Y-95258680D01*
X116333124Y-95261935D01*
X116372765Y-95350223D01*
X116374315Y-95356975D01*
X116380652Y-95376812D01*
X116383307Y-95383223D01*
X116402192Y-95478167D01*
X116402938Y-95481651D01*
X116424598Y-95576001D01*
X116424598Y-95576004D01*
X116424800Y-95582904D01*
X116427147Y-95603620D01*
X116428500Y-95610424D01*
X116428500Y-95707236D01*
X116428553Y-95710834D01*
X116429688Y-95749527D01*
X116428795Y-95762475D01*
X116428500Y-95771047D01*
X116428500Y-95842076D01*
X116422581Y-95871835D01*
X116422104Y-95874229D01*
X116420000Y-95890000D01*
X116381738Y-96444795D01*
X116352876Y-96615980D01*
X116270538Y-96832505D01*
X116147541Y-97028807D01*
X115988611Y-97197340D01*
X115799855Y-97331630D01*
X115588527Y-97426515D01*
X115362749Y-97478348D01*
X115131198Y-97485139D01*
X115131197Y-97485139D01*
X115085512Y-97477436D01*
X114902770Y-97446626D01*
X114686245Y-97364288D01*
X114489943Y-97241291D01*
X114321410Y-97082361D01*
X114187120Y-96893605D01*
X114092235Y-96682277D01*
X114040402Y-96456499D01*
X114035312Y-96282973D01*
X114076204Y-95690044D01*
X114076500Y-95681446D01*
X114076500Y-95610425D01*
X114081019Y-95587705D01*
X114095388Y-95515469D01*
X114096044Y-95511895D01*
X114101731Y-95478167D01*
X114112124Y-95416520D01*
X114114585Y-95410049D01*
X114120342Y-95390017D01*
X114121693Y-95383224D01*
X114124343Y-95376826D01*
X114158764Y-95293726D01*
X114160053Y-95290480D01*
X114194462Y-95199995D01*
X114198136Y-95194131D01*
X114207687Y-95175615D01*
X114210342Y-95169205D01*
X114264157Y-95088665D01*
X114266077Y-95085699D01*
X114317459Y-95003693D01*
X114322211Y-94998654D01*
X114335189Y-94982357D01*
X114339037Y-94976598D01*
X114407493Y-94908142D01*
X114410046Y-94905512D01*
X114430523Y-94883798D01*
X114476389Y-94835160D01*
X114482021Y-94831153D01*
X114497947Y-94817688D01*
X114502846Y-94812789D01*
X114583324Y-94759016D01*
X114586306Y-94756960D01*
X114665145Y-94700870D01*
X114671455Y-94698037D01*
X114689694Y-94687941D01*
X114695451Y-94684094D01*
X114695454Y-94684093D01*
X114695455Y-94684092D01*
X114784929Y-94647031D01*
X114788187Y-94645625D01*
X114876473Y-94605985D01*
X114883225Y-94604435D01*
X114903062Y-94598098D01*
X114909473Y-94595443D01*
X115004399Y-94576561D01*
X115007946Y-94575801D01*
X115102251Y-94554151D01*
X115104630Y-94554081D01*
X115109165Y-94553948D01*
X115129881Y-94551601D01*
X115136674Y-94550250D01*
X115233459Y-94550250D01*
X115237084Y-94550197D01*
X115333802Y-94547360D01*
X115340627Y-94548511D01*
X115340627Y-94548511D01*
G37*
G36*
X134390627Y-94548511D02*
G01*
X134411400Y-94550250D01*
X134418327Y-94550250D01*
X134513254Y-94569132D01*
X134516848Y-94569792D01*
X134612230Y-94585874D01*
X134618703Y-94588335D01*
X134638728Y-94594091D01*
X134645527Y-94595443D01*
X134707914Y-94621284D01*
X134734943Y-94632480D01*
X134738344Y-94633831D01*
X134828755Y-94668211D01*
X134834627Y-94671890D01*
X134853136Y-94681437D01*
X134859545Y-94684092D01*
X134940063Y-94737892D01*
X134943054Y-94739828D01*
X135025057Y-94791209D01*
X135030084Y-94795950D01*
X135046396Y-94808941D01*
X135052152Y-94812787D01*
X135120610Y-94881245D01*
X135123189Y-94883749D01*
X135193590Y-94950139D01*
X135197595Y-94955769D01*
X135211059Y-94971694D01*
X135215959Y-94976594D01*
X135259575Y-95041869D01*
X135269744Y-95057089D01*
X135271791Y-95060057D01*
X135327880Y-95138895D01*
X135330714Y-95145208D01*
X135340808Y-95163443D01*
X135344658Y-95169205D01*
X135381720Y-95258680D01*
X135383124Y-95261935D01*
X135422765Y-95350223D01*
X135424315Y-95356975D01*
X135430652Y-95376812D01*
X135433307Y-95383223D01*
X135452192Y-95478167D01*
X135452938Y-95481651D01*
X135474598Y-95576001D01*
X135474598Y-95576004D01*
X135474800Y-95582904D01*
X135477147Y-95603620D01*
X135478500Y-95610424D01*
X135478500Y-95707236D01*
X135478553Y-95710834D01*
X135479688Y-95749527D01*
X135478795Y-95762475D01*
X135478500Y-95771047D01*
X135478500Y-95842076D01*
X135472581Y-95871835D01*
X135472104Y-95874229D01*
X135470000Y-95890000D01*
X135431738Y-96444795D01*
X135402876Y-96615980D01*
X135320538Y-96832505D01*
X135197541Y-97028807D01*
X135038611Y-97197340D01*
X134849855Y-97331630D01*
X134638527Y-97426515D01*
X134412749Y-97478348D01*
X134181198Y-97485139D01*
X134181197Y-97485139D01*
X134135512Y-97477436D01*
X133952770Y-97446626D01*
X133736245Y-97364288D01*
X133539943Y-97241291D01*
X133371410Y-97082361D01*
X133237120Y-96893605D01*
X133142235Y-96682277D01*
X133090402Y-96456499D01*
X133085312Y-96282973D01*
X133126204Y-95690044D01*
X133126500Y-95681446D01*
X133126500Y-95610425D01*
X133131019Y-95587705D01*
X133145388Y-95515469D01*
X133146044Y-95511895D01*
X133151731Y-95478167D01*
X133162124Y-95416520D01*
X133164585Y-95410049D01*
X133170342Y-95390017D01*
X133171693Y-95383224D01*
X133174343Y-95376826D01*
X133208764Y-95293726D01*
X133210053Y-95290480D01*
X133244462Y-95199995D01*
X133248136Y-95194131D01*
X133257687Y-95175615D01*
X133260342Y-95169205D01*
X133314157Y-95088665D01*
X133316077Y-95085699D01*
X133367459Y-95003693D01*
X133372211Y-94998654D01*
X133385189Y-94982357D01*
X133389037Y-94976598D01*
X133457493Y-94908142D01*
X133460046Y-94905512D01*
X133480523Y-94883798D01*
X133526389Y-94835160D01*
X133532021Y-94831153D01*
X133547947Y-94817688D01*
X133552846Y-94812789D01*
X133633324Y-94759016D01*
X133636306Y-94756960D01*
X133715145Y-94700870D01*
X133721455Y-94698037D01*
X133739694Y-94687941D01*
X133745451Y-94684094D01*
X133745454Y-94684093D01*
X133745455Y-94684092D01*
X133834929Y-94647031D01*
X133838187Y-94645625D01*
X133926473Y-94605985D01*
X133933225Y-94604435D01*
X133953062Y-94598098D01*
X133959473Y-94595443D01*
X134054399Y-94576561D01*
X134057946Y-94575801D01*
X134152251Y-94554151D01*
X134154630Y-94554081D01*
X134159165Y-94553948D01*
X134179881Y-94551601D01*
X134186674Y-94550250D01*
X134283459Y-94550250D01*
X134287084Y-94550197D01*
X134383802Y-94547360D01*
X134390627Y-94548511D01*
X134390627Y-94548511D01*
G37*
G36*
X100787468Y-95556565D02*
G01*
X100826138Y-95568296D01*
X100861777Y-95587346D01*
X100893017Y-95612983D01*
X100918654Y-95644223D01*
X100937704Y-95679862D01*
X100949435Y-95718532D01*
X100954000Y-95764888D01*
X100954000Y-96416112D01*
X100949435Y-96462468D01*
X100937704Y-96501138D01*
X100918654Y-96536777D01*
X100893017Y-96568017D01*
X100861777Y-96593654D01*
X100826138Y-96612704D01*
X100787468Y-96624435D01*
X100741112Y-96629000D01*
X99664888Y-96629000D01*
X99618532Y-96624435D01*
X99579862Y-96612704D01*
X99544223Y-96593654D01*
X99512983Y-96568017D01*
X99487346Y-96536777D01*
X99468296Y-96501138D01*
X99456565Y-96462468D01*
X99452000Y-96416112D01*
X99452000Y-95764888D01*
X99456565Y-95718532D01*
X99468296Y-95679862D01*
X99487346Y-95644223D01*
X99512983Y-95612983D01*
X99544223Y-95587346D01*
X99579862Y-95568296D01*
X99618532Y-95556565D01*
X99664888Y-95552000D01*
X100741112Y-95552000D01*
X100787468Y-95556565D01*
X100787468Y-95556565D01*
G37*
G36*
X96988500Y-96401000D02*
G01*
X95386500Y-96401000D01*
X95386500Y-87749000D01*
X96988500Y-87749000D01*
X96988500Y-96401000D01*
X96988500Y-96401000D01*
G37*
G36*
X85588500Y-96401000D02*
G01*
X83986500Y-96401000D01*
X83986500Y-87749000D01*
X85588500Y-87749000D01*
X85588500Y-96401000D01*
X85588500Y-96401000D01*
G37*
G36*
X81487674Y-95000465D02*
G01*
X81525367Y-95011899D01*
X81560103Y-95030466D01*
X81590548Y-95055452D01*
X81615534Y-95085897D01*
X81634101Y-95120633D01*
X81645535Y-95158326D01*
X81650000Y-95203661D01*
X81650000Y-96040339D01*
X81645535Y-96085674D01*
X81634101Y-96123367D01*
X81615534Y-96158103D01*
X81590548Y-96188548D01*
X81560103Y-96213534D01*
X81525367Y-96232101D01*
X81487674Y-96243535D01*
X81442339Y-96248000D01*
X80355661Y-96248000D01*
X80310326Y-96243535D01*
X80272633Y-96232101D01*
X80237897Y-96213534D01*
X80207452Y-96188548D01*
X80182466Y-96158103D01*
X80163899Y-96123367D01*
X80152465Y-96085674D01*
X80148000Y-96040339D01*
X80148000Y-95203661D01*
X80152465Y-95158326D01*
X80163899Y-95120633D01*
X80182466Y-95085897D01*
X80207452Y-95055452D01*
X80237897Y-95030466D01*
X80272633Y-95011899D01*
X80310326Y-95000465D01*
X80355661Y-94996000D01*
X81442339Y-94996000D01*
X81487674Y-95000465D01*
X81487674Y-95000465D01*
G37*
G36*
X81648424Y-90947465D02*
G01*
X81686117Y-90958899D01*
X81720853Y-90977466D01*
X81751298Y-91002452D01*
X81776284Y-91032897D01*
X81794851Y-91067633D01*
X81806285Y-91105326D01*
X81810750Y-91150661D01*
X81810750Y-92237339D01*
X81806285Y-92282674D01*
X81794851Y-92320367D01*
X81776284Y-92355103D01*
X81751298Y-92385548D01*
X81720853Y-92410534D01*
X81686117Y-92429101D01*
X81648424Y-92440535D01*
X81603089Y-92445000D01*
X80766411Y-92445000D01*
X80721076Y-92440535D01*
X80683383Y-92429101D01*
X80648647Y-92410534D01*
X80618202Y-92385548D01*
X80593216Y-92355103D01*
X80574649Y-92320367D01*
X80563215Y-92282674D01*
X80558750Y-92237339D01*
X80558750Y-91150661D01*
X80563215Y-91105326D01*
X80574649Y-91067633D01*
X80593216Y-91032897D01*
X80618202Y-91002452D01*
X80648647Y-90977466D01*
X80683383Y-90958899D01*
X80721076Y-90947465D01*
X80766411Y-90943000D01*
X81603089Y-90943000D01*
X81648424Y-90947465D01*
X81648424Y-90947465D01*
G37*
G36*
X79598424Y-90947465D02*
G01*
X79636117Y-90958899D01*
X79670853Y-90977466D01*
X79701298Y-91002452D01*
X79726284Y-91032897D01*
X79744851Y-91067633D01*
X79756285Y-91105326D01*
X79760750Y-91150661D01*
X79760750Y-92237339D01*
X79756285Y-92282674D01*
X79744851Y-92320367D01*
X79726284Y-92355103D01*
X79701298Y-92385548D01*
X79670853Y-92410534D01*
X79636117Y-92429101D01*
X79598424Y-92440535D01*
X79553089Y-92445000D01*
X78716411Y-92445000D01*
X78671076Y-92440535D01*
X78633383Y-92429101D01*
X78598647Y-92410534D01*
X78568202Y-92385548D01*
X78543216Y-92355103D01*
X78524649Y-92320367D01*
X78513215Y-92282674D01*
X78508750Y-92237339D01*
X78508750Y-91150661D01*
X78513215Y-91105326D01*
X78524649Y-91067633D01*
X78543216Y-91032897D01*
X78568202Y-91002452D01*
X78598647Y-90977466D01*
X78633383Y-90958899D01*
X78671076Y-90947465D01*
X78716411Y-90943000D01*
X79553089Y-90943000D01*
X79598424Y-90947465D01*
X79598424Y-90947465D01*
G37*
G36*
X69348604Y-89882347D02*
G01*
X69385144Y-89893432D01*
X69418821Y-89911433D01*
X69448341Y-89935659D01*
X69472567Y-89965179D01*
X69490568Y-89998856D01*
X69501653Y-90035396D01*
X69506000Y-90079538D01*
X69506000Y-91028462D01*
X69501653Y-91072604D01*
X69490568Y-91109144D01*
X69472567Y-91142821D01*
X69448341Y-91172341D01*
X69418821Y-91196567D01*
X69385144Y-91214568D01*
X69348604Y-91225653D01*
X69304462Y-91230000D01*
X67855538Y-91230000D01*
X67811396Y-91225653D01*
X67774856Y-91214568D01*
X67741179Y-91196567D01*
X67711659Y-91172341D01*
X67687433Y-91142821D01*
X67669432Y-91109144D01*
X67658347Y-91072604D01*
X67654000Y-91028462D01*
X67654000Y-90079538D01*
X67658347Y-90035396D01*
X67669432Y-89998856D01*
X67687433Y-89965179D01*
X67711659Y-89935659D01*
X67741179Y-89911433D01*
X67774856Y-89893432D01*
X67811396Y-89882347D01*
X67855538Y-89878000D01*
X69304462Y-89878000D01*
X69348604Y-89882347D01*
X69348604Y-89882347D01*
G37*
G36*
X100744924Y-88509715D02*
G01*
X100782617Y-88521149D01*
X100817353Y-88539716D01*
X100847798Y-88564702D01*
X100872784Y-88595147D01*
X100891351Y-88629883D01*
X100902785Y-88667576D01*
X100907250Y-88712911D01*
X100907250Y-89549589D01*
X100902785Y-89594924D01*
X100891351Y-89632617D01*
X100872784Y-89667353D01*
X100847798Y-89697798D01*
X100817353Y-89722784D01*
X100782617Y-89741351D01*
X100744924Y-89752785D01*
X100699589Y-89757250D01*
X99612911Y-89757250D01*
X99567576Y-89752785D01*
X99529883Y-89741351D01*
X99495147Y-89722784D01*
X99464702Y-89697798D01*
X99439716Y-89667353D01*
X99421149Y-89632617D01*
X99409715Y-89594924D01*
X99405250Y-89549589D01*
X99405250Y-88712911D01*
X99409715Y-88667576D01*
X99421149Y-88629883D01*
X99439716Y-88595147D01*
X99464702Y-88564702D01*
X99495147Y-88539716D01*
X99529883Y-88521149D01*
X99567576Y-88509715D01*
X99612911Y-88505250D01*
X100699589Y-88505250D01*
X100744924Y-88509715D01*
X100744924Y-88509715D01*
G37*
G36*
X69348604Y-87082347D02*
G01*
X69385144Y-87093432D01*
X69418821Y-87111433D01*
X69448341Y-87135659D01*
X69472567Y-87165179D01*
X69490568Y-87198856D01*
X69501653Y-87235396D01*
X69506000Y-87279538D01*
X69506000Y-88228462D01*
X69501653Y-88272604D01*
X69490568Y-88309144D01*
X69472567Y-88342821D01*
X69448341Y-88372341D01*
X69418821Y-88396567D01*
X69385144Y-88414568D01*
X69348604Y-88425653D01*
X69304462Y-88430000D01*
X67855538Y-88430000D01*
X67811396Y-88425653D01*
X67774856Y-88414568D01*
X67741179Y-88396567D01*
X67711659Y-88372341D01*
X67687433Y-88342821D01*
X67669432Y-88309144D01*
X67658347Y-88272604D01*
X67654000Y-88228462D01*
X67654000Y-87279538D01*
X67658347Y-87235396D01*
X67669432Y-87198856D01*
X67687433Y-87165179D01*
X67711659Y-87135659D01*
X67741179Y-87111433D01*
X67774856Y-87093432D01*
X67811396Y-87082347D01*
X67855538Y-87078000D01*
X69304462Y-87078000D01*
X69348604Y-87082347D01*
X69348604Y-87082347D01*
G37*
G36*
X100744924Y-86459715D02*
G01*
X100782617Y-86471149D01*
X100817353Y-86489716D01*
X100847798Y-86514702D01*
X100872784Y-86545147D01*
X100891351Y-86579883D01*
X100902785Y-86617576D01*
X100907250Y-86662911D01*
X100907250Y-87499589D01*
X100902785Y-87544924D01*
X100891351Y-87582617D01*
X100872784Y-87617353D01*
X100847798Y-87647798D01*
X100817353Y-87672784D01*
X100782617Y-87691351D01*
X100744924Y-87702785D01*
X100699589Y-87707250D01*
X99612911Y-87707250D01*
X99567576Y-87702785D01*
X99529883Y-87691351D01*
X99495147Y-87672784D01*
X99464702Y-87647798D01*
X99439716Y-87617353D01*
X99421149Y-87582617D01*
X99409715Y-87544924D01*
X99405250Y-87499589D01*
X99405250Y-86662911D01*
X99409715Y-86617576D01*
X99421149Y-86579883D01*
X99439716Y-86545147D01*
X99464702Y-86514702D01*
X99495147Y-86489716D01*
X99529883Y-86471149D01*
X99567576Y-86459715D01*
X99612911Y-86455250D01*
X100699589Y-86455250D01*
X100744924Y-86459715D01*
X100744924Y-86459715D01*
G37*
G36*
X94813500Y-87176000D02*
G01*
X86161500Y-87176000D01*
X86161500Y-85574000D01*
X94813500Y-85574000D01*
X94813500Y-87176000D01*
X94813500Y-87176000D01*
G37*
G36*
X83424424Y-83960465D02*
G01*
X83462117Y-83971899D01*
X83496853Y-83990466D01*
X83527298Y-84015452D01*
X83552284Y-84045897D01*
X83570851Y-84080633D01*
X83582285Y-84118326D01*
X83586750Y-84163661D01*
X83586750Y-85000339D01*
X83582285Y-85045674D01*
X83570851Y-85083367D01*
X83552284Y-85118103D01*
X83527298Y-85148548D01*
X83496853Y-85173534D01*
X83462117Y-85192101D01*
X83424424Y-85203535D01*
X83379089Y-85208000D01*
X82292411Y-85208000D01*
X82247076Y-85203535D01*
X82209383Y-85192101D01*
X82174647Y-85173534D01*
X82144202Y-85148548D01*
X82119216Y-85118103D01*
X82100649Y-85083367D01*
X82089215Y-85045674D01*
X82084750Y-85000339D01*
X82084750Y-84163661D01*
X82089215Y-84118326D01*
X82100649Y-84080633D01*
X82119216Y-84045897D01*
X82144202Y-84015452D01*
X82174647Y-83990466D01*
X82209383Y-83971899D01*
X82247076Y-83960465D01*
X82292411Y-83956000D01*
X83379089Y-83956000D01*
X83424424Y-83960465D01*
X83424424Y-83960465D01*
G37*
G36*
X79959468Y-84018065D02*
G01*
X79998138Y-84029796D01*
X80033777Y-84048846D01*
X80065017Y-84074483D01*
X80090654Y-84105723D01*
X80109704Y-84141362D01*
X80121435Y-84180032D01*
X80126000Y-84226388D01*
X80126000Y-84877612D01*
X80121435Y-84923968D01*
X80109704Y-84962638D01*
X80090654Y-84998277D01*
X80065017Y-85029517D01*
X80033777Y-85055154D01*
X79998138Y-85074204D01*
X79959468Y-85085935D01*
X79913112Y-85090500D01*
X78836888Y-85090500D01*
X78790532Y-85085935D01*
X78751862Y-85074204D01*
X78716223Y-85055154D01*
X78684983Y-85029517D01*
X78659346Y-84998277D01*
X78640296Y-84962638D01*
X78628565Y-84923968D01*
X78624000Y-84877612D01*
X78624000Y-84226388D01*
X78628565Y-84180032D01*
X78640296Y-84141362D01*
X78659346Y-84105723D01*
X78684983Y-84074483D01*
X78716223Y-84048846D01*
X78751862Y-84029796D01*
X78790532Y-84018065D01*
X78836888Y-84013500D01*
X79913112Y-84013500D01*
X79959468Y-84018065D01*
X79959468Y-84018065D01*
G37*
G36*
X72974468Y-83891065D02*
G01*
X73013138Y-83902796D01*
X73048777Y-83921846D01*
X73080017Y-83947483D01*
X73105654Y-83978723D01*
X73124704Y-84014362D01*
X73136435Y-84053032D01*
X73141000Y-84099388D01*
X73141000Y-84750612D01*
X73136435Y-84796968D01*
X73124704Y-84835638D01*
X73105654Y-84871277D01*
X73080017Y-84902517D01*
X73048777Y-84928154D01*
X73013138Y-84947204D01*
X72974468Y-84958935D01*
X72928112Y-84963500D01*
X71851888Y-84963500D01*
X71805532Y-84958935D01*
X71766862Y-84947204D01*
X71731223Y-84928154D01*
X71699983Y-84902517D01*
X71674346Y-84871277D01*
X71655296Y-84835638D01*
X71643565Y-84796968D01*
X71639000Y-84750612D01*
X71639000Y-84099388D01*
X71643565Y-84053032D01*
X71655296Y-84014362D01*
X71674346Y-83978723D01*
X71699983Y-83947483D01*
X71731223Y-83921846D01*
X71766862Y-83902796D01*
X71805532Y-83891065D01*
X71851888Y-83886500D01*
X72928112Y-83886500D01*
X72974468Y-83891065D01*
X72974468Y-83891065D01*
G37*
G36*
X70053468Y-83891065D02*
G01*
X70092138Y-83902796D01*
X70127777Y-83921846D01*
X70159017Y-83947483D01*
X70184654Y-83978723D01*
X70203704Y-84014362D01*
X70215435Y-84053032D01*
X70220000Y-84099388D01*
X70220000Y-84750612D01*
X70215435Y-84796968D01*
X70203704Y-84835638D01*
X70184654Y-84871277D01*
X70159017Y-84902517D01*
X70127777Y-84928154D01*
X70092138Y-84947204D01*
X70053468Y-84958935D01*
X70007112Y-84963500D01*
X68930888Y-84963500D01*
X68884532Y-84958935D01*
X68845862Y-84947204D01*
X68810223Y-84928154D01*
X68778983Y-84902517D01*
X68753346Y-84871277D01*
X68734296Y-84835638D01*
X68722565Y-84796968D01*
X68718000Y-84750612D01*
X68718000Y-84099388D01*
X68722565Y-84053032D01*
X68734296Y-84014362D01*
X68753346Y-83978723D01*
X68778983Y-83947483D01*
X68810223Y-83921846D01*
X68845862Y-83902796D01*
X68884532Y-83891065D01*
X68930888Y-83886500D01*
X70007112Y-83886500D01*
X70053468Y-83891065D01*
X70053468Y-83891065D01*
G37*
G36*
X121301000Y-83969750D02*
G01*
X119999000Y-83969750D01*
X119999000Y-82967750D01*
X121301000Y-82967750D01*
X121301000Y-83969750D01*
X121301000Y-83969750D01*
G37*
G36*
X140351000Y-83969750D02*
G01*
X139049000Y-83969750D01*
X139049000Y-82967750D01*
X140351000Y-82967750D01*
X140351000Y-83969750D01*
X140351000Y-83969750D01*
G37*
G36*
X132358974Y-79789934D02*
G01*
X132512962Y-79853718D01*
X132731123Y-79944083D01*
X133066048Y-80167873D01*
X133350877Y-80452702D01*
X133574667Y-80787627D01*
X133607062Y-80865836D01*
X133728816Y-81159776D01*
X133807400Y-81554844D01*
X133807400Y-81957656D01*
X133728816Y-82352724D01*
X133677951Y-82475522D01*
X133574667Y-82724873D01*
X133350877Y-83059798D01*
X133066048Y-83344627D01*
X132731123Y-83568417D01*
X132576974Y-83632267D01*
X132358974Y-83722566D01*
X131963906Y-83801150D01*
X131561094Y-83801150D01*
X131166026Y-83722566D01*
X130948026Y-83632267D01*
X130793877Y-83568417D01*
X130458952Y-83344627D01*
X130174123Y-83059798D01*
X129950333Y-82724873D01*
X129847049Y-82475522D01*
X129796184Y-82352724D01*
X129717600Y-81957656D01*
X129717600Y-81554844D01*
X129796184Y-81159776D01*
X129917938Y-80865836D01*
X129950333Y-80787627D01*
X130174123Y-80452702D01*
X130458952Y-80167873D01*
X130793877Y-79944083D01*
X131012038Y-79853718D01*
X131166026Y-79789934D01*
X131561094Y-79711350D01*
X131963906Y-79711350D01*
X132358974Y-79789934D01*
X132358974Y-79789934D01*
G37*
G36*
X113308974Y-79789934D02*
G01*
X113462962Y-79853718D01*
X113681123Y-79944083D01*
X114016048Y-80167873D01*
X114300877Y-80452702D01*
X114524667Y-80787627D01*
X114557062Y-80865836D01*
X114678816Y-81159776D01*
X114757400Y-81554844D01*
X114757400Y-81957656D01*
X114678816Y-82352724D01*
X114627951Y-82475522D01*
X114524667Y-82724873D01*
X114300877Y-83059798D01*
X114016048Y-83344627D01*
X113681123Y-83568417D01*
X113526974Y-83632267D01*
X113308974Y-83722566D01*
X112913906Y-83801150D01*
X112511094Y-83801150D01*
X112116026Y-83722566D01*
X111898026Y-83632267D01*
X111743877Y-83568417D01*
X111408952Y-83344627D01*
X111124123Y-83059798D01*
X110900333Y-82724873D01*
X110797049Y-82475522D01*
X110746184Y-82352724D01*
X110667600Y-81957656D01*
X110667600Y-81554844D01*
X110746184Y-81159776D01*
X110867938Y-80865836D01*
X110900333Y-80787627D01*
X111124123Y-80452702D01*
X111408952Y-80167873D01*
X111743877Y-79944083D01*
X111962038Y-79853718D01*
X112116026Y-79789934D01*
X112511094Y-79711350D01*
X112913906Y-79711350D01*
X113308974Y-79789934D01*
X113308974Y-79789934D01*
G37*
G36*
X79959468Y-82143065D02*
G01*
X79998138Y-82154796D01*
X80033777Y-82173846D01*
X80065017Y-82199483D01*
X80090654Y-82230723D01*
X80109704Y-82266362D01*
X80121435Y-82305032D01*
X80126000Y-82351388D01*
X80126000Y-83002612D01*
X80121435Y-83048968D01*
X80109704Y-83087638D01*
X80090654Y-83123277D01*
X80065017Y-83154517D01*
X80033777Y-83180154D01*
X79998138Y-83199204D01*
X79959468Y-83210935D01*
X79913112Y-83215500D01*
X78836888Y-83215500D01*
X78790532Y-83210935D01*
X78751862Y-83199204D01*
X78716223Y-83180154D01*
X78684983Y-83154517D01*
X78659346Y-83123277D01*
X78640296Y-83087638D01*
X78628565Y-83048968D01*
X78624000Y-83002612D01*
X78624000Y-82351388D01*
X78628565Y-82305032D01*
X78640296Y-82266362D01*
X78659346Y-82230723D01*
X78684983Y-82199483D01*
X78716223Y-82173846D01*
X78751862Y-82154796D01*
X78790532Y-82143065D01*
X78836888Y-82138500D01*
X79913112Y-82138500D01*
X79959468Y-82143065D01*
X79959468Y-82143065D01*
G37*
G36*
X83424424Y-81910465D02*
G01*
X83462117Y-81921899D01*
X83496853Y-81940466D01*
X83527298Y-81965452D01*
X83552284Y-81995897D01*
X83570851Y-82030633D01*
X83582285Y-82068326D01*
X83586750Y-82113661D01*
X83586750Y-82950339D01*
X83582285Y-82995674D01*
X83570851Y-83033367D01*
X83552284Y-83068103D01*
X83527298Y-83098548D01*
X83496853Y-83123534D01*
X83462117Y-83142101D01*
X83424424Y-83153535D01*
X83379089Y-83158000D01*
X82292411Y-83158000D01*
X82247076Y-83153535D01*
X82209383Y-83142101D01*
X82174647Y-83123534D01*
X82144202Y-83098548D01*
X82119216Y-83068103D01*
X82100649Y-83033367D01*
X82089215Y-82995674D01*
X82084750Y-82950339D01*
X82084750Y-82113661D01*
X82089215Y-82068326D01*
X82100649Y-82030633D01*
X82119216Y-81995897D01*
X82144202Y-81965452D01*
X82174647Y-81940466D01*
X82209383Y-81921899D01*
X82247076Y-81910465D01*
X82292411Y-81906000D01*
X83379089Y-81906000D01*
X83424424Y-81910465D01*
X83424424Y-81910465D01*
G37*
G36*
X70053468Y-82016065D02*
G01*
X70092138Y-82027796D01*
X70127777Y-82046846D01*
X70159017Y-82072483D01*
X70184654Y-82103723D01*
X70203704Y-82139362D01*
X70215435Y-82178032D01*
X70220000Y-82224388D01*
X70220000Y-82875612D01*
X70215435Y-82921968D01*
X70203704Y-82960638D01*
X70184654Y-82996277D01*
X70159017Y-83027517D01*
X70127777Y-83053154D01*
X70092138Y-83072204D01*
X70053468Y-83083935D01*
X70007112Y-83088500D01*
X68930888Y-83088500D01*
X68884532Y-83083935D01*
X68845862Y-83072204D01*
X68810223Y-83053154D01*
X68778983Y-83027517D01*
X68753346Y-82996277D01*
X68734296Y-82960638D01*
X68722565Y-82921968D01*
X68718000Y-82875612D01*
X68718000Y-82224388D01*
X68722565Y-82178032D01*
X68734296Y-82139362D01*
X68753346Y-82103723D01*
X68778983Y-82072483D01*
X68810223Y-82046846D01*
X68845862Y-82027796D01*
X68884532Y-82016065D01*
X68930888Y-82011500D01*
X70007112Y-82011500D01*
X70053468Y-82016065D01*
X70053468Y-82016065D01*
G37*
G36*
X72974468Y-82016065D02*
G01*
X73013138Y-82027796D01*
X73048777Y-82046846D01*
X73080017Y-82072483D01*
X73105654Y-82103723D01*
X73124704Y-82139362D01*
X73136435Y-82178032D01*
X73141000Y-82224388D01*
X73141000Y-82875612D01*
X73136435Y-82921968D01*
X73124704Y-82960638D01*
X73105654Y-82996277D01*
X73080017Y-83027517D01*
X73048777Y-83053154D01*
X73013138Y-83072204D01*
X72974468Y-83083935D01*
X72928112Y-83088500D01*
X71851888Y-83088500D01*
X71805532Y-83083935D01*
X71766862Y-83072204D01*
X71731223Y-83053154D01*
X71699983Y-83027517D01*
X71674346Y-82996277D01*
X71655296Y-82960638D01*
X71643565Y-82921968D01*
X71639000Y-82875612D01*
X71639000Y-82224388D01*
X71643565Y-82178032D01*
X71655296Y-82139362D01*
X71674346Y-82103723D01*
X71699983Y-82072483D01*
X71731223Y-82046846D01*
X71766862Y-82027796D01*
X71805532Y-82016065D01*
X71851888Y-82011500D01*
X72928112Y-82011500D01*
X72974468Y-82016065D01*
X72974468Y-82016065D01*
G37*
G36*
X107902604Y-80865835D02*
G01*
X108071126Y-80935639D01*
X108222791Y-81036978D01*
X108351772Y-81165959D01*
X108453111Y-81317624D01*
X108522915Y-81486146D01*
X108558500Y-81665047D01*
X108558500Y-81847453D01*
X108522915Y-82026354D01*
X108453111Y-82194876D01*
X108351772Y-82346541D01*
X108222791Y-82475522D01*
X108071126Y-82576861D01*
X107902604Y-82646665D01*
X107723703Y-82682250D01*
X107541297Y-82682250D01*
X107362396Y-82646665D01*
X107193874Y-82576861D01*
X107042209Y-82475522D01*
X106913228Y-82346541D01*
X106811889Y-82194876D01*
X106742085Y-82026354D01*
X106706500Y-81847453D01*
X106706500Y-81665047D01*
X106742085Y-81486146D01*
X106811889Y-81317624D01*
X106913228Y-81165959D01*
X107042209Y-81036978D01*
X107193874Y-80935639D01*
X107362396Y-80865835D01*
X107541297Y-80830250D01*
X107723703Y-80830250D01*
X107902604Y-80865835D01*
X107902604Y-80865835D01*
G37*
G36*
X118062604Y-80865835D02*
G01*
X118231126Y-80935639D01*
X118382791Y-81036978D01*
X118511772Y-81165959D01*
X118613111Y-81317624D01*
X118682915Y-81486146D01*
X118718500Y-81665047D01*
X118718500Y-81847453D01*
X118682915Y-82026354D01*
X118613111Y-82194876D01*
X118511772Y-82346541D01*
X118382791Y-82475522D01*
X118231126Y-82576861D01*
X118062604Y-82646665D01*
X117883703Y-82682250D01*
X117701297Y-82682250D01*
X117522396Y-82646665D01*
X117353874Y-82576861D01*
X117202209Y-82475522D01*
X117073228Y-82346541D01*
X116971889Y-82194876D01*
X116902085Y-82026354D01*
X116866500Y-81847453D01*
X116866500Y-81665047D01*
X116902085Y-81486146D01*
X116971889Y-81317624D01*
X117073228Y-81165959D01*
X117202209Y-81036978D01*
X117353874Y-80935639D01*
X117522396Y-80865835D01*
X117701297Y-80830250D01*
X117883703Y-80830250D01*
X118062604Y-80865835D01*
X118062604Y-80865835D01*
G37*
G36*
X126952604Y-80865835D02*
G01*
X127121126Y-80935639D01*
X127272791Y-81036978D01*
X127401772Y-81165959D01*
X127503111Y-81317624D01*
X127572915Y-81486146D01*
X127608500Y-81665047D01*
X127608500Y-81847453D01*
X127572915Y-82026354D01*
X127503111Y-82194876D01*
X127401772Y-82346541D01*
X127272791Y-82475522D01*
X127121126Y-82576861D01*
X126952604Y-82646665D01*
X126773703Y-82682250D01*
X126591297Y-82682250D01*
X126412396Y-82646665D01*
X126243874Y-82576861D01*
X126092209Y-82475522D01*
X125963228Y-82346541D01*
X125861889Y-82194876D01*
X125792085Y-82026354D01*
X125756500Y-81847453D01*
X125756500Y-81665047D01*
X125792085Y-81486146D01*
X125861889Y-81317624D01*
X125963228Y-81165959D01*
X126092209Y-81036978D01*
X126243874Y-80935639D01*
X126412396Y-80865835D01*
X126591297Y-80830250D01*
X126773703Y-80830250D01*
X126952604Y-80865835D01*
X126952604Y-80865835D01*
G37*
G36*
X137112604Y-80865835D02*
G01*
X137281126Y-80935639D01*
X137432791Y-81036978D01*
X137561772Y-81165959D01*
X137663111Y-81317624D01*
X137732915Y-81486146D01*
X137768500Y-81665047D01*
X137768500Y-81847453D01*
X137732915Y-82026354D01*
X137663111Y-82194876D01*
X137561772Y-82346541D01*
X137432791Y-82475522D01*
X137281126Y-82576861D01*
X137112604Y-82646665D01*
X136933703Y-82682250D01*
X136751297Y-82682250D01*
X136572396Y-82646665D01*
X136403874Y-82576861D01*
X136252209Y-82475522D01*
X136123228Y-82346541D01*
X136021889Y-82194876D01*
X135952085Y-82026354D01*
X135916500Y-81847453D01*
X135916500Y-81665047D01*
X135952085Y-81486146D01*
X136021889Y-81317624D01*
X136123228Y-81165959D01*
X136252209Y-81036978D01*
X136403874Y-80935639D01*
X136572396Y-80865835D01*
X136751297Y-80830250D01*
X136933703Y-80830250D01*
X137112604Y-80865835D01*
X137112604Y-80865835D01*
G37*
G36*
X86313674Y-79778465D02*
G01*
X86351367Y-79789899D01*
X86386103Y-79808466D01*
X86416548Y-79833452D01*
X86441534Y-79863897D01*
X86460101Y-79898633D01*
X86471535Y-79936326D01*
X86476000Y-79981661D01*
X86476000Y-80818339D01*
X86471535Y-80863674D01*
X86460101Y-80901367D01*
X86441534Y-80936103D01*
X86416548Y-80966548D01*
X86386103Y-80991534D01*
X86351367Y-81010101D01*
X86313674Y-81021535D01*
X86268339Y-81026000D01*
X85181661Y-81026000D01*
X85136326Y-81021535D01*
X85098633Y-81010101D01*
X85063897Y-80991534D01*
X85033452Y-80966548D01*
X85008466Y-80936103D01*
X84989899Y-80901367D01*
X84978465Y-80863674D01*
X84974000Y-80818339D01*
X84974000Y-79981661D01*
X84978465Y-79936326D01*
X84989899Y-79898633D01*
X85008466Y-79863897D01*
X85033452Y-79833452D01*
X85063897Y-79808466D01*
X85098633Y-79789899D01*
X85136326Y-79778465D01*
X85181661Y-79774000D01*
X86268339Y-79774000D01*
X86313674Y-79778465D01*
X86313674Y-79778465D01*
G37*
G36*
X95044924Y-79778465D02*
G01*
X95082617Y-79789899D01*
X95117353Y-79808466D01*
X95147798Y-79833452D01*
X95172784Y-79863897D01*
X95191351Y-79898633D01*
X95202785Y-79936326D01*
X95207250Y-79981661D01*
X95207250Y-80818339D01*
X95202785Y-80863674D01*
X95191351Y-80901367D01*
X95172784Y-80936103D01*
X95147798Y-80966548D01*
X95117353Y-80991534D01*
X95082617Y-81010101D01*
X95044924Y-81021535D01*
X94999589Y-81026000D01*
X93912911Y-81026000D01*
X93867576Y-81021535D01*
X93829883Y-81010101D01*
X93795147Y-80991534D01*
X93764702Y-80966548D01*
X93739716Y-80936103D01*
X93721149Y-80901367D01*
X93709715Y-80863674D01*
X93705250Y-80818339D01*
X93705250Y-79981661D01*
X93709715Y-79936326D01*
X93721149Y-79898633D01*
X93739716Y-79863897D01*
X93764702Y-79833452D01*
X93795147Y-79808466D01*
X93829883Y-79789899D01*
X93867576Y-79778465D01*
X93912911Y-79774000D01*
X94999589Y-79774000D01*
X95044924Y-79778465D01*
X95044924Y-79778465D01*
G37*
G36*
X92032250Y-80819750D02*
G01*
X90530250Y-80819750D01*
X90530250Y-79517750D01*
X92032250Y-79517750D01*
X92032250Y-80819750D01*
X92032250Y-80819750D01*
G37*
G36*
X89832250Y-80819750D02*
G01*
X88330250Y-80819750D01*
X88330250Y-79517750D01*
X89832250Y-79517750D01*
X89832250Y-80819750D01*
X89832250Y-80819750D01*
G37*
G36*
X140351000Y-80669750D02*
G01*
X139049000Y-80669750D01*
X139049000Y-79667750D01*
X140351000Y-79667750D01*
X140351000Y-80669750D01*
X140351000Y-80669750D01*
G37*
G36*
X121301000Y-80669750D02*
G01*
X119999000Y-80669750D01*
X119999000Y-79667750D01*
X121301000Y-79667750D01*
X121301000Y-80669750D01*
X121301000Y-80669750D01*
G37*
G36*
X129285705Y-76580131D02*
G01*
X129291145Y-76580250D01*
X129378328Y-76580250D01*
X129394597Y-76583486D01*
X129413456Y-76585765D01*
X129430032Y-76586496D01*
X129514723Y-76607260D01*
X129520018Y-76608434D01*
X129605527Y-76625443D01*
X129620862Y-76631795D01*
X129638901Y-76637705D01*
X129655021Y-76641657D01*
X129734004Y-76678530D01*
X129738994Y-76680727D01*
X129819545Y-76714092D01*
X129833341Y-76723310D01*
X129849893Y-76732632D01*
X129864926Y-76739650D01*
X129935194Y-76791221D01*
X129939692Y-76794372D01*
X130012156Y-76842791D01*
X130023883Y-76854518D01*
X130038309Y-76866898D01*
X130051679Y-76876711D01*
X130051680Y-76876712D01*
X130110521Y-76940983D01*
X130114329Y-76944964D01*
X130175959Y-77006594D01*
X130185174Y-77020385D01*
X130196896Y-77035328D01*
X130208105Y-77047571D01*
X130253299Y-77122124D01*
X130256246Y-77126751D01*
X130282159Y-77165533D01*
X130304658Y-77199205D01*
X130311005Y-77214527D01*
X130319592Y-77231481D01*
X130328191Y-77245667D01*
X130357978Y-77327618D01*
X130359952Y-77332698D01*
X130393307Y-77413223D01*
X130393307Y-77413224D01*
X130396541Y-77429483D01*
X130401658Y-77447792D01*
X130407325Y-77463384D01*
X130420555Y-77549595D01*
X130421501Y-77554963D01*
X130438500Y-77640423D01*
X130438500Y-77657002D01*
X130439944Y-77675942D01*
X130442463Y-77692354D01*
X130438620Y-77779499D01*
X130438500Y-77784939D01*
X130438500Y-77872076D01*
X130435666Y-77886326D01*
X130435266Y-77888333D01*
X130432988Y-77907191D01*
X130432256Y-77923781D01*
X130411488Y-78008487D01*
X130410312Y-78013787D01*
X130393307Y-78099277D01*
X130386957Y-78114607D01*
X130381049Y-78132643D01*
X130377095Y-78148770D01*
X130340211Y-78227776D01*
X130338011Y-78232773D01*
X130304658Y-78313295D01*
X130295444Y-78327085D01*
X130286122Y-78343637D01*
X130279102Y-78358674D01*
X130227511Y-78428970D01*
X130224366Y-78433460D01*
X130175961Y-78505904D01*
X130118960Y-78562905D01*
X130114311Y-78567813D01*
X129778985Y-78941534D01*
X128789223Y-80044626D01*
X128661179Y-80161852D01*
X128562130Y-80221896D01*
X128463083Y-80281939D01*
X128245366Y-80361073D01*
X128016395Y-80396211D01*
X127784970Y-80386004D01*
X127559981Y-80330843D01*
X127455227Y-80281939D01*
X127350079Y-80232852D01*
X127253338Y-80161852D01*
X127163323Y-80095789D01*
X127069287Y-79993075D01*
X127006898Y-79924929D01*
X126936298Y-79808466D01*
X126886811Y-79726833D01*
X126807677Y-79509116D01*
X126772539Y-79280145D01*
X126782746Y-79048720D01*
X126837907Y-78823731D01*
X126893884Y-78703827D01*
X126935898Y-78613830D01*
X126935900Y-78613827D01*
X127038614Y-78473872D01*
X127707439Y-77728465D01*
X128325287Y-77039871D01*
X128336181Y-77025839D01*
X128349039Y-77006596D01*
X128406073Y-76949562D01*
X128410723Y-76944653D01*
X128425778Y-76927874D01*
X128447201Y-76908261D01*
X128451182Y-76904453D01*
X128512846Y-76842789D01*
X128526643Y-76833570D01*
X128541602Y-76821835D01*
X128553821Y-76810648D01*
X128585885Y-76791211D01*
X128628330Y-76765481D01*
X128632921Y-76762558D01*
X128705455Y-76714092D01*
X128720800Y-76707736D01*
X128737748Y-76699151D01*
X128751916Y-76690562D01*
X128751917Y-76690562D01*
X128751918Y-76690561D01*
X128833812Y-76660795D01*
X128838910Y-76658813D01*
X128919473Y-76625443D01*
X128935752Y-76622205D01*
X128954042Y-76617094D01*
X128969635Y-76611427D01*
X129055800Y-76598204D01*
X129061163Y-76597259D01*
X129146673Y-76580250D01*
X129163266Y-76580250D01*
X129182209Y-76578805D01*
X129198606Y-76576289D01*
X129285705Y-76580131D01*
X129285705Y-76580131D01*
G37*
G36*
X110235705Y-76580131D02*
G01*
X110241145Y-76580250D01*
X110328328Y-76580250D01*
X110344597Y-76583486D01*
X110363456Y-76585765D01*
X110380032Y-76586496D01*
X110464723Y-76607260D01*
X110470018Y-76608434D01*
X110555527Y-76625443D01*
X110570862Y-76631795D01*
X110588901Y-76637705D01*
X110605021Y-76641657D01*
X110684004Y-76678530D01*
X110688994Y-76680727D01*
X110769545Y-76714092D01*
X110783341Y-76723310D01*
X110799893Y-76732632D01*
X110814926Y-76739650D01*
X110885194Y-76791221D01*
X110889692Y-76794372D01*
X110962156Y-76842791D01*
X110973883Y-76854518D01*
X110988309Y-76866898D01*
X111001679Y-76876711D01*
X111001680Y-76876712D01*
X111060521Y-76940983D01*
X111064329Y-76944964D01*
X111125959Y-77006594D01*
X111135174Y-77020385D01*
X111146896Y-77035328D01*
X111158105Y-77047571D01*
X111203299Y-77122124D01*
X111206246Y-77126751D01*
X111232159Y-77165533D01*
X111254658Y-77199205D01*
X111261005Y-77214527D01*
X111269592Y-77231481D01*
X111278191Y-77245667D01*
X111307978Y-77327618D01*
X111309952Y-77332698D01*
X111343307Y-77413223D01*
X111343307Y-77413224D01*
X111346541Y-77429483D01*
X111351658Y-77447792D01*
X111357325Y-77463384D01*
X111370555Y-77549595D01*
X111371501Y-77554963D01*
X111388500Y-77640423D01*
X111388500Y-77657002D01*
X111389944Y-77675942D01*
X111392463Y-77692354D01*
X111388620Y-77779499D01*
X111388500Y-77784939D01*
X111388500Y-77872076D01*
X111385666Y-77886326D01*
X111385266Y-77888333D01*
X111382988Y-77907191D01*
X111382256Y-77923781D01*
X111361488Y-78008487D01*
X111360312Y-78013787D01*
X111343307Y-78099277D01*
X111336957Y-78114607D01*
X111331049Y-78132643D01*
X111327095Y-78148770D01*
X111290211Y-78227776D01*
X111288011Y-78232773D01*
X111254658Y-78313295D01*
X111245444Y-78327085D01*
X111236122Y-78343637D01*
X111229102Y-78358674D01*
X111177511Y-78428970D01*
X111174366Y-78433460D01*
X111125961Y-78505904D01*
X111068960Y-78562905D01*
X111064311Y-78567813D01*
X110728985Y-78941534D01*
X109739223Y-80044626D01*
X109611179Y-80161852D01*
X109512130Y-80221896D01*
X109413083Y-80281939D01*
X109195366Y-80361073D01*
X108966395Y-80396211D01*
X108734970Y-80386004D01*
X108509981Y-80330843D01*
X108405227Y-80281939D01*
X108300079Y-80232852D01*
X108203338Y-80161852D01*
X108113323Y-80095789D01*
X108019287Y-79993075D01*
X107956898Y-79924929D01*
X107886298Y-79808466D01*
X107836811Y-79726833D01*
X107757677Y-79509116D01*
X107722539Y-79280145D01*
X107732746Y-79048720D01*
X107787907Y-78823731D01*
X107843884Y-78703827D01*
X107885898Y-78613830D01*
X107885900Y-78613827D01*
X107988614Y-78473872D01*
X108657439Y-77728465D01*
X109275287Y-77039871D01*
X109286181Y-77025839D01*
X109299039Y-77006596D01*
X109356073Y-76949562D01*
X109360723Y-76944653D01*
X109375778Y-76927874D01*
X109397201Y-76908261D01*
X109401182Y-76904453D01*
X109462846Y-76842789D01*
X109476643Y-76833570D01*
X109491602Y-76821835D01*
X109503821Y-76810648D01*
X109535885Y-76791211D01*
X109578330Y-76765481D01*
X109582921Y-76762558D01*
X109655455Y-76714092D01*
X109670800Y-76707736D01*
X109687748Y-76699151D01*
X109701916Y-76690562D01*
X109701917Y-76690562D01*
X109701918Y-76690561D01*
X109783812Y-76660795D01*
X109788910Y-76658813D01*
X109869473Y-76625443D01*
X109885752Y-76622205D01*
X109904042Y-76617094D01*
X109919635Y-76611427D01*
X110005800Y-76598204D01*
X110011163Y-76597259D01*
X110096673Y-76580250D01*
X110113266Y-76580250D01*
X110132209Y-76578805D01*
X110148606Y-76576289D01*
X110235705Y-76580131D01*
X110235705Y-76580131D01*
G37*
G36*
X67867627Y-77026037D02*
G01*
X68037466Y-77077557D01*
X68193991Y-77161222D01*
X68229729Y-77190552D01*
X68331186Y-77273814D01*
X68379532Y-77332725D01*
X68443778Y-77411009D01*
X68527443Y-77567534D01*
X68578963Y-77737373D01*
X68583105Y-77779431D01*
X68592000Y-77869740D01*
X68592000Y-78958260D01*
X68590253Y-78976000D01*
X68578963Y-79090627D01*
X68527443Y-79260466D01*
X68443778Y-79416991D01*
X68414448Y-79452729D01*
X68331186Y-79554186D01*
X68193989Y-79666779D01*
X68081638Y-79726832D01*
X68037465Y-79750443D01*
X67867626Y-79801963D01*
X67691000Y-79819359D01*
X67514373Y-79801963D01*
X67344534Y-79750443D01*
X67188009Y-79666778D01*
X67152271Y-79637448D01*
X67050814Y-79554186D01*
X66938221Y-79416989D01*
X66854558Y-79260467D01*
X66811872Y-79119750D01*
X66803037Y-79090626D01*
X66796518Y-79024441D01*
X66790000Y-78958259D01*
X66790001Y-77869740D01*
X66798896Y-77779431D01*
X66803038Y-77737373D01*
X66854558Y-77567534D01*
X66938223Y-77411009D01*
X67002469Y-77332725D01*
X67050815Y-77273814D01*
X67152272Y-77190552D01*
X67188010Y-77161222D01*
X67344535Y-77077557D01*
X67514374Y-77026037D01*
X67691000Y-77008641D01*
X67867627Y-77026037D01*
X67867627Y-77026037D01*
G37*
G36*
X75167627Y-77026037D02*
G01*
X75337466Y-77077557D01*
X75493991Y-77161222D01*
X75529729Y-77190552D01*
X75631186Y-77273814D01*
X75679532Y-77332725D01*
X75743778Y-77411009D01*
X75827443Y-77567534D01*
X75878963Y-77737373D01*
X75883105Y-77779431D01*
X75892000Y-77869740D01*
X75892000Y-78958260D01*
X75890253Y-78976000D01*
X75878963Y-79090627D01*
X75827443Y-79260466D01*
X75743778Y-79416991D01*
X75714448Y-79452729D01*
X75631186Y-79554186D01*
X75493989Y-79666779D01*
X75381638Y-79726832D01*
X75337465Y-79750443D01*
X75167626Y-79801963D01*
X74991000Y-79819359D01*
X74814373Y-79801963D01*
X74644534Y-79750443D01*
X74488009Y-79666778D01*
X74452271Y-79637448D01*
X74350814Y-79554186D01*
X74238221Y-79416989D01*
X74154558Y-79260467D01*
X74111872Y-79119750D01*
X74103037Y-79090626D01*
X74096518Y-79024441D01*
X74090000Y-78958259D01*
X74090001Y-77869740D01*
X74098896Y-77779431D01*
X74103038Y-77737373D01*
X74154558Y-77567534D01*
X74238223Y-77411009D01*
X74302469Y-77332725D01*
X74350815Y-77273814D01*
X74452272Y-77190552D01*
X74488010Y-77161222D01*
X74644535Y-77077557D01*
X74814374Y-77026037D01*
X74991000Y-77008641D01*
X75167627Y-77026037D01*
X75167627Y-77026037D01*
G37*
G36*
X73242000Y-79590000D02*
G01*
X69440000Y-79590000D01*
X69440000Y-77238000D01*
X73242000Y-77238000D01*
X73242000Y-79590000D01*
X73242000Y-79590000D01*
G37*
G36*
X89832250Y-79119750D02*
G01*
X88330250Y-79119750D01*
X88330250Y-77817750D01*
X89832250Y-77817750D01*
X89832250Y-79119750D01*
X89832250Y-79119750D01*
G37*
G36*
X92032250Y-79119750D02*
G01*
X90530250Y-79119750D01*
X90530250Y-77817750D01*
X92032250Y-77817750D01*
X92032250Y-79119750D01*
X92032250Y-79119750D01*
G37*
G36*
X86313674Y-77728465D02*
G01*
X86351367Y-77739899D01*
X86386103Y-77758466D01*
X86416548Y-77783452D01*
X86441534Y-77813897D01*
X86460101Y-77848633D01*
X86471535Y-77886326D01*
X86476000Y-77931661D01*
X86476000Y-78768339D01*
X86471535Y-78813674D01*
X86460101Y-78851367D01*
X86441534Y-78886103D01*
X86416548Y-78916548D01*
X86386103Y-78941534D01*
X86351367Y-78960101D01*
X86313674Y-78971535D01*
X86268339Y-78976000D01*
X85181661Y-78976000D01*
X85136326Y-78971535D01*
X85098633Y-78960101D01*
X85063897Y-78941534D01*
X85033452Y-78916548D01*
X85008466Y-78886103D01*
X84989899Y-78851367D01*
X84978465Y-78813674D01*
X84974000Y-78768339D01*
X84974000Y-77931661D01*
X84978465Y-77886326D01*
X84989899Y-77848633D01*
X85008466Y-77813897D01*
X85033452Y-77783452D01*
X85063897Y-77758466D01*
X85098633Y-77739899D01*
X85136326Y-77728465D01*
X85181661Y-77724000D01*
X86268339Y-77724000D01*
X86313674Y-77728465D01*
X86313674Y-77728465D01*
G37*
G36*
X95044924Y-77728465D02*
G01*
X95082617Y-77739899D01*
X95117353Y-77758466D01*
X95147798Y-77783452D01*
X95172784Y-77813897D01*
X95191351Y-77848633D01*
X95202785Y-77886326D01*
X95207250Y-77931661D01*
X95207250Y-78768339D01*
X95202785Y-78813674D01*
X95191351Y-78851367D01*
X95172784Y-78886103D01*
X95147798Y-78916548D01*
X95117353Y-78941534D01*
X95082617Y-78960101D01*
X95044924Y-78971535D01*
X94999589Y-78976000D01*
X93912911Y-78976000D01*
X93867576Y-78971535D01*
X93829883Y-78960101D01*
X93795147Y-78941534D01*
X93764702Y-78916548D01*
X93739716Y-78886103D01*
X93721149Y-78851367D01*
X93709715Y-78813674D01*
X93705250Y-78768339D01*
X93705250Y-77931661D01*
X93709715Y-77886326D01*
X93721149Y-77848633D01*
X93739716Y-77813897D01*
X93764702Y-77783452D01*
X93795147Y-77758466D01*
X93829883Y-77739899D01*
X93867576Y-77728465D01*
X93912911Y-77724000D01*
X94999589Y-77724000D01*
X95044924Y-77728465D01*
X95044924Y-77728465D01*
G37*
G36*
X134390627Y-75498511D02*
G01*
X134411400Y-75500250D01*
X134418327Y-75500250D01*
X134513254Y-75519132D01*
X134516848Y-75519792D01*
X134612230Y-75535874D01*
X134618703Y-75538335D01*
X134638728Y-75544091D01*
X134645527Y-75545443D01*
X134707914Y-75571284D01*
X134734943Y-75582480D01*
X134738344Y-75583831D01*
X134828755Y-75618211D01*
X134834627Y-75621890D01*
X134853136Y-75631437D01*
X134859545Y-75634092D01*
X134940063Y-75687892D01*
X134943054Y-75689828D01*
X135025057Y-75741209D01*
X135030084Y-75745950D01*
X135046396Y-75758941D01*
X135052152Y-75762787D01*
X135120610Y-75831245D01*
X135123189Y-75833749D01*
X135193590Y-75900139D01*
X135197595Y-75905769D01*
X135211059Y-75921694D01*
X135215959Y-75926594D01*
X135269744Y-76007089D01*
X135271791Y-76010057D01*
X135327880Y-76088895D01*
X135330714Y-76095208D01*
X135340808Y-76113443D01*
X135344658Y-76119205D01*
X135381720Y-76208680D01*
X135383124Y-76211935D01*
X135422765Y-76300223D01*
X135424315Y-76306975D01*
X135430652Y-76326812D01*
X135433307Y-76333223D01*
X135452192Y-76428167D01*
X135452938Y-76431651D01*
X135474598Y-76526001D01*
X135474598Y-76526004D01*
X135474800Y-76532904D01*
X135477147Y-76553620D01*
X135478500Y-76560424D01*
X135478500Y-76657236D01*
X135478553Y-76660834D01*
X135479688Y-76699527D01*
X135478795Y-76712475D01*
X135478500Y-76721047D01*
X135478500Y-76792076D01*
X135472581Y-76821835D01*
X135472104Y-76824229D01*
X135470000Y-76840000D01*
X135431738Y-77394795D01*
X135402876Y-77565980D01*
X135320538Y-77782505D01*
X135197541Y-77978807D01*
X135038611Y-78147340D01*
X134849855Y-78281630D01*
X134638527Y-78376515D01*
X134412749Y-78428348D01*
X134181198Y-78435139D01*
X134181197Y-78435139D01*
X134135512Y-78427436D01*
X133952770Y-78396626D01*
X133736245Y-78314288D01*
X133539943Y-78191291D01*
X133371410Y-78032361D01*
X133237120Y-77843605D01*
X133142235Y-77632277D01*
X133090402Y-77406499D01*
X133085312Y-77232973D01*
X133126204Y-76640044D01*
X133126500Y-76631446D01*
X133126500Y-76560425D01*
X133145382Y-76465500D01*
X133146044Y-76461895D01*
X133151731Y-76428167D01*
X133162124Y-76366520D01*
X133164585Y-76360049D01*
X133170342Y-76340017D01*
X133171693Y-76333224D01*
X133174343Y-76326826D01*
X133208764Y-76243726D01*
X133210053Y-76240480D01*
X133244462Y-76149995D01*
X133248136Y-76144131D01*
X133257687Y-76125615D01*
X133260342Y-76119205D01*
X133314157Y-76038665D01*
X133316077Y-76035699D01*
X133367459Y-75953693D01*
X133372211Y-75948654D01*
X133385189Y-75932357D01*
X133389037Y-75926598D01*
X133457493Y-75858142D01*
X133460046Y-75855512D01*
X133480523Y-75833798D01*
X133526389Y-75785160D01*
X133532021Y-75781153D01*
X133547947Y-75767688D01*
X133552846Y-75762789D01*
X133633324Y-75709016D01*
X133636306Y-75706960D01*
X133715145Y-75650870D01*
X133721455Y-75648037D01*
X133739694Y-75637941D01*
X133745451Y-75634094D01*
X133745454Y-75634093D01*
X133745455Y-75634092D01*
X133834929Y-75597031D01*
X133838187Y-75595625D01*
X133926473Y-75555985D01*
X133933225Y-75554435D01*
X133953062Y-75548098D01*
X133959473Y-75545443D01*
X134054399Y-75526561D01*
X134057946Y-75525801D01*
X134152251Y-75504151D01*
X134154630Y-75504081D01*
X134159165Y-75503948D01*
X134179881Y-75501601D01*
X134186674Y-75500250D01*
X134283459Y-75500250D01*
X134287084Y-75500197D01*
X134383802Y-75497360D01*
X134390627Y-75498511D01*
X134390627Y-75498511D01*
G37*
G36*
X115340627Y-75498511D02*
G01*
X115361400Y-75500250D01*
X115368327Y-75500250D01*
X115463254Y-75519132D01*
X115466848Y-75519792D01*
X115562230Y-75535874D01*
X115568703Y-75538335D01*
X115588728Y-75544091D01*
X115595527Y-75545443D01*
X115657914Y-75571284D01*
X115684943Y-75582480D01*
X115688344Y-75583831D01*
X115778755Y-75618211D01*
X115784627Y-75621890D01*
X115803136Y-75631437D01*
X115809545Y-75634092D01*
X115890063Y-75687892D01*
X115893054Y-75689828D01*
X115975057Y-75741209D01*
X115980084Y-75745950D01*
X115996396Y-75758941D01*
X116002152Y-75762787D01*
X116070610Y-75831245D01*
X116073189Y-75833749D01*
X116143590Y-75900139D01*
X116147595Y-75905769D01*
X116161059Y-75921694D01*
X116165959Y-75926594D01*
X116219744Y-76007089D01*
X116221791Y-76010057D01*
X116277880Y-76088895D01*
X116280714Y-76095208D01*
X116290808Y-76113443D01*
X116294658Y-76119205D01*
X116331720Y-76208680D01*
X116333124Y-76211935D01*
X116372765Y-76300223D01*
X116374315Y-76306975D01*
X116380652Y-76326812D01*
X116383307Y-76333223D01*
X116402192Y-76428167D01*
X116402938Y-76431651D01*
X116424598Y-76526001D01*
X116424598Y-76526004D01*
X116424800Y-76532904D01*
X116427147Y-76553620D01*
X116428500Y-76560424D01*
X116428500Y-76657236D01*
X116428553Y-76660834D01*
X116429688Y-76699527D01*
X116428795Y-76712475D01*
X116428500Y-76721047D01*
X116428500Y-76792076D01*
X116422581Y-76821835D01*
X116422104Y-76824229D01*
X116420000Y-76840000D01*
X116381738Y-77394795D01*
X116352876Y-77565980D01*
X116270538Y-77782505D01*
X116147541Y-77978807D01*
X115988611Y-78147340D01*
X115799855Y-78281630D01*
X115588527Y-78376515D01*
X115362749Y-78428348D01*
X115131198Y-78435139D01*
X115131197Y-78435139D01*
X115085512Y-78427436D01*
X114902770Y-78396626D01*
X114686245Y-78314288D01*
X114489943Y-78191291D01*
X114321410Y-78032361D01*
X114187120Y-77843605D01*
X114092235Y-77632277D01*
X114040402Y-77406499D01*
X114035312Y-77232973D01*
X114076204Y-76640044D01*
X114076500Y-76631446D01*
X114076500Y-76560425D01*
X114095382Y-76465500D01*
X114096044Y-76461895D01*
X114101731Y-76428167D01*
X114112124Y-76366520D01*
X114114585Y-76360049D01*
X114120342Y-76340017D01*
X114121693Y-76333224D01*
X114124343Y-76326826D01*
X114158764Y-76243726D01*
X114160053Y-76240480D01*
X114194462Y-76149995D01*
X114198136Y-76144131D01*
X114207687Y-76125615D01*
X114210342Y-76119205D01*
X114264157Y-76038665D01*
X114266077Y-76035699D01*
X114317459Y-75953693D01*
X114322211Y-75948654D01*
X114335189Y-75932357D01*
X114339037Y-75926598D01*
X114407493Y-75858142D01*
X114410046Y-75855512D01*
X114430523Y-75833798D01*
X114476389Y-75785160D01*
X114482021Y-75781153D01*
X114497947Y-75767688D01*
X114502846Y-75762789D01*
X114583324Y-75709016D01*
X114586306Y-75706960D01*
X114665145Y-75650870D01*
X114671455Y-75648037D01*
X114689694Y-75637941D01*
X114695451Y-75634094D01*
X114695454Y-75634093D01*
X114695455Y-75634092D01*
X114784929Y-75597031D01*
X114788187Y-75595625D01*
X114876473Y-75555985D01*
X114883225Y-75554435D01*
X114903062Y-75548098D01*
X114909473Y-75545443D01*
X115004399Y-75526561D01*
X115007946Y-75525801D01*
X115102251Y-75504151D01*
X115104630Y-75504081D01*
X115109165Y-75503948D01*
X115129881Y-75501601D01*
X115136674Y-75500250D01*
X115233459Y-75500250D01*
X115237084Y-75500197D01*
X115333802Y-75497360D01*
X115340627Y-75498511D01*
X115340627Y-75498511D01*
G37*
G36*
X75167627Y-72526037D02*
G01*
X75337466Y-72577557D01*
X75493991Y-72661222D01*
X75529729Y-72690552D01*
X75631186Y-72773814D01*
X75714448Y-72875271D01*
X75743778Y-72911009D01*
X75827443Y-73067534D01*
X75878963Y-73237373D01*
X75892000Y-73369742D01*
X75892000Y-74458258D01*
X75878963Y-74590627D01*
X75827443Y-74760466D01*
X75743778Y-74916991D01*
X75714448Y-74952729D01*
X75631186Y-75054186D01*
X75493989Y-75166779D01*
X75337467Y-75250442D01*
X75337465Y-75250443D01*
X75167626Y-75301963D01*
X74991000Y-75319359D01*
X74814373Y-75301963D01*
X74644534Y-75250443D01*
X74488009Y-75166778D01*
X74452271Y-75137448D01*
X74350814Y-75054186D01*
X74238221Y-74916989D01*
X74154558Y-74760467D01*
X74154557Y-74760465D01*
X74103037Y-74590626D01*
X74090000Y-74458257D01*
X74090001Y-73369742D01*
X74103038Y-73237373D01*
X74154558Y-73067534D01*
X74238223Y-72911009D01*
X74267553Y-72875271D01*
X74350815Y-72773814D01*
X74452272Y-72690552D01*
X74488010Y-72661222D01*
X74644535Y-72577557D01*
X74814374Y-72526037D01*
X74991000Y-72508641D01*
X75167627Y-72526037D01*
X75167627Y-72526037D01*
G37*
G36*
X67867627Y-72526037D02*
G01*
X68037466Y-72577557D01*
X68193991Y-72661222D01*
X68229729Y-72690552D01*
X68331186Y-72773814D01*
X68414448Y-72875271D01*
X68443778Y-72911009D01*
X68527443Y-73067534D01*
X68578963Y-73237373D01*
X68592000Y-73369742D01*
X68592000Y-74458258D01*
X68578963Y-74590627D01*
X68527443Y-74760466D01*
X68443778Y-74916991D01*
X68414448Y-74952729D01*
X68331186Y-75054186D01*
X68193989Y-75166779D01*
X68037467Y-75250442D01*
X68037465Y-75250443D01*
X67867626Y-75301963D01*
X67691000Y-75319359D01*
X67514373Y-75301963D01*
X67344534Y-75250443D01*
X67188009Y-75166778D01*
X67152271Y-75137448D01*
X67050814Y-75054186D01*
X66938221Y-74916989D01*
X66854558Y-74760467D01*
X66854557Y-74760465D01*
X66803037Y-74590626D01*
X66790000Y-74458257D01*
X66790001Y-73369742D01*
X66803038Y-73237373D01*
X66854558Y-73067534D01*
X66938223Y-72911009D01*
X66967553Y-72875271D01*
X67050815Y-72773814D01*
X67152272Y-72690552D01*
X67188010Y-72661222D01*
X67344535Y-72577557D01*
X67514374Y-72526037D01*
X67691000Y-72508641D01*
X67867627Y-72526037D01*
X67867627Y-72526037D01*
G37*
M02*
