G04 #@! TF.GenerationSoftware,KiCad,Pcbnew,(5.1.4-0-10_14)*
G04 #@! TF.CreationDate,2019-10-06T23:39:38+09:00*
G04 #@! TF.ProjectId,dombrick45,646f6d62-7269-4636-9b34-352e6b696361,rev?*
G04 #@! TF.SameCoordinates,Original*
G04 #@! TF.FileFunction,Legend,Top*
G04 #@! TF.FilePolarity,Positive*
%FSLAX46Y46*%
G04 Gerber Fmt 4.6, Leading zero omitted, Abs format (unit mm)*
G04 Created by KiCad (PCBNEW (5.1.4-0-10_14)) date 2019-10-06 23:39:38*
%MOMM*%
%LPD*%
G04 APERTURE LIST*
%ADD10C,0.150000*%
%ADD11O,1.802000X2.802000*%
%ADD12C,1.852000*%
%ADD13C,4.089800*%
G04 APERTURE END LIST*
D10*
X66557142Y-108783380D02*
X66557142Y-107783380D01*
X66795238Y-107783380D01*
X66938095Y-107831000D01*
X67033333Y-107926238D01*
X67080952Y-108021476D01*
X67128571Y-108211952D01*
X67128571Y-108354809D01*
X67080952Y-108545285D01*
X67033333Y-108640523D01*
X66938095Y-108735761D01*
X66795238Y-108783380D01*
X66557142Y-108783380D01*
X67700000Y-108783380D02*
X67604761Y-108735761D01*
X67557142Y-108688142D01*
X67509523Y-108592904D01*
X67509523Y-108307190D01*
X67557142Y-108211952D01*
X67604761Y-108164333D01*
X67700000Y-108116714D01*
X67842857Y-108116714D01*
X67938095Y-108164333D01*
X67985714Y-108211952D01*
X68033333Y-108307190D01*
X68033333Y-108592904D01*
X67985714Y-108688142D01*
X67938095Y-108735761D01*
X67842857Y-108783380D01*
X67700000Y-108783380D01*
X68461904Y-108783380D02*
X68461904Y-108116714D01*
X68461904Y-108211952D02*
X68509523Y-108164333D01*
X68604761Y-108116714D01*
X68747619Y-108116714D01*
X68842857Y-108164333D01*
X68890476Y-108259571D01*
X68890476Y-108783380D01*
X68890476Y-108259571D02*
X68938095Y-108164333D01*
X69033333Y-108116714D01*
X69176190Y-108116714D01*
X69271428Y-108164333D01*
X69319047Y-108259571D01*
X69319047Y-108783380D01*
X69795238Y-108783380D02*
X69795238Y-107783380D01*
X69795238Y-108164333D02*
X69890476Y-108116714D01*
X70080952Y-108116714D01*
X70176190Y-108164333D01*
X70223809Y-108211952D01*
X70271428Y-108307190D01*
X70271428Y-108592904D01*
X70223809Y-108688142D01*
X70176190Y-108735761D01*
X70080952Y-108783380D01*
X69890476Y-108783380D01*
X69795238Y-108735761D01*
X70700000Y-108783380D02*
X70700000Y-108116714D01*
X70700000Y-108307190D02*
X70747619Y-108211952D01*
X70795238Y-108164333D01*
X70890476Y-108116714D01*
X70985714Y-108116714D01*
X71319047Y-108783380D02*
X71319047Y-108116714D01*
X71319047Y-107783380D02*
X71271428Y-107831000D01*
X71319047Y-107878619D01*
X71366666Y-107831000D01*
X71319047Y-107783380D01*
X71319047Y-107878619D01*
X72223809Y-108735761D02*
X72128571Y-108783380D01*
X71938095Y-108783380D01*
X71842857Y-108735761D01*
X71795238Y-108688142D01*
X71747619Y-108592904D01*
X71747619Y-108307190D01*
X71795238Y-108211952D01*
X71842857Y-108164333D01*
X71938095Y-108116714D01*
X72128571Y-108116714D01*
X72223809Y-108164333D01*
X72652380Y-108783380D02*
X72652380Y-107783380D01*
X72747619Y-108402428D02*
X73033333Y-108783380D01*
X73033333Y-108116714D02*
X72652380Y-108497666D01*
X73890476Y-108116714D02*
X73890476Y-108783380D01*
X73652380Y-107735761D02*
X73414285Y-108450047D01*
X74033333Y-108450047D01*
X74890476Y-107783380D02*
X74414285Y-107783380D01*
X74366666Y-108259571D01*
X74414285Y-108211952D01*
X74509523Y-108164333D01*
X74747619Y-108164333D01*
X74842857Y-108211952D01*
X74890476Y-108259571D01*
X74938095Y-108354809D01*
X74938095Y-108592904D01*
X74890476Y-108688142D01*
X74842857Y-108735761D01*
X74747619Y-108783380D01*
X74509523Y-108783380D01*
X74414285Y-108735761D01*
X74366666Y-108688142D01*
X76080952Y-108735761D02*
X76176190Y-108783380D01*
X76366666Y-108783380D01*
X76461904Y-108735761D01*
X76509523Y-108640523D01*
X76509523Y-108592904D01*
X76461904Y-108497666D01*
X76366666Y-108450047D01*
X76223809Y-108450047D01*
X76128571Y-108402428D01*
X76080952Y-108307190D01*
X76080952Y-108259571D01*
X76128571Y-108164333D01*
X76223809Y-108116714D01*
X76366666Y-108116714D01*
X76461904Y-108164333D01*
X76795238Y-108116714D02*
X77176190Y-108116714D01*
X76938095Y-107783380D02*
X76938095Y-108640523D01*
X76985714Y-108735761D01*
X77080952Y-108783380D01*
X77176190Y-108783380D01*
X77938095Y-108783380D02*
X77938095Y-108259571D01*
X77890476Y-108164333D01*
X77795238Y-108116714D01*
X77604761Y-108116714D01*
X77509523Y-108164333D01*
X77938095Y-108735761D02*
X77842857Y-108783380D01*
X77604761Y-108783380D01*
X77509523Y-108735761D01*
X77461904Y-108640523D01*
X77461904Y-108545285D01*
X77509523Y-108450047D01*
X77604761Y-108402428D01*
X77842857Y-108402428D01*
X77938095Y-108354809D01*
X78414285Y-108783380D02*
X78414285Y-108116714D01*
X78414285Y-108307190D02*
X78461904Y-108211952D01*
X78509523Y-108164333D01*
X78604761Y-108116714D01*
X78700000Y-108116714D01*
X78890476Y-108116714D02*
X79271428Y-108116714D01*
X79033333Y-107783380D02*
X79033333Y-108640523D01*
X79080952Y-108735761D01*
X79176190Y-108783380D01*
X79271428Y-108783380D01*
X79557142Y-108735761D02*
X79652380Y-108783380D01*
X79842857Y-108783380D01*
X79938095Y-108735761D01*
X79985714Y-108640523D01*
X79985714Y-108592904D01*
X79938095Y-108497666D01*
X79842857Y-108450047D01*
X79700000Y-108450047D01*
X79604761Y-108402428D01*
X79557142Y-108307190D01*
X79557142Y-108259571D01*
X79604761Y-108164333D01*
X79700000Y-108116714D01*
X79842857Y-108116714D01*
X79938095Y-108164333D01*
X81176190Y-108783380D02*
X81176190Y-107783380D01*
X81604761Y-108783380D02*
X81604761Y-108259571D01*
X81557142Y-108164333D01*
X81461904Y-108116714D01*
X81319047Y-108116714D01*
X81223809Y-108164333D01*
X81176190Y-108211952D01*
X82461904Y-108735761D02*
X82366666Y-108783380D01*
X82176190Y-108783380D01*
X82080952Y-108735761D01*
X82033333Y-108640523D01*
X82033333Y-108259571D01*
X82080952Y-108164333D01*
X82176190Y-108116714D01*
X82366666Y-108116714D01*
X82461904Y-108164333D01*
X82509523Y-108259571D01*
X82509523Y-108354809D01*
X82033333Y-108450047D01*
X82938095Y-108783380D02*
X82938095Y-108116714D01*
X82938095Y-108307190D02*
X82985714Y-108211952D01*
X83033333Y-108164333D01*
X83128571Y-108116714D01*
X83223809Y-108116714D01*
X83938095Y-108735761D02*
X83842857Y-108783380D01*
X83652380Y-108783380D01*
X83557142Y-108735761D01*
X83509523Y-108640523D01*
X83509523Y-108259571D01*
X83557142Y-108164333D01*
X83652380Y-108116714D01*
X83842857Y-108116714D01*
X83938095Y-108164333D01*
X83985714Y-108259571D01*
X83985714Y-108354809D01*
X83509523Y-108450047D01*
X84414285Y-108688142D02*
X84461904Y-108735761D01*
X84414285Y-108783380D01*
X84366666Y-108735761D01*
X84414285Y-108688142D01*
X84414285Y-108783380D01*
X84890476Y-108688142D02*
X84938095Y-108735761D01*
X84890476Y-108783380D01*
X84842857Y-108735761D01*
X84890476Y-108688142D01*
X84890476Y-108783380D01*
X85366666Y-108688142D02*
X85414285Y-108735761D01*
X85366666Y-108783380D01*
X85319047Y-108735761D01*
X85366666Y-108688142D01*
X85366666Y-108783380D01*
X85842857Y-108688142D02*
X85890476Y-108735761D01*
X85842857Y-108783380D01*
X85795238Y-108735761D01*
X85842857Y-108688142D01*
X85842857Y-108783380D01*
%LPC*%
D11*
X67691000Y-73914000D03*
X74991000Y-73914000D03*
X74991000Y-78414000D03*
X67691000Y-78414000D03*
D12*
X136842500Y-100806250D03*
X126682500Y-100806250D03*
D13*
X131762500Y-100806250D03*
D12*
X117792500Y-100806250D03*
X107632500Y-100806250D03*
D13*
X112712500Y-100806250D03*
D12*
X136842500Y-81756250D03*
X126682500Y-81756250D03*
D13*
X131762500Y-81756250D03*
D12*
X117792500Y-81756250D03*
X107632500Y-81756250D03*
D13*
X112712500Y-81756250D03*
M02*
