M48
; DRILL file {KiCad (5.1.4-0-10_14)} date 2019 October 22, Tuesday 01:35:23
; FORMAT={-:-/ absolute / inch / decimal}
; #@! TF.CreationDate,2019-10-22T01:35:23+09:00
; #@! TF.GenerationSoftware,Kicad,Pcbnew,(5.1.4-0-10_14)
; #@! TF.FileFunction,NonPlated,1,2,NPTH
FMAT,2
INCH
T1C0.0256
T2C0.0689
T3C0.0866
T4C0.1181
T5C0.1200
T6C0.1570
%
G90
G05
T1
X10.6589Y-1.7912
X10.6589Y-2.0188
T2
X8.5187Y-3.875
X8.9187Y-3.875
X1.1125Y-1.625
X8.425Y-3.125
X6.0125Y-1.625
X7.3Y-2.375
X8.05Y-2.375
X8.45Y-2.375
X2.8Y-2.375
X3.2Y-2.375
X5.6125Y-1.625
X7.7Y-2.375
X1.8625Y-1.625
X2.2625Y-1.625
X9.55Y-2.375
X9.95Y-2.375
X2.05Y-3.875
X2.45Y-3.875
X1.5125Y-1.625
X6.2Y-2.375
X5.2625Y-1.625
X9.925Y-3.125
X10.325Y-3.125
X5.8Y-2.375
X4.8625Y-1.625
X7.7687Y-3.875
X8.1687Y-3.875
X3.3625Y-1.625
X7.5125Y-1.625
X3.925Y-3.125
X9.3625Y-1.625
X9.7625Y-1.625
X7.1125Y-1.625
X3.7625Y-1.625
X5.425Y-3.125
X5.825Y-3.125
X1.2063Y-2.375
X1.6062Y-2.375
X6.175Y-3.125
X6.575Y-3.125
X4.3Y-2.375
X4.7Y-2.375
X10.3Y-2.375
X10.7Y-2.375
X4.325Y-3.125
X8.6125Y-3.875
X3.8312Y-3.875
X9.0125Y-3.875
X4.2313Y-3.875
X2.8937Y-3.875
X3.2937Y-3.875
X8.825Y-3.125
X5.05Y-2.375
X5.45Y-2.375
X4.675Y-3.125
X5.075Y-3.125
X1.3Y-3.875
X4.1125Y-1.625
X6.925Y-3.125
X7.675Y-3.125
X1.7Y-3.875
X8.2625Y-1.625
X7.325Y-3.125
X8.075Y-3.125
X7.8625Y-1.625
X2.425Y-3.125
X2.825Y-3.125
X4.5125Y-1.625
X10.5125Y-3.875
X5.7062Y-3.875
X6.1063Y-3.875
X10.1125Y-3.875
X6.55Y-2.375
X6.95Y-2.375
X9.175Y-3.125
X9.575Y-3.125
X1.5813Y-3.125
X1.9812Y-3.125
X3.0113Y-1.625
X8.8Y-2.375
X9.2Y-2.375
X6.7625Y-1.625
X10.2062Y-1.625
X10.6062Y-1.625
X3.95Y-2.375
X2.6113Y-1.625
X2.05Y-2.375
X3.575Y-3.125
X6.3625Y-1.625
X8.6125Y-1.625
X9.0125Y-1.625
X6.2687Y-3.875
X3.175Y-3.125
X6.6688Y-3.875
X3.55Y-2.375
X9.3625Y-3.875
X9.7625Y-3.875
X2.45Y-2.375
X4.7687Y-3.875
X5.1688Y-3.875
T3
X9.395Y-4.125
X1.685Y-1.97
X6.24Y-2.015
X2.67Y-4.09
X10.375Y-3.38
X5.22Y-3.35
X7.305Y-3.63
X9.535Y-1.815
X2.155Y-2.89
T4
X1.35Y-3.775
X1.6Y-3.675
X2.1Y-3.775
X2.35Y-3.675
X6.3687Y-4.075
X6.6187Y-3.975
X10.1625Y-3.775
X10.4125Y-3.675
X5.7562Y-3.775
X6.0062Y-3.675
X8.5687Y-3.775
X8.8187Y-3.675
X9.4125Y-3.775
X9.6625Y-3.675
X4.8187Y-3.775
X5.0687Y-3.675
X3.8813Y-3.775
X4.1312Y-3.675
X3.1938Y-3.675
X7.8187Y-3.775
X8.0687Y-3.675
X2.9438Y-3.775
X8.7125Y-4.075
X8.9625Y-3.975
T5
X5.9988Y-4.15
X6.9387Y-4.15
X3.9377Y-4.15
X7.8747Y-4.15
T6
X1.5Y-3.875
X9.75Y-2.375
X9.375Y-3.125
X2.25Y-3.875
X10.3125Y-3.875
X5.25Y-2.375
X7.125Y-3.125
X7.875Y-3.125
X8.0625Y-1.625
X4.3125Y-1.625
X4.875Y-3.125
X3.9377Y-3.55
X5.9062Y-3.875
X7.8747Y-3.55
X6.75Y-2.375
X3.75Y-2.375
X10.4062Y-1.625
X9.5625Y-3.875
X1.7812Y-3.125
X9.0Y-2.375
X2.25Y-2.375
X5.9988Y-3.55
X6.9387Y-3.55
X2.8113Y-1.625
X8.7188Y-3.875
X1.3125Y-1.625
X5.0625Y-1.625
X3.375Y-3.125
X6.4688Y-3.875
X6.5625Y-1.625
X10.125Y-3.125
X7.3125Y-1.625
X4.9688Y-3.875
X8.8125Y-1.625
X6.0Y-2.375
X5.625Y-3.125
X7.9688Y-3.875
X4.5Y-2.375
X3.0Y-2.375
X5.8125Y-1.625
X4.125Y-3.125
X3.5625Y-1.625
X4.0312Y-3.875
X3.0938Y-3.875
X8.25Y-2.375
X2.625Y-3.125
X8.625Y-3.125
X1.4062Y-2.375
X6.375Y-3.125
X8.8125Y-3.875
X9.5625Y-1.625
X7.5Y-2.375
X10.5Y-2.375
X2.0625Y-1.625
T0
M30
