G04 #@! TF.GenerationSoftware,KiCad,Pcbnew,(5.1.4-0-10_14)*
G04 #@! TF.CreationDate,2019-10-22T01:35:18+09:00*
G04 #@! TF.ProjectId,dombrick45,646f6d62-7269-4636-9b34-352e6b696361,rev?*
G04 #@! TF.SameCoordinates,Original*
G04 #@! TF.FileFunction,Legend,Bot*
G04 #@! TF.FilePolarity,Positive*
%FSLAX46Y46*%
G04 Gerber Fmt 4.6, Leading zero omitted, Abs format (unit mm)*
G04 Created by KiCad (PCBNEW (5.1.4-0-10_14)) date 2019-10-22 01:35:18*
%MOMM*%
%LPD*%
G04 APERTURE LIST*
%ADD10C,0.150000*%
%ADD11C,0.120000*%
%ADD12C,0.250000*%
%ADD13C,2.302000*%
%ADD14C,2.352000*%
%ADD15C,2.352000*%
%ADD16C,4.089800*%
%ADD17C,1.852000*%
%ADD18C,3.102000*%
%ADD19R,2.652000X2.602000*%
%ADD20C,3.150000*%
%ADD21O,1.802000X2.802000*%
%ADD22R,0.602000X2.352000*%
%ADD23R,1.302000X1.002000*%
%ADD24R,1.102000X0.802000*%
%ADD25R,0.702000X0.802000*%
%ADD26O,1.702000X1.102000*%
%ADD27O,2.202000X1.102000*%
%ADD28C,0.752000*%
%ADD29R,1.552000X0.402000*%
%ADD30R,1.552000X0.702000*%
%ADD31C,0.100000*%
%ADD32C,1.077000*%
%ADD33C,1.802000*%
%ADD34R,1.802000X1.802000*%
%ADD35C,1.252000*%
%ADD36C,0.652000*%
%ADD37C,1.302000*%
%ADD38R,1.902000X1.202000*%
%ADD39C,1.352000*%
G04 APERTURE END LIST*
D10*
X249736000Y-34671000D02*
X249736000Y-40121000D01*
X257436000Y-34671000D02*
X257436000Y-40121000D01*
X249736000Y-40121000D02*
X257436000Y-40121000D01*
D11*
X236204000Y-43651000D02*
X236204000Y-39751000D01*
X234204000Y-43651000D02*
X234204000Y-39751000D01*
X236204000Y-43651000D02*
X234204000Y-43651000D01*
D10*
X265925000Y-48007000D02*
X263025000Y-48007000D01*
X265925000Y-48007000D02*
X265925000Y-49307000D01*
X265925000Y-49307000D02*
X263025000Y-49307000D01*
X263025000Y-49307000D02*
X263025000Y-48007000D01*
D11*
X265132078Y-52526000D02*
X264614922Y-52526000D01*
X265132078Y-51106000D02*
X264614922Y-51106000D01*
X265513078Y-46049000D02*
X264995922Y-46049000D01*
X265513078Y-44629000D02*
X264995922Y-44629000D01*
X225631250Y-77180000D02*
X225631250Y-73280000D01*
X223631250Y-77180000D02*
X223631250Y-73280000D01*
X225631250Y-77180000D02*
X223631250Y-77180000D01*
D12*
X267275000Y-64810000D02*
X264775000Y-64810000D01*
X267275000Y-69810000D02*
X267275000Y-64810000D01*
X264775000Y-69810000D02*
X267275000Y-69810000D01*
X264775000Y-64810000D02*
X264775000Y-69810000D01*
D11*
X244585748Y-62536000D02*
X245108252Y-62536000D01*
X244585748Y-63956000D02*
X245108252Y-63956000D01*
D10*
X237376021Y-61922031D02*
X238277583Y-61020470D01*
X229650880Y-68834000D02*
X230128177Y-68356703D01*
X236969435Y-76152555D02*
X237446732Y-75675258D01*
X244287990Y-68834000D02*
X243810693Y-69311297D01*
X236969435Y-61515445D02*
X236492138Y-61992742D01*
X244287990Y-68834000D02*
X243810693Y-68356703D01*
X236969435Y-76152555D02*
X236492138Y-75675258D01*
X229650880Y-68834000D02*
X230128177Y-69311297D01*
X236969435Y-61515445D02*
X237376021Y-61922031D01*
D11*
X270875000Y-100675000D02*
X270875000Y-96775000D01*
X268875000Y-100675000D02*
X268875000Y-96775000D01*
X270875000Y-100675000D02*
X268875000Y-100675000D01*
X251825000Y-100675000D02*
X251825000Y-96775000D01*
X249825000Y-100675000D02*
X249825000Y-96775000D01*
X251825000Y-100675000D02*
X249825000Y-100675000D01*
X232775000Y-94325000D02*
X232775000Y-90425000D01*
X230775000Y-94325000D02*
X230775000Y-90425000D01*
X232775000Y-94325000D02*
X230775000Y-94325000D01*
X213725000Y-106293750D02*
X213725000Y-102393750D01*
X211725000Y-106293750D02*
X211725000Y-102393750D01*
X213725000Y-106293750D02*
X211725000Y-106293750D01*
X177022000Y-99914000D02*
X177022000Y-96014000D01*
X175022000Y-99914000D02*
X175022000Y-96014000D01*
X177022000Y-99914000D02*
X175022000Y-99914000D01*
X136731250Y-100675000D02*
X136731250Y-96775000D01*
X134731250Y-100675000D02*
X134731250Y-96775000D01*
X136731250Y-100675000D02*
X134731250Y-100675000D01*
X112918750Y-100675000D02*
X112918750Y-96775000D01*
X110918750Y-100675000D02*
X110918750Y-96775000D01*
X112918750Y-100675000D02*
X110918750Y-100675000D01*
X88312500Y-100675000D02*
X88312500Y-96775000D01*
X86312500Y-100675000D02*
X86312500Y-96775000D01*
X88312500Y-100675000D02*
X86312500Y-100675000D01*
X66087500Y-100675000D02*
X66087500Y-96775000D01*
X64087500Y-100675000D02*
X64087500Y-96775000D01*
X66087500Y-100675000D02*
X64087500Y-100675000D01*
X47037500Y-100802000D02*
X47037500Y-96902000D01*
X45037500Y-100802000D02*
X45037500Y-96902000D01*
X47037500Y-100802000D02*
X45037500Y-100802000D01*
X266112500Y-80831250D02*
X266112500Y-76931250D01*
X264112500Y-80831250D02*
X264112500Y-76931250D01*
X266112500Y-80831250D02*
X264112500Y-80831250D01*
X245602000Y-88103000D02*
X245602000Y-84203000D01*
X243602000Y-88103000D02*
X243602000Y-84203000D01*
X245602000Y-88103000D02*
X243602000Y-88103000D01*
X208962500Y-81625000D02*
X208962500Y-77725000D01*
X206962500Y-81625000D02*
X206962500Y-77725000D01*
X208962500Y-81625000D02*
X206962500Y-81625000D01*
X189912500Y-80831250D02*
X189912500Y-76931250D01*
X187912500Y-80831250D02*
X187912500Y-76931250D01*
X189912500Y-80831250D02*
X187912500Y-80831250D01*
X170862500Y-81625000D02*
X170862500Y-77725000D01*
X168862500Y-81625000D02*
X168862500Y-77725000D01*
X170862500Y-81625000D02*
X168862500Y-81625000D01*
X151653750Y-81687500D02*
X151653750Y-77787500D01*
X149653750Y-81687500D02*
X149653750Y-77787500D01*
X151653750Y-81687500D02*
X149653750Y-81687500D01*
X132762500Y-81625000D02*
X132762500Y-77725000D01*
X130762500Y-81625000D02*
X130762500Y-77725000D01*
X132762500Y-81625000D02*
X130762500Y-81625000D01*
X113712500Y-81625000D02*
X113712500Y-77725000D01*
X111712500Y-81625000D02*
X111712500Y-77725000D01*
X113712500Y-81625000D02*
X111712500Y-81625000D01*
X94757750Y-81625000D02*
X94757750Y-77725000D01*
X92757750Y-81625000D02*
X92757750Y-77725000D01*
X94757750Y-81625000D02*
X92757750Y-81625000D01*
X75612500Y-81625000D02*
X75612500Y-77725000D01*
X73612500Y-81625000D02*
X73612500Y-77725000D01*
X75612500Y-81625000D02*
X73612500Y-81625000D01*
X55768750Y-81339250D02*
X55768750Y-77439250D01*
X53768750Y-81339250D02*
X53768750Y-77439250D01*
X55768750Y-81339250D02*
X53768750Y-81339250D01*
X275574000Y-62574000D02*
X275574000Y-58674000D01*
X273574000Y-62574000D02*
X273574000Y-58674000D01*
X275574000Y-62574000D02*
X273574000Y-62574000D01*
X256587500Y-60923000D02*
X256587500Y-57023000D01*
X254587500Y-60923000D02*
X254587500Y-57023000D01*
X256587500Y-60923000D02*
X254587500Y-60923000D01*
X223504000Y-55970000D02*
X223504000Y-52070000D01*
X221504000Y-55970000D02*
X221504000Y-52070000D01*
X223504000Y-55970000D02*
X221504000Y-55970000D01*
X218487500Y-62575000D02*
X218487500Y-58675000D01*
X216487500Y-62575000D02*
X216487500Y-58675000D01*
X218487500Y-62575000D02*
X216487500Y-62575000D01*
X199437500Y-62575000D02*
X199437500Y-58675000D01*
X197437500Y-62575000D02*
X197437500Y-58675000D01*
X199437500Y-62575000D02*
X197437500Y-62575000D01*
X180387500Y-62575000D02*
X180387500Y-58675000D01*
X178387500Y-62575000D02*
X178387500Y-58675000D01*
X180387500Y-62575000D02*
X178387500Y-62575000D01*
X161337500Y-62637500D02*
X161337500Y-58737500D01*
X159337500Y-62637500D02*
X159337500Y-58737500D01*
X161337500Y-62637500D02*
X159337500Y-62637500D01*
X142287500Y-62448000D02*
X142287500Y-58548000D01*
X140287500Y-62448000D02*
X140287500Y-58548000D01*
X142287500Y-62448000D02*
X140287500Y-62448000D01*
X123237500Y-62575000D02*
X123237500Y-58675000D01*
X121237500Y-62575000D02*
X121237500Y-58675000D01*
X123237500Y-62575000D02*
X121237500Y-62575000D01*
X104187500Y-62829000D02*
X104187500Y-58929000D01*
X102187500Y-62829000D02*
X102187500Y-58929000D01*
X104187500Y-62829000D02*
X102187500Y-62829000D01*
X85137500Y-62575000D02*
X85137500Y-58675000D01*
X83137500Y-62575000D02*
X83137500Y-58675000D01*
X85137500Y-62575000D02*
X83137500Y-62575000D01*
X273923000Y-40984000D02*
X273923000Y-37084000D01*
X271923000Y-40984000D02*
X271923000Y-37084000D01*
X273923000Y-40984000D02*
X271923000Y-40984000D01*
X232775000Y-43525000D02*
X232775000Y-39625000D01*
X230775000Y-43525000D02*
X230775000Y-39625000D01*
X232775000Y-43525000D02*
X230775000Y-43525000D01*
X213725000Y-43525000D02*
X213725000Y-39625000D01*
X211725000Y-43525000D02*
X211725000Y-39625000D01*
X213725000Y-43525000D02*
X211725000Y-43525000D01*
X194675000Y-43810750D02*
X194675000Y-39910750D01*
X192675000Y-43810750D02*
X192675000Y-39910750D01*
X194675000Y-43810750D02*
X192675000Y-43810750D01*
X175180500Y-43461500D02*
X175180500Y-39561500D01*
X173180500Y-43461500D02*
X173180500Y-39561500D01*
X175180500Y-43461500D02*
X173180500Y-43461500D01*
X156225750Y-43461500D02*
X156225750Y-39561500D01*
X154225750Y-43461500D02*
X154225750Y-39561500D01*
X156225750Y-43461500D02*
X154225750Y-43461500D01*
X137779000Y-43239250D02*
X137779000Y-39339250D01*
X135779000Y-43239250D02*
X135779000Y-39339250D01*
X137779000Y-43239250D02*
X135779000Y-43239250D01*
X118030500Y-43683750D02*
X118030500Y-39783750D01*
X116030500Y-43683750D02*
X116030500Y-39783750D01*
X118030500Y-43683750D02*
X116030500Y-43683750D01*
X99425000Y-43715500D02*
X99425000Y-39815500D01*
X97425000Y-43715500D02*
X97425000Y-39815500D01*
X99425000Y-43715500D02*
X97425000Y-43715500D01*
X80375000Y-43525000D02*
X80375000Y-39625000D01*
X78375000Y-43525000D02*
X78375000Y-39625000D01*
X80375000Y-43525000D02*
X78375000Y-43525000D01*
X248117060Y-73399487D02*
X250945487Y-70571060D01*
X250450513Y-75732940D02*
X248117060Y-73399487D01*
X237996252Y-56209000D02*
X237473748Y-56209000D01*
X237996252Y-54789000D02*
X237473748Y-54789000D01*
X232485000Y-82787748D02*
X232485000Y-83310252D01*
X231065000Y-82787748D02*
X231065000Y-83310252D01*
X249988000Y-66803748D02*
X249988000Y-67326252D01*
X251408000Y-66803748D02*
X251408000Y-67326252D01*
X253645097Y-69888005D02*
X254014563Y-70257471D01*
X252641005Y-70892097D02*
X253010471Y-71261563D01*
X247676471Y-76468563D02*
X247307005Y-76099097D01*
X248680563Y-75464471D02*
X248311097Y-75095005D01*
X225305252Y-68528000D02*
X224782748Y-68528000D01*
X225305252Y-67108000D02*
X224782748Y-67108000D01*
D10*
X229631000Y-53218000D02*
X234831000Y-53218000D01*
X234831000Y-53218000D02*
X234831000Y-48018000D01*
X234831000Y-48018000D02*
X229631000Y-48018000D01*
X229631000Y-48018000D02*
X229631000Y-53218000D01*
X233231000Y-50618000D02*
G75*
G03X233231000Y-50618000I-1000000J0D01*
G01*
D11*
X224863922Y-71068000D02*
X225381078Y-71068000D01*
X224863922Y-69648000D02*
X225381078Y-69648000D01*
X252932000Y-46271922D02*
X252932000Y-46789078D01*
X251512000Y-46271922D02*
X251512000Y-46789078D01*
X255472000Y-46271922D02*
X255472000Y-46789078D01*
X254052000Y-46271922D02*
X254052000Y-46789078D01*
X255274578Y-67258000D02*
X254757422Y-67258000D01*
X255274578Y-65838000D02*
X254757422Y-65838000D01*
X248645000Y-47214064D02*
X248645000Y-46009936D01*
X250465000Y-47214064D02*
X250465000Y-46009936D01*
X66087500Y-62637500D02*
X66087500Y-58737500D01*
X64087500Y-62637500D02*
X64087500Y-58737500D01*
X66087500Y-62637500D02*
X64087500Y-62637500D01*
X45164250Y-62575000D02*
X45164250Y-58675000D01*
X43164250Y-62575000D02*
X43164250Y-58675000D01*
X45164250Y-62575000D02*
X43164250Y-62575000D01*
X61325000Y-43587500D02*
X59325000Y-43587500D01*
X59325000Y-43587500D02*
X59325000Y-39687500D01*
X61325000Y-43587500D02*
X61325000Y-39687500D01*
X42275000Y-43525000D02*
X42275000Y-39625000D01*
X40275000Y-43525000D02*
X40275000Y-39625000D01*
X42275000Y-43525000D02*
X40275000Y-43525000D01*
D10*
X264286904Y-89504380D02*
X264286904Y-88504380D01*
X264286904Y-88980571D02*
X263715476Y-88980571D01*
X263715476Y-89504380D02*
X263715476Y-88504380D01*
X263191666Y-89504380D02*
X263001190Y-89504380D01*
X262905952Y-89456761D01*
X262858333Y-89409142D01*
X262763095Y-89266285D01*
X262715476Y-89075809D01*
X262715476Y-88694857D01*
X262763095Y-88599619D01*
X262810714Y-88552000D01*
X262905952Y-88504380D01*
X263096428Y-88504380D01*
X263191666Y-88552000D01*
X263239285Y-88599619D01*
X263286904Y-88694857D01*
X263286904Y-88932952D01*
X263239285Y-89028190D01*
X263191666Y-89075809D01*
X263096428Y-89123428D01*
X262905952Y-89123428D01*
X262810714Y-89075809D01*
X262763095Y-89028190D01*
X262715476Y-88932952D01*
X242315904Y-107513380D02*
X242315904Y-106513380D01*
X242315904Y-106989571D02*
X241744476Y-106989571D01*
X241744476Y-107513380D02*
X241744476Y-106513380D01*
X241125428Y-106941952D02*
X241220666Y-106894333D01*
X241268285Y-106846714D01*
X241315904Y-106751476D01*
X241315904Y-106703857D01*
X241268285Y-106608619D01*
X241220666Y-106561000D01*
X241125428Y-106513380D01*
X240934952Y-106513380D01*
X240839714Y-106561000D01*
X240792095Y-106608619D01*
X240744476Y-106703857D01*
X240744476Y-106751476D01*
X240792095Y-106846714D01*
X240839714Y-106894333D01*
X240934952Y-106941952D01*
X241125428Y-106941952D01*
X241220666Y-106989571D01*
X241268285Y-107037190D01*
X241315904Y-107132428D01*
X241315904Y-107322904D01*
X241268285Y-107418142D01*
X241220666Y-107465761D01*
X241125428Y-107513380D01*
X240934952Y-107513380D01*
X240839714Y-107465761D01*
X240792095Y-107418142D01*
X240744476Y-107322904D01*
X240744476Y-107132428D01*
X240792095Y-107037190D01*
X240839714Y-106989571D01*
X240934952Y-106941952D01*
X186308904Y-95854380D02*
X186308904Y-94854380D01*
X186308904Y-95330571D02*
X185737476Y-95330571D01*
X185737476Y-95854380D02*
X185737476Y-94854380D01*
X185356523Y-94854380D02*
X184689857Y-94854380D01*
X185118428Y-95854380D01*
X133349904Y-88742380D02*
X133349904Y-87742380D01*
X133349904Y-88218571D02*
X132778476Y-88218571D01*
X132778476Y-88742380D02*
X132778476Y-87742380D01*
X131873714Y-87742380D02*
X132064190Y-87742380D01*
X132159428Y-87790000D01*
X132207047Y-87837619D01*
X132302285Y-87980476D01*
X132349904Y-88170952D01*
X132349904Y-88551904D01*
X132302285Y-88647142D01*
X132254666Y-88694761D01*
X132159428Y-88742380D01*
X131968952Y-88742380D01*
X131873714Y-88694761D01*
X131826095Y-88647142D01*
X131778476Y-88551904D01*
X131778476Y-88313809D01*
X131826095Y-88218571D01*
X131873714Y-88170952D01*
X131968952Y-88123333D01*
X132159428Y-88123333D01*
X132254666Y-88170952D01*
X132302285Y-88218571D01*
X132349904Y-88313809D01*
X242950904Y-49753380D02*
X242950904Y-48753380D01*
X242950904Y-49229571D02*
X242379476Y-49229571D01*
X242379476Y-49753380D02*
X242379476Y-48753380D01*
X241427095Y-48753380D02*
X241903285Y-48753380D01*
X241950904Y-49229571D01*
X241903285Y-49181952D01*
X241808047Y-49134333D01*
X241569952Y-49134333D01*
X241474714Y-49181952D01*
X241427095Y-49229571D01*
X241379476Y-49324809D01*
X241379476Y-49562904D01*
X241427095Y-49658142D01*
X241474714Y-49705761D01*
X241569952Y-49753380D01*
X241808047Y-49753380D01*
X241903285Y-49705761D01*
X241950904Y-49658142D01*
X68579904Y-107538380D02*
X68579904Y-106538380D01*
X68579904Y-107014571D02*
X68008476Y-107014571D01*
X68008476Y-107538380D02*
X68008476Y-106538380D01*
X67103714Y-106871714D02*
X67103714Y-107538380D01*
X67341809Y-106490761D02*
X67579904Y-107205047D01*
X66960857Y-107205047D01*
X159257904Y-54833380D02*
X159257904Y-53833380D01*
X159257904Y-54309571D02*
X158686476Y-54309571D01*
X158686476Y-54833380D02*
X158686476Y-53833380D01*
X158305523Y-53833380D02*
X157686476Y-53833380D01*
X158019809Y-54214333D01*
X157876952Y-54214333D01*
X157781714Y-54261952D01*
X157734095Y-54309571D01*
X157686476Y-54404809D01*
X157686476Y-54642904D01*
X157734095Y-54738142D01*
X157781714Y-54785761D01*
X157876952Y-54833380D01*
X158162666Y-54833380D01*
X158257904Y-54785761D01*
X158305523Y-54738142D01*
X58165904Y-76398380D02*
X58165904Y-75398380D01*
X58165904Y-75874571D02*
X57594476Y-75874571D01*
X57594476Y-76398380D02*
X57594476Y-75398380D01*
X57165904Y-75493619D02*
X57118285Y-75446000D01*
X57023047Y-75398380D01*
X56784952Y-75398380D01*
X56689714Y-75446000D01*
X56642095Y-75493619D01*
X56594476Y-75588857D01*
X56594476Y-75684095D01*
X56642095Y-75826952D01*
X57213523Y-76398380D01*
X56594476Y-76398380D01*
X43560904Y-53690380D02*
X43560904Y-52690380D01*
X43560904Y-53166571D02*
X42989476Y-53166571D01*
X42989476Y-53690380D02*
X42989476Y-52690380D01*
X41989476Y-53690380D02*
X42560904Y-53690380D01*
X42275190Y-53690380D02*
X42275190Y-52690380D01*
X42370428Y-52833238D01*
X42465666Y-52928476D01*
X42560904Y-52976095D01*
X166068154Y-95829380D02*
X166068154Y-94829380D01*
X165734821Y-95543666D01*
X165401488Y-94829380D01*
X165401488Y-95829380D01*
X165020535Y-94829380D02*
X164353869Y-95829380D01*
X164353869Y-94829380D02*
X165020535Y-95829380D01*
X163544345Y-95162714D02*
X163544345Y-95829380D01*
X163782440Y-94781761D02*
X164020535Y-95496047D01*
X163401488Y-95496047D01*
X162591964Y-95162714D02*
X162591964Y-95829380D01*
X162830059Y-94781761D02*
X163068154Y-95496047D01*
X162449107Y-95496047D01*
X151780654Y-101925380D02*
X151780654Y-100925380D01*
X151447321Y-101639666D01*
X151113988Y-100925380D01*
X151113988Y-101925380D01*
X150733035Y-100925380D02*
X150066369Y-101925380D01*
X150066369Y-100925380D02*
X150733035Y-101925380D01*
X149256845Y-101258714D02*
X149256845Y-101925380D01*
X149494940Y-100877761D02*
X149733035Y-101592047D01*
X149113988Y-101592047D01*
X148685416Y-101925380D02*
X148494940Y-101925380D01*
X148399702Y-101877761D01*
X148352083Y-101830142D01*
X148256845Y-101687285D01*
X148209226Y-101496809D01*
X148209226Y-101115857D01*
X148256845Y-101020619D01*
X148304464Y-100973000D01*
X148399702Y-100925380D01*
X148590178Y-100925380D01*
X148685416Y-100973000D01*
X148733035Y-101020619D01*
X148780654Y-101115857D01*
X148780654Y-101353952D01*
X148733035Y-101449190D01*
X148685416Y-101496809D01*
X148590178Y-101544428D01*
X148399702Y-101544428D01*
X148304464Y-101496809D01*
X148256845Y-101449190D01*
X148209226Y-101353952D01*
X255324095Y-36155380D02*
X255324095Y-36964904D01*
X255276476Y-37060142D01*
X255228857Y-37107761D01*
X255133619Y-37155380D01*
X254943142Y-37155380D01*
X254847904Y-37107761D01*
X254800285Y-37060142D01*
X254752666Y-36964904D01*
X254752666Y-36155380D01*
X254324095Y-37107761D02*
X254181238Y-37155380D01*
X253943142Y-37155380D01*
X253847904Y-37107761D01*
X253800285Y-37060142D01*
X253752666Y-36964904D01*
X253752666Y-36869666D01*
X253800285Y-36774428D01*
X253847904Y-36726809D01*
X253943142Y-36679190D01*
X254133619Y-36631571D01*
X254228857Y-36583952D01*
X254276476Y-36536333D01*
X254324095Y-36441095D01*
X254324095Y-36345857D01*
X254276476Y-36250619D01*
X254228857Y-36203000D01*
X254133619Y-36155380D01*
X253895523Y-36155380D01*
X253752666Y-36203000D01*
X252990761Y-36631571D02*
X252847904Y-36679190D01*
X252800285Y-36726809D01*
X252752666Y-36822047D01*
X252752666Y-36964904D01*
X252800285Y-37060142D01*
X252847904Y-37107761D01*
X252943142Y-37155380D01*
X253324095Y-37155380D01*
X253324095Y-36155380D01*
X252990761Y-36155380D01*
X252895523Y-36203000D01*
X252847904Y-36250619D01*
X252800285Y-36345857D01*
X252800285Y-36441095D01*
X252847904Y-36536333D01*
X252895523Y-36583952D01*
X252990761Y-36631571D01*
X253324095Y-36631571D01*
X251800285Y-37155380D02*
X252371714Y-37155380D01*
X252086000Y-37155380D02*
X252086000Y-36155380D01*
X252181238Y-36298238D01*
X252276476Y-36393476D01*
X252371714Y-36441095D01*
X235656380Y-35996714D02*
X234656380Y-35996714D01*
X234656380Y-36234809D01*
X234704000Y-36377666D01*
X234799238Y-36472904D01*
X234894476Y-36520523D01*
X235084952Y-36568142D01*
X235227809Y-36568142D01*
X235418285Y-36520523D01*
X235513523Y-36472904D01*
X235608761Y-36377666D01*
X235656380Y-36234809D01*
X235656380Y-35996714D01*
X235656380Y-37520523D02*
X235656380Y-36949095D01*
X235656380Y-37234809D02*
X234656380Y-37234809D01*
X234799238Y-37139571D01*
X234894476Y-37044333D01*
X234942095Y-36949095D01*
X234751619Y-37901476D02*
X234704000Y-37949095D01*
X234656380Y-38044333D01*
X234656380Y-38282428D01*
X234704000Y-38377666D01*
X234751619Y-38425285D01*
X234846857Y-38472904D01*
X234942095Y-38472904D01*
X235084952Y-38425285D01*
X235656380Y-37853857D01*
X235656380Y-38472904D01*
X262508904Y-48093380D02*
X262508904Y-48902904D01*
X262461285Y-48998142D01*
X262413666Y-49045761D01*
X262318428Y-49093380D01*
X262127952Y-49093380D01*
X262032714Y-49045761D01*
X261985095Y-48998142D01*
X261937476Y-48902904D01*
X261937476Y-48093380D01*
X261508904Y-48188619D02*
X261461285Y-48141000D01*
X261366047Y-48093380D01*
X261127952Y-48093380D01*
X261032714Y-48141000D01*
X260985095Y-48188619D01*
X260937476Y-48283857D01*
X260937476Y-48379095D01*
X260985095Y-48521952D01*
X261556523Y-49093380D01*
X260937476Y-49093380D01*
X267189380Y-46648904D02*
X267998904Y-46648904D01*
X268094142Y-46696523D01*
X268141761Y-46744142D01*
X268189380Y-46839380D01*
X268189380Y-47029857D01*
X268141761Y-47125095D01*
X268094142Y-47172714D01*
X267998904Y-47220333D01*
X267189380Y-47220333D01*
X268141761Y-47648904D02*
X268189380Y-47791761D01*
X268189380Y-48029857D01*
X268141761Y-48125095D01*
X268094142Y-48172714D01*
X267998904Y-48220333D01*
X267903666Y-48220333D01*
X267808428Y-48172714D01*
X267760809Y-48125095D01*
X267713190Y-48029857D01*
X267665571Y-47839380D01*
X267617952Y-47744142D01*
X267570333Y-47696523D01*
X267475095Y-47648904D01*
X267379857Y-47648904D01*
X267284619Y-47696523D01*
X267237000Y-47744142D01*
X267189380Y-47839380D01*
X267189380Y-48077476D01*
X267237000Y-48220333D01*
X267665571Y-48982238D02*
X267713190Y-49125095D01*
X267760809Y-49172714D01*
X267856047Y-49220333D01*
X267998904Y-49220333D01*
X268094142Y-49172714D01*
X268141761Y-49125095D01*
X268189380Y-49029857D01*
X268189380Y-48648904D01*
X267189380Y-48648904D01*
X267189380Y-48982238D01*
X267237000Y-49077476D01*
X267284619Y-49125095D01*
X267379857Y-49172714D01*
X267475095Y-49172714D01*
X267570333Y-49125095D01*
X267617952Y-49077476D01*
X267665571Y-48982238D01*
X267665571Y-48648904D01*
X267284619Y-49601285D02*
X267237000Y-49648904D01*
X267189380Y-49744142D01*
X267189380Y-49982238D01*
X267237000Y-50077476D01*
X267284619Y-50125095D01*
X267379857Y-50172714D01*
X267475095Y-50172714D01*
X267617952Y-50125095D01*
X268189380Y-49553666D01*
X268189380Y-50172714D01*
X264961666Y-54173380D02*
X265295000Y-53697190D01*
X265533095Y-54173380D02*
X265533095Y-53173380D01*
X265152142Y-53173380D01*
X265056904Y-53221000D01*
X265009285Y-53268619D01*
X264961666Y-53363857D01*
X264961666Y-53506714D01*
X265009285Y-53601952D01*
X265056904Y-53649571D01*
X265152142Y-53697190D01*
X265533095Y-53697190D01*
X264104523Y-53173380D02*
X264295000Y-53173380D01*
X264390238Y-53221000D01*
X264437857Y-53268619D01*
X264533095Y-53411476D01*
X264580714Y-53601952D01*
X264580714Y-53982904D01*
X264533095Y-54078142D01*
X264485476Y-54125761D01*
X264390238Y-54173380D01*
X264199761Y-54173380D01*
X264104523Y-54125761D01*
X264056904Y-54078142D01*
X264009285Y-53982904D01*
X264009285Y-53744809D01*
X264056904Y-53649571D01*
X264104523Y-53601952D01*
X264199761Y-53554333D01*
X264390238Y-53554333D01*
X264485476Y-53601952D01*
X264533095Y-53649571D01*
X264580714Y-53744809D01*
X265421166Y-44141380D02*
X265754500Y-43665190D01*
X265992595Y-44141380D02*
X265992595Y-43141380D01*
X265611642Y-43141380D01*
X265516404Y-43189000D01*
X265468785Y-43236619D01*
X265421166Y-43331857D01*
X265421166Y-43474714D01*
X265468785Y-43569952D01*
X265516404Y-43617571D01*
X265611642Y-43665190D01*
X265992595Y-43665190D01*
X264516404Y-43141380D02*
X264992595Y-43141380D01*
X265040214Y-43617571D01*
X264992595Y-43569952D01*
X264897357Y-43522333D01*
X264659261Y-43522333D01*
X264564023Y-43569952D01*
X264516404Y-43617571D01*
X264468785Y-43712809D01*
X264468785Y-43950904D01*
X264516404Y-44046142D01*
X264564023Y-44093761D01*
X264659261Y-44141380D01*
X264897357Y-44141380D01*
X264992595Y-44093761D01*
X265040214Y-44046142D01*
X227083630Y-73715714D02*
X226083630Y-73715714D01*
X226083630Y-73953809D01*
X226131250Y-74096666D01*
X226226488Y-74191904D01*
X226321726Y-74239523D01*
X226512202Y-74287142D01*
X226655059Y-74287142D01*
X226845535Y-74239523D01*
X226940773Y-74191904D01*
X227036011Y-74096666D01*
X227083630Y-73953809D01*
X227083630Y-73715714D01*
X226083630Y-74620476D02*
X226083630Y-75239523D01*
X226464583Y-74906190D01*
X226464583Y-75049047D01*
X226512202Y-75144285D01*
X226559821Y-75191904D01*
X226655059Y-75239523D01*
X226893154Y-75239523D01*
X226988392Y-75191904D01*
X227036011Y-75144285D01*
X227083630Y-75049047D01*
X227083630Y-74763333D01*
X227036011Y-74668095D01*
X226988392Y-74620476D01*
X226083630Y-76096666D02*
X226083630Y-75906190D01*
X226131250Y-75810952D01*
X226178869Y-75763333D01*
X226321726Y-75668095D01*
X226512202Y-75620476D01*
X226893154Y-75620476D01*
X226988392Y-75668095D01*
X227036011Y-75715714D01*
X227083630Y-75810952D01*
X227083630Y-76001428D01*
X227036011Y-76096666D01*
X226988392Y-76144285D01*
X226893154Y-76191904D01*
X226655059Y-76191904D01*
X226559821Y-76144285D01*
X226512202Y-76096666D01*
X226464583Y-76001428D01*
X226464583Y-75810952D01*
X226512202Y-75715714D01*
X226559821Y-75668095D01*
X226655059Y-75620476D01*
X265525000Y-70798095D02*
X265477380Y-70702857D01*
X265477380Y-70560000D01*
X265525000Y-70417142D01*
X265620238Y-70321904D01*
X265715476Y-70274285D01*
X265905952Y-70226666D01*
X266048809Y-70226666D01*
X266239285Y-70274285D01*
X266334523Y-70321904D01*
X266429761Y-70417142D01*
X266477380Y-70560000D01*
X266477380Y-70655238D01*
X266429761Y-70798095D01*
X266382142Y-70845714D01*
X266048809Y-70845714D01*
X266048809Y-70655238D01*
X266477380Y-71274285D02*
X265477380Y-71274285D01*
X266477380Y-71845714D01*
X265477380Y-71845714D01*
X266477380Y-72321904D02*
X265477380Y-72321904D01*
X265477380Y-72560000D01*
X265525000Y-72702857D01*
X265620238Y-72798095D01*
X265715476Y-72845714D01*
X265905952Y-72893333D01*
X266048809Y-72893333D01*
X266239285Y-72845714D01*
X266334523Y-72798095D01*
X266429761Y-72702857D01*
X266477380Y-72560000D01*
X266477380Y-72321904D01*
X266477380Y-62512380D02*
X266001190Y-62179047D01*
X266477380Y-61940952D02*
X265477380Y-61940952D01*
X265477380Y-62321904D01*
X265525000Y-62417142D01*
X265572619Y-62464761D01*
X265667857Y-62512380D01*
X265810714Y-62512380D01*
X265905952Y-62464761D01*
X265953571Y-62417142D01*
X266001190Y-62321904D01*
X266001190Y-61940952D01*
X266429761Y-62893333D02*
X266477380Y-63036190D01*
X266477380Y-63274285D01*
X266429761Y-63369523D01*
X266382142Y-63417142D01*
X266286904Y-63464761D01*
X266191666Y-63464761D01*
X266096428Y-63417142D01*
X266048809Y-63369523D01*
X266001190Y-63274285D01*
X265953571Y-63083809D01*
X265905952Y-62988571D01*
X265858333Y-62940952D01*
X265763095Y-62893333D01*
X265667857Y-62893333D01*
X265572619Y-62940952D01*
X265525000Y-62988571D01*
X265477380Y-63083809D01*
X265477380Y-63321904D01*
X265525000Y-63464761D01*
X265477380Y-63750476D02*
X265477380Y-64321904D01*
X266477380Y-64036190D02*
X265477380Y-64036190D01*
X263977380Y-69988571D02*
X262977380Y-69988571D01*
X263691666Y-70321904D01*
X262977380Y-70655238D01*
X263977380Y-70655238D01*
X262977380Y-71321904D02*
X262977380Y-71512380D01*
X263025000Y-71607619D01*
X263120238Y-71702857D01*
X263310714Y-71750476D01*
X263644047Y-71750476D01*
X263834523Y-71702857D01*
X263929761Y-71607619D01*
X263977380Y-71512380D01*
X263977380Y-71321904D01*
X263929761Y-71226666D01*
X263834523Y-71131428D01*
X263644047Y-71083809D01*
X263310714Y-71083809D01*
X263120238Y-71131428D01*
X263025000Y-71226666D01*
X262977380Y-71321904D01*
X263929761Y-72131428D02*
X263977380Y-72274285D01*
X263977380Y-72512380D01*
X263929761Y-72607619D01*
X263882142Y-72655238D01*
X263786904Y-72702857D01*
X263691666Y-72702857D01*
X263596428Y-72655238D01*
X263548809Y-72607619D01*
X263501190Y-72512380D01*
X263453571Y-72321904D01*
X263405952Y-72226666D01*
X263358333Y-72179047D01*
X263263095Y-72131428D01*
X263167857Y-72131428D01*
X263072619Y-72179047D01*
X263025000Y-72226666D01*
X262977380Y-72321904D01*
X262977380Y-72560000D01*
X263025000Y-72702857D01*
X263977380Y-73131428D02*
X262977380Y-73131428D01*
X263929761Y-62024285D02*
X263977380Y-62167142D01*
X263977380Y-62405238D01*
X263929761Y-62500476D01*
X263882142Y-62548095D01*
X263786904Y-62595714D01*
X263691666Y-62595714D01*
X263596428Y-62548095D01*
X263548809Y-62500476D01*
X263501190Y-62405238D01*
X263453571Y-62214761D01*
X263405952Y-62119523D01*
X263358333Y-62071904D01*
X263263095Y-62024285D01*
X263167857Y-62024285D01*
X263072619Y-62071904D01*
X263025000Y-62119523D01*
X262977380Y-62214761D01*
X262977380Y-62452857D01*
X263025000Y-62595714D01*
X263882142Y-63595714D02*
X263929761Y-63548095D01*
X263977380Y-63405238D01*
X263977380Y-63310000D01*
X263929761Y-63167142D01*
X263834523Y-63071904D01*
X263739285Y-63024285D01*
X263548809Y-62976666D01*
X263405952Y-62976666D01*
X263215476Y-63024285D01*
X263120238Y-63071904D01*
X263025000Y-63167142D01*
X262977380Y-63310000D01*
X262977380Y-63405238D01*
X263025000Y-63548095D01*
X263072619Y-63595714D01*
X263977380Y-64024285D02*
X262977380Y-64024285D01*
X263977380Y-64595714D02*
X263405952Y-64167142D01*
X262977380Y-64595714D02*
X263548809Y-64024285D01*
X260477380Y-69976666D02*
X261477380Y-70310000D01*
X260477380Y-70643333D01*
X261382142Y-71548095D02*
X261429761Y-71500476D01*
X261477380Y-71357619D01*
X261477380Y-71262380D01*
X261429761Y-71119523D01*
X261334523Y-71024285D01*
X261239285Y-70976666D01*
X261048809Y-70929047D01*
X260905952Y-70929047D01*
X260715476Y-70976666D01*
X260620238Y-71024285D01*
X260525000Y-71119523D01*
X260477380Y-71262380D01*
X260477380Y-71357619D01*
X260525000Y-71500476D01*
X260572619Y-71548095D01*
X261382142Y-72548095D02*
X261429761Y-72500476D01*
X261477380Y-72357619D01*
X261477380Y-72262380D01*
X261429761Y-72119523D01*
X261334523Y-72024285D01*
X261239285Y-71976666D01*
X261048809Y-71929047D01*
X260905952Y-71929047D01*
X260715476Y-71976666D01*
X260620238Y-72024285D01*
X260525000Y-72119523D01*
X260477380Y-72262380D01*
X260477380Y-72357619D01*
X260525000Y-72500476D01*
X260572619Y-72548095D01*
X261477380Y-61488571D02*
X260477380Y-61488571D01*
X261191666Y-61821904D01*
X260477380Y-62155238D01*
X261477380Y-62155238D01*
X261477380Y-62631428D02*
X260477380Y-62631428D01*
X261429761Y-63060000D02*
X261477380Y-63202857D01*
X261477380Y-63440952D01*
X261429761Y-63536190D01*
X261382142Y-63583809D01*
X261286904Y-63631428D01*
X261191666Y-63631428D01*
X261096428Y-63583809D01*
X261048809Y-63536190D01*
X261001190Y-63440952D01*
X260953571Y-63250476D01*
X260905952Y-63155238D01*
X260858333Y-63107619D01*
X260763095Y-63060000D01*
X260667857Y-63060000D01*
X260572619Y-63107619D01*
X260525000Y-63155238D01*
X260477380Y-63250476D01*
X260477380Y-63488571D01*
X260525000Y-63631428D01*
X260477380Y-64250476D02*
X260477380Y-64440952D01*
X260525000Y-64536190D01*
X260620238Y-64631428D01*
X260810714Y-64679047D01*
X261144047Y-64679047D01*
X261334523Y-64631428D01*
X261429761Y-64536190D01*
X261477380Y-64440952D01*
X261477380Y-64250476D01*
X261429761Y-64155238D01*
X261334523Y-64060000D01*
X261144047Y-64012380D01*
X260810714Y-64012380D01*
X260620238Y-64060000D01*
X260525000Y-64155238D01*
X260477380Y-64250476D01*
X58911904Y-101925380D02*
X58911904Y-100925380D01*
X58578571Y-101639666D01*
X58245238Y-100925380D01*
X58245238Y-101925380D01*
X57864285Y-100925380D02*
X57197619Y-101925380D01*
X57197619Y-100925380D02*
X57864285Y-101925380D01*
X56388095Y-101258714D02*
X56388095Y-101925380D01*
X56626190Y-100877761D02*
X56864285Y-101592047D01*
X56245238Y-101592047D01*
X55673809Y-100925380D02*
X55578571Y-100925380D01*
X55483333Y-100973000D01*
X55435714Y-101020619D01*
X55388095Y-101115857D01*
X55340476Y-101306333D01*
X55340476Y-101544428D01*
X55388095Y-101734904D01*
X55435714Y-101830142D01*
X55483333Y-101877761D01*
X55578571Y-101925380D01*
X55673809Y-101925380D01*
X55769047Y-101877761D01*
X55816666Y-101830142D01*
X55864285Y-101734904D01*
X55911904Y-101544428D01*
X55911904Y-101306333D01*
X55864285Y-101115857D01*
X55816666Y-101020619D01*
X55769047Y-100973000D01*
X55673809Y-100925380D01*
X244649404Y-101925380D02*
X244649404Y-100925380D01*
X244316071Y-101639666D01*
X243982738Y-100925380D01*
X243982738Y-101925380D01*
X243601785Y-100925380D02*
X242935119Y-101925380D01*
X242935119Y-100925380D02*
X243601785Y-101925380D01*
X242125595Y-101258714D02*
X242125595Y-101925380D01*
X242363690Y-100877761D02*
X242601785Y-101592047D01*
X241982738Y-101592047D01*
X241697023Y-100925380D02*
X241030357Y-100925380D01*
X241458928Y-101925380D01*
X80343154Y-101925380D02*
X80343154Y-100925380D01*
X80009821Y-101639666D01*
X79676488Y-100925380D01*
X79676488Y-101925380D01*
X79295535Y-100925380D02*
X78628869Y-101925380D01*
X78628869Y-100925380D02*
X79295535Y-101925380D01*
X77819345Y-101258714D02*
X77819345Y-101925380D01*
X78057440Y-100877761D02*
X78295535Y-101592047D01*
X77676488Y-101592047D01*
X76771726Y-101925380D02*
X77343154Y-101925380D01*
X77057440Y-101925380D02*
X77057440Y-100925380D01*
X77152678Y-101068238D01*
X77247916Y-101163476D01*
X77343154Y-101211095D01*
X245013666Y-65253142D02*
X245061285Y-65300761D01*
X245204142Y-65348380D01*
X245299380Y-65348380D01*
X245442238Y-65300761D01*
X245537476Y-65205523D01*
X245585095Y-65110285D01*
X245632714Y-64919809D01*
X245632714Y-64776952D01*
X245585095Y-64586476D01*
X245537476Y-64491238D01*
X245442238Y-64396000D01*
X245299380Y-64348380D01*
X245204142Y-64348380D01*
X245061285Y-64396000D01*
X245013666Y-64443619D01*
X244680333Y-64348380D02*
X244061285Y-64348380D01*
X244394619Y-64729333D01*
X244251761Y-64729333D01*
X244156523Y-64776952D01*
X244108904Y-64824571D01*
X244061285Y-64919809D01*
X244061285Y-65157904D01*
X244108904Y-65253142D01*
X244156523Y-65300761D01*
X244251761Y-65348380D01*
X244537476Y-65348380D01*
X244632714Y-65300761D01*
X244680333Y-65253142D01*
X231853011Y-62640080D02*
X232425431Y-63212500D01*
X232459103Y-63313515D01*
X232459103Y-63380859D01*
X232425431Y-63481874D01*
X232290744Y-63616561D01*
X232189729Y-63650233D01*
X232122385Y-63650233D01*
X232021370Y-63616561D01*
X231448950Y-63044141D01*
X231448950Y-64458355D02*
X231853011Y-64054294D01*
X231650981Y-64256324D02*
X230943874Y-63549218D01*
X231112233Y-63582889D01*
X231246920Y-63582889D01*
X231347935Y-63549218D01*
X263699404Y-101925380D02*
X263699404Y-100925380D01*
X263366071Y-101639666D01*
X263032738Y-100925380D01*
X263032738Y-101925380D01*
X262651785Y-100925380D02*
X261985119Y-101925380D01*
X261985119Y-100925380D02*
X262651785Y-101925380D01*
X261175595Y-101258714D02*
X261175595Y-101925380D01*
X261413690Y-100877761D02*
X261651785Y-101592047D01*
X261032738Y-101592047D01*
X260508928Y-101353952D02*
X260604166Y-101306333D01*
X260651785Y-101258714D01*
X260699404Y-101163476D01*
X260699404Y-101115857D01*
X260651785Y-101020619D01*
X260604166Y-100973000D01*
X260508928Y-100925380D01*
X260318452Y-100925380D01*
X260223214Y-100973000D01*
X260175595Y-101020619D01*
X260127976Y-101115857D01*
X260127976Y-101163476D01*
X260175595Y-101258714D01*
X260223214Y-101306333D01*
X260318452Y-101353952D01*
X260508928Y-101353952D01*
X260604166Y-101401571D01*
X260651785Y-101449190D01*
X260699404Y-101544428D01*
X260699404Y-101734904D01*
X260651785Y-101830142D01*
X260604166Y-101877761D01*
X260508928Y-101925380D01*
X260318452Y-101925380D01*
X260223214Y-101877761D01*
X260175595Y-101830142D01*
X260127976Y-101734904D01*
X260127976Y-101544428D01*
X260175595Y-101449190D01*
X260223214Y-101401571D01*
X260318452Y-101353952D01*
X223218154Y-101925380D02*
X223218154Y-100925380D01*
X222884821Y-101639666D01*
X222551488Y-100925380D01*
X222551488Y-101925380D01*
X222170535Y-100925380D02*
X221503869Y-101925380D01*
X221503869Y-100925380D02*
X222170535Y-101925380D01*
X220646726Y-100925380D02*
X221122916Y-100925380D01*
X221170535Y-101401571D01*
X221122916Y-101353952D01*
X221027678Y-101306333D01*
X220789583Y-101306333D01*
X220694345Y-101353952D01*
X220646726Y-101401571D01*
X220599107Y-101496809D01*
X220599107Y-101734904D01*
X220646726Y-101830142D01*
X220694345Y-101877761D01*
X220789583Y-101925380D01*
X221027678Y-101925380D01*
X221122916Y-101877761D01*
X221170535Y-101830142D01*
X219980059Y-100925380D02*
X219884821Y-100925380D01*
X219789583Y-100973000D01*
X219741964Y-101020619D01*
X219694345Y-101115857D01*
X219646726Y-101306333D01*
X219646726Y-101544428D01*
X219694345Y-101734904D01*
X219741964Y-101830142D01*
X219789583Y-101877761D01*
X219884821Y-101925380D01*
X219980059Y-101925380D01*
X220075297Y-101877761D01*
X220122916Y-101830142D01*
X220170535Y-101734904D01*
X220218154Y-101544428D01*
X220218154Y-101306333D01*
X220170535Y-101115857D01*
X220122916Y-101020619D01*
X220075297Y-100973000D01*
X219980059Y-100925380D01*
X225599404Y-95829380D02*
X225599404Y-94829380D01*
X225266071Y-95543666D01*
X224932738Y-94829380D01*
X224932738Y-95829380D01*
X224551785Y-94829380D02*
X223885119Y-95829380D01*
X223885119Y-94829380D02*
X224551785Y-95829380D01*
X223075595Y-95162714D02*
X223075595Y-95829380D01*
X223313690Y-94781761D02*
X223551785Y-95496047D01*
X222932738Y-95496047D01*
X222123214Y-94829380D02*
X222313690Y-94829380D01*
X222408928Y-94877000D01*
X222456547Y-94924619D01*
X222551785Y-95067476D01*
X222599404Y-95257952D01*
X222599404Y-95638904D01*
X222551785Y-95734142D01*
X222504166Y-95781761D01*
X222408928Y-95829380D01*
X222218452Y-95829380D01*
X222123214Y-95781761D01*
X222075595Y-95734142D01*
X222027976Y-95638904D01*
X222027976Y-95400809D01*
X222075595Y-95305571D01*
X222123214Y-95257952D01*
X222218452Y-95210333D01*
X222408928Y-95210333D01*
X222504166Y-95257952D01*
X222551785Y-95305571D01*
X222599404Y-95400809D01*
X204168154Y-101925380D02*
X204168154Y-100925380D01*
X203834821Y-101639666D01*
X203501488Y-100925380D01*
X203501488Y-101925380D01*
X203120535Y-100925380D02*
X202453869Y-101925380D01*
X202453869Y-100925380D02*
X203120535Y-101925380D01*
X201644345Y-101258714D02*
X201644345Y-101925380D01*
X201882440Y-100877761D02*
X202120535Y-101592047D01*
X201501488Y-101592047D01*
X200644345Y-100925380D02*
X201120535Y-100925380D01*
X201168154Y-101401571D01*
X201120535Y-101353952D01*
X201025297Y-101306333D01*
X200787202Y-101306333D01*
X200691964Y-101353952D01*
X200644345Y-101401571D01*
X200596726Y-101496809D01*
X200596726Y-101734904D01*
X200644345Y-101830142D01*
X200691964Y-101877761D01*
X200787202Y-101925380D01*
X201025297Y-101925380D01*
X201120535Y-101877761D01*
X201168154Y-101830142D01*
X127968154Y-101925380D02*
X127968154Y-100925380D01*
X127634821Y-101639666D01*
X127301488Y-100925380D01*
X127301488Y-101925380D01*
X126920535Y-100925380D02*
X126253869Y-101925380D01*
X126253869Y-100925380D02*
X126920535Y-101925380D01*
X125444345Y-101258714D02*
X125444345Y-101925380D01*
X125682440Y-100877761D02*
X125920535Y-101592047D01*
X125301488Y-101592047D01*
X125015773Y-100925380D02*
X124396726Y-100925380D01*
X124730059Y-101306333D01*
X124587202Y-101306333D01*
X124491964Y-101353952D01*
X124444345Y-101401571D01*
X124396726Y-101496809D01*
X124396726Y-101734904D01*
X124444345Y-101830142D01*
X124491964Y-101877761D01*
X124587202Y-101925380D01*
X124872916Y-101925380D01*
X124968154Y-101877761D01*
X125015773Y-101830142D01*
X104155654Y-101925380D02*
X104155654Y-100925380D01*
X103822321Y-101639666D01*
X103488988Y-100925380D01*
X103488988Y-101925380D01*
X103108035Y-100925380D02*
X102441369Y-101925380D01*
X102441369Y-100925380D02*
X103108035Y-101925380D01*
X101631845Y-101258714D02*
X101631845Y-101925380D01*
X101869940Y-100877761D02*
X102108035Y-101592047D01*
X101488988Y-101592047D01*
X101155654Y-101020619D02*
X101108035Y-100973000D01*
X101012797Y-100925380D01*
X100774702Y-100925380D01*
X100679464Y-100973000D01*
X100631845Y-101020619D01*
X100584226Y-101115857D01*
X100584226Y-101211095D01*
X100631845Y-101353952D01*
X101203273Y-101925380D01*
X100584226Y-101925380D01*
X39861904Y-101925380D02*
X39861904Y-100925380D01*
X39528571Y-101639666D01*
X39195238Y-100925380D01*
X39195238Y-101925380D01*
X38814285Y-100925380D02*
X38147619Y-101925380D01*
X38147619Y-100925380D02*
X38814285Y-101925380D01*
X37861904Y-100925380D02*
X37242857Y-100925380D01*
X37576190Y-101306333D01*
X37433333Y-101306333D01*
X37338095Y-101353952D01*
X37290476Y-101401571D01*
X37242857Y-101496809D01*
X37242857Y-101734904D01*
X37290476Y-101830142D01*
X37338095Y-101877761D01*
X37433333Y-101925380D01*
X37719047Y-101925380D01*
X37814285Y-101877761D01*
X37861904Y-101830142D01*
X36766666Y-101925380D02*
X36576190Y-101925380D01*
X36480952Y-101877761D01*
X36433333Y-101830142D01*
X36338095Y-101687285D01*
X36290476Y-101496809D01*
X36290476Y-101115857D01*
X36338095Y-101020619D01*
X36385714Y-100973000D01*
X36480952Y-100925380D01*
X36671428Y-100925380D01*
X36766666Y-100973000D01*
X36814285Y-101020619D01*
X36861904Y-101115857D01*
X36861904Y-101353952D01*
X36814285Y-101449190D01*
X36766666Y-101496809D01*
X36671428Y-101544428D01*
X36480952Y-101544428D01*
X36385714Y-101496809D01*
X36338095Y-101449190D01*
X36290476Y-101353952D01*
X272327380Y-97210714D02*
X271327380Y-97210714D01*
X271327380Y-97448809D01*
X271375000Y-97591666D01*
X271470238Y-97686904D01*
X271565476Y-97734523D01*
X271755952Y-97782142D01*
X271898809Y-97782142D01*
X272089285Y-97734523D01*
X272184523Y-97686904D01*
X272279761Y-97591666D01*
X272327380Y-97448809D01*
X272327380Y-97210714D01*
X271660714Y-98639285D02*
X272327380Y-98639285D01*
X271279761Y-98401190D02*
X271994047Y-98163095D01*
X271994047Y-98782142D01*
X271755952Y-99305952D02*
X271708333Y-99210714D01*
X271660714Y-99163095D01*
X271565476Y-99115476D01*
X271517857Y-99115476D01*
X271422619Y-99163095D01*
X271375000Y-99210714D01*
X271327380Y-99305952D01*
X271327380Y-99496428D01*
X271375000Y-99591666D01*
X271422619Y-99639285D01*
X271517857Y-99686904D01*
X271565476Y-99686904D01*
X271660714Y-99639285D01*
X271708333Y-99591666D01*
X271755952Y-99496428D01*
X271755952Y-99305952D01*
X271803571Y-99210714D01*
X271851190Y-99163095D01*
X271946428Y-99115476D01*
X272136904Y-99115476D01*
X272232142Y-99163095D01*
X272279761Y-99210714D01*
X272327380Y-99305952D01*
X272327380Y-99496428D01*
X272279761Y-99591666D01*
X272232142Y-99639285D01*
X272136904Y-99686904D01*
X271946428Y-99686904D01*
X271851190Y-99639285D01*
X271803571Y-99591666D01*
X271755952Y-99496428D01*
X253277380Y-97210714D02*
X252277380Y-97210714D01*
X252277380Y-97448809D01*
X252325000Y-97591666D01*
X252420238Y-97686904D01*
X252515476Y-97734523D01*
X252705952Y-97782142D01*
X252848809Y-97782142D01*
X253039285Y-97734523D01*
X253134523Y-97686904D01*
X253229761Y-97591666D01*
X253277380Y-97448809D01*
X253277380Y-97210714D01*
X252610714Y-98639285D02*
X253277380Y-98639285D01*
X252229761Y-98401190D02*
X252944047Y-98163095D01*
X252944047Y-98782142D01*
X252277380Y-99067857D02*
X252277380Y-99734523D01*
X253277380Y-99305952D01*
X234227380Y-90860714D02*
X233227380Y-90860714D01*
X233227380Y-91098809D01*
X233275000Y-91241666D01*
X233370238Y-91336904D01*
X233465476Y-91384523D01*
X233655952Y-91432142D01*
X233798809Y-91432142D01*
X233989285Y-91384523D01*
X234084523Y-91336904D01*
X234179761Y-91241666D01*
X234227380Y-91098809D01*
X234227380Y-90860714D01*
X233560714Y-92289285D02*
X234227380Y-92289285D01*
X233179761Y-92051190D02*
X233894047Y-91813095D01*
X233894047Y-92432142D01*
X233227380Y-93241666D02*
X233227380Y-93051190D01*
X233275000Y-92955952D01*
X233322619Y-92908333D01*
X233465476Y-92813095D01*
X233655952Y-92765476D01*
X234036904Y-92765476D01*
X234132142Y-92813095D01*
X234179761Y-92860714D01*
X234227380Y-92955952D01*
X234227380Y-93146428D01*
X234179761Y-93241666D01*
X234132142Y-93289285D01*
X234036904Y-93336904D01*
X233798809Y-93336904D01*
X233703571Y-93289285D01*
X233655952Y-93241666D01*
X233608333Y-93146428D01*
X233608333Y-92955952D01*
X233655952Y-92860714D01*
X233703571Y-92813095D01*
X233798809Y-92765476D01*
X215177380Y-102829464D02*
X214177380Y-102829464D01*
X214177380Y-103067559D01*
X214225000Y-103210416D01*
X214320238Y-103305654D01*
X214415476Y-103353273D01*
X214605952Y-103400892D01*
X214748809Y-103400892D01*
X214939285Y-103353273D01*
X215034523Y-103305654D01*
X215129761Y-103210416D01*
X215177380Y-103067559D01*
X215177380Y-102829464D01*
X214510714Y-104258035D02*
X215177380Y-104258035D01*
X214129761Y-104019940D02*
X214844047Y-103781845D01*
X214844047Y-104400892D01*
X214177380Y-105258035D02*
X214177380Y-104781845D01*
X214653571Y-104734226D01*
X214605952Y-104781845D01*
X214558333Y-104877083D01*
X214558333Y-105115178D01*
X214605952Y-105210416D01*
X214653571Y-105258035D01*
X214748809Y-105305654D01*
X214986904Y-105305654D01*
X215082142Y-105258035D01*
X215129761Y-105210416D01*
X215177380Y-105115178D01*
X215177380Y-104877083D01*
X215129761Y-104781845D01*
X215082142Y-104734226D01*
X178474380Y-96449714D02*
X177474380Y-96449714D01*
X177474380Y-96687809D01*
X177522000Y-96830666D01*
X177617238Y-96925904D01*
X177712476Y-96973523D01*
X177902952Y-97021142D01*
X178045809Y-97021142D01*
X178236285Y-96973523D01*
X178331523Y-96925904D01*
X178426761Y-96830666D01*
X178474380Y-96687809D01*
X178474380Y-96449714D01*
X177807714Y-97878285D02*
X178474380Y-97878285D01*
X177426761Y-97640190D02*
X178141047Y-97402095D01*
X178141047Y-98021142D01*
X177807714Y-98830666D02*
X178474380Y-98830666D01*
X177426761Y-98592571D02*
X178141047Y-98354476D01*
X178141047Y-98973523D01*
X138183630Y-97210714D02*
X137183630Y-97210714D01*
X137183630Y-97448809D01*
X137231250Y-97591666D01*
X137326488Y-97686904D01*
X137421726Y-97734523D01*
X137612202Y-97782142D01*
X137755059Y-97782142D01*
X137945535Y-97734523D01*
X138040773Y-97686904D01*
X138136011Y-97591666D01*
X138183630Y-97448809D01*
X138183630Y-97210714D01*
X137516964Y-98639285D02*
X138183630Y-98639285D01*
X137136011Y-98401190D02*
X137850297Y-98163095D01*
X137850297Y-98782142D01*
X137183630Y-99067857D02*
X137183630Y-99686904D01*
X137564583Y-99353571D01*
X137564583Y-99496428D01*
X137612202Y-99591666D01*
X137659821Y-99639285D01*
X137755059Y-99686904D01*
X137993154Y-99686904D01*
X138088392Y-99639285D01*
X138136011Y-99591666D01*
X138183630Y-99496428D01*
X138183630Y-99210714D01*
X138136011Y-99115476D01*
X138088392Y-99067857D01*
X114371130Y-97210714D02*
X113371130Y-97210714D01*
X113371130Y-97448809D01*
X113418750Y-97591666D01*
X113513988Y-97686904D01*
X113609226Y-97734523D01*
X113799702Y-97782142D01*
X113942559Y-97782142D01*
X114133035Y-97734523D01*
X114228273Y-97686904D01*
X114323511Y-97591666D01*
X114371130Y-97448809D01*
X114371130Y-97210714D01*
X113704464Y-98639285D02*
X114371130Y-98639285D01*
X113323511Y-98401190D02*
X114037797Y-98163095D01*
X114037797Y-98782142D01*
X113466369Y-99115476D02*
X113418750Y-99163095D01*
X113371130Y-99258333D01*
X113371130Y-99496428D01*
X113418750Y-99591666D01*
X113466369Y-99639285D01*
X113561607Y-99686904D01*
X113656845Y-99686904D01*
X113799702Y-99639285D01*
X114371130Y-99067857D01*
X114371130Y-99686904D01*
X89764880Y-97210714D02*
X88764880Y-97210714D01*
X88764880Y-97448809D01*
X88812500Y-97591666D01*
X88907738Y-97686904D01*
X89002976Y-97734523D01*
X89193452Y-97782142D01*
X89336309Y-97782142D01*
X89526785Y-97734523D01*
X89622023Y-97686904D01*
X89717261Y-97591666D01*
X89764880Y-97448809D01*
X89764880Y-97210714D01*
X89098214Y-98639285D02*
X89764880Y-98639285D01*
X88717261Y-98401190D02*
X89431547Y-98163095D01*
X89431547Y-98782142D01*
X89764880Y-99686904D02*
X89764880Y-99115476D01*
X89764880Y-99401190D02*
X88764880Y-99401190D01*
X88907738Y-99305952D01*
X89002976Y-99210714D01*
X89050595Y-99115476D01*
X67539880Y-97210714D02*
X66539880Y-97210714D01*
X66539880Y-97448809D01*
X66587500Y-97591666D01*
X66682738Y-97686904D01*
X66777976Y-97734523D01*
X66968452Y-97782142D01*
X67111309Y-97782142D01*
X67301785Y-97734523D01*
X67397023Y-97686904D01*
X67492261Y-97591666D01*
X67539880Y-97448809D01*
X67539880Y-97210714D01*
X66873214Y-98639285D02*
X67539880Y-98639285D01*
X66492261Y-98401190D02*
X67206547Y-98163095D01*
X67206547Y-98782142D01*
X66539880Y-99353571D02*
X66539880Y-99448809D01*
X66587500Y-99544047D01*
X66635119Y-99591666D01*
X66730357Y-99639285D01*
X66920833Y-99686904D01*
X67158928Y-99686904D01*
X67349404Y-99639285D01*
X67444642Y-99591666D01*
X67492261Y-99544047D01*
X67539880Y-99448809D01*
X67539880Y-99353571D01*
X67492261Y-99258333D01*
X67444642Y-99210714D01*
X67349404Y-99163095D01*
X67158928Y-99115476D01*
X66920833Y-99115476D01*
X66730357Y-99163095D01*
X66635119Y-99210714D01*
X66587500Y-99258333D01*
X66539880Y-99353571D01*
X48489880Y-97337714D02*
X47489880Y-97337714D01*
X47489880Y-97575809D01*
X47537500Y-97718666D01*
X47632738Y-97813904D01*
X47727976Y-97861523D01*
X47918452Y-97909142D01*
X48061309Y-97909142D01*
X48251785Y-97861523D01*
X48347023Y-97813904D01*
X48442261Y-97718666D01*
X48489880Y-97575809D01*
X48489880Y-97337714D01*
X47489880Y-98242476D02*
X47489880Y-98861523D01*
X47870833Y-98528190D01*
X47870833Y-98671047D01*
X47918452Y-98766285D01*
X47966071Y-98813904D01*
X48061309Y-98861523D01*
X48299404Y-98861523D01*
X48394642Y-98813904D01*
X48442261Y-98766285D01*
X48489880Y-98671047D01*
X48489880Y-98385333D01*
X48442261Y-98290095D01*
X48394642Y-98242476D01*
X48489880Y-99337714D02*
X48489880Y-99528190D01*
X48442261Y-99623428D01*
X48394642Y-99671047D01*
X48251785Y-99766285D01*
X48061309Y-99813904D01*
X47680357Y-99813904D01*
X47585119Y-99766285D01*
X47537500Y-99718666D01*
X47489880Y-99623428D01*
X47489880Y-99432952D01*
X47537500Y-99337714D01*
X47585119Y-99290095D01*
X47680357Y-99242476D01*
X47918452Y-99242476D01*
X48013690Y-99290095D01*
X48061309Y-99337714D01*
X48108928Y-99432952D01*
X48108928Y-99623428D01*
X48061309Y-99718666D01*
X48013690Y-99766285D01*
X47918452Y-99813904D01*
X267564880Y-77366964D02*
X266564880Y-77366964D01*
X266564880Y-77605059D01*
X266612500Y-77747916D01*
X266707738Y-77843154D01*
X266802976Y-77890773D01*
X266993452Y-77938392D01*
X267136309Y-77938392D01*
X267326785Y-77890773D01*
X267422023Y-77843154D01*
X267517261Y-77747916D01*
X267564880Y-77605059D01*
X267564880Y-77366964D01*
X266564880Y-78271726D02*
X266564880Y-78890773D01*
X266945833Y-78557440D01*
X266945833Y-78700297D01*
X266993452Y-78795535D01*
X267041071Y-78843154D01*
X267136309Y-78890773D01*
X267374404Y-78890773D01*
X267469642Y-78843154D01*
X267517261Y-78795535D01*
X267564880Y-78700297D01*
X267564880Y-78414583D01*
X267517261Y-78319345D01*
X267469642Y-78271726D01*
X266993452Y-79462202D02*
X266945833Y-79366964D01*
X266898214Y-79319345D01*
X266802976Y-79271726D01*
X266755357Y-79271726D01*
X266660119Y-79319345D01*
X266612500Y-79366964D01*
X266564880Y-79462202D01*
X266564880Y-79652678D01*
X266612500Y-79747916D01*
X266660119Y-79795535D01*
X266755357Y-79843154D01*
X266802976Y-79843154D01*
X266898214Y-79795535D01*
X266945833Y-79747916D01*
X266993452Y-79652678D01*
X266993452Y-79462202D01*
X267041071Y-79366964D01*
X267088690Y-79319345D01*
X267183928Y-79271726D01*
X267374404Y-79271726D01*
X267469642Y-79319345D01*
X267517261Y-79366964D01*
X267564880Y-79462202D01*
X267564880Y-79652678D01*
X267517261Y-79747916D01*
X267469642Y-79795535D01*
X267374404Y-79843154D01*
X267183928Y-79843154D01*
X267088690Y-79795535D01*
X267041071Y-79747916D01*
X266993452Y-79652678D01*
X247054380Y-84638714D02*
X246054380Y-84638714D01*
X246054380Y-84876809D01*
X246102000Y-85019666D01*
X246197238Y-85114904D01*
X246292476Y-85162523D01*
X246482952Y-85210142D01*
X246625809Y-85210142D01*
X246816285Y-85162523D01*
X246911523Y-85114904D01*
X247006761Y-85019666D01*
X247054380Y-84876809D01*
X247054380Y-84638714D01*
X246054380Y-85543476D02*
X246054380Y-86162523D01*
X246435333Y-85829190D01*
X246435333Y-85972047D01*
X246482952Y-86067285D01*
X246530571Y-86114904D01*
X246625809Y-86162523D01*
X246863904Y-86162523D01*
X246959142Y-86114904D01*
X247006761Y-86067285D01*
X247054380Y-85972047D01*
X247054380Y-85686333D01*
X247006761Y-85591095D01*
X246959142Y-85543476D01*
X246054380Y-86495857D02*
X246054380Y-87162523D01*
X247054380Y-86733952D01*
X210414880Y-78160714D02*
X209414880Y-78160714D01*
X209414880Y-78398809D01*
X209462500Y-78541666D01*
X209557738Y-78636904D01*
X209652976Y-78684523D01*
X209843452Y-78732142D01*
X209986309Y-78732142D01*
X210176785Y-78684523D01*
X210272023Y-78636904D01*
X210367261Y-78541666D01*
X210414880Y-78398809D01*
X210414880Y-78160714D01*
X209414880Y-79065476D02*
X209414880Y-79684523D01*
X209795833Y-79351190D01*
X209795833Y-79494047D01*
X209843452Y-79589285D01*
X209891071Y-79636904D01*
X209986309Y-79684523D01*
X210224404Y-79684523D01*
X210319642Y-79636904D01*
X210367261Y-79589285D01*
X210414880Y-79494047D01*
X210414880Y-79208333D01*
X210367261Y-79113095D01*
X210319642Y-79065476D01*
X209414880Y-80589285D02*
X209414880Y-80113095D01*
X209891071Y-80065476D01*
X209843452Y-80113095D01*
X209795833Y-80208333D01*
X209795833Y-80446428D01*
X209843452Y-80541666D01*
X209891071Y-80589285D01*
X209986309Y-80636904D01*
X210224404Y-80636904D01*
X210319642Y-80589285D01*
X210367261Y-80541666D01*
X210414880Y-80446428D01*
X210414880Y-80208333D01*
X210367261Y-80113095D01*
X210319642Y-80065476D01*
X191364880Y-77366964D02*
X190364880Y-77366964D01*
X190364880Y-77605059D01*
X190412500Y-77747916D01*
X190507738Y-77843154D01*
X190602976Y-77890773D01*
X190793452Y-77938392D01*
X190936309Y-77938392D01*
X191126785Y-77890773D01*
X191222023Y-77843154D01*
X191317261Y-77747916D01*
X191364880Y-77605059D01*
X191364880Y-77366964D01*
X190364880Y-78271726D02*
X190364880Y-78890773D01*
X190745833Y-78557440D01*
X190745833Y-78700297D01*
X190793452Y-78795535D01*
X190841071Y-78843154D01*
X190936309Y-78890773D01*
X191174404Y-78890773D01*
X191269642Y-78843154D01*
X191317261Y-78795535D01*
X191364880Y-78700297D01*
X191364880Y-78414583D01*
X191317261Y-78319345D01*
X191269642Y-78271726D01*
X190698214Y-79747916D02*
X191364880Y-79747916D01*
X190317261Y-79509821D02*
X191031547Y-79271726D01*
X191031547Y-79890773D01*
X172314880Y-78160714D02*
X171314880Y-78160714D01*
X171314880Y-78398809D01*
X171362500Y-78541666D01*
X171457738Y-78636904D01*
X171552976Y-78684523D01*
X171743452Y-78732142D01*
X171886309Y-78732142D01*
X172076785Y-78684523D01*
X172172023Y-78636904D01*
X172267261Y-78541666D01*
X172314880Y-78398809D01*
X172314880Y-78160714D01*
X171314880Y-79065476D02*
X171314880Y-79684523D01*
X171695833Y-79351190D01*
X171695833Y-79494047D01*
X171743452Y-79589285D01*
X171791071Y-79636904D01*
X171886309Y-79684523D01*
X172124404Y-79684523D01*
X172219642Y-79636904D01*
X172267261Y-79589285D01*
X172314880Y-79494047D01*
X172314880Y-79208333D01*
X172267261Y-79113095D01*
X172219642Y-79065476D01*
X171314880Y-80017857D02*
X171314880Y-80636904D01*
X171695833Y-80303571D01*
X171695833Y-80446428D01*
X171743452Y-80541666D01*
X171791071Y-80589285D01*
X171886309Y-80636904D01*
X172124404Y-80636904D01*
X172219642Y-80589285D01*
X172267261Y-80541666D01*
X172314880Y-80446428D01*
X172314880Y-80160714D01*
X172267261Y-80065476D01*
X172219642Y-80017857D01*
X153106130Y-78223214D02*
X152106130Y-78223214D01*
X152106130Y-78461309D01*
X152153750Y-78604166D01*
X152248988Y-78699404D01*
X152344226Y-78747023D01*
X152534702Y-78794642D01*
X152677559Y-78794642D01*
X152868035Y-78747023D01*
X152963273Y-78699404D01*
X153058511Y-78604166D01*
X153106130Y-78461309D01*
X153106130Y-78223214D01*
X152106130Y-79127976D02*
X152106130Y-79747023D01*
X152487083Y-79413690D01*
X152487083Y-79556547D01*
X152534702Y-79651785D01*
X152582321Y-79699404D01*
X152677559Y-79747023D01*
X152915654Y-79747023D01*
X153010892Y-79699404D01*
X153058511Y-79651785D01*
X153106130Y-79556547D01*
X153106130Y-79270833D01*
X153058511Y-79175595D01*
X153010892Y-79127976D01*
X152201369Y-80127976D02*
X152153750Y-80175595D01*
X152106130Y-80270833D01*
X152106130Y-80508928D01*
X152153750Y-80604166D01*
X152201369Y-80651785D01*
X152296607Y-80699404D01*
X152391845Y-80699404D01*
X152534702Y-80651785D01*
X153106130Y-80080357D01*
X153106130Y-80699404D01*
X134214880Y-78160714D02*
X133214880Y-78160714D01*
X133214880Y-78398809D01*
X133262500Y-78541666D01*
X133357738Y-78636904D01*
X133452976Y-78684523D01*
X133643452Y-78732142D01*
X133786309Y-78732142D01*
X133976785Y-78684523D01*
X134072023Y-78636904D01*
X134167261Y-78541666D01*
X134214880Y-78398809D01*
X134214880Y-78160714D01*
X133214880Y-79065476D02*
X133214880Y-79684523D01*
X133595833Y-79351190D01*
X133595833Y-79494047D01*
X133643452Y-79589285D01*
X133691071Y-79636904D01*
X133786309Y-79684523D01*
X134024404Y-79684523D01*
X134119642Y-79636904D01*
X134167261Y-79589285D01*
X134214880Y-79494047D01*
X134214880Y-79208333D01*
X134167261Y-79113095D01*
X134119642Y-79065476D01*
X134214880Y-80636904D02*
X134214880Y-80065476D01*
X134214880Y-80351190D02*
X133214880Y-80351190D01*
X133357738Y-80255952D01*
X133452976Y-80160714D01*
X133500595Y-80065476D01*
X115164880Y-78160714D02*
X114164880Y-78160714D01*
X114164880Y-78398809D01*
X114212500Y-78541666D01*
X114307738Y-78636904D01*
X114402976Y-78684523D01*
X114593452Y-78732142D01*
X114736309Y-78732142D01*
X114926785Y-78684523D01*
X115022023Y-78636904D01*
X115117261Y-78541666D01*
X115164880Y-78398809D01*
X115164880Y-78160714D01*
X114164880Y-79065476D02*
X114164880Y-79684523D01*
X114545833Y-79351190D01*
X114545833Y-79494047D01*
X114593452Y-79589285D01*
X114641071Y-79636904D01*
X114736309Y-79684523D01*
X114974404Y-79684523D01*
X115069642Y-79636904D01*
X115117261Y-79589285D01*
X115164880Y-79494047D01*
X115164880Y-79208333D01*
X115117261Y-79113095D01*
X115069642Y-79065476D01*
X114164880Y-80303571D02*
X114164880Y-80398809D01*
X114212500Y-80494047D01*
X114260119Y-80541666D01*
X114355357Y-80589285D01*
X114545833Y-80636904D01*
X114783928Y-80636904D01*
X114974404Y-80589285D01*
X115069642Y-80541666D01*
X115117261Y-80494047D01*
X115164880Y-80398809D01*
X115164880Y-80303571D01*
X115117261Y-80208333D01*
X115069642Y-80160714D01*
X114974404Y-80113095D01*
X114783928Y-80065476D01*
X114545833Y-80065476D01*
X114355357Y-80113095D01*
X114260119Y-80160714D01*
X114212500Y-80208333D01*
X114164880Y-80303571D01*
X96210130Y-78160714D02*
X95210130Y-78160714D01*
X95210130Y-78398809D01*
X95257750Y-78541666D01*
X95352988Y-78636904D01*
X95448226Y-78684523D01*
X95638702Y-78732142D01*
X95781559Y-78732142D01*
X95972035Y-78684523D01*
X96067273Y-78636904D01*
X96162511Y-78541666D01*
X96210130Y-78398809D01*
X96210130Y-78160714D01*
X95305369Y-79113095D02*
X95257750Y-79160714D01*
X95210130Y-79255952D01*
X95210130Y-79494047D01*
X95257750Y-79589285D01*
X95305369Y-79636904D01*
X95400607Y-79684523D01*
X95495845Y-79684523D01*
X95638702Y-79636904D01*
X96210130Y-79065476D01*
X96210130Y-79684523D01*
X96210130Y-80160714D02*
X96210130Y-80351190D01*
X96162511Y-80446428D01*
X96114892Y-80494047D01*
X95972035Y-80589285D01*
X95781559Y-80636904D01*
X95400607Y-80636904D01*
X95305369Y-80589285D01*
X95257750Y-80541666D01*
X95210130Y-80446428D01*
X95210130Y-80255952D01*
X95257750Y-80160714D01*
X95305369Y-80113095D01*
X95400607Y-80065476D01*
X95638702Y-80065476D01*
X95733940Y-80113095D01*
X95781559Y-80160714D01*
X95829178Y-80255952D01*
X95829178Y-80446428D01*
X95781559Y-80541666D01*
X95733940Y-80589285D01*
X95638702Y-80636904D01*
X77064880Y-78160714D02*
X76064880Y-78160714D01*
X76064880Y-78398809D01*
X76112500Y-78541666D01*
X76207738Y-78636904D01*
X76302976Y-78684523D01*
X76493452Y-78732142D01*
X76636309Y-78732142D01*
X76826785Y-78684523D01*
X76922023Y-78636904D01*
X77017261Y-78541666D01*
X77064880Y-78398809D01*
X77064880Y-78160714D01*
X76160119Y-79113095D02*
X76112500Y-79160714D01*
X76064880Y-79255952D01*
X76064880Y-79494047D01*
X76112500Y-79589285D01*
X76160119Y-79636904D01*
X76255357Y-79684523D01*
X76350595Y-79684523D01*
X76493452Y-79636904D01*
X77064880Y-79065476D01*
X77064880Y-79684523D01*
X76493452Y-80255952D02*
X76445833Y-80160714D01*
X76398214Y-80113095D01*
X76302976Y-80065476D01*
X76255357Y-80065476D01*
X76160119Y-80113095D01*
X76112500Y-80160714D01*
X76064880Y-80255952D01*
X76064880Y-80446428D01*
X76112500Y-80541666D01*
X76160119Y-80589285D01*
X76255357Y-80636904D01*
X76302976Y-80636904D01*
X76398214Y-80589285D01*
X76445833Y-80541666D01*
X76493452Y-80446428D01*
X76493452Y-80255952D01*
X76541071Y-80160714D01*
X76588690Y-80113095D01*
X76683928Y-80065476D01*
X76874404Y-80065476D01*
X76969642Y-80113095D01*
X77017261Y-80160714D01*
X77064880Y-80255952D01*
X77064880Y-80446428D01*
X77017261Y-80541666D01*
X76969642Y-80589285D01*
X76874404Y-80636904D01*
X76683928Y-80636904D01*
X76588690Y-80589285D01*
X76541071Y-80541666D01*
X76493452Y-80446428D01*
X57221130Y-77874964D02*
X56221130Y-77874964D01*
X56221130Y-78113059D01*
X56268750Y-78255916D01*
X56363988Y-78351154D01*
X56459226Y-78398773D01*
X56649702Y-78446392D01*
X56792559Y-78446392D01*
X56983035Y-78398773D01*
X57078273Y-78351154D01*
X57173511Y-78255916D01*
X57221130Y-78113059D01*
X57221130Y-77874964D01*
X56316369Y-78827345D02*
X56268750Y-78874964D01*
X56221130Y-78970202D01*
X56221130Y-79208297D01*
X56268750Y-79303535D01*
X56316369Y-79351154D01*
X56411607Y-79398773D01*
X56506845Y-79398773D01*
X56649702Y-79351154D01*
X57221130Y-78779726D01*
X57221130Y-79398773D01*
X56221130Y-79732107D02*
X56221130Y-80398773D01*
X57221130Y-79970202D01*
X275407380Y-63047714D02*
X274407380Y-63047714D01*
X274407380Y-63285809D01*
X274455000Y-63428666D01*
X274550238Y-63523904D01*
X274645476Y-63571523D01*
X274835952Y-63619142D01*
X274978809Y-63619142D01*
X275169285Y-63571523D01*
X275264523Y-63523904D01*
X275359761Y-63428666D01*
X275407380Y-63285809D01*
X275407380Y-63047714D01*
X274502619Y-64000095D02*
X274455000Y-64047714D01*
X274407380Y-64142952D01*
X274407380Y-64381047D01*
X274455000Y-64476285D01*
X274502619Y-64523904D01*
X274597857Y-64571523D01*
X274693095Y-64571523D01*
X274835952Y-64523904D01*
X275407380Y-63952476D01*
X275407380Y-64571523D01*
X274407380Y-65428666D02*
X274407380Y-65238190D01*
X274455000Y-65142952D01*
X274502619Y-65095333D01*
X274645476Y-65000095D01*
X274835952Y-64952476D01*
X275216904Y-64952476D01*
X275312142Y-65000095D01*
X275359761Y-65047714D01*
X275407380Y-65142952D01*
X275407380Y-65333428D01*
X275359761Y-65428666D01*
X275312142Y-65476285D01*
X275216904Y-65523904D01*
X274978809Y-65523904D01*
X274883571Y-65476285D01*
X274835952Y-65428666D01*
X274788333Y-65333428D01*
X274788333Y-65142952D01*
X274835952Y-65047714D01*
X274883571Y-65000095D01*
X274978809Y-64952476D01*
X258039880Y-57458714D02*
X257039880Y-57458714D01*
X257039880Y-57696809D01*
X257087500Y-57839666D01*
X257182738Y-57934904D01*
X257277976Y-57982523D01*
X257468452Y-58030142D01*
X257611309Y-58030142D01*
X257801785Y-57982523D01*
X257897023Y-57934904D01*
X257992261Y-57839666D01*
X258039880Y-57696809D01*
X258039880Y-57458714D01*
X257135119Y-58411095D02*
X257087500Y-58458714D01*
X257039880Y-58553952D01*
X257039880Y-58792047D01*
X257087500Y-58887285D01*
X257135119Y-58934904D01*
X257230357Y-58982523D01*
X257325595Y-58982523D01*
X257468452Y-58934904D01*
X258039880Y-58363476D01*
X258039880Y-58982523D01*
X257039880Y-59887285D02*
X257039880Y-59411095D01*
X257516071Y-59363476D01*
X257468452Y-59411095D01*
X257420833Y-59506333D01*
X257420833Y-59744428D01*
X257468452Y-59839666D01*
X257516071Y-59887285D01*
X257611309Y-59934904D01*
X257849404Y-59934904D01*
X257944642Y-59887285D01*
X257992261Y-59839666D01*
X258039880Y-59744428D01*
X258039880Y-59506333D01*
X257992261Y-59411095D01*
X257944642Y-59363476D01*
X224956380Y-52505714D02*
X223956380Y-52505714D01*
X223956380Y-52743809D01*
X224004000Y-52886666D01*
X224099238Y-52981904D01*
X224194476Y-53029523D01*
X224384952Y-53077142D01*
X224527809Y-53077142D01*
X224718285Y-53029523D01*
X224813523Y-52981904D01*
X224908761Y-52886666D01*
X224956380Y-52743809D01*
X224956380Y-52505714D01*
X224051619Y-53458095D02*
X224004000Y-53505714D01*
X223956380Y-53600952D01*
X223956380Y-53839047D01*
X224004000Y-53934285D01*
X224051619Y-53981904D01*
X224146857Y-54029523D01*
X224242095Y-54029523D01*
X224384952Y-53981904D01*
X224956380Y-53410476D01*
X224956380Y-54029523D01*
X224289714Y-54886666D02*
X224956380Y-54886666D01*
X223908761Y-54648571D02*
X224623047Y-54410476D01*
X224623047Y-55029523D01*
X219939880Y-59110714D02*
X218939880Y-59110714D01*
X218939880Y-59348809D01*
X218987500Y-59491666D01*
X219082738Y-59586904D01*
X219177976Y-59634523D01*
X219368452Y-59682142D01*
X219511309Y-59682142D01*
X219701785Y-59634523D01*
X219797023Y-59586904D01*
X219892261Y-59491666D01*
X219939880Y-59348809D01*
X219939880Y-59110714D01*
X219035119Y-60063095D02*
X218987500Y-60110714D01*
X218939880Y-60205952D01*
X218939880Y-60444047D01*
X218987500Y-60539285D01*
X219035119Y-60586904D01*
X219130357Y-60634523D01*
X219225595Y-60634523D01*
X219368452Y-60586904D01*
X219939880Y-60015476D01*
X219939880Y-60634523D01*
X218939880Y-60967857D02*
X218939880Y-61586904D01*
X219320833Y-61253571D01*
X219320833Y-61396428D01*
X219368452Y-61491666D01*
X219416071Y-61539285D01*
X219511309Y-61586904D01*
X219749404Y-61586904D01*
X219844642Y-61539285D01*
X219892261Y-61491666D01*
X219939880Y-61396428D01*
X219939880Y-61110714D01*
X219892261Y-61015476D01*
X219844642Y-60967857D01*
X200889880Y-59110714D02*
X199889880Y-59110714D01*
X199889880Y-59348809D01*
X199937500Y-59491666D01*
X200032738Y-59586904D01*
X200127976Y-59634523D01*
X200318452Y-59682142D01*
X200461309Y-59682142D01*
X200651785Y-59634523D01*
X200747023Y-59586904D01*
X200842261Y-59491666D01*
X200889880Y-59348809D01*
X200889880Y-59110714D01*
X199985119Y-60063095D02*
X199937500Y-60110714D01*
X199889880Y-60205952D01*
X199889880Y-60444047D01*
X199937500Y-60539285D01*
X199985119Y-60586904D01*
X200080357Y-60634523D01*
X200175595Y-60634523D01*
X200318452Y-60586904D01*
X200889880Y-60015476D01*
X200889880Y-60634523D01*
X199985119Y-61015476D02*
X199937500Y-61063095D01*
X199889880Y-61158333D01*
X199889880Y-61396428D01*
X199937500Y-61491666D01*
X199985119Y-61539285D01*
X200080357Y-61586904D01*
X200175595Y-61586904D01*
X200318452Y-61539285D01*
X200889880Y-60967857D01*
X200889880Y-61586904D01*
X181839880Y-59110714D02*
X180839880Y-59110714D01*
X180839880Y-59348809D01*
X180887500Y-59491666D01*
X180982738Y-59586904D01*
X181077976Y-59634523D01*
X181268452Y-59682142D01*
X181411309Y-59682142D01*
X181601785Y-59634523D01*
X181697023Y-59586904D01*
X181792261Y-59491666D01*
X181839880Y-59348809D01*
X181839880Y-59110714D01*
X180935119Y-60063095D02*
X180887500Y-60110714D01*
X180839880Y-60205952D01*
X180839880Y-60444047D01*
X180887500Y-60539285D01*
X180935119Y-60586904D01*
X181030357Y-60634523D01*
X181125595Y-60634523D01*
X181268452Y-60586904D01*
X181839880Y-60015476D01*
X181839880Y-60634523D01*
X181839880Y-61586904D02*
X181839880Y-61015476D01*
X181839880Y-61301190D02*
X180839880Y-61301190D01*
X180982738Y-61205952D01*
X181077976Y-61110714D01*
X181125595Y-61015476D01*
X162789880Y-59173214D02*
X161789880Y-59173214D01*
X161789880Y-59411309D01*
X161837500Y-59554166D01*
X161932738Y-59649404D01*
X162027976Y-59697023D01*
X162218452Y-59744642D01*
X162361309Y-59744642D01*
X162551785Y-59697023D01*
X162647023Y-59649404D01*
X162742261Y-59554166D01*
X162789880Y-59411309D01*
X162789880Y-59173214D01*
X161885119Y-60125595D02*
X161837500Y-60173214D01*
X161789880Y-60268452D01*
X161789880Y-60506547D01*
X161837500Y-60601785D01*
X161885119Y-60649404D01*
X161980357Y-60697023D01*
X162075595Y-60697023D01*
X162218452Y-60649404D01*
X162789880Y-60077976D01*
X162789880Y-60697023D01*
X161789880Y-61316071D02*
X161789880Y-61411309D01*
X161837500Y-61506547D01*
X161885119Y-61554166D01*
X161980357Y-61601785D01*
X162170833Y-61649404D01*
X162408928Y-61649404D01*
X162599404Y-61601785D01*
X162694642Y-61554166D01*
X162742261Y-61506547D01*
X162789880Y-61411309D01*
X162789880Y-61316071D01*
X162742261Y-61220833D01*
X162694642Y-61173214D01*
X162599404Y-61125595D01*
X162408928Y-61077976D01*
X162170833Y-61077976D01*
X161980357Y-61125595D01*
X161885119Y-61173214D01*
X161837500Y-61220833D01*
X161789880Y-61316071D01*
X143739880Y-58983714D02*
X142739880Y-58983714D01*
X142739880Y-59221809D01*
X142787500Y-59364666D01*
X142882738Y-59459904D01*
X142977976Y-59507523D01*
X143168452Y-59555142D01*
X143311309Y-59555142D01*
X143501785Y-59507523D01*
X143597023Y-59459904D01*
X143692261Y-59364666D01*
X143739880Y-59221809D01*
X143739880Y-58983714D01*
X143739880Y-60507523D02*
X143739880Y-59936095D01*
X143739880Y-60221809D02*
X142739880Y-60221809D01*
X142882738Y-60126571D01*
X142977976Y-60031333D01*
X143025595Y-59936095D01*
X143739880Y-60983714D02*
X143739880Y-61174190D01*
X143692261Y-61269428D01*
X143644642Y-61317047D01*
X143501785Y-61412285D01*
X143311309Y-61459904D01*
X142930357Y-61459904D01*
X142835119Y-61412285D01*
X142787500Y-61364666D01*
X142739880Y-61269428D01*
X142739880Y-61078952D01*
X142787500Y-60983714D01*
X142835119Y-60936095D01*
X142930357Y-60888476D01*
X143168452Y-60888476D01*
X143263690Y-60936095D01*
X143311309Y-60983714D01*
X143358928Y-61078952D01*
X143358928Y-61269428D01*
X143311309Y-61364666D01*
X143263690Y-61412285D01*
X143168452Y-61459904D01*
X124689880Y-59110714D02*
X123689880Y-59110714D01*
X123689880Y-59348809D01*
X123737500Y-59491666D01*
X123832738Y-59586904D01*
X123927976Y-59634523D01*
X124118452Y-59682142D01*
X124261309Y-59682142D01*
X124451785Y-59634523D01*
X124547023Y-59586904D01*
X124642261Y-59491666D01*
X124689880Y-59348809D01*
X124689880Y-59110714D01*
X124689880Y-60634523D02*
X124689880Y-60063095D01*
X124689880Y-60348809D02*
X123689880Y-60348809D01*
X123832738Y-60253571D01*
X123927976Y-60158333D01*
X123975595Y-60063095D01*
X124118452Y-61205952D02*
X124070833Y-61110714D01*
X124023214Y-61063095D01*
X123927976Y-61015476D01*
X123880357Y-61015476D01*
X123785119Y-61063095D01*
X123737500Y-61110714D01*
X123689880Y-61205952D01*
X123689880Y-61396428D01*
X123737500Y-61491666D01*
X123785119Y-61539285D01*
X123880357Y-61586904D01*
X123927976Y-61586904D01*
X124023214Y-61539285D01*
X124070833Y-61491666D01*
X124118452Y-61396428D01*
X124118452Y-61205952D01*
X124166071Y-61110714D01*
X124213690Y-61063095D01*
X124308928Y-61015476D01*
X124499404Y-61015476D01*
X124594642Y-61063095D01*
X124642261Y-61110714D01*
X124689880Y-61205952D01*
X124689880Y-61396428D01*
X124642261Y-61491666D01*
X124594642Y-61539285D01*
X124499404Y-61586904D01*
X124308928Y-61586904D01*
X124213690Y-61539285D01*
X124166071Y-61491666D01*
X124118452Y-61396428D01*
X105639880Y-59364714D02*
X104639880Y-59364714D01*
X104639880Y-59602809D01*
X104687500Y-59745666D01*
X104782738Y-59840904D01*
X104877976Y-59888523D01*
X105068452Y-59936142D01*
X105211309Y-59936142D01*
X105401785Y-59888523D01*
X105497023Y-59840904D01*
X105592261Y-59745666D01*
X105639880Y-59602809D01*
X105639880Y-59364714D01*
X105639880Y-60888523D02*
X105639880Y-60317095D01*
X105639880Y-60602809D02*
X104639880Y-60602809D01*
X104782738Y-60507571D01*
X104877976Y-60412333D01*
X104925595Y-60317095D01*
X104639880Y-61221857D02*
X104639880Y-61888523D01*
X105639880Y-61459952D01*
X86589880Y-59110714D02*
X85589880Y-59110714D01*
X85589880Y-59348809D01*
X85637500Y-59491666D01*
X85732738Y-59586904D01*
X85827976Y-59634523D01*
X86018452Y-59682142D01*
X86161309Y-59682142D01*
X86351785Y-59634523D01*
X86447023Y-59586904D01*
X86542261Y-59491666D01*
X86589880Y-59348809D01*
X86589880Y-59110714D01*
X86589880Y-60634523D02*
X86589880Y-60063095D01*
X86589880Y-60348809D02*
X85589880Y-60348809D01*
X85732738Y-60253571D01*
X85827976Y-60158333D01*
X85875595Y-60063095D01*
X85589880Y-61491666D02*
X85589880Y-61301190D01*
X85637500Y-61205952D01*
X85685119Y-61158333D01*
X85827976Y-61063095D01*
X86018452Y-61015476D01*
X86399404Y-61015476D01*
X86494642Y-61063095D01*
X86542261Y-61110714D01*
X86589880Y-61205952D01*
X86589880Y-61396428D01*
X86542261Y-61491666D01*
X86494642Y-61539285D01*
X86399404Y-61586904D01*
X86161309Y-61586904D01*
X86066071Y-61539285D01*
X86018452Y-61491666D01*
X85970833Y-61396428D01*
X85970833Y-61205952D01*
X86018452Y-61110714D01*
X86066071Y-61063095D01*
X86161309Y-61015476D01*
X275375380Y-37519714D02*
X274375380Y-37519714D01*
X274375380Y-37757809D01*
X274423000Y-37900666D01*
X274518238Y-37995904D01*
X274613476Y-38043523D01*
X274803952Y-38091142D01*
X274946809Y-38091142D01*
X275137285Y-38043523D01*
X275232523Y-37995904D01*
X275327761Y-37900666D01*
X275375380Y-37757809D01*
X275375380Y-37519714D01*
X275375380Y-39043523D02*
X275375380Y-38472095D01*
X275375380Y-38757809D02*
X274375380Y-38757809D01*
X274518238Y-38662571D01*
X274613476Y-38567333D01*
X274661095Y-38472095D01*
X274375380Y-39376857D02*
X274375380Y-39995904D01*
X274756333Y-39662571D01*
X274756333Y-39805428D01*
X274803952Y-39900666D01*
X274851571Y-39948285D01*
X274946809Y-39995904D01*
X275184904Y-39995904D01*
X275280142Y-39948285D01*
X275327761Y-39900666D01*
X275375380Y-39805428D01*
X275375380Y-39519714D01*
X275327761Y-39424476D01*
X275280142Y-39376857D01*
X232354380Y-35996714D02*
X231354380Y-35996714D01*
X231354380Y-36234809D01*
X231402000Y-36377666D01*
X231497238Y-36472904D01*
X231592476Y-36520523D01*
X231782952Y-36568142D01*
X231925809Y-36568142D01*
X232116285Y-36520523D01*
X232211523Y-36472904D01*
X232306761Y-36377666D01*
X232354380Y-36234809D01*
X232354380Y-35996714D01*
X232354380Y-37520523D02*
X232354380Y-36949095D01*
X232354380Y-37234809D02*
X231354380Y-37234809D01*
X231497238Y-37139571D01*
X231592476Y-37044333D01*
X231640095Y-36949095D01*
X232354380Y-38472904D02*
X232354380Y-37901476D01*
X232354380Y-38187190D02*
X231354380Y-38187190D01*
X231497238Y-38091952D01*
X231592476Y-37996714D01*
X231640095Y-37901476D01*
X215177380Y-40060714D02*
X214177380Y-40060714D01*
X214177380Y-40298809D01*
X214225000Y-40441666D01*
X214320238Y-40536904D01*
X214415476Y-40584523D01*
X214605952Y-40632142D01*
X214748809Y-40632142D01*
X214939285Y-40584523D01*
X215034523Y-40536904D01*
X215129761Y-40441666D01*
X215177380Y-40298809D01*
X215177380Y-40060714D01*
X215177380Y-41584523D02*
X215177380Y-41013095D01*
X215177380Y-41298809D02*
X214177380Y-41298809D01*
X214320238Y-41203571D01*
X214415476Y-41108333D01*
X214463095Y-41013095D01*
X214177380Y-42203571D02*
X214177380Y-42298809D01*
X214225000Y-42394047D01*
X214272619Y-42441666D01*
X214367857Y-42489285D01*
X214558333Y-42536904D01*
X214796428Y-42536904D01*
X214986904Y-42489285D01*
X215082142Y-42441666D01*
X215129761Y-42394047D01*
X215177380Y-42298809D01*
X215177380Y-42203571D01*
X215129761Y-42108333D01*
X215082142Y-42060714D01*
X214986904Y-42013095D01*
X214796428Y-41965476D01*
X214558333Y-41965476D01*
X214367857Y-42013095D01*
X214272619Y-42060714D01*
X214225000Y-42108333D01*
X214177380Y-42203571D01*
X196127380Y-40822654D02*
X195127380Y-40822654D01*
X195127380Y-41060750D01*
X195175000Y-41203607D01*
X195270238Y-41298845D01*
X195365476Y-41346464D01*
X195555952Y-41394083D01*
X195698809Y-41394083D01*
X195889285Y-41346464D01*
X195984523Y-41298845D01*
X196079761Y-41203607D01*
X196127380Y-41060750D01*
X196127380Y-40822654D01*
X196127380Y-41870273D02*
X196127380Y-42060750D01*
X196079761Y-42155988D01*
X196032142Y-42203607D01*
X195889285Y-42298845D01*
X195698809Y-42346464D01*
X195317857Y-42346464D01*
X195222619Y-42298845D01*
X195175000Y-42251226D01*
X195127380Y-42155988D01*
X195127380Y-41965511D01*
X195175000Y-41870273D01*
X195222619Y-41822654D01*
X195317857Y-41775035D01*
X195555952Y-41775035D01*
X195651190Y-41822654D01*
X195698809Y-41870273D01*
X195746428Y-41965511D01*
X195746428Y-42155988D01*
X195698809Y-42251226D01*
X195651190Y-42298845D01*
X195555952Y-42346464D01*
X176632880Y-40473404D02*
X175632880Y-40473404D01*
X175632880Y-40711500D01*
X175680500Y-40854357D01*
X175775738Y-40949595D01*
X175870976Y-40997214D01*
X176061452Y-41044833D01*
X176204309Y-41044833D01*
X176394785Y-40997214D01*
X176490023Y-40949595D01*
X176585261Y-40854357D01*
X176632880Y-40711500D01*
X176632880Y-40473404D01*
X176061452Y-41616261D02*
X176013833Y-41521023D01*
X175966214Y-41473404D01*
X175870976Y-41425785D01*
X175823357Y-41425785D01*
X175728119Y-41473404D01*
X175680500Y-41521023D01*
X175632880Y-41616261D01*
X175632880Y-41806738D01*
X175680500Y-41901976D01*
X175728119Y-41949595D01*
X175823357Y-41997214D01*
X175870976Y-41997214D01*
X175966214Y-41949595D01*
X176013833Y-41901976D01*
X176061452Y-41806738D01*
X176061452Y-41616261D01*
X176109071Y-41521023D01*
X176156690Y-41473404D01*
X176251928Y-41425785D01*
X176442404Y-41425785D01*
X176537642Y-41473404D01*
X176585261Y-41521023D01*
X176632880Y-41616261D01*
X176632880Y-41806738D01*
X176585261Y-41901976D01*
X176537642Y-41949595D01*
X176442404Y-41997214D01*
X176251928Y-41997214D01*
X176156690Y-41949595D01*
X176109071Y-41901976D01*
X176061452Y-41806738D01*
X157678130Y-40473404D02*
X156678130Y-40473404D01*
X156678130Y-40711500D01*
X156725750Y-40854357D01*
X156820988Y-40949595D01*
X156916226Y-40997214D01*
X157106702Y-41044833D01*
X157249559Y-41044833D01*
X157440035Y-40997214D01*
X157535273Y-40949595D01*
X157630511Y-40854357D01*
X157678130Y-40711500D01*
X157678130Y-40473404D01*
X156678130Y-41378166D02*
X156678130Y-42044833D01*
X157678130Y-41616261D01*
X139231380Y-40251154D02*
X138231380Y-40251154D01*
X138231380Y-40489250D01*
X138279000Y-40632107D01*
X138374238Y-40727345D01*
X138469476Y-40774964D01*
X138659952Y-40822583D01*
X138802809Y-40822583D01*
X138993285Y-40774964D01*
X139088523Y-40727345D01*
X139183761Y-40632107D01*
X139231380Y-40489250D01*
X139231380Y-40251154D01*
X138231380Y-41679726D02*
X138231380Y-41489250D01*
X138279000Y-41394011D01*
X138326619Y-41346392D01*
X138469476Y-41251154D01*
X138659952Y-41203535D01*
X139040904Y-41203535D01*
X139136142Y-41251154D01*
X139183761Y-41298773D01*
X139231380Y-41394011D01*
X139231380Y-41584488D01*
X139183761Y-41679726D01*
X139136142Y-41727345D01*
X139040904Y-41774964D01*
X138802809Y-41774964D01*
X138707571Y-41727345D01*
X138659952Y-41679726D01*
X138612333Y-41584488D01*
X138612333Y-41394011D01*
X138659952Y-41298773D01*
X138707571Y-41251154D01*
X138802809Y-41203535D01*
X119482880Y-40695654D02*
X118482880Y-40695654D01*
X118482880Y-40933750D01*
X118530500Y-41076607D01*
X118625738Y-41171845D01*
X118720976Y-41219464D01*
X118911452Y-41267083D01*
X119054309Y-41267083D01*
X119244785Y-41219464D01*
X119340023Y-41171845D01*
X119435261Y-41076607D01*
X119482880Y-40933750D01*
X119482880Y-40695654D01*
X118482880Y-42171845D02*
X118482880Y-41695654D01*
X118959071Y-41648035D01*
X118911452Y-41695654D01*
X118863833Y-41790892D01*
X118863833Y-42028988D01*
X118911452Y-42124226D01*
X118959071Y-42171845D01*
X119054309Y-42219464D01*
X119292404Y-42219464D01*
X119387642Y-42171845D01*
X119435261Y-42124226D01*
X119482880Y-42028988D01*
X119482880Y-41790892D01*
X119435261Y-41695654D01*
X119387642Y-41648035D01*
X100877380Y-40727404D02*
X99877380Y-40727404D01*
X99877380Y-40965500D01*
X99925000Y-41108357D01*
X100020238Y-41203595D01*
X100115476Y-41251214D01*
X100305952Y-41298833D01*
X100448809Y-41298833D01*
X100639285Y-41251214D01*
X100734523Y-41203595D01*
X100829761Y-41108357D01*
X100877380Y-40965500D01*
X100877380Y-40727404D01*
X100210714Y-42155976D02*
X100877380Y-42155976D01*
X99829761Y-41917880D02*
X100544047Y-41679785D01*
X100544047Y-42298833D01*
X81827380Y-40536904D02*
X80827380Y-40536904D01*
X80827380Y-40775000D01*
X80875000Y-40917857D01*
X80970238Y-41013095D01*
X81065476Y-41060714D01*
X81255952Y-41108333D01*
X81398809Y-41108333D01*
X81589285Y-41060714D01*
X81684523Y-41013095D01*
X81779761Y-40917857D01*
X81827380Y-40775000D01*
X81827380Y-40536904D01*
X80827380Y-41441666D02*
X80827380Y-42060714D01*
X81208333Y-41727380D01*
X81208333Y-41870238D01*
X81255952Y-41965476D01*
X81303571Y-42013095D01*
X81398809Y-42060714D01*
X81636904Y-42060714D01*
X81732142Y-42013095D01*
X81779761Y-41965476D01*
X81827380Y-41870238D01*
X81827380Y-41584523D01*
X81779761Y-41489285D01*
X81732142Y-41441666D01*
X252750293Y-74530858D02*
X253087011Y-74867576D01*
X252615606Y-73924767D02*
X252750293Y-74530858D01*
X252144202Y-74396171D01*
X252245217Y-75709369D02*
X252649278Y-75305308D01*
X252447247Y-75507339D02*
X251740141Y-74800232D01*
X251908499Y-74833904D01*
X252043186Y-74833904D01*
X252144202Y-74800232D01*
X237901666Y-54206142D02*
X237949285Y-54253761D01*
X238092142Y-54301380D01*
X238187380Y-54301380D01*
X238330238Y-54253761D01*
X238425476Y-54158523D01*
X238473095Y-54063285D01*
X238520714Y-53872809D01*
X238520714Y-53729952D01*
X238473095Y-53539476D01*
X238425476Y-53444238D01*
X238330238Y-53349000D01*
X238187380Y-53301380D01*
X238092142Y-53301380D01*
X237949285Y-53349000D01*
X237901666Y-53396619D01*
X237568333Y-53301380D02*
X236901666Y-53301380D01*
X237330238Y-54301380D01*
X230482142Y-82882333D02*
X230529761Y-82834714D01*
X230577380Y-82691857D01*
X230577380Y-82596619D01*
X230529761Y-82453761D01*
X230434523Y-82358523D01*
X230339285Y-82310904D01*
X230148809Y-82263285D01*
X230005952Y-82263285D01*
X229815476Y-82310904D01*
X229720238Y-82358523D01*
X229625000Y-82453761D01*
X229577380Y-82596619D01*
X229577380Y-82691857D01*
X229625000Y-82834714D01*
X229672619Y-82882333D01*
X229577380Y-83739476D02*
X229577380Y-83549000D01*
X229625000Y-83453761D01*
X229672619Y-83406142D01*
X229815476Y-83310904D01*
X230005952Y-83263285D01*
X230386904Y-83263285D01*
X230482142Y-83310904D01*
X230529761Y-83358523D01*
X230577380Y-83453761D01*
X230577380Y-83644238D01*
X230529761Y-83739476D01*
X230482142Y-83787095D01*
X230386904Y-83834714D01*
X230148809Y-83834714D01*
X230053571Y-83787095D01*
X230005952Y-83739476D01*
X229958333Y-83644238D01*
X229958333Y-83453761D01*
X230005952Y-83358523D01*
X230053571Y-83310904D01*
X230148809Y-83263285D01*
X252833142Y-66898333D02*
X252880761Y-66850714D01*
X252928380Y-66707857D01*
X252928380Y-66612619D01*
X252880761Y-66469761D01*
X252785523Y-66374523D01*
X252690285Y-66326904D01*
X252499809Y-66279285D01*
X252356952Y-66279285D01*
X252166476Y-66326904D01*
X252071238Y-66374523D01*
X251976000Y-66469761D01*
X251928380Y-66612619D01*
X251928380Y-66707857D01*
X251976000Y-66850714D01*
X252023619Y-66898333D01*
X251928380Y-67803095D02*
X251928380Y-67326904D01*
X252404571Y-67279285D01*
X252356952Y-67326904D01*
X252309333Y-67422142D01*
X252309333Y-67660238D01*
X252356952Y-67755476D01*
X252404571Y-67803095D01*
X252499809Y-67850714D01*
X252737904Y-67850714D01*
X252833142Y-67803095D01*
X252880761Y-67755476D01*
X252928380Y-67660238D01*
X252928380Y-67422142D01*
X252880761Y-67326904D01*
X252833142Y-67279285D01*
X254500312Y-69966389D02*
X254500312Y-70033732D01*
X254567656Y-70168419D01*
X254635000Y-70235763D01*
X254769687Y-70303106D01*
X254904374Y-70303106D01*
X255005389Y-70269435D01*
X255173748Y-70168419D01*
X255274763Y-70067404D01*
X255375778Y-69899045D01*
X255409450Y-69798030D01*
X255409450Y-69663343D01*
X255342106Y-69528656D01*
X255274763Y-69461312D01*
X255140076Y-69393969D01*
X255072732Y-69393969D01*
X254803358Y-69124595D02*
X254803358Y-69057251D01*
X254769687Y-68956236D01*
X254601328Y-68787877D01*
X254500312Y-68754206D01*
X254432969Y-68754206D01*
X254331954Y-68787877D01*
X254264610Y-68855221D01*
X254197267Y-68989908D01*
X254197267Y-69798030D01*
X253759534Y-69360297D01*
X246499312Y-77713389D02*
X246499312Y-77780732D01*
X246566656Y-77915419D01*
X246634000Y-77982763D01*
X246768687Y-78050106D01*
X246903374Y-78050106D01*
X247004389Y-78016435D01*
X247172748Y-77915419D01*
X247273763Y-77814404D01*
X247374778Y-77646045D01*
X247408450Y-77545030D01*
X247408450Y-77410343D01*
X247341106Y-77275656D01*
X247273763Y-77208312D01*
X247139076Y-77140969D01*
X247071732Y-77140969D01*
X245758534Y-77107297D02*
X246162595Y-77511358D01*
X245960564Y-77309328D02*
X246667671Y-76602221D01*
X246634000Y-76770580D01*
X246634000Y-76905267D01*
X246667671Y-77006282D01*
X225210666Y-66525142D02*
X225258285Y-66572761D01*
X225401142Y-66620380D01*
X225496380Y-66620380D01*
X225639238Y-66572761D01*
X225734476Y-66477523D01*
X225782095Y-66382285D01*
X225829714Y-66191809D01*
X225829714Y-66048952D01*
X225782095Y-65858476D01*
X225734476Y-65763238D01*
X225639238Y-65668000D01*
X225496380Y-65620380D01*
X225401142Y-65620380D01*
X225258285Y-65668000D01*
X225210666Y-65715619D01*
X224353523Y-65953714D02*
X224353523Y-66620380D01*
X224591619Y-65572761D02*
X224829714Y-66287047D01*
X224210666Y-66287047D01*
X233564333Y-46958761D02*
X233421476Y-47006380D01*
X233183380Y-47006380D01*
X233088142Y-46958761D01*
X233040523Y-46911142D01*
X232992904Y-46815904D01*
X232992904Y-46720666D01*
X233040523Y-46625428D01*
X233088142Y-46577809D01*
X233183380Y-46530190D01*
X233373857Y-46482571D01*
X233469095Y-46434952D01*
X233516714Y-46387333D01*
X233564333Y-46292095D01*
X233564333Y-46196857D01*
X233516714Y-46101619D01*
X233469095Y-46054000D01*
X233373857Y-46006380D01*
X233135761Y-46006380D01*
X232992904Y-46054000D01*
X232659571Y-46006380D02*
X232421476Y-47006380D01*
X232231000Y-46292095D01*
X232040523Y-47006380D01*
X231802428Y-46006380D01*
X230897666Y-47006380D02*
X231469095Y-47006380D01*
X231183380Y-47006380D02*
X231183380Y-46006380D01*
X231278619Y-46149238D01*
X231373857Y-46244476D01*
X231469095Y-46292095D01*
X222035666Y-70937380D02*
X222369000Y-70461190D01*
X222607095Y-70937380D02*
X222607095Y-69937380D01*
X222226142Y-69937380D01*
X222130904Y-69985000D01*
X222083285Y-70032619D01*
X222035666Y-70127857D01*
X222035666Y-70270714D01*
X222083285Y-70365952D01*
X222130904Y-70413571D01*
X222226142Y-70461190D01*
X222607095Y-70461190D01*
X221178523Y-70270714D02*
X221178523Y-70937380D01*
X221416619Y-69889761D02*
X221654714Y-70604047D01*
X221035666Y-70604047D01*
X252801380Y-43648333D02*
X252325190Y-43315000D01*
X252801380Y-43076904D02*
X251801380Y-43076904D01*
X251801380Y-43457857D01*
X251849000Y-43553095D01*
X251896619Y-43600714D01*
X251991857Y-43648333D01*
X252134714Y-43648333D01*
X252229952Y-43600714D01*
X252277571Y-43553095D01*
X252325190Y-43457857D01*
X252325190Y-43076904D01*
X251801380Y-43981666D02*
X251801380Y-44600714D01*
X252182333Y-44267380D01*
X252182333Y-44410238D01*
X252229952Y-44505476D01*
X252277571Y-44553095D01*
X252372809Y-44600714D01*
X252610904Y-44600714D01*
X252706142Y-44553095D01*
X252753761Y-44505476D01*
X252801380Y-44410238D01*
X252801380Y-44124523D01*
X252753761Y-44029285D01*
X252706142Y-43981666D01*
X255214380Y-43521333D02*
X254738190Y-43188000D01*
X255214380Y-42949904D02*
X254214380Y-42949904D01*
X254214380Y-43330857D01*
X254262000Y-43426095D01*
X254309619Y-43473714D01*
X254404857Y-43521333D01*
X254547714Y-43521333D01*
X254642952Y-43473714D01*
X254690571Y-43426095D01*
X254738190Y-43330857D01*
X254738190Y-42949904D01*
X254309619Y-43902285D02*
X254262000Y-43949904D01*
X254214380Y-44045142D01*
X254214380Y-44283238D01*
X254262000Y-44378476D01*
X254309619Y-44426095D01*
X254404857Y-44473714D01*
X254500095Y-44473714D01*
X254642952Y-44426095D01*
X255214380Y-43854666D01*
X255214380Y-44473714D01*
X255182666Y-65350380D02*
X255516000Y-64874190D01*
X255754095Y-65350380D02*
X255754095Y-64350380D01*
X255373142Y-64350380D01*
X255277904Y-64398000D01*
X255230285Y-64445619D01*
X255182666Y-64540857D01*
X255182666Y-64683714D01*
X255230285Y-64778952D01*
X255277904Y-64826571D01*
X255373142Y-64874190D01*
X255754095Y-64874190D01*
X254230285Y-65350380D02*
X254801714Y-65350380D01*
X254516000Y-65350380D02*
X254516000Y-64350380D01*
X254611238Y-64493238D01*
X254706476Y-64588476D01*
X254801714Y-64636095D01*
X249483571Y-42973666D02*
X249483571Y-42640333D01*
X250007380Y-42640333D02*
X249007380Y-42640333D01*
X249007380Y-43116523D01*
X250007380Y-44021285D02*
X250007380Y-43449857D01*
X250007380Y-43735571D02*
X249007380Y-43735571D01*
X249150238Y-43640333D01*
X249245476Y-43545095D01*
X249293095Y-43449857D01*
X67539880Y-59173214D02*
X66539880Y-59173214D01*
X66539880Y-59411309D01*
X66587500Y-59554166D01*
X66682738Y-59649404D01*
X66777976Y-59697023D01*
X66968452Y-59744642D01*
X67111309Y-59744642D01*
X67301785Y-59697023D01*
X67397023Y-59649404D01*
X67492261Y-59554166D01*
X67539880Y-59411309D01*
X67539880Y-59173214D01*
X67539880Y-60697023D02*
X67539880Y-60125595D01*
X67539880Y-60411309D02*
X66539880Y-60411309D01*
X66682738Y-60316071D01*
X66777976Y-60220833D01*
X66825595Y-60125595D01*
X66539880Y-61601785D02*
X66539880Y-61125595D01*
X67016071Y-61077976D01*
X66968452Y-61125595D01*
X66920833Y-61220833D01*
X66920833Y-61458928D01*
X66968452Y-61554166D01*
X67016071Y-61601785D01*
X67111309Y-61649404D01*
X67349404Y-61649404D01*
X67444642Y-61601785D01*
X67492261Y-61554166D01*
X67539880Y-61458928D01*
X67539880Y-61220833D01*
X67492261Y-61125595D01*
X67444642Y-61077976D01*
X46616630Y-59110714D02*
X45616630Y-59110714D01*
X45616630Y-59348809D01*
X45664250Y-59491666D01*
X45759488Y-59586904D01*
X45854726Y-59634523D01*
X46045202Y-59682142D01*
X46188059Y-59682142D01*
X46378535Y-59634523D01*
X46473773Y-59586904D01*
X46569011Y-59491666D01*
X46616630Y-59348809D01*
X46616630Y-59110714D01*
X46616630Y-60634523D02*
X46616630Y-60063095D01*
X46616630Y-60348809D02*
X45616630Y-60348809D01*
X45759488Y-60253571D01*
X45854726Y-60158333D01*
X45902345Y-60063095D01*
X45949964Y-61491666D02*
X46616630Y-61491666D01*
X45569011Y-61253571D02*
X46283297Y-61015476D01*
X46283297Y-61634523D01*
X62777380Y-40599404D02*
X61777380Y-40599404D01*
X61777380Y-40837500D01*
X61825000Y-40980357D01*
X61920238Y-41075595D01*
X62015476Y-41123214D01*
X62205952Y-41170833D01*
X62348809Y-41170833D01*
X62539285Y-41123214D01*
X62634523Y-41075595D01*
X62729761Y-40980357D01*
X62777380Y-40837500D01*
X62777380Y-40599404D01*
X61872619Y-41551785D02*
X61825000Y-41599404D01*
X61777380Y-41694642D01*
X61777380Y-41932738D01*
X61825000Y-42027976D01*
X61872619Y-42075595D01*
X61967857Y-42123214D01*
X62063095Y-42123214D01*
X62205952Y-42075595D01*
X62777380Y-41504166D01*
X62777380Y-42123214D01*
X43727380Y-40536904D02*
X42727380Y-40536904D01*
X42727380Y-40775000D01*
X42775000Y-40917857D01*
X42870238Y-41013095D01*
X42965476Y-41060714D01*
X43155952Y-41108333D01*
X43298809Y-41108333D01*
X43489285Y-41060714D01*
X43584523Y-41013095D01*
X43679761Y-40917857D01*
X43727380Y-40775000D01*
X43727380Y-40536904D01*
X43727380Y-42060714D02*
X43727380Y-41489285D01*
X43727380Y-41775000D02*
X42727380Y-41775000D01*
X42870238Y-41679761D01*
X42965476Y-41584523D01*
X43013095Y-41489285D01*
%LPC*%
D13*
X263525000Y-85852000D03*
X238633000Y-104775000D03*
X185547000Y-92202000D03*
X132588000Y-85090000D03*
X242189000Y-46101000D03*
X67818000Y-103886000D03*
X158496000Y-51181000D03*
X54737000Y-73406000D03*
X42799000Y-50038000D03*
D14*
X269220000Y-55535000D03*
D15*
X269200000Y-55825000D02*
X269240000Y-55245000D01*
D14*
X269240000Y-55245000D03*
X263545001Y-57055000D03*
D15*
X262890000Y-57785000D02*
X264200002Y-56325000D01*
D16*
X266700000Y-60325000D03*
D14*
X264200000Y-56325000D03*
D17*
X261620000Y-60325000D03*
X271780000Y-60325000D03*
D14*
X245407500Y-36485000D03*
D15*
X245387500Y-36775000D02*
X245427500Y-36195000D01*
D14*
X245427500Y-36195000D03*
X239732501Y-38005000D03*
D15*
X239077500Y-38735000D02*
X240387502Y-37275000D01*
D16*
X242887500Y-41275000D03*
D14*
X240387500Y-37275000D03*
D17*
X237807500Y-41275000D03*
X247967500Y-41275000D03*
D18*
X161766250Y-103505000D03*
D16*
X164306250Y-98425000D03*
D18*
X168116250Y-100965000D03*
D17*
X169386250Y-98425000D03*
X159226250Y-98425000D03*
D19*
X171391250Y-100965000D03*
X158464250Y-103505000D03*
D20*
X152368250Y-105410000D03*
X176244250Y-105410000D03*
D16*
X152368250Y-90170000D03*
X176244250Y-90170000D03*
D18*
X152558750Y-93345000D03*
D16*
X150018750Y-98425000D03*
D18*
X146208750Y-95885000D03*
D17*
X144938750Y-98425000D03*
X155098750Y-98425000D03*
D19*
X142933750Y-95885000D03*
X155860750Y-93345000D03*
D20*
X200018650Y-105410000D03*
X100018850Y-105410000D03*
D16*
X200018650Y-90170000D03*
X100018850Y-90170000D03*
D21*
X249936000Y-34671000D03*
X257236000Y-34671000D03*
X257236000Y-39171000D03*
X249936000Y-39171000D03*
D22*
X251986000Y-39171000D03*
X252786000Y-39171000D03*
X253586000Y-39171000D03*
X254386000Y-39171000D03*
X255186000Y-39171000D03*
D23*
X235204000Y-39751000D03*
X235204000Y-43051000D03*
D14*
X266838750Y-36485000D03*
D15*
X266818750Y-36775000D02*
X266858750Y-36195000D01*
D14*
X266858750Y-36195000D03*
X261163751Y-38005000D03*
D15*
X260508750Y-38735000D02*
X261818752Y-37275000D01*
D16*
X264318750Y-41275000D03*
D14*
X261818750Y-37275000D03*
D17*
X259238750Y-41275000D03*
X269398750Y-41275000D03*
D24*
X265225000Y-49657000D03*
D25*
X265425000Y-47657000D03*
X263525000Y-49657000D03*
X263525000Y-47657000D03*
D26*
X274387000Y-52707000D03*
X274387000Y-44067000D03*
D27*
X270207000Y-52707000D03*
X270207000Y-44067000D03*
D28*
X270737000Y-45497000D03*
X270737000Y-51277000D03*
D29*
X269292000Y-48137000D03*
X269292000Y-48637000D03*
X269292000Y-49137000D03*
X269292000Y-47637000D03*
X269292000Y-49637000D03*
X269292000Y-47137000D03*
X269292000Y-50137000D03*
X269292000Y-46637000D03*
D30*
X269292000Y-45937000D03*
X269292000Y-50837000D03*
X269292000Y-45162000D03*
X269292000Y-51612000D03*
D31*
G36*
X264231641Y-51066297D02*
G01*
X264257778Y-51070174D01*
X264283409Y-51076594D01*
X264308288Y-51085495D01*
X264332174Y-51096793D01*
X264354837Y-51110377D01*
X264376060Y-51126117D01*
X264395639Y-51143861D01*
X264413383Y-51163440D01*
X264429123Y-51184663D01*
X264442707Y-51207326D01*
X264454005Y-51231212D01*
X264462906Y-51256091D01*
X264469326Y-51281722D01*
X264473203Y-51307859D01*
X264474500Y-51334250D01*
X264474500Y-52297750D01*
X264473203Y-52324141D01*
X264469326Y-52350278D01*
X264462906Y-52375909D01*
X264454005Y-52400788D01*
X264442707Y-52424674D01*
X264429123Y-52447337D01*
X264413383Y-52468560D01*
X264395639Y-52488139D01*
X264376060Y-52505883D01*
X264354837Y-52521623D01*
X264332174Y-52535207D01*
X264308288Y-52546505D01*
X264283409Y-52555406D01*
X264257778Y-52561826D01*
X264231641Y-52565703D01*
X264205250Y-52567000D01*
X263666750Y-52567000D01*
X263640359Y-52565703D01*
X263614222Y-52561826D01*
X263588591Y-52555406D01*
X263563712Y-52546505D01*
X263539826Y-52535207D01*
X263517163Y-52521623D01*
X263495940Y-52505883D01*
X263476361Y-52488139D01*
X263458617Y-52468560D01*
X263442877Y-52447337D01*
X263429293Y-52424674D01*
X263417995Y-52400788D01*
X263409094Y-52375909D01*
X263402674Y-52350278D01*
X263398797Y-52324141D01*
X263397500Y-52297750D01*
X263397500Y-51334250D01*
X263398797Y-51307859D01*
X263402674Y-51281722D01*
X263409094Y-51256091D01*
X263417995Y-51231212D01*
X263429293Y-51207326D01*
X263442877Y-51184663D01*
X263458617Y-51163440D01*
X263476361Y-51143861D01*
X263495940Y-51126117D01*
X263517163Y-51110377D01*
X263539826Y-51096793D01*
X263563712Y-51085495D01*
X263588591Y-51076594D01*
X263614222Y-51070174D01*
X263640359Y-51066297D01*
X263666750Y-51065000D01*
X264205250Y-51065000D01*
X264231641Y-51066297D01*
X264231641Y-51066297D01*
G37*
D32*
X263936000Y-51816000D03*
D31*
G36*
X266106641Y-51066297D02*
G01*
X266132778Y-51070174D01*
X266158409Y-51076594D01*
X266183288Y-51085495D01*
X266207174Y-51096793D01*
X266229837Y-51110377D01*
X266251060Y-51126117D01*
X266270639Y-51143861D01*
X266288383Y-51163440D01*
X266304123Y-51184663D01*
X266317707Y-51207326D01*
X266329005Y-51231212D01*
X266337906Y-51256091D01*
X266344326Y-51281722D01*
X266348203Y-51307859D01*
X266349500Y-51334250D01*
X266349500Y-52297750D01*
X266348203Y-52324141D01*
X266344326Y-52350278D01*
X266337906Y-52375909D01*
X266329005Y-52400788D01*
X266317707Y-52424674D01*
X266304123Y-52447337D01*
X266288383Y-52468560D01*
X266270639Y-52488139D01*
X266251060Y-52505883D01*
X266229837Y-52521623D01*
X266207174Y-52535207D01*
X266183288Y-52546505D01*
X266158409Y-52555406D01*
X266132778Y-52561826D01*
X266106641Y-52565703D01*
X266080250Y-52567000D01*
X265541750Y-52567000D01*
X265515359Y-52565703D01*
X265489222Y-52561826D01*
X265463591Y-52555406D01*
X265438712Y-52546505D01*
X265414826Y-52535207D01*
X265392163Y-52521623D01*
X265370940Y-52505883D01*
X265351361Y-52488139D01*
X265333617Y-52468560D01*
X265317877Y-52447337D01*
X265304293Y-52424674D01*
X265292995Y-52400788D01*
X265284094Y-52375909D01*
X265277674Y-52350278D01*
X265273797Y-52324141D01*
X265272500Y-52297750D01*
X265272500Y-51334250D01*
X265273797Y-51307859D01*
X265277674Y-51281722D01*
X265284094Y-51256091D01*
X265292995Y-51231212D01*
X265304293Y-51207326D01*
X265317877Y-51184663D01*
X265333617Y-51163440D01*
X265351361Y-51143861D01*
X265370940Y-51126117D01*
X265392163Y-51110377D01*
X265414826Y-51096793D01*
X265438712Y-51085495D01*
X265463591Y-51076594D01*
X265489222Y-51070174D01*
X265515359Y-51066297D01*
X265541750Y-51065000D01*
X266080250Y-51065000D01*
X266106641Y-51066297D01*
X266106641Y-51066297D01*
G37*
D32*
X265811000Y-51816000D03*
D31*
G36*
X264612641Y-44589297D02*
G01*
X264638778Y-44593174D01*
X264664409Y-44599594D01*
X264689288Y-44608495D01*
X264713174Y-44619793D01*
X264735837Y-44633377D01*
X264757060Y-44649117D01*
X264776639Y-44666861D01*
X264794383Y-44686440D01*
X264810123Y-44707663D01*
X264823707Y-44730326D01*
X264835005Y-44754212D01*
X264843906Y-44779091D01*
X264850326Y-44804722D01*
X264854203Y-44830859D01*
X264855500Y-44857250D01*
X264855500Y-45820750D01*
X264854203Y-45847141D01*
X264850326Y-45873278D01*
X264843906Y-45898909D01*
X264835005Y-45923788D01*
X264823707Y-45947674D01*
X264810123Y-45970337D01*
X264794383Y-45991560D01*
X264776639Y-46011139D01*
X264757060Y-46028883D01*
X264735837Y-46044623D01*
X264713174Y-46058207D01*
X264689288Y-46069505D01*
X264664409Y-46078406D01*
X264638778Y-46084826D01*
X264612641Y-46088703D01*
X264586250Y-46090000D01*
X264047750Y-46090000D01*
X264021359Y-46088703D01*
X263995222Y-46084826D01*
X263969591Y-46078406D01*
X263944712Y-46069505D01*
X263920826Y-46058207D01*
X263898163Y-46044623D01*
X263876940Y-46028883D01*
X263857361Y-46011139D01*
X263839617Y-45991560D01*
X263823877Y-45970337D01*
X263810293Y-45947674D01*
X263798995Y-45923788D01*
X263790094Y-45898909D01*
X263783674Y-45873278D01*
X263779797Y-45847141D01*
X263778500Y-45820750D01*
X263778500Y-44857250D01*
X263779797Y-44830859D01*
X263783674Y-44804722D01*
X263790094Y-44779091D01*
X263798995Y-44754212D01*
X263810293Y-44730326D01*
X263823877Y-44707663D01*
X263839617Y-44686440D01*
X263857361Y-44666861D01*
X263876940Y-44649117D01*
X263898163Y-44633377D01*
X263920826Y-44619793D01*
X263944712Y-44608495D01*
X263969591Y-44599594D01*
X263995222Y-44593174D01*
X264021359Y-44589297D01*
X264047750Y-44588000D01*
X264586250Y-44588000D01*
X264612641Y-44589297D01*
X264612641Y-44589297D01*
G37*
D32*
X264317000Y-45339000D03*
D31*
G36*
X266487641Y-44589297D02*
G01*
X266513778Y-44593174D01*
X266539409Y-44599594D01*
X266564288Y-44608495D01*
X266588174Y-44619793D01*
X266610837Y-44633377D01*
X266632060Y-44649117D01*
X266651639Y-44666861D01*
X266669383Y-44686440D01*
X266685123Y-44707663D01*
X266698707Y-44730326D01*
X266710005Y-44754212D01*
X266718906Y-44779091D01*
X266725326Y-44804722D01*
X266729203Y-44830859D01*
X266730500Y-44857250D01*
X266730500Y-45820750D01*
X266729203Y-45847141D01*
X266725326Y-45873278D01*
X266718906Y-45898909D01*
X266710005Y-45923788D01*
X266698707Y-45947674D01*
X266685123Y-45970337D01*
X266669383Y-45991560D01*
X266651639Y-46011139D01*
X266632060Y-46028883D01*
X266610837Y-46044623D01*
X266588174Y-46058207D01*
X266564288Y-46069505D01*
X266539409Y-46078406D01*
X266513778Y-46084826D01*
X266487641Y-46088703D01*
X266461250Y-46090000D01*
X265922750Y-46090000D01*
X265896359Y-46088703D01*
X265870222Y-46084826D01*
X265844591Y-46078406D01*
X265819712Y-46069505D01*
X265795826Y-46058207D01*
X265773163Y-46044623D01*
X265751940Y-46028883D01*
X265732361Y-46011139D01*
X265714617Y-45991560D01*
X265698877Y-45970337D01*
X265685293Y-45947674D01*
X265673995Y-45923788D01*
X265665094Y-45898909D01*
X265658674Y-45873278D01*
X265654797Y-45847141D01*
X265653500Y-45820750D01*
X265653500Y-44857250D01*
X265654797Y-44830859D01*
X265658674Y-44804722D01*
X265665094Y-44779091D01*
X265673995Y-44754212D01*
X265685293Y-44730326D01*
X265698877Y-44707663D01*
X265714617Y-44686440D01*
X265732361Y-44666861D01*
X265751940Y-44649117D01*
X265773163Y-44633377D01*
X265795826Y-44619793D01*
X265819712Y-44608495D01*
X265844591Y-44599594D01*
X265870222Y-44593174D01*
X265896359Y-44589297D01*
X265922750Y-44588000D01*
X266461250Y-44588000D01*
X266487641Y-44589297D01*
X266487641Y-44589297D01*
G37*
D32*
X266192000Y-45339000D03*
D23*
X224631250Y-73280000D03*
X224631250Y-76580000D03*
D33*
X260985000Y-66040000D03*
X260985000Y-68580000D03*
X263525000Y-66040000D03*
X263525000Y-68580000D03*
X266065000Y-66040000D03*
D34*
X266065000Y-68580000D03*
D18*
X59690000Y-93345000D03*
D16*
X57150000Y-98425000D03*
D18*
X53340000Y-95885000D03*
D17*
X52070000Y-98425000D03*
X62230000Y-98425000D03*
D19*
X50065000Y-95885000D03*
X62992000Y-93345000D03*
D18*
X245427500Y-93345000D03*
D16*
X242887500Y-98425000D03*
D18*
X239077500Y-95885000D03*
D17*
X237807500Y-98425000D03*
X247967500Y-98425000D03*
D19*
X235802500Y-95885000D03*
X248729500Y-93345000D03*
D18*
X81121250Y-93345000D03*
D16*
X78581250Y-98425000D03*
D18*
X74771250Y-95885000D03*
D17*
X73501250Y-98425000D03*
X83661250Y-98425000D03*
D19*
X71496250Y-95885000D03*
X84423250Y-93345000D03*
D14*
X250170000Y-55535000D03*
D15*
X250150000Y-55825000D02*
X250190000Y-55245000D01*
D14*
X250190000Y-55245000D03*
X244495001Y-57055000D03*
D15*
X243840000Y-57785000D02*
X245150002Y-56325000D01*
D16*
X247650000Y-60325000D03*
D14*
X245150000Y-56325000D03*
D17*
X242570000Y-60325000D03*
X252730000Y-60325000D03*
D14*
X259695000Y-74585000D03*
D15*
X259675000Y-74875000D02*
X259715000Y-74295000D01*
D14*
X259715000Y-74295000D03*
X254020001Y-76105000D03*
D15*
X253365000Y-76835000D02*
X254675002Y-75375000D01*
D16*
X257175000Y-79375000D03*
D14*
X254675000Y-75375000D03*
D17*
X252095000Y-79375000D03*
X262255000Y-79375000D03*
D14*
X183495000Y-74585000D03*
D15*
X183475000Y-74875000D02*
X183515000Y-74295000D01*
D14*
X183515000Y-74295000D03*
X177820001Y-76105000D03*
D15*
X177165000Y-76835000D02*
X178475002Y-75375000D01*
D16*
X180975000Y-79375000D03*
D14*
X178475000Y-75375000D03*
D17*
X175895000Y-79375000D03*
X186055000Y-79375000D03*
D14*
X38238750Y-55535000D03*
D15*
X38218750Y-55825000D02*
X38258750Y-55245000D01*
D14*
X38258750Y-55245000D03*
X32563751Y-57055000D03*
D15*
X31908750Y-57785000D02*
X33218752Y-56325000D01*
D16*
X35718750Y-60325000D03*
D14*
X33218750Y-56325000D03*
D17*
X30638750Y-60325000D03*
X40798750Y-60325000D03*
D14*
X173970000Y-55535000D03*
D15*
X173950000Y-55825000D02*
X173990000Y-55245000D01*
D14*
X173990000Y-55245000D03*
X168295001Y-57055000D03*
D15*
X167640000Y-57785000D02*
X168950002Y-56325000D01*
D16*
X171450000Y-60325000D03*
D14*
X168950000Y-56325000D03*
D17*
X166370000Y-60325000D03*
X176530000Y-60325000D03*
D14*
X193020000Y-55535000D03*
D15*
X193000000Y-55825000D02*
X193040000Y-55245000D01*
D14*
X193040000Y-55245000D03*
X187345001Y-57055000D03*
D15*
X186690000Y-57785000D02*
X188000002Y-56325000D01*
D16*
X190500000Y-60325000D03*
D14*
X188000000Y-56325000D03*
D17*
X185420000Y-60325000D03*
X195580000Y-60325000D03*
D14*
X35857500Y-36485000D03*
D15*
X35837500Y-36775000D02*
X35877500Y-36195000D01*
D14*
X35877500Y-36195000D03*
X30182501Y-38005000D03*
D15*
X29527500Y-38735000D02*
X30837502Y-37275000D01*
D16*
X33337500Y-41275000D03*
D14*
X30837500Y-37275000D03*
D17*
X28257500Y-41275000D03*
X38417500Y-41275000D03*
D31*
G36*
X246252505Y-62496311D02*
G01*
X246278925Y-62500230D01*
X246304835Y-62506720D01*
X246329983Y-62515718D01*
X246354128Y-62527138D01*
X246377038Y-62540869D01*
X246398492Y-62556780D01*
X246418282Y-62574718D01*
X246436220Y-62594508D01*
X246452131Y-62615962D01*
X246465862Y-62638872D01*
X246477282Y-62663017D01*
X246486280Y-62688165D01*
X246492770Y-62714075D01*
X246496689Y-62740495D01*
X246498000Y-62767173D01*
X246498000Y-63724827D01*
X246496689Y-63751505D01*
X246492770Y-63777925D01*
X246486280Y-63803835D01*
X246477282Y-63828983D01*
X246465862Y-63853128D01*
X246452131Y-63876038D01*
X246436220Y-63897492D01*
X246418282Y-63917282D01*
X246398492Y-63935220D01*
X246377038Y-63951131D01*
X246354128Y-63964862D01*
X246329983Y-63976282D01*
X246304835Y-63985280D01*
X246278925Y-63991770D01*
X246252505Y-63995689D01*
X246225827Y-63997000D01*
X245518173Y-63997000D01*
X245491495Y-63995689D01*
X245465075Y-63991770D01*
X245439165Y-63985280D01*
X245414017Y-63976282D01*
X245389872Y-63964862D01*
X245366962Y-63951131D01*
X245345508Y-63935220D01*
X245325718Y-63917282D01*
X245307780Y-63897492D01*
X245291869Y-63876038D01*
X245278138Y-63853128D01*
X245266718Y-63828983D01*
X245257720Y-63803835D01*
X245251230Y-63777925D01*
X245247311Y-63751505D01*
X245246000Y-63724827D01*
X245246000Y-62767173D01*
X245247311Y-62740495D01*
X245251230Y-62714075D01*
X245257720Y-62688165D01*
X245266718Y-62663017D01*
X245278138Y-62638872D01*
X245291869Y-62615962D01*
X245307780Y-62594508D01*
X245325718Y-62574718D01*
X245345508Y-62556780D01*
X245366962Y-62540869D01*
X245389872Y-62527138D01*
X245414017Y-62515718D01*
X245439165Y-62506720D01*
X245465075Y-62500230D01*
X245491495Y-62496311D01*
X245518173Y-62495000D01*
X246225827Y-62495000D01*
X246252505Y-62496311D01*
X246252505Y-62496311D01*
G37*
D35*
X245872000Y-63246000D03*
D31*
G36*
X244202505Y-62496311D02*
G01*
X244228925Y-62500230D01*
X244254835Y-62506720D01*
X244279983Y-62515718D01*
X244304128Y-62527138D01*
X244327038Y-62540869D01*
X244348492Y-62556780D01*
X244368282Y-62574718D01*
X244386220Y-62594508D01*
X244402131Y-62615962D01*
X244415862Y-62638872D01*
X244427282Y-62663017D01*
X244436280Y-62688165D01*
X244442770Y-62714075D01*
X244446689Y-62740495D01*
X244448000Y-62767173D01*
X244448000Y-63724827D01*
X244446689Y-63751505D01*
X244442770Y-63777925D01*
X244436280Y-63803835D01*
X244427282Y-63828983D01*
X244415862Y-63853128D01*
X244402131Y-63876038D01*
X244386220Y-63897492D01*
X244368282Y-63917282D01*
X244348492Y-63935220D01*
X244327038Y-63951131D01*
X244304128Y-63964862D01*
X244279983Y-63976282D01*
X244254835Y-63985280D01*
X244228925Y-63991770D01*
X244202505Y-63995689D01*
X244175827Y-63997000D01*
X243468173Y-63997000D01*
X243441495Y-63995689D01*
X243415075Y-63991770D01*
X243389165Y-63985280D01*
X243364017Y-63976282D01*
X243339872Y-63964862D01*
X243316962Y-63951131D01*
X243295508Y-63935220D01*
X243275718Y-63917282D01*
X243257780Y-63897492D01*
X243241869Y-63876038D01*
X243228138Y-63853128D01*
X243216718Y-63828983D01*
X243207720Y-63803835D01*
X243201230Y-63777925D01*
X243197311Y-63751505D01*
X243196000Y-63724827D01*
X243196000Y-62767173D01*
X243197311Y-62740495D01*
X243201230Y-62714075D01*
X243207720Y-62688165D01*
X243216718Y-62663017D01*
X243228138Y-62638872D01*
X243241869Y-62615962D01*
X243257780Y-62594508D01*
X243275718Y-62574718D01*
X243295508Y-62556780D01*
X243316962Y-62540869D01*
X243339872Y-62527138D01*
X243364017Y-62515718D01*
X243389165Y-62506720D01*
X243415075Y-62500230D01*
X243441495Y-62496311D01*
X243468173Y-62495000D01*
X244175827Y-62495000D01*
X244202505Y-62496311D01*
X244202505Y-62496311D01*
G37*
D35*
X243822000Y-63246000D03*
D36*
X235767353Y-61975064D03*
D31*
G36*
X236564262Y-62310940D02*
G01*
X236103229Y-62771973D01*
X234970444Y-61639188D01*
X235431477Y-61178155D01*
X236564262Y-62310940D01*
X236564262Y-62310940D01*
G37*
D36*
X235201668Y-62540750D03*
D31*
G36*
X235998577Y-62876626D02*
G01*
X235537544Y-63337659D01*
X234404759Y-62204874D01*
X234865792Y-61743841D01*
X235998577Y-62876626D01*
X235998577Y-62876626D01*
G37*
D36*
X234635983Y-63106435D03*
D31*
G36*
X235432892Y-63442311D02*
G01*
X234971859Y-63903344D01*
X233839074Y-62770559D01*
X234300107Y-62309526D01*
X235432892Y-63442311D01*
X235432892Y-63442311D01*
G37*
D36*
X234070297Y-63672120D03*
D31*
G36*
X234867206Y-64007996D02*
G01*
X234406173Y-64469029D01*
X233273388Y-63336244D01*
X233734421Y-62875211D01*
X234867206Y-64007996D01*
X234867206Y-64007996D01*
G37*
D36*
X233504612Y-64237806D03*
D31*
G36*
X234301521Y-64573682D02*
G01*
X233840488Y-65034715D01*
X232707703Y-63901930D01*
X233168736Y-63440897D01*
X234301521Y-64573682D01*
X234301521Y-64573682D01*
G37*
D36*
X232938926Y-64803491D03*
D31*
G36*
X233735835Y-65139367D02*
G01*
X233274802Y-65600400D01*
X232142017Y-64467615D01*
X232603050Y-64006582D01*
X233735835Y-65139367D01*
X233735835Y-65139367D01*
G37*
D36*
X232373241Y-65369177D03*
D31*
G36*
X233170150Y-65705053D02*
G01*
X232709117Y-66166086D01*
X231576332Y-65033301D01*
X232037365Y-64572268D01*
X233170150Y-65705053D01*
X233170150Y-65705053D01*
G37*
D36*
X231807555Y-65934862D03*
D31*
G36*
X232604464Y-66270738D02*
G01*
X232143431Y-66731771D01*
X231010646Y-65598986D01*
X231471679Y-65137953D01*
X232604464Y-66270738D01*
X232604464Y-66270738D01*
G37*
D36*
X231241870Y-66500548D03*
D31*
G36*
X232038779Y-66836424D02*
G01*
X231577746Y-67297457D01*
X230444961Y-66164672D01*
X230905994Y-65703639D01*
X232038779Y-66836424D01*
X232038779Y-66836424D01*
G37*
D36*
X230676185Y-67066233D03*
D31*
G36*
X231473094Y-67402109D02*
G01*
X231012061Y-67863142D01*
X229879276Y-66730357D01*
X230340309Y-66269324D01*
X231473094Y-67402109D01*
X231473094Y-67402109D01*
G37*
D36*
X230110499Y-67631918D03*
D31*
G36*
X230907408Y-67967794D02*
G01*
X230446375Y-68428827D01*
X229313590Y-67296042D01*
X229774623Y-66835009D01*
X230907408Y-67967794D01*
X230907408Y-67967794D01*
G37*
D36*
X230110499Y-70036082D03*
D31*
G36*
X230446375Y-69239173D02*
G01*
X230907408Y-69700206D01*
X229774623Y-70832991D01*
X229313590Y-70371958D01*
X230446375Y-69239173D01*
X230446375Y-69239173D01*
G37*
D36*
X230676185Y-70601767D03*
D31*
G36*
X231012061Y-69804858D02*
G01*
X231473094Y-70265891D01*
X230340309Y-71398676D01*
X229879276Y-70937643D01*
X231012061Y-69804858D01*
X231012061Y-69804858D01*
G37*
D36*
X231241870Y-71167452D03*
D31*
G36*
X231577746Y-70370543D02*
G01*
X232038779Y-70831576D01*
X230905994Y-71964361D01*
X230444961Y-71503328D01*
X231577746Y-70370543D01*
X231577746Y-70370543D01*
G37*
D36*
X231807555Y-71733138D03*
D31*
G36*
X232143431Y-70936229D02*
G01*
X232604464Y-71397262D01*
X231471679Y-72530047D01*
X231010646Y-72069014D01*
X232143431Y-70936229D01*
X232143431Y-70936229D01*
G37*
D36*
X232373241Y-72298823D03*
D31*
G36*
X232709117Y-71501914D02*
G01*
X233170150Y-71962947D01*
X232037365Y-73095732D01*
X231576332Y-72634699D01*
X232709117Y-71501914D01*
X232709117Y-71501914D01*
G37*
D36*
X232938926Y-72864509D03*
D31*
G36*
X233274802Y-72067600D02*
G01*
X233735835Y-72528633D01*
X232603050Y-73661418D01*
X232142017Y-73200385D01*
X233274802Y-72067600D01*
X233274802Y-72067600D01*
G37*
D36*
X233504612Y-73430194D03*
D31*
G36*
X233840488Y-72633285D02*
G01*
X234301521Y-73094318D01*
X233168736Y-74227103D01*
X232707703Y-73766070D01*
X233840488Y-72633285D01*
X233840488Y-72633285D01*
G37*
D36*
X234070297Y-73995880D03*
D31*
G36*
X234406173Y-73198971D02*
G01*
X234867206Y-73660004D01*
X233734421Y-74792789D01*
X233273388Y-74331756D01*
X234406173Y-73198971D01*
X234406173Y-73198971D01*
G37*
D36*
X234635983Y-74561565D03*
D31*
G36*
X234971859Y-73764656D02*
G01*
X235432892Y-74225689D01*
X234300107Y-75358474D01*
X233839074Y-74897441D01*
X234971859Y-73764656D01*
X234971859Y-73764656D01*
G37*
D36*
X235201668Y-75127250D03*
D31*
G36*
X235537544Y-74330341D02*
G01*
X235998577Y-74791374D01*
X234865792Y-75924159D01*
X234404759Y-75463126D01*
X235537544Y-74330341D01*
X235537544Y-74330341D01*
G37*
D36*
X235767353Y-75692936D03*
D31*
G36*
X236103229Y-74896027D02*
G01*
X236564262Y-75357060D01*
X235431477Y-76489845D01*
X234970444Y-76028812D01*
X236103229Y-74896027D01*
X236103229Y-74896027D01*
G37*
D36*
X238171517Y-75692936D03*
D31*
G36*
X238968426Y-76028812D02*
G01*
X238507393Y-76489845D01*
X237374608Y-75357060D01*
X237835641Y-74896027D01*
X238968426Y-76028812D01*
X238968426Y-76028812D01*
G37*
D36*
X238737202Y-75127250D03*
D31*
G36*
X239534111Y-75463126D02*
G01*
X239073078Y-75924159D01*
X237940293Y-74791374D01*
X238401326Y-74330341D01*
X239534111Y-75463126D01*
X239534111Y-75463126D01*
G37*
D36*
X239302887Y-74561565D03*
D31*
G36*
X240099796Y-74897441D02*
G01*
X239638763Y-75358474D01*
X238505978Y-74225689D01*
X238967011Y-73764656D01*
X240099796Y-74897441D01*
X240099796Y-74897441D01*
G37*
D36*
X239868573Y-73995880D03*
D31*
G36*
X240665482Y-74331756D02*
G01*
X240204449Y-74792789D01*
X239071664Y-73660004D01*
X239532697Y-73198971D01*
X240665482Y-74331756D01*
X240665482Y-74331756D01*
G37*
D36*
X240434258Y-73430194D03*
D31*
G36*
X241231167Y-73766070D02*
G01*
X240770134Y-74227103D01*
X239637349Y-73094318D01*
X240098382Y-72633285D01*
X241231167Y-73766070D01*
X241231167Y-73766070D01*
G37*
D36*
X240999944Y-72864509D03*
D31*
G36*
X241796853Y-73200385D02*
G01*
X241335820Y-73661418D01*
X240203035Y-72528633D01*
X240664068Y-72067600D01*
X241796853Y-73200385D01*
X241796853Y-73200385D01*
G37*
D36*
X241565629Y-72298823D03*
D31*
G36*
X242362538Y-72634699D02*
G01*
X241901505Y-73095732D01*
X240768720Y-71962947D01*
X241229753Y-71501914D01*
X242362538Y-72634699D01*
X242362538Y-72634699D01*
G37*
D36*
X242131315Y-71733138D03*
D31*
G36*
X242928224Y-72069014D02*
G01*
X242467191Y-72530047D01*
X241334406Y-71397262D01*
X241795439Y-70936229D01*
X242928224Y-72069014D01*
X242928224Y-72069014D01*
G37*
D36*
X242697000Y-71167452D03*
D31*
G36*
X243493909Y-71503328D02*
G01*
X243032876Y-71964361D01*
X241900091Y-70831576D01*
X242361124Y-70370543D01*
X243493909Y-71503328D01*
X243493909Y-71503328D01*
G37*
D36*
X243262685Y-70601767D03*
D31*
G36*
X244059594Y-70937643D02*
G01*
X243598561Y-71398676D01*
X242465776Y-70265891D01*
X242926809Y-69804858D01*
X244059594Y-70937643D01*
X244059594Y-70937643D01*
G37*
D36*
X243828371Y-70036082D03*
D31*
G36*
X244625280Y-70371958D02*
G01*
X244164247Y-70832991D01*
X243031462Y-69700206D01*
X243492495Y-69239173D01*
X244625280Y-70371958D01*
X244625280Y-70371958D01*
G37*
D36*
X243828371Y-67631918D03*
D31*
G36*
X244164247Y-66835009D02*
G01*
X244625280Y-67296042D01*
X243492495Y-68428827D01*
X243031462Y-67967794D01*
X244164247Y-66835009D01*
X244164247Y-66835009D01*
G37*
D36*
X243262685Y-67066233D03*
D31*
G36*
X243598561Y-66269324D02*
G01*
X244059594Y-66730357D01*
X242926809Y-67863142D01*
X242465776Y-67402109D01*
X243598561Y-66269324D01*
X243598561Y-66269324D01*
G37*
D36*
X242697000Y-66500548D03*
D31*
G36*
X243032876Y-65703639D02*
G01*
X243493909Y-66164672D01*
X242361124Y-67297457D01*
X241900091Y-66836424D01*
X243032876Y-65703639D01*
X243032876Y-65703639D01*
G37*
D36*
X242131315Y-65934862D03*
D31*
G36*
X242467191Y-65137953D02*
G01*
X242928224Y-65598986D01*
X241795439Y-66731771D01*
X241334406Y-66270738D01*
X242467191Y-65137953D01*
X242467191Y-65137953D01*
G37*
D36*
X241565629Y-65369177D03*
D31*
G36*
X241901505Y-64572268D02*
G01*
X242362538Y-65033301D01*
X241229753Y-66166086D01*
X240768720Y-65705053D01*
X241901505Y-64572268D01*
X241901505Y-64572268D01*
G37*
D36*
X240999944Y-64803491D03*
D31*
G36*
X241335820Y-64006582D02*
G01*
X241796853Y-64467615D01*
X240664068Y-65600400D01*
X240203035Y-65139367D01*
X241335820Y-64006582D01*
X241335820Y-64006582D01*
G37*
D36*
X240434258Y-64237806D03*
D31*
G36*
X240770134Y-63440897D02*
G01*
X241231167Y-63901930D01*
X240098382Y-65034715D01*
X239637349Y-64573682D01*
X240770134Y-63440897D01*
X240770134Y-63440897D01*
G37*
D36*
X239868573Y-63672120D03*
D31*
G36*
X240204449Y-62875211D02*
G01*
X240665482Y-63336244D01*
X239532697Y-64469029D01*
X239071664Y-64007996D01*
X240204449Y-62875211D01*
X240204449Y-62875211D01*
G37*
D36*
X239302887Y-63106435D03*
D31*
G36*
X239638763Y-62309526D02*
G01*
X240099796Y-62770559D01*
X238967011Y-63903344D01*
X238505978Y-63442311D01*
X239638763Y-62309526D01*
X239638763Y-62309526D01*
G37*
D36*
X238737202Y-62540750D03*
D31*
G36*
X239073078Y-61743841D02*
G01*
X239534111Y-62204874D01*
X238401326Y-63337659D01*
X237940293Y-62876626D01*
X239073078Y-61743841D01*
X239073078Y-61743841D01*
G37*
D36*
X238171517Y-61975064D03*
D31*
G36*
X238507393Y-61178155D02*
G01*
X238968426Y-61639188D01*
X237835641Y-62771973D01*
X237374608Y-62310940D01*
X238507393Y-61178155D01*
X238507393Y-61178155D01*
G37*
D14*
X235605000Y-84165000D03*
D15*
X235625000Y-83875000D02*
X235585000Y-84455000D01*
D14*
X235585000Y-84455000D03*
X241279999Y-82645000D03*
D15*
X241935000Y-81915000D02*
X240624998Y-83375000D01*
D16*
X238125000Y-79375000D03*
D14*
X240625000Y-83375000D03*
D17*
X243205000Y-79375000D03*
X233045000Y-79375000D03*
D14*
X164445000Y-74585000D03*
D15*
X164425000Y-74875000D02*
X164465000Y-74295000D01*
D14*
X164465000Y-74295000D03*
X158770001Y-76105000D03*
D15*
X158115000Y-76835000D02*
X159425002Y-75375000D01*
D16*
X161925000Y-79375000D03*
D14*
X159425000Y-75375000D03*
D17*
X156845000Y-79375000D03*
X167005000Y-79375000D03*
D18*
X264477500Y-93345000D03*
D16*
X261937500Y-98425000D03*
D18*
X258127500Y-95885000D03*
D17*
X256857500Y-98425000D03*
X267017500Y-98425000D03*
D19*
X254852500Y-95885000D03*
X267779500Y-93345000D03*
D18*
X223996250Y-93345000D03*
D16*
X221456250Y-98425000D03*
D18*
X217646250Y-95885000D03*
D17*
X216376250Y-98425000D03*
X226536250Y-98425000D03*
D19*
X214371250Y-95885000D03*
X227298250Y-93345000D03*
D18*
X221297500Y-103505000D03*
D16*
X223837500Y-98425000D03*
D18*
X227647500Y-100965000D03*
D17*
X228917500Y-98425000D03*
X218757500Y-98425000D03*
D19*
X230922500Y-100965000D03*
X217995500Y-103505000D03*
D18*
X204946250Y-93345000D03*
D16*
X202406250Y-98425000D03*
D18*
X198596250Y-95885000D03*
D17*
X197326250Y-98425000D03*
X207486250Y-98425000D03*
D19*
X195321250Y-95885000D03*
X208248250Y-93345000D03*
D18*
X128746250Y-93345000D03*
D16*
X126206250Y-98425000D03*
D18*
X122396250Y-95885000D03*
D17*
X121126250Y-98425000D03*
X131286250Y-98425000D03*
D19*
X119121250Y-95885000D03*
X132048250Y-93345000D03*
D18*
X104933750Y-93345000D03*
D16*
X102393750Y-98425000D03*
D18*
X98583750Y-95885000D03*
D17*
X97313750Y-98425000D03*
X107473750Y-98425000D03*
D19*
X95308750Y-95885000D03*
X108235750Y-93345000D03*
D18*
X40640000Y-93345000D03*
D16*
X38100000Y-98425000D03*
D18*
X34290000Y-95885000D03*
D17*
X33020000Y-98425000D03*
X43180000Y-98425000D03*
D19*
X31015000Y-95885000D03*
X43942000Y-93345000D03*
D14*
X47763750Y-74585000D03*
D15*
X47743750Y-74875000D02*
X47783750Y-74295000D01*
D14*
X47783750Y-74295000D03*
X42088751Y-76105000D03*
D15*
X41433750Y-76835000D02*
X42743752Y-75375000D01*
D16*
X45243750Y-79375000D03*
D14*
X42743750Y-75375000D03*
D17*
X40163750Y-79375000D03*
X50323750Y-79375000D03*
D14*
X221595000Y-74585000D03*
D15*
X221575000Y-74875000D02*
X221615000Y-74295000D01*
D14*
X221615000Y-74295000D03*
X215920001Y-76105000D03*
D15*
X215265000Y-76835000D02*
X216575002Y-75375000D01*
D16*
X219075000Y-79375000D03*
D14*
X216575000Y-75375000D03*
D17*
X213995000Y-79375000D03*
X224155000Y-79375000D03*
D14*
X202545000Y-74585000D03*
D15*
X202525000Y-74875000D02*
X202565000Y-74295000D01*
D14*
X202565000Y-74295000D03*
X196870001Y-76105000D03*
D15*
X196215000Y-76835000D02*
X197525002Y-75375000D01*
D16*
X200025000Y-79375000D03*
D14*
X197525000Y-75375000D03*
D17*
X194945000Y-79375000D03*
X205105000Y-79375000D03*
D14*
X145395000Y-74585000D03*
D15*
X145375000Y-74875000D02*
X145415000Y-74295000D01*
D14*
X145415000Y-74295000D03*
X139720001Y-76105000D03*
D15*
X139065000Y-76835000D02*
X140375002Y-75375000D01*
D16*
X142875000Y-79375000D03*
D14*
X140375000Y-75375000D03*
D17*
X137795000Y-79375000D03*
X147955000Y-79375000D03*
D14*
X126345000Y-74585000D03*
D15*
X126325000Y-74875000D02*
X126365000Y-74295000D01*
D14*
X126365000Y-74295000D03*
X120670001Y-76105000D03*
D15*
X120015000Y-76835000D02*
X121325002Y-75375000D01*
D16*
X123825000Y-79375000D03*
D14*
X121325000Y-75375000D03*
D17*
X118745000Y-79375000D03*
X128905000Y-79375000D03*
D14*
X107295000Y-74585000D03*
D15*
X107275000Y-74875000D02*
X107315000Y-74295000D01*
D14*
X107315000Y-74295000D03*
X101620001Y-76105000D03*
D15*
X100965000Y-76835000D02*
X102275002Y-75375000D01*
D16*
X104775000Y-79375000D03*
D14*
X102275000Y-75375000D03*
D17*
X99695000Y-79375000D03*
X109855000Y-79375000D03*
D14*
X88245000Y-74585000D03*
D15*
X88225000Y-74875000D02*
X88265000Y-74295000D01*
D14*
X88265000Y-74295000D03*
X82570001Y-76105000D03*
D15*
X81915000Y-76835000D02*
X83225002Y-75375000D01*
D16*
X85725000Y-79375000D03*
D14*
X83225000Y-75375000D03*
D17*
X80645000Y-79375000D03*
X90805000Y-79375000D03*
D14*
X69195000Y-74585000D03*
D15*
X69175000Y-74875000D02*
X69215000Y-74295000D01*
D14*
X69215000Y-74295000D03*
X63520001Y-76105000D03*
D15*
X62865000Y-76835000D02*
X64175002Y-75375000D01*
D16*
X66675000Y-79375000D03*
D14*
X64175000Y-75375000D03*
D17*
X61595000Y-79375000D03*
X71755000Y-79375000D03*
D14*
X231120000Y-55535000D03*
D15*
X231100000Y-55825000D02*
X231140000Y-55245000D01*
D14*
X231140000Y-55245000D03*
X225445001Y-57055000D03*
D15*
X224790000Y-57785000D02*
X226100002Y-56325000D01*
D16*
X228600000Y-60325000D03*
D14*
X226100000Y-56325000D03*
D17*
X223520000Y-60325000D03*
X233680000Y-60325000D03*
D14*
X212070000Y-55535000D03*
D15*
X212050000Y-55825000D02*
X212090000Y-55245000D01*
D14*
X212090000Y-55245000D03*
X206395001Y-57055000D03*
D15*
X205740000Y-57785000D02*
X207050002Y-56325000D01*
D16*
X209550000Y-60325000D03*
D14*
X207050000Y-56325000D03*
D17*
X204470000Y-60325000D03*
X214630000Y-60325000D03*
D14*
X154920000Y-55535000D03*
D15*
X154900000Y-55825000D02*
X154940000Y-55245000D01*
D14*
X154940000Y-55245000D03*
X149245001Y-57055000D03*
D15*
X148590000Y-57785000D02*
X149900002Y-56325000D01*
D16*
X152400000Y-60325000D03*
D14*
X149900000Y-56325000D03*
D17*
X147320000Y-60325000D03*
X157480000Y-60325000D03*
D14*
X135870000Y-55535000D03*
D15*
X135850000Y-55825000D02*
X135890000Y-55245000D01*
D14*
X135890000Y-55245000D03*
X130195001Y-57055000D03*
D15*
X129540000Y-57785000D02*
X130850002Y-56325000D01*
D16*
X133350000Y-60325000D03*
D14*
X130850000Y-56325000D03*
D17*
X128270000Y-60325000D03*
X138430000Y-60325000D03*
D14*
X116820000Y-55535000D03*
D15*
X116800000Y-55825000D02*
X116840000Y-55245000D01*
D14*
X116840000Y-55245000D03*
X111145001Y-57055000D03*
D15*
X110490000Y-57785000D02*
X111800002Y-56325000D01*
D16*
X114300000Y-60325000D03*
D14*
X111800000Y-56325000D03*
D17*
X109220000Y-60325000D03*
X119380000Y-60325000D03*
D14*
X97770000Y-55535000D03*
D15*
X97750000Y-55825000D02*
X97790000Y-55245000D01*
D14*
X97790000Y-55245000D03*
X92095001Y-57055000D03*
D15*
X91440000Y-57785000D02*
X92750002Y-56325000D01*
D16*
X95250000Y-60325000D03*
D14*
X92750000Y-56325000D03*
D17*
X90170000Y-60325000D03*
X100330000Y-60325000D03*
D14*
X78720000Y-55535000D03*
D15*
X78700000Y-55825000D02*
X78740000Y-55245000D01*
D14*
X78740000Y-55245000D03*
X73045001Y-57055000D03*
D15*
X72390000Y-57785000D02*
X73700002Y-56325000D01*
D16*
X76200000Y-60325000D03*
D14*
X73700000Y-56325000D03*
D17*
X71120000Y-60325000D03*
X81280000Y-60325000D03*
D14*
X226357500Y-36485000D03*
D15*
X226337500Y-36775000D02*
X226377500Y-36195000D01*
D14*
X226377500Y-36195000D03*
X220682501Y-38005000D03*
D15*
X220027500Y-38735000D02*
X221337502Y-37275000D01*
D16*
X223837500Y-41275000D03*
D14*
X221337500Y-37275000D03*
D17*
X218757500Y-41275000D03*
X228917500Y-41275000D03*
D14*
X207307500Y-36485000D03*
D15*
X207287500Y-36775000D02*
X207327500Y-36195000D01*
D14*
X207327500Y-36195000D03*
X201632501Y-38005000D03*
D15*
X200977500Y-38735000D02*
X202287502Y-37275000D01*
D16*
X204787500Y-41275000D03*
D14*
X202287500Y-37275000D03*
D17*
X199707500Y-41275000D03*
X209867500Y-41275000D03*
D14*
X188257500Y-36485000D03*
D15*
X188237500Y-36775000D02*
X188277500Y-36195000D01*
D14*
X188277500Y-36195000D03*
X182582501Y-38005000D03*
D15*
X181927500Y-38735000D02*
X183237502Y-37275000D01*
D16*
X185737500Y-41275000D03*
D14*
X183237500Y-37275000D03*
D17*
X180657500Y-41275000D03*
X190817500Y-41275000D03*
D14*
X169207500Y-36485000D03*
D15*
X169187500Y-36775000D02*
X169227500Y-36195000D01*
D14*
X169227500Y-36195000D03*
X163532501Y-38005000D03*
D15*
X162877500Y-38735000D02*
X164187502Y-37275000D01*
D16*
X166687500Y-41275000D03*
D14*
X164187500Y-37275000D03*
D17*
X161607500Y-41275000D03*
X171767500Y-41275000D03*
D14*
X150157500Y-36485000D03*
D15*
X150137500Y-36775000D02*
X150177500Y-36195000D01*
D14*
X150177500Y-36195000D03*
X144482501Y-38005000D03*
D15*
X143827500Y-38735000D02*
X145137502Y-37275000D01*
D16*
X147637500Y-41275000D03*
D14*
X145137500Y-37275000D03*
D17*
X142557500Y-41275000D03*
X152717500Y-41275000D03*
D14*
X131107500Y-36485000D03*
D15*
X131087500Y-36775000D02*
X131127500Y-36195000D01*
D14*
X131127500Y-36195000D03*
X125432501Y-38005000D03*
D15*
X124777500Y-38735000D02*
X126087502Y-37275000D01*
D16*
X128587500Y-41275000D03*
D14*
X126087500Y-37275000D03*
D17*
X123507500Y-41275000D03*
X133667500Y-41275000D03*
D14*
X112057500Y-36485000D03*
D15*
X112037500Y-36775000D02*
X112077500Y-36195000D01*
D14*
X112077500Y-36195000D03*
X106382501Y-38005000D03*
D15*
X105727500Y-38735000D02*
X107037502Y-37275000D01*
D16*
X109537500Y-41275000D03*
D14*
X107037500Y-37275000D03*
D17*
X104457500Y-41275000D03*
X114617500Y-41275000D03*
D14*
X93007500Y-36485000D03*
D15*
X92987500Y-36775000D02*
X93027500Y-36195000D01*
D14*
X93027500Y-36195000D03*
X87332501Y-38005000D03*
D15*
X86677500Y-38735000D02*
X87987502Y-37275000D01*
D16*
X90487500Y-41275000D03*
D14*
X87987500Y-37275000D03*
D17*
X85407500Y-41275000D03*
X95567500Y-41275000D03*
D14*
X73926500Y-36485000D03*
D15*
X73906500Y-36775000D02*
X73946500Y-36195000D01*
D14*
X73946500Y-36195000D03*
X68251501Y-38005000D03*
D15*
X67596500Y-38735000D02*
X68906502Y-37275000D01*
D16*
X71406500Y-41275000D03*
D14*
X68906500Y-37275000D03*
D17*
X66326500Y-41275000D03*
X76486500Y-41275000D03*
D23*
X269875000Y-96775000D03*
X269875000Y-100075000D03*
X250825000Y-96775000D03*
X250825000Y-100075000D03*
X231775000Y-90425000D03*
X231775000Y-93725000D03*
X212725000Y-102393750D03*
X212725000Y-105693750D03*
X176022000Y-96014000D03*
X176022000Y-99314000D03*
X135731250Y-96775000D03*
X135731250Y-100075000D03*
X111918750Y-96775000D03*
X111918750Y-100075000D03*
X87312500Y-96775000D03*
X87312500Y-100075000D03*
X65087500Y-96775000D03*
X65087500Y-100075000D03*
X46037500Y-96902000D03*
X46037500Y-100202000D03*
X265112500Y-76931250D03*
X265112500Y-80231250D03*
X244602000Y-84203000D03*
X244602000Y-87503000D03*
X207962500Y-77725000D03*
X207962500Y-81025000D03*
X188912500Y-76931250D03*
X188912500Y-80231250D03*
X169862500Y-77725000D03*
X169862500Y-81025000D03*
X150653750Y-77787500D03*
X150653750Y-81087500D03*
X131762500Y-77725000D03*
X131762500Y-81025000D03*
X112712500Y-77725000D03*
X112712500Y-81025000D03*
X93757750Y-77725000D03*
X93757750Y-81025000D03*
X74612500Y-77725000D03*
X74612500Y-81025000D03*
X54768750Y-77439250D03*
X54768750Y-80739250D03*
X274574000Y-58674000D03*
X274574000Y-61974000D03*
X255587500Y-57023000D03*
X255587500Y-60323000D03*
X222504000Y-52070000D03*
X222504000Y-55370000D03*
X217487500Y-58675000D03*
X217487500Y-61975000D03*
X198437500Y-58675000D03*
X198437500Y-61975000D03*
X179387500Y-58675000D03*
X179387500Y-61975000D03*
X160337500Y-58737500D03*
X160337500Y-62037500D03*
X141287500Y-58548000D03*
X141287500Y-61848000D03*
X122237500Y-58675000D03*
X122237500Y-61975000D03*
X103187500Y-58929000D03*
X103187500Y-62229000D03*
X84137500Y-58675000D03*
X84137500Y-61975000D03*
X272923000Y-37084000D03*
X272923000Y-40384000D03*
X231775000Y-39625000D03*
X231775000Y-42925000D03*
X212725000Y-39625000D03*
X212725000Y-42925000D03*
X193675000Y-39910750D03*
X193675000Y-43210750D03*
X174180500Y-39561500D03*
X174180500Y-42861500D03*
X155225750Y-39561500D03*
X155225750Y-42861500D03*
X136779000Y-39339250D03*
X136779000Y-42639250D03*
X117030500Y-39783750D03*
X117030500Y-43083750D03*
X98425000Y-39815500D03*
X98425000Y-43115500D03*
X79375000Y-39625000D03*
X79375000Y-42925000D03*
D37*
X250521223Y-74530858D03*
D31*
G36*
X250450512Y-75522222D02*
G01*
X249529859Y-74601569D01*
X250591934Y-73539494D01*
X251512587Y-74460147D01*
X250450512Y-75522222D01*
X250450512Y-75522222D01*
G37*
D37*
X252076858Y-72975223D03*
D31*
G36*
X252006147Y-73966587D02*
G01*
X251085494Y-73045934D01*
X252147569Y-71983859D01*
X253068222Y-72904512D01*
X252006147Y-73966587D01*
X252006147Y-73966587D01*
G37*
D37*
X250874777Y-71773142D03*
D31*
G36*
X250804066Y-72764506D02*
G01*
X249883413Y-71843853D01*
X250945488Y-70781778D01*
X251866141Y-71702431D01*
X250804066Y-72764506D01*
X250804066Y-72764506D01*
G37*
D37*
X249319142Y-73328777D03*
D31*
G36*
X249248431Y-74320141D02*
G01*
X248327778Y-73399488D01*
X249389853Y-72337413D01*
X250310506Y-73258066D01*
X249248431Y-74320141D01*
X249248431Y-74320141D01*
G37*
G36*
X237090505Y-54749311D02*
G01*
X237116925Y-54753230D01*
X237142835Y-54759720D01*
X237167983Y-54768718D01*
X237192128Y-54780138D01*
X237215038Y-54793869D01*
X237236492Y-54809780D01*
X237256282Y-54827718D01*
X237274220Y-54847508D01*
X237290131Y-54868962D01*
X237303862Y-54891872D01*
X237315282Y-54916017D01*
X237324280Y-54941165D01*
X237330770Y-54967075D01*
X237334689Y-54993495D01*
X237336000Y-55020173D01*
X237336000Y-55977827D01*
X237334689Y-56004505D01*
X237330770Y-56030925D01*
X237324280Y-56056835D01*
X237315282Y-56081983D01*
X237303862Y-56106128D01*
X237290131Y-56129038D01*
X237274220Y-56150492D01*
X237256282Y-56170282D01*
X237236492Y-56188220D01*
X237215038Y-56204131D01*
X237192128Y-56217862D01*
X237167983Y-56229282D01*
X237142835Y-56238280D01*
X237116925Y-56244770D01*
X237090505Y-56248689D01*
X237063827Y-56250000D01*
X236356173Y-56250000D01*
X236329495Y-56248689D01*
X236303075Y-56244770D01*
X236277165Y-56238280D01*
X236252017Y-56229282D01*
X236227872Y-56217862D01*
X236204962Y-56204131D01*
X236183508Y-56188220D01*
X236163718Y-56170282D01*
X236145780Y-56150492D01*
X236129869Y-56129038D01*
X236116138Y-56106128D01*
X236104718Y-56081983D01*
X236095720Y-56056835D01*
X236089230Y-56030925D01*
X236085311Y-56004505D01*
X236084000Y-55977827D01*
X236084000Y-55020173D01*
X236085311Y-54993495D01*
X236089230Y-54967075D01*
X236095720Y-54941165D01*
X236104718Y-54916017D01*
X236116138Y-54891872D01*
X236129869Y-54868962D01*
X236145780Y-54847508D01*
X236163718Y-54827718D01*
X236183508Y-54809780D01*
X236204962Y-54793869D01*
X236227872Y-54780138D01*
X236252017Y-54768718D01*
X236277165Y-54759720D01*
X236303075Y-54753230D01*
X236329495Y-54749311D01*
X236356173Y-54748000D01*
X237063827Y-54748000D01*
X237090505Y-54749311D01*
X237090505Y-54749311D01*
G37*
D35*
X236710000Y-55499000D03*
D31*
G36*
X239140505Y-54749311D02*
G01*
X239166925Y-54753230D01*
X239192835Y-54759720D01*
X239217983Y-54768718D01*
X239242128Y-54780138D01*
X239265038Y-54793869D01*
X239286492Y-54809780D01*
X239306282Y-54827718D01*
X239324220Y-54847508D01*
X239340131Y-54868962D01*
X239353862Y-54891872D01*
X239365282Y-54916017D01*
X239374280Y-54941165D01*
X239380770Y-54967075D01*
X239384689Y-54993495D01*
X239386000Y-55020173D01*
X239386000Y-55977827D01*
X239384689Y-56004505D01*
X239380770Y-56030925D01*
X239374280Y-56056835D01*
X239365282Y-56081983D01*
X239353862Y-56106128D01*
X239340131Y-56129038D01*
X239324220Y-56150492D01*
X239306282Y-56170282D01*
X239286492Y-56188220D01*
X239265038Y-56204131D01*
X239242128Y-56217862D01*
X239217983Y-56229282D01*
X239192835Y-56238280D01*
X239166925Y-56244770D01*
X239140505Y-56248689D01*
X239113827Y-56250000D01*
X238406173Y-56250000D01*
X238379495Y-56248689D01*
X238353075Y-56244770D01*
X238327165Y-56238280D01*
X238302017Y-56229282D01*
X238277872Y-56217862D01*
X238254962Y-56204131D01*
X238233508Y-56188220D01*
X238213718Y-56170282D01*
X238195780Y-56150492D01*
X238179869Y-56129038D01*
X238166138Y-56106128D01*
X238154718Y-56081983D01*
X238145720Y-56056835D01*
X238139230Y-56030925D01*
X238135311Y-56004505D01*
X238134000Y-55977827D01*
X238134000Y-55020173D01*
X238135311Y-54993495D01*
X238139230Y-54967075D01*
X238145720Y-54941165D01*
X238154718Y-54916017D01*
X238166138Y-54891872D01*
X238179869Y-54868962D01*
X238195780Y-54847508D01*
X238213718Y-54827718D01*
X238233508Y-54809780D01*
X238254962Y-54793869D01*
X238277872Y-54780138D01*
X238302017Y-54768718D01*
X238327165Y-54759720D01*
X238353075Y-54753230D01*
X238379495Y-54749311D01*
X238406173Y-54748000D01*
X239113827Y-54748000D01*
X239140505Y-54749311D01*
X239140505Y-54749311D01*
G37*
D35*
X238760000Y-55499000D03*
D31*
G36*
X232280505Y-83449311D02*
G01*
X232306925Y-83453230D01*
X232332835Y-83459720D01*
X232357983Y-83468718D01*
X232382128Y-83480138D01*
X232405038Y-83493869D01*
X232426492Y-83509780D01*
X232446282Y-83527718D01*
X232464220Y-83547508D01*
X232480131Y-83568962D01*
X232493862Y-83591872D01*
X232505282Y-83616017D01*
X232514280Y-83641165D01*
X232520770Y-83667075D01*
X232524689Y-83693495D01*
X232526000Y-83720173D01*
X232526000Y-84427827D01*
X232524689Y-84454505D01*
X232520770Y-84480925D01*
X232514280Y-84506835D01*
X232505282Y-84531983D01*
X232493862Y-84556128D01*
X232480131Y-84579038D01*
X232464220Y-84600492D01*
X232446282Y-84620282D01*
X232426492Y-84638220D01*
X232405038Y-84654131D01*
X232382128Y-84667862D01*
X232357983Y-84679282D01*
X232332835Y-84688280D01*
X232306925Y-84694770D01*
X232280505Y-84698689D01*
X232253827Y-84700000D01*
X231296173Y-84700000D01*
X231269495Y-84698689D01*
X231243075Y-84694770D01*
X231217165Y-84688280D01*
X231192017Y-84679282D01*
X231167872Y-84667862D01*
X231144962Y-84654131D01*
X231123508Y-84638220D01*
X231103718Y-84620282D01*
X231085780Y-84600492D01*
X231069869Y-84579038D01*
X231056138Y-84556128D01*
X231044718Y-84531983D01*
X231035720Y-84506835D01*
X231029230Y-84480925D01*
X231025311Y-84454505D01*
X231024000Y-84427827D01*
X231024000Y-83720173D01*
X231025311Y-83693495D01*
X231029230Y-83667075D01*
X231035720Y-83641165D01*
X231044718Y-83616017D01*
X231056138Y-83591872D01*
X231069869Y-83568962D01*
X231085780Y-83547508D01*
X231103718Y-83527718D01*
X231123508Y-83509780D01*
X231144962Y-83493869D01*
X231167872Y-83480138D01*
X231192017Y-83468718D01*
X231217165Y-83459720D01*
X231243075Y-83453230D01*
X231269495Y-83449311D01*
X231296173Y-83448000D01*
X232253827Y-83448000D01*
X232280505Y-83449311D01*
X232280505Y-83449311D01*
G37*
D35*
X231775000Y-84074000D03*
D31*
G36*
X232280505Y-81399311D02*
G01*
X232306925Y-81403230D01*
X232332835Y-81409720D01*
X232357983Y-81418718D01*
X232382128Y-81430138D01*
X232405038Y-81443869D01*
X232426492Y-81459780D01*
X232446282Y-81477718D01*
X232464220Y-81497508D01*
X232480131Y-81518962D01*
X232493862Y-81541872D01*
X232505282Y-81566017D01*
X232514280Y-81591165D01*
X232520770Y-81617075D01*
X232524689Y-81643495D01*
X232526000Y-81670173D01*
X232526000Y-82377827D01*
X232524689Y-82404505D01*
X232520770Y-82430925D01*
X232514280Y-82456835D01*
X232505282Y-82481983D01*
X232493862Y-82506128D01*
X232480131Y-82529038D01*
X232464220Y-82550492D01*
X232446282Y-82570282D01*
X232426492Y-82588220D01*
X232405038Y-82604131D01*
X232382128Y-82617862D01*
X232357983Y-82629282D01*
X232332835Y-82638280D01*
X232306925Y-82644770D01*
X232280505Y-82648689D01*
X232253827Y-82650000D01*
X231296173Y-82650000D01*
X231269495Y-82648689D01*
X231243075Y-82644770D01*
X231217165Y-82638280D01*
X231192017Y-82629282D01*
X231167872Y-82617862D01*
X231144962Y-82604131D01*
X231123508Y-82588220D01*
X231103718Y-82570282D01*
X231085780Y-82550492D01*
X231069869Y-82529038D01*
X231056138Y-82506128D01*
X231044718Y-82481983D01*
X231035720Y-82456835D01*
X231029230Y-82430925D01*
X231025311Y-82404505D01*
X231024000Y-82377827D01*
X231024000Y-81670173D01*
X231025311Y-81643495D01*
X231029230Y-81617075D01*
X231035720Y-81591165D01*
X231044718Y-81566017D01*
X231056138Y-81541872D01*
X231069869Y-81518962D01*
X231085780Y-81497508D01*
X231103718Y-81477718D01*
X231123508Y-81459780D01*
X231144962Y-81443869D01*
X231167872Y-81430138D01*
X231192017Y-81418718D01*
X231217165Y-81409720D01*
X231243075Y-81403230D01*
X231269495Y-81399311D01*
X231296173Y-81398000D01*
X232253827Y-81398000D01*
X232280505Y-81399311D01*
X232280505Y-81399311D01*
G37*
D35*
X231775000Y-82024000D03*
D31*
G36*
X251203505Y-65415311D02*
G01*
X251229925Y-65419230D01*
X251255835Y-65425720D01*
X251280983Y-65434718D01*
X251305128Y-65446138D01*
X251328038Y-65459869D01*
X251349492Y-65475780D01*
X251369282Y-65493718D01*
X251387220Y-65513508D01*
X251403131Y-65534962D01*
X251416862Y-65557872D01*
X251428282Y-65582017D01*
X251437280Y-65607165D01*
X251443770Y-65633075D01*
X251447689Y-65659495D01*
X251449000Y-65686173D01*
X251449000Y-66393827D01*
X251447689Y-66420505D01*
X251443770Y-66446925D01*
X251437280Y-66472835D01*
X251428282Y-66497983D01*
X251416862Y-66522128D01*
X251403131Y-66545038D01*
X251387220Y-66566492D01*
X251369282Y-66586282D01*
X251349492Y-66604220D01*
X251328038Y-66620131D01*
X251305128Y-66633862D01*
X251280983Y-66645282D01*
X251255835Y-66654280D01*
X251229925Y-66660770D01*
X251203505Y-66664689D01*
X251176827Y-66666000D01*
X250219173Y-66666000D01*
X250192495Y-66664689D01*
X250166075Y-66660770D01*
X250140165Y-66654280D01*
X250115017Y-66645282D01*
X250090872Y-66633862D01*
X250067962Y-66620131D01*
X250046508Y-66604220D01*
X250026718Y-66586282D01*
X250008780Y-66566492D01*
X249992869Y-66545038D01*
X249979138Y-66522128D01*
X249967718Y-66497983D01*
X249958720Y-66472835D01*
X249952230Y-66446925D01*
X249948311Y-66420505D01*
X249947000Y-66393827D01*
X249947000Y-65686173D01*
X249948311Y-65659495D01*
X249952230Y-65633075D01*
X249958720Y-65607165D01*
X249967718Y-65582017D01*
X249979138Y-65557872D01*
X249992869Y-65534962D01*
X250008780Y-65513508D01*
X250026718Y-65493718D01*
X250046508Y-65475780D01*
X250067962Y-65459869D01*
X250090872Y-65446138D01*
X250115017Y-65434718D01*
X250140165Y-65425720D01*
X250166075Y-65419230D01*
X250192495Y-65415311D01*
X250219173Y-65414000D01*
X251176827Y-65414000D01*
X251203505Y-65415311D01*
X251203505Y-65415311D01*
G37*
D35*
X250698000Y-66040000D03*
D31*
G36*
X251203505Y-67465311D02*
G01*
X251229925Y-67469230D01*
X251255835Y-67475720D01*
X251280983Y-67484718D01*
X251305128Y-67496138D01*
X251328038Y-67509869D01*
X251349492Y-67525780D01*
X251369282Y-67543718D01*
X251387220Y-67563508D01*
X251403131Y-67584962D01*
X251416862Y-67607872D01*
X251428282Y-67632017D01*
X251437280Y-67657165D01*
X251443770Y-67683075D01*
X251447689Y-67709495D01*
X251449000Y-67736173D01*
X251449000Y-68443827D01*
X251447689Y-68470505D01*
X251443770Y-68496925D01*
X251437280Y-68522835D01*
X251428282Y-68547983D01*
X251416862Y-68572128D01*
X251403131Y-68595038D01*
X251387220Y-68616492D01*
X251369282Y-68636282D01*
X251349492Y-68654220D01*
X251328038Y-68670131D01*
X251305128Y-68683862D01*
X251280983Y-68695282D01*
X251255835Y-68704280D01*
X251229925Y-68710770D01*
X251203505Y-68714689D01*
X251176827Y-68716000D01*
X250219173Y-68716000D01*
X250192495Y-68714689D01*
X250166075Y-68710770D01*
X250140165Y-68704280D01*
X250115017Y-68695282D01*
X250090872Y-68683862D01*
X250067962Y-68670131D01*
X250046508Y-68654220D01*
X250026718Y-68636282D01*
X250008780Y-68616492D01*
X249992869Y-68595038D01*
X249979138Y-68572128D01*
X249967718Y-68547983D01*
X249958720Y-68522835D01*
X249952230Y-68496925D01*
X249948311Y-68470505D01*
X249947000Y-68443827D01*
X249947000Y-67736173D01*
X249948311Y-67709495D01*
X249952230Y-67683075D01*
X249958720Y-67657165D01*
X249967718Y-67632017D01*
X249979138Y-67607872D01*
X249992869Y-67584962D01*
X250008780Y-67563508D01*
X250026718Y-67543718D01*
X250046508Y-67525780D01*
X250067962Y-67509869D01*
X250090872Y-67496138D01*
X250115017Y-67484718D01*
X250140165Y-67475720D01*
X250166075Y-67469230D01*
X250192495Y-67465311D01*
X250219173Y-67464000D01*
X251176827Y-67464000D01*
X251203505Y-67465311D01*
X251203505Y-67465311D01*
G37*
D35*
X250698000Y-68090000D03*
D31*
G36*
X254167634Y-70439931D02*
G01*
X254194054Y-70443850D01*
X254219964Y-70450340D01*
X254245112Y-70459338D01*
X254269257Y-70470758D01*
X254292167Y-70484489D01*
X254313621Y-70500400D01*
X254333411Y-70518338D01*
X254833798Y-71018725D01*
X254851736Y-71038515D01*
X254867647Y-71059969D01*
X254881378Y-71082879D01*
X254892798Y-71107024D01*
X254901796Y-71132172D01*
X254908286Y-71158082D01*
X254912205Y-71184502D01*
X254913516Y-71211180D01*
X254912205Y-71237858D01*
X254908286Y-71264278D01*
X254901796Y-71290188D01*
X254892798Y-71315336D01*
X254881378Y-71339481D01*
X254867647Y-71362391D01*
X254851736Y-71383845D01*
X254833798Y-71403635D01*
X254156635Y-72080798D01*
X254136845Y-72098736D01*
X254115391Y-72114647D01*
X254092481Y-72128378D01*
X254068336Y-72139798D01*
X254043188Y-72148796D01*
X254017278Y-72155286D01*
X253990858Y-72159205D01*
X253964180Y-72160516D01*
X253937502Y-72159205D01*
X253911082Y-72155286D01*
X253885172Y-72148796D01*
X253860024Y-72139798D01*
X253835879Y-72128378D01*
X253812969Y-72114647D01*
X253791515Y-72098736D01*
X253771725Y-72080798D01*
X253271338Y-71580411D01*
X253253400Y-71560621D01*
X253237489Y-71539167D01*
X253223758Y-71516257D01*
X253212338Y-71492112D01*
X253203340Y-71466964D01*
X253196850Y-71441054D01*
X253192931Y-71414634D01*
X253191620Y-71387956D01*
X253192931Y-71361278D01*
X253196850Y-71334858D01*
X253203340Y-71308948D01*
X253212338Y-71283800D01*
X253223758Y-71259655D01*
X253237489Y-71236745D01*
X253253400Y-71215291D01*
X253271338Y-71195501D01*
X253948501Y-70518338D01*
X253968291Y-70500400D01*
X253989745Y-70484489D01*
X254012655Y-70470758D01*
X254036800Y-70459338D01*
X254061948Y-70450340D01*
X254087858Y-70443850D01*
X254114278Y-70439931D01*
X254140956Y-70438620D01*
X254167634Y-70439931D01*
X254167634Y-70439931D01*
G37*
D35*
X254052568Y-71299568D03*
D31*
G36*
X252718066Y-68990363D02*
G01*
X252744486Y-68994282D01*
X252770396Y-69000772D01*
X252795544Y-69009770D01*
X252819689Y-69021190D01*
X252842599Y-69034921D01*
X252864053Y-69050832D01*
X252883843Y-69068770D01*
X253384230Y-69569157D01*
X253402168Y-69588947D01*
X253418079Y-69610401D01*
X253431810Y-69633311D01*
X253443230Y-69657456D01*
X253452228Y-69682604D01*
X253458718Y-69708514D01*
X253462637Y-69734934D01*
X253463948Y-69761612D01*
X253462637Y-69788290D01*
X253458718Y-69814710D01*
X253452228Y-69840620D01*
X253443230Y-69865768D01*
X253431810Y-69889913D01*
X253418079Y-69912823D01*
X253402168Y-69934277D01*
X253384230Y-69954067D01*
X252707067Y-70631230D01*
X252687277Y-70649168D01*
X252665823Y-70665079D01*
X252642913Y-70678810D01*
X252618768Y-70690230D01*
X252593620Y-70699228D01*
X252567710Y-70705718D01*
X252541290Y-70709637D01*
X252514612Y-70710948D01*
X252487934Y-70709637D01*
X252461514Y-70705718D01*
X252435604Y-70699228D01*
X252410456Y-70690230D01*
X252386311Y-70678810D01*
X252363401Y-70665079D01*
X252341947Y-70649168D01*
X252322157Y-70631230D01*
X251821770Y-70130843D01*
X251803832Y-70111053D01*
X251787921Y-70089599D01*
X251774190Y-70066689D01*
X251762770Y-70042544D01*
X251753772Y-70017396D01*
X251747282Y-69991486D01*
X251743363Y-69965066D01*
X251742052Y-69938388D01*
X251743363Y-69911710D01*
X251747282Y-69885290D01*
X251753772Y-69859380D01*
X251762770Y-69834232D01*
X251774190Y-69810087D01*
X251787921Y-69787177D01*
X251803832Y-69765723D01*
X251821770Y-69745933D01*
X252498933Y-69068770D01*
X252518723Y-69050832D01*
X252540177Y-69034921D01*
X252563087Y-69021190D01*
X252587232Y-69009770D01*
X252612380Y-69000772D01*
X252638290Y-68994282D01*
X252664710Y-68990363D01*
X252691388Y-68989052D01*
X252718066Y-68990363D01*
X252718066Y-68990363D01*
G37*
D35*
X252603000Y-69850000D03*
D31*
G36*
X247384066Y-74197363D02*
G01*
X247410486Y-74201282D01*
X247436396Y-74207772D01*
X247461544Y-74216770D01*
X247485689Y-74228190D01*
X247508599Y-74241921D01*
X247530053Y-74257832D01*
X247549843Y-74275770D01*
X248050230Y-74776157D01*
X248068168Y-74795947D01*
X248084079Y-74817401D01*
X248097810Y-74840311D01*
X248109230Y-74864456D01*
X248118228Y-74889604D01*
X248124718Y-74915514D01*
X248128637Y-74941934D01*
X248129948Y-74968612D01*
X248128637Y-74995290D01*
X248124718Y-75021710D01*
X248118228Y-75047620D01*
X248109230Y-75072768D01*
X248097810Y-75096913D01*
X248084079Y-75119823D01*
X248068168Y-75141277D01*
X248050230Y-75161067D01*
X247373067Y-75838230D01*
X247353277Y-75856168D01*
X247331823Y-75872079D01*
X247308913Y-75885810D01*
X247284768Y-75897230D01*
X247259620Y-75906228D01*
X247233710Y-75912718D01*
X247207290Y-75916637D01*
X247180612Y-75917948D01*
X247153934Y-75916637D01*
X247127514Y-75912718D01*
X247101604Y-75906228D01*
X247076456Y-75897230D01*
X247052311Y-75885810D01*
X247029401Y-75872079D01*
X247007947Y-75856168D01*
X246988157Y-75838230D01*
X246487770Y-75337843D01*
X246469832Y-75318053D01*
X246453921Y-75296599D01*
X246440190Y-75273689D01*
X246428770Y-75249544D01*
X246419772Y-75224396D01*
X246413282Y-75198486D01*
X246409363Y-75172066D01*
X246408052Y-75145388D01*
X246409363Y-75118710D01*
X246413282Y-75092290D01*
X246419772Y-75066380D01*
X246428770Y-75041232D01*
X246440190Y-75017087D01*
X246453921Y-74994177D01*
X246469832Y-74972723D01*
X246487770Y-74952933D01*
X247164933Y-74275770D01*
X247184723Y-74257832D01*
X247206177Y-74241921D01*
X247229087Y-74228190D01*
X247253232Y-74216770D01*
X247278380Y-74207772D01*
X247304290Y-74201282D01*
X247330710Y-74197363D01*
X247357388Y-74196052D01*
X247384066Y-74197363D01*
X247384066Y-74197363D01*
G37*
D35*
X247269000Y-75057000D03*
D31*
G36*
X248833634Y-75646931D02*
G01*
X248860054Y-75650850D01*
X248885964Y-75657340D01*
X248911112Y-75666338D01*
X248935257Y-75677758D01*
X248958167Y-75691489D01*
X248979621Y-75707400D01*
X248999411Y-75725338D01*
X249499798Y-76225725D01*
X249517736Y-76245515D01*
X249533647Y-76266969D01*
X249547378Y-76289879D01*
X249558798Y-76314024D01*
X249567796Y-76339172D01*
X249574286Y-76365082D01*
X249578205Y-76391502D01*
X249579516Y-76418180D01*
X249578205Y-76444858D01*
X249574286Y-76471278D01*
X249567796Y-76497188D01*
X249558798Y-76522336D01*
X249547378Y-76546481D01*
X249533647Y-76569391D01*
X249517736Y-76590845D01*
X249499798Y-76610635D01*
X248822635Y-77287798D01*
X248802845Y-77305736D01*
X248781391Y-77321647D01*
X248758481Y-77335378D01*
X248734336Y-77346798D01*
X248709188Y-77355796D01*
X248683278Y-77362286D01*
X248656858Y-77366205D01*
X248630180Y-77367516D01*
X248603502Y-77366205D01*
X248577082Y-77362286D01*
X248551172Y-77355796D01*
X248526024Y-77346798D01*
X248501879Y-77335378D01*
X248478969Y-77321647D01*
X248457515Y-77305736D01*
X248437725Y-77287798D01*
X247937338Y-76787411D01*
X247919400Y-76767621D01*
X247903489Y-76746167D01*
X247889758Y-76723257D01*
X247878338Y-76699112D01*
X247869340Y-76673964D01*
X247862850Y-76648054D01*
X247858931Y-76621634D01*
X247857620Y-76594956D01*
X247858931Y-76568278D01*
X247862850Y-76541858D01*
X247869340Y-76515948D01*
X247878338Y-76490800D01*
X247889758Y-76466655D01*
X247903489Y-76443745D01*
X247919400Y-76422291D01*
X247937338Y-76402501D01*
X248614501Y-75725338D01*
X248634291Y-75707400D01*
X248655745Y-75691489D01*
X248678655Y-75677758D01*
X248702800Y-75666338D01*
X248727948Y-75657340D01*
X248753858Y-75650850D01*
X248780278Y-75646931D01*
X248806956Y-75645620D01*
X248833634Y-75646931D01*
X248833634Y-75646931D01*
G37*
D35*
X248718568Y-76506568D03*
D31*
G36*
X224399505Y-67068311D02*
G01*
X224425925Y-67072230D01*
X224451835Y-67078720D01*
X224476983Y-67087718D01*
X224501128Y-67099138D01*
X224524038Y-67112869D01*
X224545492Y-67128780D01*
X224565282Y-67146718D01*
X224583220Y-67166508D01*
X224599131Y-67187962D01*
X224612862Y-67210872D01*
X224624282Y-67235017D01*
X224633280Y-67260165D01*
X224639770Y-67286075D01*
X224643689Y-67312495D01*
X224645000Y-67339173D01*
X224645000Y-68296827D01*
X224643689Y-68323505D01*
X224639770Y-68349925D01*
X224633280Y-68375835D01*
X224624282Y-68400983D01*
X224612862Y-68425128D01*
X224599131Y-68448038D01*
X224583220Y-68469492D01*
X224565282Y-68489282D01*
X224545492Y-68507220D01*
X224524038Y-68523131D01*
X224501128Y-68536862D01*
X224476983Y-68548282D01*
X224451835Y-68557280D01*
X224425925Y-68563770D01*
X224399505Y-68567689D01*
X224372827Y-68569000D01*
X223665173Y-68569000D01*
X223638495Y-68567689D01*
X223612075Y-68563770D01*
X223586165Y-68557280D01*
X223561017Y-68548282D01*
X223536872Y-68536862D01*
X223513962Y-68523131D01*
X223492508Y-68507220D01*
X223472718Y-68489282D01*
X223454780Y-68469492D01*
X223438869Y-68448038D01*
X223425138Y-68425128D01*
X223413718Y-68400983D01*
X223404720Y-68375835D01*
X223398230Y-68349925D01*
X223394311Y-68323505D01*
X223393000Y-68296827D01*
X223393000Y-67339173D01*
X223394311Y-67312495D01*
X223398230Y-67286075D01*
X223404720Y-67260165D01*
X223413718Y-67235017D01*
X223425138Y-67210872D01*
X223438869Y-67187962D01*
X223454780Y-67166508D01*
X223472718Y-67146718D01*
X223492508Y-67128780D01*
X223513962Y-67112869D01*
X223536872Y-67099138D01*
X223561017Y-67087718D01*
X223586165Y-67078720D01*
X223612075Y-67072230D01*
X223638495Y-67068311D01*
X223665173Y-67067000D01*
X224372827Y-67067000D01*
X224399505Y-67068311D01*
X224399505Y-67068311D01*
G37*
D35*
X224019000Y-67818000D03*
D31*
G36*
X226449505Y-67068311D02*
G01*
X226475925Y-67072230D01*
X226501835Y-67078720D01*
X226526983Y-67087718D01*
X226551128Y-67099138D01*
X226574038Y-67112869D01*
X226595492Y-67128780D01*
X226615282Y-67146718D01*
X226633220Y-67166508D01*
X226649131Y-67187962D01*
X226662862Y-67210872D01*
X226674282Y-67235017D01*
X226683280Y-67260165D01*
X226689770Y-67286075D01*
X226693689Y-67312495D01*
X226695000Y-67339173D01*
X226695000Y-68296827D01*
X226693689Y-68323505D01*
X226689770Y-68349925D01*
X226683280Y-68375835D01*
X226674282Y-68400983D01*
X226662862Y-68425128D01*
X226649131Y-68448038D01*
X226633220Y-68469492D01*
X226615282Y-68489282D01*
X226595492Y-68507220D01*
X226574038Y-68523131D01*
X226551128Y-68536862D01*
X226526983Y-68548282D01*
X226501835Y-68557280D01*
X226475925Y-68563770D01*
X226449505Y-68567689D01*
X226422827Y-68569000D01*
X225715173Y-68569000D01*
X225688495Y-68567689D01*
X225662075Y-68563770D01*
X225636165Y-68557280D01*
X225611017Y-68548282D01*
X225586872Y-68536862D01*
X225563962Y-68523131D01*
X225542508Y-68507220D01*
X225522718Y-68489282D01*
X225504780Y-68469492D01*
X225488869Y-68448038D01*
X225475138Y-68425128D01*
X225463718Y-68400983D01*
X225454720Y-68375835D01*
X225448230Y-68349925D01*
X225444311Y-68323505D01*
X225443000Y-68296827D01*
X225443000Y-67339173D01*
X225444311Y-67312495D01*
X225448230Y-67286075D01*
X225454720Y-67260165D01*
X225463718Y-67235017D01*
X225475138Y-67210872D01*
X225488869Y-67187962D01*
X225504780Y-67166508D01*
X225522718Y-67146718D01*
X225542508Y-67128780D01*
X225563962Y-67112869D01*
X225586872Y-67099138D01*
X225611017Y-67087718D01*
X225636165Y-67078720D01*
X225662075Y-67072230D01*
X225688495Y-67068311D01*
X225715173Y-67067000D01*
X226422827Y-67067000D01*
X226449505Y-67068311D01*
X226449505Y-67068311D01*
G37*
D35*
X226069000Y-67818000D03*
D14*
X59670000Y-55535000D03*
D15*
X59650000Y-55825000D02*
X59690000Y-55245000D01*
D14*
X59690000Y-55245000D03*
X53995001Y-57055000D03*
D15*
X53340000Y-57785000D02*
X54650002Y-56325000D01*
D16*
X57150000Y-60325000D03*
D14*
X54650000Y-56325000D03*
D17*
X52070000Y-60325000D03*
X62230000Y-60325000D03*
X57467500Y-41275000D03*
X47307500Y-41275000D03*
D14*
X49887500Y-37275000D03*
D16*
X52387500Y-41275000D03*
D14*
X49232501Y-38005000D03*
D15*
X48577500Y-38735000D02*
X49887502Y-37275000D01*
D14*
X54927500Y-36195000D03*
X54907500Y-36485000D03*
D15*
X54887500Y-36775000D02*
X54927500Y-36195000D01*
D38*
X229131000Y-48768000D03*
X235331000Y-52468000D03*
X229131000Y-52468000D03*
X235331000Y-48768000D03*
D31*
G36*
X224480641Y-69608297D02*
G01*
X224506778Y-69612174D01*
X224532409Y-69618594D01*
X224557288Y-69627495D01*
X224581174Y-69638793D01*
X224603837Y-69652377D01*
X224625060Y-69668117D01*
X224644639Y-69685861D01*
X224662383Y-69705440D01*
X224678123Y-69726663D01*
X224691707Y-69749326D01*
X224703005Y-69773212D01*
X224711906Y-69798091D01*
X224718326Y-69823722D01*
X224722203Y-69849859D01*
X224723500Y-69876250D01*
X224723500Y-70839750D01*
X224722203Y-70866141D01*
X224718326Y-70892278D01*
X224711906Y-70917909D01*
X224703005Y-70942788D01*
X224691707Y-70966674D01*
X224678123Y-70989337D01*
X224662383Y-71010560D01*
X224644639Y-71030139D01*
X224625060Y-71047883D01*
X224603837Y-71063623D01*
X224581174Y-71077207D01*
X224557288Y-71088505D01*
X224532409Y-71097406D01*
X224506778Y-71103826D01*
X224480641Y-71107703D01*
X224454250Y-71109000D01*
X223915750Y-71109000D01*
X223889359Y-71107703D01*
X223863222Y-71103826D01*
X223837591Y-71097406D01*
X223812712Y-71088505D01*
X223788826Y-71077207D01*
X223766163Y-71063623D01*
X223744940Y-71047883D01*
X223725361Y-71030139D01*
X223707617Y-71010560D01*
X223691877Y-70989337D01*
X223678293Y-70966674D01*
X223666995Y-70942788D01*
X223658094Y-70917909D01*
X223651674Y-70892278D01*
X223647797Y-70866141D01*
X223646500Y-70839750D01*
X223646500Y-69876250D01*
X223647797Y-69849859D01*
X223651674Y-69823722D01*
X223658094Y-69798091D01*
X223666995Y-69773212D01*
X223678293Y-69749326D01*
X223691877Y-69726663D01*
X223707617Y-69705440D01*
X223725361Y-69685861D01*
X223744940Y-69668117D01*
X223766163Y-69652377D01*
X223788826Y-69638793D01*
X223812712Y-69627495D01*
X223837591Y-69618594D01*
X223863222Y-69612174D01*
X223889359Y-69608297D01*
X223915750Y-69607000D01*
X224454250Y-69607000D01*
X224480641Y-69608297D01*
X224480641Y-69608297D01*
G37*
D32*
X224185000Y-70358000D03*
D31*
G36*
X226355641Y-69608297D02*
G01*
X226381778Y-69612174D01*
X226407409Y-69618594D01*
X226432288Y-69627495D01*
X226456174Y-69638793D01*
X226478837Y-69652377D01*
X226500060Y-69668117D01*
X226519639Y-69685861D01*
X226537383Y-69705440D01*
X226553123Y-69726663D01*
X226566707Y-69749326D01*
X226578005Y-69773212D01*
X226586906Y-69798091D01*
X226593326Y-69823722D01*
X226597203Y-69849859D01*
X226598500Y-69876250D01*
X226598500Y-70839750D01*
X226597203Y-70866141D01*
X226593326Y-70892278D01*
X226586906Y-70917909D01*
X226578005Y-70942788D01*
X226566707Y-70966674D01*
X226553123Y-70989337D01*
X226537383Y-71010560D01*
X226519639Y-71030139D01*
X226500060Y-71047883D01*
X226478837Y-71063623D01*
X226456174Y-71077207D01*
X226432288Y-71088505D01*
X226407409Y-71097406D01*
X226381778Y-71103826D01*
X226355641Y-71107703D01*
X226329250Y-71109000D01*
X225790750Y-71109000D01*
X225764359Y-71107703D01*
X225738222Y-71103826D01*
X225712591Y-71097406D01*
X225687712Y-71088505D01*
X225663826Y-71077207D01*
X225641163Y-71063623D01*
X225619940Y-71047883D01*
X225600361Y-71030139D01*
X225582617Y-71010560D01*
X225566877Y-70989337D01*
X225553293Y-70966674D01*
X225541995Y-70942788D01*
X225533094Y-70917909D01*
X225526674Y-70892278D01*
X225522797Y-70866141D01*
X225521500Y-70839750D01*
X225521500Y-69876250D01*
X225522797Y-69849859D01*
X225526674Y-69823722D01*
X225533094Y-69798091D01*
X225541995Y-69773212D01*
X225553293Y-69749326D01*
X225566877Y-69726663D01*
X225582617Y-69705440D01*
X225600361Y-69685861D01*
X225619940Y-69668117D01*
X225641163Y-69652377D01*
X225663826Y-69638793D01*
X225687712Y-69627495D01*
X225712591Y-69618594D01*
X225738222Y-69612174D01*
X225764359Y-69608297D01*
X225790750Y-69607000D01*
X226329250Y-69607000D01*
X226355641Y-69608297D01*
X226355641Y-69608297D01*
G37*
D32*
X226060000Y-70358000D03*
D31*
G36*
X252730141Y-46930797D02*
G01*
X252756278Y-46934674D01*
X252781909Y-46941094D01*
X252806788Y-46949995D01*
X252830674Y-46961293D01*
X252853337Y-46974877D01*
X252874560Y-46990617D01*
X252894139Y-47008361D01*
X252911883Y-47027940D01*
X252927623Y-47049163D01*
X252941207Y-47071826D01*
X252952505Y-47095712D01*
X252961406Y-47120591D01*
X252967826Y-47146222D01*
X252971703Y-47172359D01*
X252973000Y-47198750D01*
X252973000Y-47737250D01*
X252971703Y-47763641D01*
X252967826Y-47789778D01*
X252961406Y-47815409D01*
X252952505Y-47840288D01*
X252941207Y-47864174D01*
X252927623Y-47886837D01*
X252911883Y-47908060D01*
X252894139Y-47927639D01*
X252874560Y-47945383D01*
X252853337Y-47961123D01*
X252830674Y-47974707D01*
X252806788Y-47986005D01*
X252781909Y-47994906D01*
X252756278Y-48001326D01*
X252730141Y-48005203D01*
X252703750Y-48006500D01*
X251740250Y-48006500D01*
X251713859Y-48005203D01*
X251687722Y-48001326D01*
X251662091Y-47994906D01*
X251637212Y-47986005D01*
X251613326Y-47974707D01*
X251590663Y-47961123D01*
X251569440Y-47945383D01*
X251549861Y-47927639D01*
X251532117Y-47908060D01*
X251516377Y-47886837D01*
X251502793Y-47864174D01*
X251491495Y-47840288D01*
X251482594Y-47815409D01*
X251476174Y-47789778D01*
X251472297Y-47763641D01*
X251471000Y-47737250D01*
X251471000Y-47198750D01*
X251472297Y-47172359D01*
X251476174Y-47146222D01*
X251482594Y-47120591D01*
X251491495Y-47095712D01*
X251502793Y-47071826D01*
X251516377Y-47049163D01*
X251532117Y-47027940D01*
X251549861Y-47008361D01*
X251569440Y-46990617D01*
X251590663Y-46974877D01*
X251613326Y-46961293D01*
X251637212Y-46949995D01*
X251662091Y-46941094D01*
X251687722Y-46934674D01*
X251713859Y-46930797D01*
X251740250Y-46929500D01*
X252703750Y-46929500D01*
X252730141Y-46930797D01*
X252730141Y-46930797D01*
G37*
D32*
X252222000Y-47468000D03*
D31*
G36*
X252730141Y-45055797D02*
G01*
X252756278Y-45059674D01*
X252781909Y-45066094D01*
X252806788Y-45074995D01*
X252830674Y-45086293D01*
X252853337Y-45099877D01*
X252874560Y-45115617D01*
X252894139Y-45133361D01*
X252911883Y-45152940D01*
X252927623Y-45174163D01*
X252941207Y-45196826D01*
X252952505Y-45220712D01*
X252961406Y-45245591D01*
X252967826Y-45271222D01*
X252971703Y-45297359D01*
X252973000Y-45323750D01*
X252973000Y-45862250D01*
X252971703Y-45888641D01*
X252967826Y-45914778D01*
X252961406Y-45940409D01*
X252952505Y-45965288D01*
X252941207Y-45989174D01*
X252927623Y-46011837D01*
X252911883Y-46033060D01*
X252894139Y-46052639D01*
X252874560Y-46070383D01*
X252853337Y-46086123D01*
X252830674Y-46099707D01*
X252806788Y-46111005D01*
X252781909Y-46119906D01*
X252756278Y-46126326D01*
X252730141Y-46130203D01*
X252703750Y-46131500D01*
X251740250Y-46131500D01*
X251713859Y-46130203D01*
X251687722Y-46126326D01*
X251662091Y-46119906D01*
X251637212Y-46111005D01*
X251613326Y-46099707D01*
X251590663Y-46086123D01*
X251569440Y-46070383D01*
X251549861Y-46052639D01*
X251532117Y-46033060D01*
X251516377Y-46011837D01*
X251502793Y-45989174D01*
X251491495Y-45965288D01*
X251482594Y-45940409D01*
X251476174Y-45914778D01*
X251472297Y-45888641D01*
X251471000Y-45862250D01*
X251471000Y-45323750D01*
X251472297Y-45297359D01*
X251476174Y-45271222D01*
X251482594Y-45245591D01*
X251491495Y-45220712D01*
X251502793Y-45196826D01*
X251516377Y-45174163D01*
X251532117Y-45152940D01*
X251549861Y-45133361D01*
X251569440Y-45115617D01*
X251590663Y-45099877D01*
X251613326Y-45086293D01*
X251637212Y-45074995D01*
X251662091Y-45066094D01*
X251687722Y-45059674D01*
X251713859Y-45055797D01*
X251740250Y-45054500D01*
X252703750Y-45054500D01*
X252730141Y-45055797D01*
X252730141Y-45055797D01*
G37*
D32*
X252222000Y-45593000D03*
D31*
G36*
X255270141Y-46930797D02*
G01*
X255296278Y-46934674D01*
X255321909Y-46941094D01*
X255346788Y-46949995D01*
X255370674Y-46961293D01*
X255393337Y-46974877D01*
X255414560Y-46990617D01*
X255434139Y-47008361D01*
X255451883Y-47027940D01*
X255467623Y-47049163D01*
X255481207Y-47071826D01*
X255492505Y-47095712D01*
X255501406Y-47120591D01*
X255507826Y-47146222D01*
X255511703Y-47172359D01*
X255513000Y-47198750D01*
X255513000Y-47737250D01*
X255511703Y-47763641D01*
X255507826Y-47789778D01*
X255501406Y-47815409D01*
X255492505Y-47840288D01*
X255481207Y-47864174D01*
X255467623Y-47886837D01*
X255451883Y-47908060D01*
X255434139Y-47927639D01*
X255414560Y-47945383D01*
X255393337Y-47961123D01*
X255370674Y-47974707D01*
X255346788Y-47986005D01*
X255321909Y-47994906D01*
X255296278Y-48001326D01*
X255270141Y-48005203D01*
X255243750Y-48006500D01*
X254280250Y-48006500D01*
X254253859Y-48005203D01*
X254227722Y-48001326D01*
X254202091Y-47994906D01*
X254177212Y-47986005D01*
X254153326Y-47974707D01*
X254130663Y-47961123D01*
X254109440Y-47945383D01*
X254089861Y-47927639D01*
X254072117Y-47908060D01*
X254056377Y-47886837D01*
X254042793Y-47864174D01*
X254031495Y-47840288D01*
X254022594Y-47815409D01*
X254016174Y-47789778D01*
X254012297Y-47763641D01*
X254011000Y-47737250D01*
X254011000Y-47198750D01*
X254012297Y-47172359D01*
X254016174Y-47146222D01*
X254022594Y-47120591D01*
X254031495Y-47095712D01*
X254042793Y-47071826D01*
X254056377Y-47049163D01*
X254072117Y-47027940D01*
X254089861Y-47008361D01*
X254109440Y-46990617D01*
X254130663Y-46974877D01*
X254153326Y-46961293D01*
X254177212Y-46949995D01*
X254202091Y-46941094D01*
X254227722Y-46934674D01*
X254253859Y-46930797D01*
X254280250Y-46929500D01*
X255243750Y-46929500D01*
X255270141Y-46930797D01*
X255270141Y-46930797D01*
G37*
D32*
X254762000Y-47468000D03*
D31*
G36*
X255270141Y-45055797D02*
G01*
X255296278Y-45059674D01*
X255321909Y-45066094D01*
X255346788Y-45074995D01*
X255370674Y-45086293D01*
X255393337Y-45099877D01*
X255414560Y-45115617D01*
X255434139Y-45133361D01*
X255451883Y-45152940D01*
X255467623Y-45174163D01*
X255481207Y-45196826D01*
X255492505Y-45220712D01*
X255501406Y-45245591D01*
X255507826Y-45271222D01*
X255511703Y-45297359D01*
X255513000Y-45323750D01*
X255513000Y-45862250D01*
X255511703Y-45888641D01*
X255507826Y-45914778D01*
X255501406Y-45940409D01*
X255492505Y-45965288D01*
X255481207Y-45989174D01*
X255467623Y-46011837D01*
X255451883Y-46033060D01*
X255434139Y-46052639D01*
X255414560Y-46070383D01*
X255393337Y-46086123D01*
X255370674Y-46099707D01*
X255346788Y-46111005D01*
X255321909Y-46119906D01*
X255296278Y-46126326D01*
X255270141Y-46130203D01*
X255243750Y-46131500D01*
X254280250Y-46131500D01*
X254253859Y-46130203D01*
X254227722Y-46126326D01*
X254202091Y-46119906D01*
X254177212Y-46111005D01*
X254153326Y-46099707D01*
X254130663Y-46086123D01*
X254109440Y-46070383D01*
X254089861Y-46052639D01*
X254072117Y-46033060D01*
X254056377Y-46011837D01*
X254042793Y-45989174D01*
X254031495Y-45965288D01*
X254022594Y-45940409D01*
X254016174Y-45914778D01*
X254012297Y-45888641D01*
X254011000Y-45862250D01*
X254011000Y-45323750D01*
X254012297Y-45297359D01*
X254016174Y-45271222D01*
X254022594Y-45245591D01*
X254031495Y-45220712D01*
X254042793Y-45196826D01*
X254056377Y-45174163D01*
X254072117Y-45152940D01*
X254089861Y-45133361D01*
X254109440Y-45115617D01*
X254130663Y-45099877D01*
X254153326Y-45086293D01*
X254177212Y-45074995D01*
X254202091Y-45066094D01*
X254227722Y-45059674D01*
X254253859Y-45055797D01*
X254280250Y-45054500D01*
X255243750Y-45054500D01*
X255270141Y-45055797D01*
X255270141Y-45055797D01*
G37*
D32*
X254762000Y-45593000D03*
D31*
G36*
X254374141Y-65798297D02*
G01*
X254400278Y-65802174D01*
X254425909Y-65808594D01*
X254450788Y-65817495D01*
X254474674Y-65828793D01*
X254497337Y-65842377D01*
X254518560Y-65858117D01*
X254538139Y-65875861D01*
X254555883Y-65895440D01*
X254571623Y-65916663D01*
X254585207Y-65939326D01*
X254596505Y-65963212D01*
X254605406Y-65988091D01*
X254611826Y-66013722D01*
X254615703Y-66039859D01*
X254617000Y-66066250D01*
X254617000Y-67029750D01*
X254615703Y-67056141D01*
X254611826Y-67082278D01*
X254605406Y-67107909D01*
X254596505Y-67132788D01*
X254585207Y-67156674D01*
X254571623Y-67179337D01*
X254555883Y-67200560D01*
X254538139Y-67220139D01*
X254518560Y-67237883D01*
X254497337Y-67253623D01*
X254474674Y-67267207D01*
X254450788Y-67278505D01*
X254425909Y-67287406D01*
X254400278Y-67293826D01*
X254374141Y-67297703D01*
X254347750Y-67299000D01*
X253809250Y-67299000D01*
X253782859Y-67297703D01*
X253756722Y-67293826D01*
X253731091Y-67287406D01*
X253706212Y-67278505D01*
X253682326Y-67267207D01*
X253659663Y-67253623D01*
X253638440Y-67237883D01*
X253618861Y-67220139D01*
X253601117Y-67200560D01*
X253585377Y-67179337D01*
X253571793Y-67156674D01*
X253560495Y-67132788D01*
X253551594Y-67107909D01*
X253545174Y-67082278D01*
X253541297Y-67056141D01*
X253540000Y-67029750D01*
X253540000Y-66066250D01*
X253541297Y-66039859D01*
X253545174Y-66013722D01*
X253551594Y-65988091D01*
X253560495Y-65963212D01*
X253571793Y-65939326D01*
X253585377Y-65916663D01*
X253601117Y-65895440D01*
X253618861Y-65875861D01*
X253638440Y-65858117D01*
X253659663Y-65842377D01*
X253682326Y-65828793D01*
X253706212Y-65817495D01*
X253731091Y-65808594D01*
X253756722Y-65802174D01*
X253782859Y-65798297D01*
X253809250Y-65797000D01*
X254347750Y-65797000D01*
X254374141Y-65798297D01*
X254374141Y-65798297D01*
G37*
D32*
X254078500Y-66548000D03*
D31*
G36*
X256249141Y-65798297D02*
G01*
X256275278Y-65802174D01*
X256300909Y-65808594D01*
X256325788Y-65817495D01*
X256349674Y-65828793D01*
X256372337Y-65842377D01*
X256393560Y-65858117D01*
X256413139Y-65875861D01*
X256430883Y-65895440D01*
X256446623Y-65916663D01*
X256460207Y-65939326D01*
X256471505Y-65963212D01*
X256480406Y-65988091D01*
X256486826Y-66013722D01*
X256490703Y-66039859D01*
X256492000Y-66066250D01*
X256492000Y-67029750D01*
X256490703Y-67056141D01*
X256486826Y-67082278D01*
X256480406Y-67107909D01*
X256471505Y-67132788D01*
X256460207Y-67156674D01*
X256446623Y-67179337D01*
X256430883Y-67200560D01*
X256413139Y-67220139D01*
X256393560Y-67237883D01*
X256372337Y-67253623D01*
X256349674Y-67267207D01*
X256325788Y-67278505D01*
X256300909Y-67287406D01*
X256275278Y-67293826D01*
X256249141Y-67297703D01*
X256222750Y-67299000D01*
X255684250Y-67299000D01*
X255657859Y-67297703D01*
X255631722Y-67293826D01*
X255606091Y-67287406D01*
X255581212Y-67278505D01*
X255557326Y-67267207D01*
X255534663Y-67253623D01*
X255513440Y-67237883D01*
X255493861Y-67220139D01*
X255476117Y-67200560D01*
X255460377Y-67179337D01*
X255446793Y-67156674D01*
X255435495Y-67132788D01*
X255426594Y-67107909D01*
X255420174Y-67082278D01*
X255416297Y-67056141D01*
X255415000Y-67029750D01*
X255415000Y-66066250D01*
X255416297Y-66039859D01*
X255420174Y-66013722D01*
X255426594Y-65988091D01*
X255435495Y-65963212D01*
X255446793Y-65939326D01*
X255460377Y-65916663D01*
X255476117Y-65895440D01*
X255493861Y-65875861D01*
X255513440Y-65858117D01*
X255534663Y-65842377D01*
X255557326Y-65828793D01*
X255581212Y-65817495D01*
X255606091Y-65808594D01*
X255631722Y-65802174D01*
X255657859Y-65798297D01*
X255684250Y-65797000D01*
X256222750Y-65797000D01*
X256249141Y-65798297D01*
X256249141Y-65798297D01*
G37*
D32*
X255953500Y-66548000D03*
D31*
G36*
X250237104Y-44537302D02*
G01*
X250263352Y-44541196D01*
X250289093Y-44547643D01*
X250314078Y-44556583D01*
X250338066Y-44567928D01*
X250360826Y-44581571D01*
X250382140Y-44597378D01*
X250401802Y-44615198D01*
X250419622Y-44634860D01*
X250435429Y-44656174D01*
X250449072Y-44678934D01*
X250460417Y-44702922D01*
X250469357Y-44727907D01*
X250475804Y-44753648D01*
X250479698Y-44779896D01*
X250481000Y-44806400D01*
X250481000Y-45617600D01*
X250479698Y-45644104D01*
X250475804Y-45670352D01*
X250469357Y-45696093D01*
X250460417Y-45721078D01*
X250449072Y-45745066D01*
X250435429Y-45767826D01*
X250419622Y-45789140D01*
X250401802Y-45808802D01*
X250382140Y-45826622D01*
X250360826Y-45842429D01*
X250338066Y-45856072D01*
X250314078Y-45867417D01*
X250289093Y-45876357D01*
X250263352Y-45882804D01*
X250237104Y-45886698D01*
X250210600Y-45888000D01*
X248899400Y-45888000D01*
X248872896Y-45886698D01*
X248846648Y-45882804D01*
X248820907Y-45876357D01*
X248795922Y-45867417D01*
X248771934Y-45856072D01*
X248749174Y-45842429D01*
X248727860Y-45826622D01*
X248708198Y-45808802D01*
X248690378Y-45789140D01*
X248674571Y-45767826D01*
X248660928Y-45745066D01*
X248649583Y-45721078D01*
X248640643Y-45696093D01*
X248634196Y-45670352D01*
X248630302Y-45644104D01*
X248629000Y-45617600D01*
X248629000Y-44806400D01*
X248630302Y-44779896D01*
X248634196Y-44753648D01*
X248640643Y-44727907D01*
X248649583Y-44702922D01*
X248660928Y-44678934D01*
X248674571Y-44656174D01*
X248690378Y-44634860D01*
X248708198Y-44615198D01*
X248727860Y-44597378D01*
X248749174Y-44581571D01*
X248771934Y-44567928D01*
X248795922Y-44556583D01*
X248820907Y-44547643D01*
X248846648Y-44541196D01*
X248872896Y-44537302D01*
X248899400Y-44536000D01*
X250210600Y-44536000D01*
X250237104Y-44537302D01*
X250237104Y-44537302D01*
G37*
D39*
X249555000Y-45212000D03*
D31*
G36*
X250237104Y-47337302D02*
G01*
X250263352Y-47341196D01*
X250289093Y-47347643D01*
X250314078Y-47356583D01*
X250338066Y-47367928D01*
X250360826Y-47381571D01*
X250382140Y-47397378D01*
X250401802Y-47415198D01*
X250419622Y-47434860D01*
X250435429Y-47456174D01*
X250449072Y-47478934D01*
X250460417Y-47502922D01*
X250469357Y-47527907D01*
X250475804Y-47553648D01*
X250479698Y-47579896D01*
X250481000Y-47606400D01*
X250481000Y-48417600D01*
X250479698Y-48444104D01*
X250475804Y-48470352D01*
X250469357Y-48496093D01*
X250460417Y-48521078D01*
X250449072Y-48545066D01*
X250435429Y-48567826D01*
X250419622Y-48589140D01*
X250401802Y-48608802D01*
X250382140Y-48626622D01*
X250360826Y-48642429D01*
X250338066Y-48656072D01*
X250314078Y-48667417D01*
X250289093Y-48676357D01*
X250263352Y-48682804D01*
X250237104Y-48686698D01*
X250210600Y-48688000D01*
X248899400Y-48688000D01*
X248872896Y-48686698D01*
X248846648Y-48682804D01*
X248820907Y-48676357D01*
X248795922Y-48667417D01*
X248771934Y-48656072D01*
X248749174Y-48642429D01*
X248727860Y-48626622D01*
X248708198Y-48608802D01*
X248690378Y-48589140D01*
X248674571Y-48567826D01*
X248660928Y-48545066D01*
X248649583Y-48521078D01*
X248640643Y-48496093D01*
X248634196Y-48470352D01*
X248630302Y-48444104D01*
X248629000Y-48417600D01*
X248629000Y-47606400D01*
X248630302Y-47579896D01*
X248634196Y-47553648D01*
X248640643Y-47527907D01*
X248649583Y-47502922D01*
X248660928Y-47478934D01*
X248674571Y-47456174D01*
X248690378Y-47434860D01*
X248708198Y-47415198D01*
X248727860Y-47397378D01*
X248749174Y-47381571D01*
X248771934Y-47367928D01*
X248795922Y-47356583D01*
X248820907Y-47347643D01*
X248846648Y-47341196D01*
X248872896Y-47337302D01*
X248899400Y-47336000D01*
X250210600Y-47336000D01*
X250237104Y-47337302D01*
X250237104Y-47337302D01*
G37*
D39*
X249555000Y-48012000D03*
D23*
X65087500Y-58737500D03*
X65087500Y-62037500D03*
X44164250Y-58675000D03*
X44164250Y-61975000D03*
X60325000Y-42987500D03*
X60325000Y-39687500D03*
X41275000Y-39625000D03*
X41275000Y-42925000D03*
M02*
