G04 #@! TF.GenerationSoftware,KiCad,Pcbnew,(5.1.4-0-10_14)*
G04 #@! TF.CreationDate,2019-10-22T01:35:18+09:00*
G04 #@! TF.ProjectId,dombrick45,646f6d62-7269-4636-9b34-352e6b696361,rev?*
G04 #@! TF.SameCoordinates,Original*
G04 #@! TF.FileFunction,Copper,L1,Top*
G04 #@! TF.FilePolarity,Positive*
%FSLAX46Y46*%
G04 Gerber Fmt 4.6, Leading zero omitted, Abs format (unit mm)*
G04 Created by KiCad (PCBNEW (5.1.4-0-10_14)) date 2019-10-22 01:35:18*
%MOMM*%
%LPD*%
G04 APERTURE LIST*
%ADD10C,2.250000*%
%ADD11C,2.250000*%
%ADD12O,1.700000X2.700000*%
%ADD13O,1.600000X1.000000*%
%ADD14O,2.100000X1.000000*%
%ADD15C,1.700000*%
%ADD16R,1.700000X1.700000*%
%ADD17C,0.800000*%
%ADD18C,0.254000*%
%ADD19C,0.381000*%
G04 APERTURE END LIST*
D10*
X269220000Y-55535000D03*
D11*
X269200000Y-55825000D02*
X269240000Y-55245000D01*
D10*
X269240000Y-55245000D03*
X263545001Y-57055000D03*
D11*
X262890000Y-57785000D02*
X264200002Y-56325000D01*
D10*
X264200000Y-56325000D03*
X245407500Y-36485000D03*
D11*
X245387500Y-36775000D02*
X245427500Y-36195000D01*
D10*
X245427500Y-36195000D03*
X239732501Y-38005000D03*
D11*
X239077500Y-38735000D02*
X240387502Y-37275000D01*
D10*
X240387500Y-37275000D03*
D12*
X249936000Y-34671000D03*
X257236000Y-34671000D03*
X257236000Y-39171000D03*
X249936000Y-39171000D03*
D10*
X266838750Y-36485000D03*
D11*
X266818750Y-36775000D02*
X266858750Y-36195000D01*
D10*
X266858750Y-36195000D03*
X261163751Y-38005000D03*
D11*
X260508750Y-38735000D02*
X261818752Y-37275000D01*
D10*
X261818750Y-37275000D03*
D13*
X274387000Y-52707000D03*
X274387000Y-44067000D03*
D14*
X270207000Y-52707000D03*
X270207000Y-44067000D03*
D15*
X260985000Y-66040000D03*
X260985000Y-68580000D03*
X263525000Y-66040000D03*
X263525000Y-68580000D03*
X266065000Y-66040000D03*
D16*
X266065000Y-68580000D03*
D10*
X250170000Y-55535000D03*
D11*
X250150000Y-55825000D02*
X250190000Y-55245000D01*
D10*
X250190000Y-55245000D03*
X244495001Y-57055000D03*
D11*
X243840000Y-57785000D02*
X245150002Y-56325000D01*
D10*
X245150000Y-56325000D03*
X259695000Y-74585000D03*
D11*
X259675000Y-74875000D02*
X259715000Y-74295000D01*
D10*
X259715000Y-74295000D03*
X254020001Y-76105000D03*
D11*
X253365000Y-76835000D02*
X254675002Y-75375000D01*
D10*
X254675000Y-75375000D03*
X183495000Y-74585000D03*
D11*
X183475000Y-74875000D02*
X183515000Y-74295000D01*
D10*
X183515000Y-74295000D03*
X177820001Y-76105000D03*
D11*
X177165000Y-76835000D02*
X178475002Y-75375000D01*
D10*
X178475000Y-75375000D03*
X38238750Y-55535000D03*
D11*
X38218750Y-55825000D02*
X38258750Y-55245000D01*
D10*
X38258750Y-55245000D03*
X32563751Y-57055000D03*
D11*
X31908750Y-57785000D02*
X33218752Y-56325000D01*
D10*
X33218750Y-56325000D03*
X173970000Y-55535000D03*
D11*
X173950000Y-55825000D02*
X173990000Y-55245000D01*
D10*
X173990000Y-55245000D03*
X168295001Y-57055000D03*
D11*
X167640000Y-57785000D02*
X168950002Y-56325000D01*
D10*
X168950000Y-56325000D03*
X193020000Y-55535000D03*
D11*
X193000000Y-55825000D02*
X193040000Y-55245000D01*
D10*
X193040000Y-55245000D03*
X187345001Y-57055000D03*
D11*
X186690000Y-57785000D02*
X188000002Y-56325000D01*
D10*
X188000000Y-56325000D03*
X35857500Y-36485000D03*
D11*
X35837500Y-36775000D02*
X35877500Y-36195000D01*
D10*
X35877500Y-36195000D03*
X30182501Y-38005000D03*
D11*
X29527500Y-38735000D02*
X30837502Y-37275000D01*
D10*
X30837500Y-37275000D03*
X235605000Y-84165000D03*
D11*
X235625000Y-83875000D02*
X235585000Y-84455000D01*
D10*
X235585000Y-84455000D03*
X241279999Y-82645000D03*
D11*
X241935000Y-81915000D02*
X240624998Y-83375000D01*
D10*
X240625000Y-83375000D03*
X164445000Y-74585000D03*
D11*
X164425000Y-74875000D02*
X164465000Y-74295000D01*
D10*
X164465000Y-74295000D03*
X158770001Y-76105000D03*
D11*
X158115000Y-76835000D02*
X159425002Y-75375000D01*
D10*
X159425000Y-75375000D03*
X47763750Y-74585000D03*
D11*
X47743750Y-74875000D02*
X47783750Y-74295000D01*
D10*
X47783750Y-74295000D03*
X42088751Y-76105000D03*
D11*
X41433750Y-76835000D02*
X42743752Y-75375000D01*
D10*
X42743750Y-75375000D03*
X221595000Y-74585000D03*
D11*
X221575000Y-74875000D02*
X221615000Y-74295000D01*
D10*
X221615000Y-74295000D03*
X215920001Y-76105000D03*
D11*
X215265000Y-76835000D02*
X216575002Y-75375000D01*
D10*
X216575000Y-75375000D03*
X202545000Y-74585000D03*
D11*
X202525000Y-74875000D02*
X202565000Y-74295000D01*
D10*
X202565000Y-74295000D03*
X196870001Y-76105000D03*
D11*
X196215000Y-76835000D02*
X197525002Y-75375000D01*
D10*
X197525000Y-75375000D03*
X145395000Y-74585000D03*
D11*
X145375000Y-74875000D02*
X145415000Y-74295000D01*
D10*
X145415000Y-74295000D03*
X139720001Y-76105000D03*
D11*
X139065000Y-76835000D02*
X140375002Y-75375000D01*
D10*
X140375000Y-75375000D03*
X126345000Y-74585000D03*
D11*
X126325000Y-74875000D02*
X126365000Y-74295000D01*
D10*
X126365000Y-74295000D03*
X120670001Y-76105000D03*
D11*
X120015000Y-76835000D02*
X121325002Y-75375000D01*
D10*
X121325000Y-75375000D03*
X107295000Y-74585000D03*
D11*
X107275000Y-74875000D02*
X107315000Y-74295000D01*
D10*
X107315000Y-74295000D03*
X101620001Y-76105000D03*
D11*
X100965000Y-76835000D02*
X102275002Y-75375000D01*
D10*
X102275000Y-75375000D03*
X88245000Y-74585000D03*
D11*
X88225000Y-74875000D02*
X88265000Y-74295000D01*
D10*
X88265000Y-74295000D03*
X82570001Y-76105000D03*
D11*
X81915000Y-76835000D02*
X83225002Y-75375000D01*
D10*
X83225000Y-75375000D03*
X69195000Y-74585000D03*
D11*
X69175000Y-74875000D02*
X69215000Y-74295000D01*
D10*
X69215000Y-74295000D03*
X63520001Y-76105000D03*
D11*
X62865000Y-76835000D02*
X64175002Y-75375000D01*
D10*
X64175000Y-75375000D03*
X231120000Y-55535000D03*
D11*
X231100000Y-55825000D02*
X231140000Y-55245000D01*
D10*
X231140000Y-55245000D03*
X225445001Y-57055000D03*
D11*
X224790000Y-57785000D02*
X226100002Y-56325000D01*
D10*
X226100000Y-56325000D03*
X212070000Y-55535000D03*
D11*
X212050000Y-55825000D02*
X212090000Y-55245000D01*
D10*
X212090000Y-55245000D03*
X206395001Y-57055000D03*
D11*
X205740000Y-57785000D02*
X207050002Y-56325000D01*
D10*
X207050000Y-56325000D03*
X154920000Y-55535000D03*
D11*
X154900000Y-55825000D02*
X154940000Y-55245000D01*
D10*
X154940000Y-55245000D03*
X149245001Y-57055000D03*
D11*
X148590000Y-57785000D02*
X149900002Y-56325000D01*
D10*
X149900000Y-56325000D03*
X135870000Y-55535000D03*
D11*
X135850000Y-55825000D02*
X135890000Y-55245000D01*
D10*
X135890000Y-55245000D03*
X130195001Y-57055000D03*
D11*
X129540000Y-57785000D02*
X130850002Y-56325000D01*
D10*
X130850000Y-56325000D03*
X116820000Y-55535000D03*
D11*
X116800000Y-55825000D02*
X116840000Y-55245000D01*
D10*
X116840000Y-55245000D03*
X111145001Y-57055000D03*
D11*
X110490000Y-57785000D02*
X111800002Y-56325000D01*
D10*
X111800000Y-56325000D03*
X97770000Y-55535000D03*
D11*
X97750000Y-55825000D02*
X97790000Y-55245000D01*
D10*
X97790000Y-55245000D03*
X92095001Y-57055000D03*
D11*
X91440000Y-57785000D02*
X92750002Y-56325000D01*
D10*
X92750000Y-56325000D03*
X78720000Y-55535000D03*
D11*
X78700000Y-55825000D02*
X78740000Y-55245000D01*
D10*
X78740000Y-55245000D03*
X73045001Y-57055000D03*
D11*
X72390000Y-57785000D02*
X73700002Y-56325000D01*
D10*
X73700000Y-56325000D03*
X226357500Y-36485000D03*
D11*
X226337500Y-36775000D02*
X226377500Y-36195000D01*
D10*
X226377500Y-36195000D03*
X220682501Y-38005000D03*
D11*
X220027500Y-38735000D02*
X221337502Y-37275000D01*
D10*
X221337500Y-37275000D03*
X207307500Y-36485000D03*
D11*
X207287500Y-36775000D02*
X207327500Y-36195000D01*
D10*
X207327500Y-36195000D03*
X201632501Y-38005000D03*
D11*
X200977500Y-38735000D02*
X202287502Y-37275000D01*
D10*
X202287500Y-37275000D03*
X188257500Y-36485000D03*
D11*
X188237500Y-36775000D02*
X188277500Y-36195000D01*
D10*
X188277500Y-36195000D03*
X182582501Y-38005000D03*
D11*
X181927500Y-38735000D02*
X183237502Y-37275000D01*
D10*
X183237500Y-37275000D03*
X169207500Y-36485000D03*
D11*
X169187500Y-36775000D02*
X169227500Y-36195000D01*
D10*
X169227500Y-36195000D03*
X163532501Y-38005000D03*
D11*
X162877500Y-38735000D02*
X164187502Y-37275000D01*
D10*
X164187500Y-37275000D03*
X150157500Y-36485000D03*
D11*
X150137500Y-36775000D02*
X150177500Y-36195000D01*
D10*
X150177500Y-36195000D03*
X144482501Y-38005000D03*
D11*
X143827500Y-38735000D02*
X145137502Y-37275000D01*
D10*
X145137500Y-37275000D03*
X131107500Y-36485000D03*
D11*
X131087500Y-36775000D02*
X131127500Y-36195000D01*
D10*
X131127500Y-36195000D03*
X125432501Y-38005000D03*
D11*
X124777500Y-38735000D02*
X126087502Y-37275000D01*
D10*
X126087500Y-37275000D03*
X112057500Y-36485000D03*
D11*
X112037500Y-36775000D02*
X112077500Y-36195000D01*
D10*
X112077500Y-36195000D03*
X106382501Y-38005000D03*
D11*
X105727500Y-38735000D02*
X107037502Y-37275000D01*
D10*
X107037500Y-37275000D03*
X93007500Y-36485000D03*
D11*
X92987500Y-36775000D02*
X93027500Y-36195000D01*
D10*
X93027500Y-36195000D03*
X87332501Y-38005000D03*
D11*
X86677500Y-38735000D02*
X87987502Y-37275000D01*
D10*
X87987500Y-37275000D03*
X73926500Y-36485000D03*
D11*
X73906500Y-36775000D02*
X73946500Y-36195000D01*
D10*
X73946500Y-36195000D03*
X68251501Y-38005000D03*
D11*
X67596500Y-38735000D02*
X68906502Y-37275000D01*
D10*
X68906500Y-37275000D03*
X59670000Y-55535000D03*
D11*
X59650000Y-55825000D02*
X59690000Y-55245000D01*
D10*
X59690000Y-55245000D03*
X53995001Y-57055000D03*
D11*
X53340000Y-57785000D02*
X54650002Y-56325000D01*
D10*
X54650000Y-56325000D03*
X49887500Y-37275000D03*
X49232501Y-38005000D03*
D11*
X48577500Y-38735000D02*
X49887502Y-37275000D01*
D10*
X54927500Y-36195000D03*
X54907500Y-36485000D03*
D11*
X54887500Y-36775000D02*
X54927500Y-36195000D01*
D17*
X256540000Y-46736000D03*
X261112000Y-48641000D03*
X263017000Y-44450000D03*
X243967000Y-75565000D03*
X243840000Y-72898000D03*
X235476000Y-57168000D03*
X238760000Y-58801000D03*
X227965000Y-68580000D03*
X233553000Y-81407000D03*
X252476000Y-66675000D03*
X246380000Y-65024000D03*
X266758670Y-47406000D03*
X262001000Y-43688000D03*
X252095000Y-41656006D03*
X267589000Y-45720000D03*
X267499000Y-51218000D03*
X42068750Y-80962500D03*
X254793750Y-87090250D03*
X260730995Y-52196995D03*
X244983000Y-43815000D03*
X55245000Y-92456000D03*
X237617000Y-91186000D03*
X236093000Y-34163000D03*
X254127000Y-42799000D03*
X260349998Y-44068998D03*
X252984000Y-43942000D03*
X261366000Y-46228000D03*
X232156000Y-58039000D03*
X230759000Y-58166000D03*
X226314000Y-62611000D03*
X232537000Y-76660548D03*
X239567581Y-77089000D03*
X250952000Y-61722000D03*
X219837000Y-44450000D03*
X221170500Y-61023500D03*
X271907000Y-42164000D03*
X271907000Y-42164000D03*
X246126000Y-47498000D03*
X258826000Y-57531002D03*
X243840000Y-50546000D03*
X211709000Y-82296000D03*
X211931250Y-88106250D03*
X247459499Y-82486499D03*
X251714000Y-90424000D03*
X215900000Y-92075000D03*
X215900000Y-83343750D03*
X77089000Y-92329000D03*
X199231250Y-84137500D03*
X95377000Y-90043000D03*
X195326000Y-91567000D03*
X119062500Y-92075000D03*
X176212500Y-84931250D03*
X171450000Y-95250000D03*
X235204000Y-58928000D03*
X254889000Y-68072000D03*
X256286000Y-61976000D03*
X245872000Y-68834000D03*
X260350000Y-63881000D03*
D18*
X53340000Y-95735000D02*
X53340000Y-95885000D01*
X74771250Y-95735000D02*
X74771250Y-95885000D01*
D19*
X259207000Y-46736000D02*
X261112000Y-48641000D01*
X256540000Y-46736000D02*
X259207000Y-46736000D01*
X263017000Y-45656500D02*
X263017000Y-44450000D01*
X262509000Y-46164500D02*
X263017000Y-45656500D01*
X262509000Y-47244000D02*
X262509000Y-46164500D01*
X261112000Y-48641000D02*
X262509000Y-47244000D01*
X243967000Y-73025000D02*
X243840000Y-72898000D01*
X243967000Y-75565000D02*
X243967000Y-73025000D01*
X227965000Y-70612000D02*
X235204000Y-77851000D01*
X227965000Y-68580000D02*
X227965000Y-70612000D01*
X235204000Y-79756000D02*
X235204000Y-77851000D01*
X233553000Y-81407000D02*
X235204000Y-79756000D01*
X238760000Y-58801000D02*
X244636990Y-64677990D01*
X246662510Y-66675000D02*
X245065499Y-65077989D01*
X252476000Y-66675000D02*
X246662510Y-66675000D01*
X244690979Y-64624001D02*
X244636990Y-64677990D01*
X245980001Y-64624001D02*
X244690979Y-64624001D01*
X246380000Y-65024000D02*
X245980001Y-64624001D01*
X245036989Y-65077989D02*
X244636990Y-64677990D01*
X245065499Y-65077989D02*
X245036989Y-65077989D01*
X231648000Y-63246000D02*
X227965000Y-66929000D01*
X231648000Y-59944000D02*
X231648000Y-63246000D01*
X233553000Y-58039000D02*
X231648000Y-59944000D01*
X227965000Y-66929000D02*
X227965000Y-68580000D01*
X237998000Y-58039000D02*
X233553000Y-58039000D01*
X238760000Y-58801000D02*
X237998000Y-58039000D01*
X262001000Y-43688000D02*
X261239000Y-42926000D01*
X252660685Y-41656006D02*
X252095000Y-41656006D01*
X256794006Y-41656006D02*
X252660685Y-41656006D01*
X258064000Y-42926000D02*
X256794006Y-41656006D01*
X261239000Y-42926000D02*
X258064000Y-42926000D01*
X267589000Y-46575670D02*
X267589000Y-45720000D01*
X266758670Y-47406000D02*
X267589000Y-46575670D01*
X267589000Y-45720000D02*
X267589000Y-45720000D01*
X266758670Y-49461670D02*
X266758670Y-49080670D01*
X267499000Y-50202000D02*
X266758670Y-49461670D01*
X266758670Y-49080670D02*
X266758670Y-47406000D01*
X267499000Y-51218000D02*
X267499000Y-51218000D01*
X267499000Y-51218000D02*
X267499000Y-50202000D01*
D18*
X42068750Y-77470000D02*
X42068750Y-80962500D01*
X41433750Y-76835000D02*
X42068750Y-77470000D01*
X32543750Y-64859435D02*
X32543750Y-64293750D01*
X41433750Y-76835000D02*
X32543750Y-67945000D01*
X32543750Y-67945000D02*
X32543750Y-64859435D01*
X32543750Y-63728065D02*
X32543750Y-64293750D01*
X32543750Y-58420000D02*
X32543750Y-63728065D01*
X31908750Y-57785000D02*
X32543750Y-58420000D01*
X30162500Y-39370000D02*
X29527500Y-38735000D01*
X30162500Y-56038750D02*
X30162500Y-39370000D01*
X31908750Y-57785000D02*
X30162500Y-56038750D01*
X261112000Y-39338250D02*
X260508750Y-38735000D01*
X264200000Y-56325000D02*
X260730995Y-52855995D01*
X260730995Y-52855995D02*
X260730995Y-52762680D01*
X260730995Y-52762680D02*
X260730995Y-52196995D01*
X261620000Y-57785000D02*
X262890000Y-57785000D01*
X259461000Y-59944000D02*
X261620000Y-57785000D01*
X258318000Y-63500000D02*
X259461000Y-62357000D01*
X253365000Y-76835000D02*
X253365000Y-76581000D01*
X259461000Y-62357000D02*
X259461000Y-59944000D01*
X258318000Y-71628000D02*
X258318000Y-63500000D01*
X253365000Y-76581000D02*
X258318000Y-71628000D01*
X254730250Y-87090250D02*
X254793750Y-87090250D01*
X254000000Y-77470000D02*
X254000000Y-86360000D01*
X254000000Y-86360000D02*
X254730250Y-87090250D01*
X253365000Y-76835000D02*
X254000000Y-77470000D01*
X244983000Y-44380685D02*
X244983000Y-43815000D01*
X244983000Y-48387000D02*
X244983000Y-44380685D01*
X248792995Y-52196995D02*
X244983000Y-48387000D01*
X260730995Y-52196995D02*
X248792995Y-52196995D01*
X238506000Y-38354000D02*
X239649000Y-39497000D01*
X243522500Y-57785000D02*
X243840000Y-57785000D01*
X54768750Y-56206250D02*
X54650000Y-56325000D01*
X53975000Y-67945000D02*
X62865000Y-76835000D01*
X53340000Y-57785000D02*
X53975000Y-58420000D01*
X53975000Y-58420000D02*
X53975000Y-65087500D01*
X53975000Y-65087500D02*
X53975000Y-67945000D01*
X243840000Y-57785000D02*
X244602000Y-58547000D01*
X49212500Y-39370000D02*
X48577500Y-38735000D01*
X49212500Y-53657500D02*
X49212500Y-39370000D01*
X53340000Y-57785000D02*
X49212500Y-53657500D01*
X62865000Y-76835000D02*
X62865000Y-84836000D01*
X62865000Y-84836000D02*
X55644999Y-92056001D01*
X55644999Y-92056001D02*
X55245000Y-92456000D01*
X238016999Y-90786001D02*
X237617000Y-91186000D01*
X240625000Y-83375000D02*
X240625000Y-88178000D01*
X240625000Y-88178000D02*
X238016999Y-90786001D01*
X245681500Y-81661000D02*
X242189000Y-81661000D01*
X242189000Y-81661000D02*
X241935000Y-81915000D01*
X257683000Y-69659500D02*
X245681500Y-81661000D01*
X243840000Y-57785000D02*
X243586000Y-57531000D01*
X257683000Y-61087000D02*
X257683000Y-69659500D01*
X236658685Y-34163000D02*
X236093000Y-34163000D01*
X240387500Y-37275000D02*
X237275500Y-34163000D01*
X237275500Y-34163000D02*
X236658685Y-34163000D01*
X257683000Y-60960000D02*
X257683000Y-61087000D01*
X248412000Y-57912000D02*
X254635000Y-57912000D01*
X246634000Y-56134000D02*
X248412000Y-57912000D01*
X245491000Y-56134000D02*
X246634000Y-56134000D01*
X254635000Y-57912000D02*
X257683000Y-60960000D01*
X243840000Y-57785000D02*
X245150000Y-56475000D01*
X245150000Y-56475000D02*
X245150000Y-56325000D01*
X239522000Y-45085000D02*
X239522000Y-39624000D01*
X239522000Y-50697000D02*
X239522000Y-45085000D01*
X245150000Y-56325000D02*
X239522000Y-50697000D01*
X254127000Y-42799000D02*
X254127000Y-42799000D01*
X255835689Y-43815000D02*
X260096000Y-43815000D01*
X254819689Y-42799000D02*
X255835689Y-43815000D01*
X260096000Y-43815000D02*
X260349998Y-44068998D01*
X254127000Y-42799000D02*
X254819689Y-42799000D01*
X259588000Y-44450000D02*
X261366000Y-46228000D01*
X255397000Y-44450000D02*
X259588000Y-44450000D01*
X254889000Y-43942000D02*
X255397000Y-44450000D01*
X252984000Y-43942000D02*
X254889000Y-43942000D01*
X261366000Y-46228000D02*
X261366000Y-46228000D01*
X271272000Y-42799000D02*
X271907000Y-42164000D01*
X268859000Y-42799000D02*
X271272000Y-42799000D01*
X261874000Y-49784000D02*
X268859000Y-42799000D01*
X257302000Y-49784000D02*
X261874000Y-49784000D01*
X256921000Y-49403000D02*
X257302000Y-49784000D01*
X248031000Y-49403000D02*
X256921000Y-49403000D01*
X246126000Y-47498000D02*
X248031000Y-49403000D01*
X221107000Y-57785000D02*
X221107000Y-60960000D01*
X221107000Y-60960000D02*
X221170500Y-61023500D01*
X218948000Y-55626000D02*
X221107000Y-57785000D01*
X218948000Y-45339000D02*
X218948000Y-55626000D01*
X219837000Y-44450000D02*
X218948000Y-45339000D01*
X258826000Y-57531002D02*
X254507998Y-53213000D01*
X254507998Y-53213000D02*
X247904000Y-53213000D01*
X247904000Y-53213000D02*
X245237000Y-50546000D01*
X245237000Y-50546000D02*
X243840000Y-50546000D01*
X211931250Y-88106250D02*
X211931250Y-82518250D01*
X211931250Y-82518250D02*
X211709000Y-82296000D01*
X247459499Y-82486499D02*
X247459499Y-82486499D01*
X247459499Y-82486499D02*
X247332499Y-82486499D01*
X248539000Y-83566000D02*
X247459499Y-82486499D01*
X248539000Y-87249000D02*
X248539000Y-83566000D01*
X251714000Y-90424000D02*
X248539000Y-87249000D01*
X215265000Y-76835000D02*
X215900000Y-77470000D01*
X72072500Y-57785000D02*
X72390000Y-57785000D01*
X68262500Y-53975000D02*
X72072500Y-57785000D01*
X68262500Y-39401000D02*
X68262500Y-53975000D01*
X67596500Y-38735000D02*
X68262500Y-39401000D01*
X81915000Y-76358750D02*
X81915000Y-76835000D01*
X73025000Y-67468750D02*
X81915000Y-76358750D01*
X72390000Y-57785000D02*
X73025000Y-58420000D01*
X215900000Y-85725000D02*
X215900000Y-92075000D01*
X73025000Y-58420000D02*
X73025000Y-65881250D01*
X73025000Y-65881250D02*
X73025000Y-67468750D01*
X215900000Y-77470000D02*
X215900000Y-83343750D01*
X215900000Y-83343750D02*
X215900000Y-85725000D01*
X81915000Y-87503000D02*
X77488999Y-91929001D01*
X81915000Y-76835000D02*
X81915000Y-87503000D01*
X77488999Y-91929001D02*
X77089000Y-92329000D01*
X226695000Y-40005000D02*
X225425000Y-38735000D01*
X225425000Y-38735000D02*
X220027500Y-38735000D01*
X226695000Y-55403750D02*
X226695000Y-40005000D01*
X224790000Y-57308750D02*
X226695000Y-55403750D01*
X224790000Y-57785000D02*
X224790000Y-57308750D01*
X225264051Y-61120949D02*
X225264051Y-58259051D01*
X215265000Y-76835000D02*
X215265000Y-73406000D01*
X222758000Y-65913000D02*
X222758000Y-63627000D01*
X225264051Y-58259051D02*
X224790000Y-57785000D01*
X222758000Y-63627000D02*
X225264051Y-61120949D01*
X215265000Y-73406000D02*
X222758000Y-65913000D01*
X205740000Y-57308750D02*
X205740000Y-57785000D01*
X201612500Y-53181250D02*
X205740000Y-57308750D01*
X201612500Y-39370000D02*
X201612500Y-53181250D01*
X200977500Y-38735000D02*
X201612500Y-39370000D01*
X206375000Y-66675000D02*
X196215000Y-76835000D01*
X206375000Y-58420000D02*
X206375000Y-66675000D01*
X205740000Y-57785000D02*
X206375000Y-58420000D01*
X87312500Y-53657500D02*
X91440000Y-57785000D01*
X87312500Y-39370000D02*
X87312500Y-53657500D01*
X86677500Y-38735000D02*
X87312500Y-39370000D01*
X92514074Y-58859074D02*
X92514074Y-66548389D01*
X92514074Y-68384074D02*
X92514074Y-67679759D01*
X91440000Y-57785000D02*
X92514074Y-58859074D01*
X92514074Y-67679759D02*
X92514074Y-67114074D01*
X92514074Y-66548389D02*
X92514074Y-67114074D01*
X100965000Y-76835000D02*
X92514074Y-68384074D01*
X196850000Y-77470000D02*
X196850000Y-81756250D01*
X196215000Y-76835000D02*
X196850000Y-77470000D01*
X196850000Y-81756250D02*
X199231250Y-84137500D01*
X95776999Y-89643001D02*
X95377000Y-90043000D01*
X100965000Y-84455000D02*
X95776999Y-89643001D01*
X100965000Y-76835000D02*
X100965000Y-84455000D01*
X196850000Y-81756250D02*
X196850000Y-88392000D01*
X196850000Y-88392000D02*
X195326000Y-89916000D01*
X195326000Y-89916000D02*
X195326000Y-91567000D01*
X186690000Y-57308750D02*
X186690000Y-57785000D01*
X182562500Y-39370000D02*
X182562500Y-53181250D01*
X182562500Y-53181250D02*
X186690000Y-57308750D01*
X181927500Y-38735000D02*
X182562500Y-39370000D01*
X187325000Y-58420000D02*
X187325000Y-66525000D01*
X177165000Y-76685000D02*
X177165000Y-76835000D01*
X186690000Y-57785000D02*
X187325000Y-58420000D01*
X106362500Y-53657500D02*
X110490000Y-57785000D01*
X106362500Y-39370000D02*
X106362500Y-53657500D01*
X105727500Y-38735000D02*
X106362500Y-39370000D01*
X111125000Y-67945000D02*
X120015000Y-76835000D01*
X110490000Y-57785000D02*
X111125000Y-58420000D01*
X120650000Y-90487500D02*
X119062500Y-92075000D01*
X120650000Y-77470000D02*
X120650000Y-90487500D01*
X120015000Y-76835000D02*
X120650000Y-77470000D01*
X177800000Y-77470000D02*
X177800000Y-83343750D01*
X177165000Y-76835000D02*
X177800000Y-77470000D01*
X111125000Y-58420000D02*
X111125000Y-67468750D01*
X111125000Y-67468750D02*
X111125000Y-67945000D01*
X186456250Y-67393750D02*
X186456250Y-67402000D01*
X187325000Y-66525000D02*
X186456250Y-67393750D01*
X186456250Y-67393750D02*
X177165000Y-76685000D01*
X177006250Y-84137500D02*
X176212500Y-84931250D01*
X177800000Y-83343750D02*
X177006250Y-84137500D01*
X171450000Y-89693750D02*
X171450000Y-95250000D01*
X177006250Y-84137500D02*
X171450000Y-89693750D01*
X125412500Y-52387500D02*
X129540000Y-56515000D01*
X125412500Y-39370000D02*
X125412500Y-52387500D01*
X129540000Y-56515000D02*
X129540000Y-57785000D01*
X124777500Y-38735000D02*
X125412500Y-39370000D01*
X130175000Y-58420000D02*
X130175000Y-67945000D01*
X129540000Y-57785000D02*
X130175000Y-58420000D01*
X167640000Y-57785000D02*
X168275000Y-57150000D01*
X130333750Y-68103750D02*
X130333750Y-68195750D01*
X130175000Y-67945000D02*
X130333750Y-68103750D01*
X130333750Y-68103750D02*
X139065000Y-76835000D01*
X163512500Y-52431250D02*
X167640000Y-56558750D01*
X163512500Y-39370000D02*
X163512500Y-52431250D01*
X167640000Y-56558750D02*
X167640000Y-57785000D01*
X162877500Y-38735000D02*
X163512500Y-39370000D01*
X168275000Y-66525000D02*
X159425000Y-75375000D01*
X168275000Y-58420000D02*
X168275000Y-66525000D01*
X167640000Y-57785000D02*
X168275000Y-58420000D01*
X143129000Y-48895000D02*
X143129000Y-51847750D01*
X143764000Y-38798500D02*
X143764000Y-39624000D01*
X144272000Y-47752000D02*
X143129000Y-48895000D01*
X143764000Y-39624000D02*
X144272000Y-40132000D01*
X144272000Y-40132000D02*
X144272000Y-47752000D01*
X148590000Y-57308750D02*
X148590000Y-57785000D01*
X143129000Y-51847750D02*
X148590000Y-57308750D01*
X143827500Y-38735000D02*
X143764000Y-38798500D01*
X237490000Y-58928000D02*
X235204000Y-58928000D01*
X244329001Y-65767001D02*
X237490000Y-58928000D01*
X255270000Y-61976000D02*
X256286000Y-61976000D01*
X254889000Y-62357000D02*
X255270000Y-61976000D01*
X254889000Y-68072000D02*
X254889000Y-62357000D01*
X244329001Y-65767001D02*
X246507000Y-67945000D01*
X246507000Y-67945000D02*
X246507000Y-68199000D01*
X246507000Y-68199000D02*
X245872000Y-68834000D01*
X252603000Y-68072000D02*
X254889000Y-68072000D01*
X251714000Y-68961000D02*
X252603000Y-68072000D01*
X247523000Y-68961000D02*
X251714000Y-68961000D01*
X246507000Y-67945000D02*
X247523000Y-68961000D01*
X262675001Y-69429999D02*
X263525000Y-68580000D01*
X260350000Y-63881000D02*
X259080000Y-65151000D01*
X260223000Y-70104000D02*
X262001000Y-70104000D01*
X259080000Y-68961000D02*
X260223000Y-70104000D01*
X259080000Y-65151000D02*
X259080000Y-68961000D01*
X262001000Y-70104000D02*
X262675001Y-69429999D01*
M02*
