M48
; DRILL file {KiCad (5.1.4-0-10_14)} date 2019 October 22, Tuesday 01:35:23
; FORMAT={-:-/ absolute / inch / decimal}
; #@! TF.CreationDate,2019-10-22T01:35:23+09:00
; #@! TF.GenerationSoftware,Kicad,Pcbnew,(5.1.4-0-10_14)
; #@! TF.FileFunction,Plated,1,2,PTH
FMAT,2
INCH
T1C0.0157
T2C0.0236
T3C0.0276
T4C0.0394
T5C0.0579
%
G90
G05
T1
X1.6562Y-3.1875
X2.175Y-3.64
X3.035Y-3.635
X3.755Y-3.545
X4.6875Y-3.625
X6.75Y-3.75
X6.9375Y-3.3438
X7.69Y-3.605
X7.8438Y-3.3125
X8.335Y-3.24
X8.3438Y-3.4688
X8.5Y-3.2812
X8.5Y-3.625
X8.655Y-1.75
X8.7075Y-2.4025
X8.91Y-2.465
X8.975Y-2.7
X9.085Y-2.29
X9.14Y-2.285
X9.155Y-3.0181
X9.195Y-3.205
X9.26Y-2.32
X9.2707Y-2.2507
X9.295Y-1.345
X9.355Y-3.59
X9.4Y-2.315
X9.4318Y-3.035
X9.6Y-1.99
X9.6Y-2.87
X9.605Y-2.975
X9.645Y-1.725
X9.68Y-2.71
X9.69Y-1.87
X9.7Y-2.56
X9.7425Y-3.2475
X9.88Y-2.43
X9.91Y-3.56
X9.925Y-1.64
X9.94Y-2.625
X9.96Y-1.73
X10.005Y-1.685
X10.0312Y-3.4287
X10.035Y-2.68
X10.09Y-2.44
X10.1Y-1.84
X10.19Y-2.265
X10.25Y-1.735
X10.25Y-2.515
X10.265Y-2.055
X10.28Y-1.915
X10.29Y-1.82
X10.315Y-1.72
X10.355Y-1.75
X10.5023Y-1.8664
X10.5315Y-2.0165
X10.535Y-1.8
X10.705Y-1.66
X10.705Y-1.66
T4
X10.275Y-2.6
X10.275Y-2.7
X10.375Y-2.6
X10.375Y-2.7
X10.475Y-2.6
X10.475Y-2.7
T5
X8.85Y-2.275
X8.9016Y-2.2175
X9.0984Y-2.1978
X9.1Y-2.175
X3.6Y-2.275
X3.6516Y-2.2175
X3.8484Y-2.1978
X3.85Y-2.175
X6.4125Y-1.525
X6.4641Y-1.4675
X6.6609Y-1.4478
X6.6625Y-1.425
X5.85Y-2.275
X5.9016Y-2.2175
X6.0984Y-2.1978
X4.9125Y-1.525
X2.1Y-2.275
X2.1516Y-2.2175
X2.3484Y-2.1978
X2.35Y-2.175
X1.1625Y-1.525
X1.2141Y-1.4675
X1.4109Y-1.4478
X1.4125Y-1.425
X4.9641Y-1.4675
X5.1609Y-1.4478
X5.1625Y-1.425
X9.975Y-3.025
X10.0266Y-2.9675
X10.2234Y-2.9478
X8.6625Y-1.525
X8.7141Y-1.4675
X8.9109Y-1.4478
X8.9125Y-1.425
X5.475Y-3.025
X3.6609Y-1.4478
X5.5266Y-2.9675
X5.7234Y-2.9478
X5.725Y-2.925
X6.1Y-2.175
X10.225Y-2.925
X3.4125Y-1.525
X3.4641Y-1.4675
X3.6625Y-1.425
X9.4125Y-1.525
X9.4641Y-1.4675
X9.6609Y-1.4478
X3.975Y-3.025
X7.1625Y-1.525
X7.2141Y-1.4675
X7.4109Y-1.4478
X7.4125Y-1.425
X4.5984Y-2.1978
X4.225Y-2.925
X9.6625Y-1.425
X4.35Y-2.275
X4.4016Y-2.2175
X4.6Y-2.175
X4.0266Y-2.9675
X4.2234Y-2.9478
X8.475Y-3.025
X8.5266Y-2.9675
X8.7234Y-2.9478
X2.85Y-2.275
X2.9016Y-2.2175
X3.0984Y-2.1978
X3.1Y-2.175
X8.725Y-2.925
X1.2562Y-2.275
X1.3078Y-2.2175
X1.5047Y-2.1978
X1.5062Y-2.175
X6.225Y-3.025
X6.2766Y-2.9675
X6.475Y-2.925
X7.35Y-2.275
X7.4016Y-2.2175
X7.5984Y-2.1978
X7.6Y-2.175
X6.4734Y-2.9478
X5.6625Y-1.525
X5.9109Y-1.4478
X5.9125Y-1.425
X8.1Y-2.275
X8.1516Y-2.2175
X8.3484Y-2.1978
X8.35Y-2.175
X5.7141Y-1.4675
X1.9125Y-1.525
X1.9641Y-1.4675
X2.5266Y-2.9675
X2.475Y-3.025
X2.1625Y-1.425
X10.5984Y-2.1978
X10.6Y-2.175
X10.35Y-2.275
X10.4016Y-2.2175
X9.8484Y-2.1978
X9.85Y-2.175
X4.2141Y-1.4675
X4.1625Y-1.525
X4.4125Y-1.425
X4.4109Y-1.4478
X9.6Y-2.275
X9.6516Y-2.2175
X2.1609Y-1.4478
X7.7766Y-2.9675
X7.725Y-3.025
X7.975Y-2.925
X7.9734Y-2.9478
X7.9641Y-1.4675
X7.9125Y-1.525
X8.1609Y-1.4478
X8.1625Y-1.425
X2.7234Y-2.9478
X2.725Y-2.925
X9.2766Y-3.3022
X5.1Y-2.275
X5.3484Y-2.1978
X5.35Y-2.175
X9.275Y-3.325
X9.4734Y-3.2825
X9.525Y-3.225
X4.9734Y-2.9478
X6.975Y-3.025
X7.0266Y-2.9675
X7.2234Y-2.9478
X7.225Y-2.925
X5.1516Y-2.2175
X4.725Y-3.025
X4.7766Y-2.9675
X4.975Y-2.925
X6.6Y-2.275
X6.6516Y-2.2175
X6.8484Y-2.1978
X6.85Y-2.175
X1.6312Y-3.025
X3.225Y-3.025
X10.2562Y-1.525
X10.3078Y-1.4675
X2.6613Y-1.525
X2.7129Y-1.4675
X2.9097Y-1.4478
X2.9113Y-1.425
X10.5047Y-1.4478
X10.5062Y-1.425
X1.6828Y-2.9675
X1.8797Y-2.9478
X1.8812Y-2.925
X3.2766Y-2.9675
X3.4734Y-2.9478
X3.475Y-2.925
T2
G00X10.6597Y-1.7349
M15
G01X10.6164Y-1.7349
M16
G05
G00X10.6597Y-2.0751
M15
G01X10.6164Y-2.0751
M16
G05
G00X10.8144Y-1.7349
M15
G01X10.7908Y-1.7349
M16
G05
G00X10.8144Y-2.0751
M15
G01X10.7908Y-2.0751
M16
G05
T3
G00X9.84Y-1.3414
M15
G01X9.84Y-1.3886
M16
G05
G00X9.84Y-1.5185
M15
G01X9.84Y-1.5658
M16
G05
G00X10.1274Y-1.3414
M15
G01X10.1274Y-1.3886
M16
G05
G00X10.1274Y-1.5185
M15
G01X10.1274Y-1.5658
M16
G05
T0
M30
