G04 #@! TF.GenerationSoftware,KiCad,Pcbnew,(5.1.4-0-10_14)*
G04 #@! TF.CreationDate,2019-10-22T01:35:18+09:00*
G04 #@! TF.ProjectId,dombrick45,646f6d62-7269-4636-9b34-352e6b696361,rev?*
G04 #@! TF.SameCoordinates,Original*
G04 #@! TF.FileFunction,Copper,L2,Bot*
G04 #@! TF.FilePolarity,Positive*
%FSLAX46Y46*%
G04 Gerber Fmt 4.6, Leading zero omitted, Abs format (unit mm)*
G04 Created by KiCad (PCBNEW (5.1.4-0-10_14)) date 2019-10-22 01:35:18*
%MOMM*%
%LPD*%
G04 APERTURE LIST*
%ADD10C,2.250000*%
%ADD11C,2.250000*%
%ADD12R,2.550000X2.500000*%
%ADD13O,1.700000X2.700000*%
%ADD14R,0.500000X2.250000*%
%ADD15R,1.200000X0.900000*%
%ADD16R,1.000000X0.700000*%
%ADD17R,0.600000X0.700000*%
%ADD18O,1.600000X1.000000*%
%ADD19O,2.100000X1.000000*%
%ADD20R,1.450000X0.300000*%
%ADD21R,1.450000X0.600000*%
%ADD22C,0.100000*%
%ADD23C,0.975000*%
%ADD24C,1.700000*%
%ADD25R,1.700000X1.700000*%
%ADD26C,1.150000*%
%ADD27C,0.550000*%
%ADD28C,1.200000*%
%ADD29R,1.800000X1.100000*%
%ADD30C,1.250000*%
%ADD31C,0.800000*%
%ADD32C,0.254000*%
%ADD33C,0.381000*%
G04 APERTURE END LIST*
D10*
X269220000Y-55535000D03*
D11*
X269200000Y-55825000D02*
X269240000Y-55245000D01*
D10*
X269240000Y-55245000D03*
X263545001Y-57055000D03*
D11*
X262890000Y-57785000D02*
X264200002Y-56325000D01*
D10*
X264200000Y-56325000D03*
X245407500Y-36485000D03*
D11*
X245387500Y-36775000D02*
X245427500Y-36195000D01*
D10*
X245427500Y-36195000D03*
X239732501Y-38005000D03*
D11*
X239077500Y-38735000D02*
X240387502Y-37275000D01*
D10*
X240387500Y-37275000D03*
D12*
X171391250Y-100965000D03*
X158464250Y-103505000D03*
X142933750Y-95885000D03*
X155860750Y-93345000D03*
D13*
X249936000Y-34671000D03*
X257236000Y-34671000D03*
X257236000Y-39171000D03*
X249936000Y-39171000D03*
D14*
X251986000Y-39171000D03*
X252786000Y-39171000D03*
X253586000Y-39171000D03*
X254386000Y-39171000D03*
X255186000Y-39171000D03*
D15*
X235204000Y-39751000D03*
X235204000Y-43051000D03*
D10*
X266838750Y-36485000D03*
D11*
X266818750Y-36775000D02*
X266858750Y-36195000D01*
D10*
X266858750Y-36195000D03*
X261163751Y-38005000D03*
D11*
X260508750Y-38735000D02*
X261818752Y-37275000D01*
D10*
X261818750Y-37275000D03*
D16*
X265225000Y-49657000D03*
D17*
X265425000Y-47657000D03*
X263525000Y-49657000D03*
X263525000Y-47657000D03*
D18*
X274387000Y-52707000D03*
X274387000Y-44067000D03*
D19*
X270207000Y-52707000D03*
X270207000Y-44067000D03*
D20*
X269292000Y-48137000D03*
X269292000Y-48637000D03*
X269292000Y-49137000D03*
X269292000Y-47637000D03*
X269292000Y-49637000D03*
X269292000Y-47137000D03*
X269292000Y-50137000D03*
X269292000Y-46637000D03*
D21*
X269292000Y-45937000D03*
X269292000Y-50837000D03*
X269292000Y-45162000D03*
X269292000Y-51612000D03*
D22*
G36*
X264203642Y-51117174D02*
G01*
X264227303Y-51120684D01*
X264250507Y-51126496D01*
X264273029Y-51134554D01*
X264294653Y-51144782D01*
X264315170Y-51157079D01*
X264334383Y-51171329D01*
X264352107Y-51187393D01*
X264368171Y-51205117D01*
X264382421Y-51224330D01*
X264394718Y-51244847D01*
X264404946Y-51266471D01*
X264413004Y-51288993D01*
X264418816Y-51312197D01*
X264422326Y-51335858D01*
X264423500Y-51359750D01*
X264423500Y-52272250D01*
X264422326Y-52296142D01*
X264418816Y-52319803D01*
X264413004Y-52343007D01*
X264404946Y-52365529D01*
X264394718Y-52387153D01*
X264382421Y-52407670D01*
X264368171Y-52426883D01*
X264352107Y-52444607D01*
X264334383Y-52460671D01*
X264315170Y-52474921D01*
X264294653Y-52487218D01*
X264273029Y-52497446D01*
X264250507Y-52505504D01*
X264227303Y-52511316D01*
X264203642Y-52514826D01*
X264179750Y-52516000D01*
X263692250Y-52516000D01*
X263668358Y-52514826D01*
X263644697Y-52511316D01*
X263621493Y-52505504D01*
X263598971Y-52497446D01*
X263577347Y-52487218D01*
X263556830Y-52474921D01*
X263537617Y-52460671D01*
X263519893Y-52444607D01*
X263503829Y-52426883D01*
X263489579Y-52407670D01*
X263477282Y-52387153D01*
X263467054Y-52365529D01*
X263458996Y-52343007D01*
X263453184Y-52319803D01*
X263449674Y-52296142D01*
X263448500Y-52272250D01*
X263448500Y-51359750D01*
X263449674Y-51335858D01*
X263453184Y-51312197D01*
X263458996Y-51288993D01*
X263467054Y-51266471D01*
X263477282Y-51244847D01*
X263489579Y-51224330D01*
X263503829Y-51205117D01*
X263519893Y-51187393D01*
X263537617Y-51171329D01*
X263556830Y-51157079D01*
X263577347Y-51144782D01*
X263598971Y-51134554D01*
X263621493Y-51126496D01*
X263644697Y-51120684D01*
X263668358Y-51117174D01*
X263692250Y-51116000D01*
X264179750Y-51116000D01*
X264203642Y-51117174D01*
X264203642Y-51117174D01*
G37*
D23*
X263936000Y-51816000D03*
D22*
G36*
X266078642Y-51117174D02*
G01*
X266102303Y-51120684D01*
X266125507Y-51126496D01*
X266148029Y-51134554D01*
X266169653Y-51144782D01*
X266190170Y-51157079D01*
X266209383Y-51171329D01*
X266227107Y-51187393D01*
X266243171Y-51205117D01*
X266257421Y-51224330D01*
X266269718Y-51244847D01*
X266279946Y-51266471D01*
X266288004Y-51288993D01*
X266293816Y-51312197D01*
X266297326Y-51335858D01*
X266298500Y-51359750D01*
X266298500Y-52272250D01*
X266297326Y-52296142D01*
X266293816Y-52319803D01*
X266288004Y-52343007D01*
X266279946Y-52365529D01*
X266269718Y-52387153D01*
X266257421Y-52407670D01*
X266243171Y-52426883D01*
X266227107Y-52444607D01*
X266209383Y-52460671D01*
X266190170Y-52474921D01*
X266169653Y-52487218D01*
X266148029Y-52497446D01*
X266125507Y-52505504D01*
X266102303Y-52511316D01*
X266078642Y-52514826D01*
X266054750Y-52516000D01*
X265567250Y-52516000D01*
X265543358Y-52514826D01*
X265519697Y-52511316D01*
X265496493Y-52505504D01*
X265473971Y-52497446D01*
X265452347Y-52487218D01*
X265431830Y-52474921D01*
X265412617Y-52460671D01*
X265394893Y-52444607D01*
X265378829Y-52426883D01*
X265364579Y-52407670D01*
X265352282Y-52387153D01*
X265342054Y-52365529D01*
X265333996Y-52343007D01*
X265328184Y-52319803D01*
X265324674Y-52296142D01*
X265323500Y-52272250D01*
X265323500Y-51359750D01*
X265324674Y-51335858D01*
X265328184Y-51312197D01*
X265333996Y-51288993D01*
X265342054Y-51266471D01*
X265352282Y-51244847D01*
X265364579Y-51224330D01*
X265378829Y-51205117D01*
X265394893Y-51187393D01*
X265412617Y-51171329D01*
X265431830Y-51157079D01*
X265452347Y-51144782D01*
X265473971Y-51134554D01*
X265496493Y-51126496D01*
X265519697Y-51120684D01*
X265543358Y-51117174D01*
X265567250Y-51116000D01*
X266054750Y-51116000D01*
X266078642Y-51117174D01*
X266078642Y-51117174D01*
G37*
D23*
X265811000Y-51816000D03*
D22*
G36*
X264584642Y-44640174D02*
G01*
X264608303Y-44643684D01*
X264631507Y-44649496D01*
X264654029Y-44657554D01*
X264675653Y-44667782D01*
X264696170Y-44680079D01*
X264715383Y-44694329D01*
X264733107Y-44710393D01*
X264749171Y-44728117D01*
X264763421Y-44747330D01*
X264775718Y-44767847D01*
X264785946Y-44789471D01*
X264794004Y-44811993D01*
X264799816Y-44835197D01*
X264803326Y-44858858D01*
X264804500Y-44882750D01*
X264804500Y-45795250D01*
X264803326Y-45819142D01*
X264799816Y-45842803D01*
X264794004Y-45866007D01*
X264785946Y-45888529D01*
X264775718Y-45910153D01*
X264763421Y-45930670D01*
X264749171Y-45949883D01*
X264733107Y-45967607D01*
X264715383Y-45983671D01*
X264696170Y-45997921D01*
X264675653Y-46010218D01*
X264654029Y-46020446D01*
X264631507Y-46028504D01*
X264608303Y-46034316D01*
X264584642Y-46037826D01*
X264560750Y-46039000D01*
X264073250Y-46039000D01*
X264049358Y-46037826D01*
X264025697Y-46034316D01*
X264002493Y-46028504D01*
X263979971Y-46020446D01*
X263958347Y-46010218D01*
X263937830Y-45997921D01*
X263918617Y-45983671D01*
X263900893Y-45967607D01*
X263884829Y-45949883D01*
X263870579Y-45930670D01*
X263858282Y-45910153D01*
X263848054Y-45888529D01*
X263839996Y-45866007D01*
X263834184Y-45842803D01*
X263830674Y-45819142D01*
X263829500Y-45795250D01*
X263829500Y-44882750D01*
X263830674Y-44858858D01*
X263834184Y-44835197D01*
X263839996Y-44811993D01*
X263848054Y-44789471D01*
X263858282Y-44767847D01*
X263870579Y-44747330D01*
X263884829Y-44728117D01*
X263900893Y-44710393D01*
X263918617Y-44694329D01*
X263937830Y-44680079D01*
X263958347Y-44667782D01*
X263979971Y-44657554D01*
X264002493Y-44649496D01*
X264025697Y-44643684D01*
X264049358Y-44640174D01*
X264073250Y-44639000D01*
X264560750Y-44639000D01*
X264584642Y-44640174D01*
X264584642Y-44640174D01*
G37*
D23*
X264317000Y-45339000D03*
D22*
G36*
X266459642Y-44640174D02*
G01*
X266483303Y-44643684D01*
X266506507Y-44649496D01*
X266529029Y-44657554D01*
X266550653Y-44667782D01*
X266571170Y-44680079D01*
X266590383Y-44694329D01*
X266608107Y-44710393D01*
X266624171Y-44728117D01*
X266638421Y-44747330D01*
X266650718Y-44767847D01*
X266660946Y-44789471D01*
X266669004Y-44811993D01*
X266674816Y-44835197D01*
X266678326Y-44858858D01*
X266679500Y-44882750D01*
X266679500Y-45795250D01*
X266678326Y-45819142D01*
X266674816Y-45842803D01*
X266669004Y-45866007D01*
X266660946Y-45888529D01*
X266650718Y-45910153D01*
X266638421Y-45930670D01*
X266624171Y-45949883D01*
X266608107Y-45967607D01*
X266590383Y-45983671D01*
X266571170Y-45997921D01*
X266550653Y-46010218D01*
X266529029Y-46020446D01*
X266506507Y-46028504D01*
X266483303Y-46034316D01*
X266459642Y-46037826D01*
X266435750Y-46039000D01*
X265948250Y-46039000D01*
X265924358Y-46037826D01*
X265900697Y-46034316D01*
X265877493Y-46028504D01*
X265854971Y-46020446D01*
X265833347Y-46010218D01*
X265812830Y-45997921D01*
X265793617Y-45983671D01*
X265775893Y-45967607D01*
X265759829Y-45949883D01*
X265745579Y-45930670D01*
X265733282Y-45910153D01*
X265723054Y-45888529D01*
X265714996Y-45866007D01*
X265709184Y-45842803D01*
X265705674Y-45819142D01*
X265704500Y-45795250D01*
X265704500Y-44882750D01*
X265705674Y-44858858D01*
X265709184Y-44835197D01*
X265714996Y-44811993D01*
X265723054Y-44789471D01*
X265733282Y-44767847D01*
X265745579Y-44747330D01*
X265759829Y-44728117D01*
X265775893Y-44710393D01*
X265793617Y-44694329D01*
X265812830Y-44680079D01*
X265833347Y-44667782D01*
X265854971Y-44657554D01*
X265877493Y-44649496D01*
X265900697Y-44643684D01*
X265924358Y-44640174D01*
X265948250Y-44639000D01*
X266435750Y-44639000D01*
X266459642Y-44640174D01*
X266459642Y-44640174D01*
G37*
D23*
X266192000Y-45339000D03*
D15*
X224631250Y-73280000D03*
X224631250Y-76580000D03*
D24*
X260985000Y-66040000D03*
X260985000Y-68580000D03*
X263525000Y-66040000D03*
X263525000Y-68580000D03*
X266065000Y-66040000D03*
D25*
X266065000Y-68580000D03*
D12*
X50065000Y-95885000D03*
X62992000Y-93345000D03*
X235802500Y-95885000D03*
X248729500Y-93345000D03*
X71496250Y-95885000D03*
X84423250Y-93345000D03*
D10*
X250170000Y-55535000D03*
D11*
X250150000Y-55825000D02*
X250190000Y-55245000D01*
D10*
X250190000Y-55245000D03*
X244495001Y-57055000D03*
D11*
X243840000Y-57785000D02*
X245150002Y-56325000D01*
D10*
X245150000Y-56325000D03*
X259695000Y-74585000D03*
D11*
X259675000Y-74875000D02*
X259715000Y-74295000D01*
D10*
X259715000Y-74295000D03*
X254020001Y-76105000D03*
D11*
X253365000Y-76835000D02*
X254675002Y-75375000D01*
D10*
X254675000Y-75375000D03*
X183495000Y-74585000D03*
D11*
X183475000Y-74875000D02*
X183515000Y-74295000D01*
D10*
X183515000Y-74295000D03*
X177820001Y-76105000D03*
D11*
X177165000Y-76835000D02*
X178475002Y-75375000D01*
D10*
X178475000Y-75375000D03*
X38238750Y-55535000D03*
D11*
X38218750Y-55825000D02*
X38258750Y-55245000D01*
D10*
X38258750Y-55245000D03*
X32563751Y-57055000D03*
D11*
X31908750Y-57785000D02*
X33218752Y-56325000D01*
D10*
X33218750Y-56325000D03*
X173970000Y-55535000D03*
D11*
X173950000Y-55825000D02*
X173990000Y-55245000D01*
D10*
X173990000Y-55245000D03*
X168295001Y-57055000D03*
D11*
X167640000Y-57785000D02*
X168950002Y-56325000D01*
D10*
X168950000Y-56325000D03*
X193020000Y-55535000D03*
D11*
X193000000Y-55825000D02*
X193040000Y-55245000D01*
D10*
X193040000Y-55245000D03*
X187345001Y-57055000D03*
D11*
X186690000Y-57785000D02*
X188000002Y-56325000D01*
D10*
X188000000Y-56325000D03*
X35857500Y-36485000D03*
D11*
X35837500Y-36775000D02*
X35877500Y-36195000D01*
D10*
X35877500Y-36195000D03*
X30182501Y-38005000D03*
D11*
X29527500Y-38735000D02*
X30837502Y-37275000D01*
D10*
X30837500Y-37275000D03*
D22*
G36*
X246221505Y-62547204D02*
G01*
X246245773Y-62550804D01*
X246269572Y-62556765D01*
X246292671Y-62565030D01*
X246314850Y-62575520D01*
X246335893Y-62588132D01*
X246355599Y-62602747D01*
X246373777Y-62619223D01*
X246390253Y-62637401D01*
X246404868Y-62657107D01*
X246417480Y-62678150D01*
X246427970Y-62700329D01*
X246436235Y-62723428D01*
X246442196Y-62747227D01*
X246445796Y-62771495D01*
X246447000Y-62795999D01*
X246447000Y-63696001D01*
X246445796Y-63720505D01*
X246442196Y-63744773D01*
X246436235Y-63768572D01*
X246427970Y-63791671D01*
X246417480Y-63813850D01*
X246404868Y-63834893D01*
X246390253Y-63854599D01*
X246373777Y-63872777D01*
X246355599Y-63889253D01*
X246335893Y-63903868D01*
X246314850Y-63916480D01*
X246292671Y-63926970D01*
X246269572Y-63935235D01*
X246245773Y-63941196D01*
X246221505Y-63944796D01*
X246197001Y-63946000D01*
X245546999Y-63946000D01*
X245522495Y-63944796D01*
X245498227Y-63941196D01*
X245474428Y-63935235D01*
X245451329Y-63926970D01*
X245429150Y-63916480D01*
X245408107Y-63903868D01*
X245388401Y-63889253D01*
X245370223Y-63872777D01*
X245353747Y-63854599D01*
X245339132Y-63834893D01*
X245326520Y-63813850D01*
X245316030Y-63791671D01*
X245307765Y-63768572D01*
X245301804Y-63744773D01*
X245298204Y-63720505D01*
X245297000Y-63696001D01*
X245297000Y-62795999D01*
X245298204Y-62771495D01*
X245301804Y-62747227D01*
X245307765Y-62723428D01*
X245316030Y-62700329D01*
X245326520Y-62678150D01*
X245339132Y-62657107D01*
X245353747Y-62637401D01*
X245370223Y-62619223D01*
X245388401Y-62602747D01*
X245408107Y-62588132D01*
X245429150Y-62575520D01*
X245451329Y-62565030D01*
X245474428Y-62556765D01*
X245498227Y-62550804D01*
X245522495Y-62547204D01*
X245546999Y-62546000D01*
X246197001Y-62546000D01*
X246221505Y-62547204D01*
X246221505Y-62547204D01*
G37*
D26*
X245872000Y-63246000D03*
D22*
G36*
X244171505Y-62547204D02*
G01*
X244195773Y-62550804D01*
X244219572Y-62556765D01*
X244242671Y-62565030D01*
X244264850Y-62575520D01*
X244285893Y-62588132D01*
X244305599Y-62602747D01*
X244323777Y-62619223D01*
X244340253Y-62637401D01*
X244354868Y-62657107D01*
X244367480Y-62678150D01*
X244377970Y-62700329D01*
X244386235Y-62723428D01*
X244392196Y-62747227D01*
X244395796Y-62771495D01*
X244397000Y-62795999D01*
X244397000Y-63696001D01*
X244395796Y-63720505D01*
X244392196Y-63744773D01*
X244386235Y-63768572D01*
X244377970Y-63791671D01*
X244367480Y-63813850D01*
X244354868Y-63834893D01*
X244340253Y-63854599D01*
X244323777Y-63872777D01*
X244305599Y-63889253D01*
X244285893Y-63903868D01*
X244264850Y-63916480D01*
X244242671Y-63926970D01*
X244219572Y-63935235D01*
X244195773Y-63941196D01*
X244171505Y-63944796D01*
X244147001Y-63946000D01*
X243496999Y-63946000D01*
X243472495Y-63944796D01*
X243448227Y-63941196D01*
X243424428Y-63935235D01*
X243401329Y-63926970D01*
X243379150Y-63916480D01*
X243358107Y-63903868D01*
X243338401Y-63889253D01*
X243320223Y-63872777D01*
X243303747Y-63854599D01*
X243289132Y-63834893D01*
X243276520Y-63813850D01*
X243266030Y-63791671D01*
X243257765Y-63768572D01*
X243251804Y-63744773D01*
X243248204Y-63720505D01*
X243247000Y-63696001D01*
X243247000Y-62795999D01*
X243248204Y-62771495D01*
X243251804Y-62747227D01*
X243257765Y-62723428D01*
X243266030Y-62700329D01*
X243276520Y-62678150D01*
X243289132Y-62657107D01*
X243303747Y-62637401D01*
X243320223Y-62619223D01*
X243338401Y-62602747D01*
X243358107Y-62588132D01*
X243379150Y-62575520D01*
X243401329Y-62565030D01*
X243424428Y-62556765D01*
X243448227Y-62550804D01*
X243472495Y-62547204D01*
X243496999Y-62546000D01*
X244147001Y-62546000D01*
X244171505Y-62547204D01*
X244171505Y-62547204D01*
G37*
D26*
X243822000Y-63246000D03*
D27*
X235767353Y-61975064D03*
D22*
G36*
X236492137Y-62310940D02*
G01*
X236103229Y-62699848D01*
X235042569Y-61639188D01*
X235431477Y-61250280D01*
X236492137Y-62310940D01*
X236492137Y-62310940D01*
G37*
D27*
X235201668Y-62540750D03*
D22*
G36*
X235926452Y-62876626D02*
G01*
X235537544Y-63265534D01*
X234476884Y-62204874D01*
X234865792Y-61815966D01*
X235926452Y-62876626D01*
X235926452Y-62876626D01*
G37*
D27*
X234635983Y-63106435D03*
D22*
G36*
X235360767Y-63442311D02*
G01*
X234971859Y-63831219D01*
X233911199Y-62770559D01*
X234300107Y-62381651D01*
X235360767Y-63442311D01*
X235360767Y-63442311D01*
G37*
D27*
X234070297Y-63672120D03*
D22*
G36*
X234795081Y-64007996D02*
G01*
X234406173Y-64396904D01*
X233345513Y-63336244D01*
X233734421Y-62947336D01*
X234795081Y-64007996D01*
X234795081Y-64007996D01*
G37*
D27*
X233504612Y-64237806D03*
D22*
G36*
X234229396Y-64573682D02*
G01*
X233840488Y-64962590D01*
X232779828Y-63901930D01*
X233168736Y-63513022D01*
X234229396Y-64573682D01*
X234229396Y-64573682D01*
G37*
D27*
X232938926Y-64803491D03*
D22*
G36*
X233663710Y-65139367D02*
G01*
X233274802Y-65528275D01*
X232214142Y-64467615D01*
X232603050Y-64078707D01*
X233663710Y-65139367D01*
X233663710Y-65139367D01*
G37*
D27*
X232373241Y-65369177D03*
D22*
G36*
X233098025Y-65705053D02*
G01*
X232709117Y-66093961D01*
X231648457Y-65033301D01*
X232037365Y-64644393D01*
X233098025Y-65705053D01*
X233098025Y-65705053D01*
G37*
D27*
X231807555Y-65934862D03*
D22*
G36*
X232532339Y-66270738D02*
G01*
X232143431Y-66659646D01*
X231082771Y-65598986D01*
X231471679Y-65210078D01*
X232532339Y-66270738D01*
X232532339Y-66270738D01*
G37*
D27*
X231241870Y-66500548D03*
D22*
G36*
X231966654Y-66836424D02*
G01*
X231577746Y-67225332D01*
X230517086Y-66164672D01*
X230905994Y-65775764D01*
X231966654Y-66836424D01*
X231966654Y-66836424D01*
G37*
D27*
X230676185Y-67066233D03*
D22*
G36*
X231400969Y-67402109D02*
G01*
X231012061Y-67791017D01*
X229951401Y-66730357D01*
X230340309Y-66341449D01*
X231400969Y-67402109D01*
X231400969Y-67402109D01*
G37*
D27*
X230110499Y-67631918D03*
D22*
G36*
X230835283Y-67967794D02*
G01*
X230446375Y-68356702D01*
X229385715Y-67296042D01*
X229774623Y-66907134D01*
X230835283Y-67967794D01*
X230835283Y-67967794D01*
G37*
D27*
X230110499Y-70036082D03*
D22*
G36*
X230446375Y-69311298D02*
G01*
X230835283Y-69700206D01*
X229774623Y-70760866D01*
X229385715Y-70371958D01*
X230446375Y-69311298D01*
X230446375Y-69311298D01*
G37*
D27*
X230676185Y-70601767D03*
D22*
G36*
X231012061Y-69876983D02*
G01*
X231400969Y-70265891D01*
X230340309Y-71326551D01*
X229951401Y-70937643D01*
X231012061Y-69876983D01*
X231012061Y-69876983D01*
G37*
D27*
X231241870Y-71167452D03*
D22*
G36*
X231577746Y-70442668D02*
G01*
X231966654Y-70831576D01*
X230905994Y-71892236D01*
X230517086Y-71503328D01*
X231577746Y-70442668D01*
X231577746Y-70442668D01*
G37*
D27*
X231807555Y-71733138D03*
D22*
G36*
X232143431Y-71008354D02*
G01*
X232532339Y-71397262D01*
X231471679Y-72457922D01*
X231082771Y-72069014D01*
X232143431Y-71008354D01*
X232143431Y-71008354D01*
G37*
D27*
X232373241Y-72298823D03*
D22*
G36*
X232709117Y-71574039D02*
G01*
X233098025Y-71962947D01*
X232037365Y-73023607D01*
X231648457Y-72634699D01*
X232709117Y-71574039D01*
X232709117Y-71574039D01*
G37*
D27*
X232938926Y-72864509D03*
D22*
G36*
X233274802Y-72139725D02*
G01*
X233663710Y-72528633D01*
X232603050Y-73589293D01*
X232214142Y-73200385D01*
X233274802Y-72139725D01*
X233274802Y-72139725D01*
G37*
D27*
X233504612Y-73430194D03*
D22*
G36*
X233840488Y-72705410D02*
G01*
X234229396Y-73094318D01*
X233168736Y-74154978D01*
X232779828Y-73766070D01*
X233840488Y-72705410D01*
X233840488Y-72705410D01*
G37*
D27*
X234070297Y-73995880D03*
D22*
G36*
X234406173Y-73271096D02*
G01*
X234795081Y-73660004D01*
X233734421Y-74720664D01*
X233345513Y-74331756D01*
X234406173Y-73271096D01*
X234406173Y-73271096D01*
G37*
D27*
X234635983Y-74561565D03*
D22*
G36*
X234971859Y-73836781D02*
G01*
X235360767Y-74225689D01*
X234300107Y-75286349D01*
X233911199Y-74897441D01*
X234971859Y-73836781D01*
X234971859Y-73836781D01*
G37*
D27*
X235201668Y-75127250D03*
D22*
G36*
X235537544Y-74402466D02*
G01*
X235926452Y-74791374D01*
X234865792Y-75852034D01*
X234476884Y-75463126D01*
X235537544Y-74402466D01*
X235537544Y-74402466D01*
G37*
D27*
X235767353Y-75692936D03*
D22*
G36*
X236103229Y-74968152D02*
G01*
X236492137Y-75357060D01*
X235431477Y-76417720D01*
X235042569Y-76028812D01*
X236103229Y-74968152D01*
X236103229Y-74968152D01*
G37*
D27*
X238171517Y-75692936D03*
D22*
G36*
X238896301Y-76028812D02*
G01*
X238507393Y-76417720D01*
X237446733Y-75357060D01*
X237835641Y-74968152D01*
X238896301Y-76028812D01*
X238896301Y-76028812D01*
G37*
D27*
X238737202Y-75127250D03*
D22*
G36*
X239461986Y-75463126D02*
G01*
X239073078Y-75852034D01*
X238012418Y-74791374D01*
X238401326Y-74402466D01*
X239461986Y-75463126D01*
X239461986Y-75463126D01*
G37*
D27*
X239302887Y-74561565D03*
D22*
G36*
X240027671Y-74897441D02*
G01*
X239638763Y-75286349D01*
X238578103Y-74225689D01*
X238967011Y-73836781D01*
X240027671Y-74897441D01*
X240027671Y-74897441D01*
G37*
D27*
X239868573Y-73995880D03*
D22*
G36*
X240593357Y-74331756D02*
G01*
X240204449Y-74720664D01*
X239143789Y-73660004D01*
X239532697Y-73271096D01*
X240593357Y-74331756D01*
X240593357Y-74331756D01*
G37*
D27*
X240434258Y-73430194D03*
D22*
G36*
X241159042Y-73766070D02*
G01*
X240770134Y-74154978D01*
X239709474Y-73094318D01*
X240098382Y-72705410D01*
X241159042Y-73766070D01*
X241159042Y-73766070D01*
G37*
D27*
X240999944Y-72864509D03*
D22*
G36*
X241724728Y-73200385D02*
G01*
X241335820Y-73589293D01*
X240275160Y-72528633D01*
X240664068Y-72139725D01*
X241724728Y-73200385D01*
X241724728Y-73200385D01*
G37*
D27*
X241565629Y-72298823D03*
D22*
G36*
X242290413Y-72634699D02*
G01*
X241901505Y-73023607D01*
X240840845Y-71962947D01*
X241229753Y-71574039D01*
X242290413Y-72634699D01*
X242290413Y-72634699D01*
G37*
D27*
X242131315Y-71733138D03*
D22*
G36*
X242856099Y-72069014D02*
G01*
X242467191Y-72457922D01*
X241406531Y-71397262D01*
X241795439Y-71008354D01*
X242856099Y-72069014D01*
X242856099Y-72069014D01*
G37*
D27*
X242697000Y-71167452D03*
D22*
G36*
X243421784Y-71503328D02*
G01*
X243032876Y-71892236D01*
X241972216Y-70831576D01*
X242361124Y-70442668D01*
X243421784Y-71503328D01*
X243421784Y-71503328D01*
G37*
D27*
X243262685Y-70601767D03*
D22*
G36*
X243987469Y-70937643D02*
G01*
X243598561Y-71326551D01*
X242537901Y-70265891D01*
X242926809Y-69876983D01*
X243987469Y-70937643D01*
X243987469Y-70937643D01*
G37*
D27*
X243828371Y-70036082D03*
D22*
G36*
X244553155Y-70371958D02*
G01*
X244164247Y-70760866D01*
X243103587Y-69700206D01*
X243492495Y-69311298D01*
X244553155Y-70371958D01*
X244553155Y-70371958D01*
G37*
D27*
X243828371Y-67631918D03*
D22*
G36*
X244164247Y-66907134D02*
G01*
X244553155Y-67296042D01*
X243492495Y-68356702D01*
X243103587Y-67967794D01*
X244164247Y-66907134D01*
X244164247Y-66907134D01*
G37*
D27*
X243262685Y-67066233D03*
D22*
G36*
X243598561Y-66341449D02*
G01*
X243987469Y-66730357D01*
X242926809Y-67791017D01*
X242537901Y-67402109D01*
X243598561Y-66341449D01*
X243598561Y-66341449D01*
G37*
D27*
X242697000Y-66500548D03*
D22*
G36*
X243032876Y-65775764D02*
G01*
X243421784Y-66164672D01*
X242361124Y-67225332D01*
X241972216Y-66836424D01*
X243032876Y-65775764D01*
X243032876Y-65775764D01*
G37*
D27*
X242131315Y-65934862D03*
D22*
G36*
X242467191Y-65210078D02*
G01*
X242856099Y-65598986D01*
X241795439Y-66659646D01*
X241406531Y-66270738D01*
X242467191Y-65210078D01*
X242467191Y-65210078D01*
G37*
D27*
X241565629Y-65369177D03*
D22*
G36*
X241901505Y-64644393D02*
G01*
X242290413Y-65033301D01*
X241229753Y-66093961D01*
X240840845Y-65705053D01*
X241901505Y-64644393D01*
X241901505Y-64644393D01*
G37*
D27*
X240999944Y-64803491D03*
D22*
G36*
X241335820Y-64078707D02*
G01*
X241724728Y-64467615D01*
X240664068Y-65528275D01*
X240275160Y-65139367D01*
X241335820Y-64078707D01*
X241335820Y-64078707D01*
G37*
D27*
X240434258Y-64237806D03*
D22*
G36*
X240770134Y-63513022D02*
G01*
X241159042Y-63901930D01*
X240098382Y-64962590D01*
X239709474Y-64573682D01*
X240770134Y-63513022D01*
X240770134Y-63513022D01*
G37*
D27*
X239868573Y-63672120D03*
D22*
G36*
X240204449Y-62947336D02*
G01*
X240593357Y-63336244D01*
X239532697Y-64396904D01*
X239143789Y-64007996D01*
X240204449Y-62947336D01*
X240204449Y-62947336D01*
G37*
D27*
X239302887Y-63106435D03*
D22*
G36*
X239638763Y-62381651D02*
G01*
X240027671Y-62770559D01*
X238967011Y-63831219D01*
X238578103Y-63442311D01*
X239638763Y-62381651D01*
X239638763Y-62381651D01*
G37*
D27*
X238737202Y-62540750D03*
D22*
G36*
X239073078Y-61815966D02*
G01*
X239461986Y-62204874D01*
X238401326Y-63265534D01*
X238012418Y-62876626D01*
X239073078Y-61815966D01*
X239073078Y-61815966D01*
G37*
D27*
X238171517Y-61975064D03*
D22*
G36*
X238507393Y-61250280D02*
G01*
X238896301Y-61639188D01*
X237835641Y-62699848D01*
X237446733Y-62310940D01*
X238507393Y-61250280D01*
X238507393Y-61250280D01*
G37*
D10*
X235605000Y-84165000D03*
D11*
X235625000Y-83875000D02*
X235585000Y-84455000D01*
D10*
X235585000Y-84455000D03*
X241279999Y-82645000D03*
D11*
X241935000Y-81915000D02*
X240624998Y-83375000D01*
D10*
X240625000Y-83375000D03*
X164445000Y-74585000D03*
D11*
X164425000Y-74875000D02*
X164465000Y-74295000D01*
D10*
X164465000Y-74295000D03*
X158770001Y-76105000D03*
D11*
X158115000Y-76835000D02*
X159425002Y-75375000D01*
D10*
X159425000Y-75375000D03*
D12*
X254852500Y-95885000D03*
X267779500Y-93345000D03*
X214371250Y-95885000D03*
X227298250Y-93345000D03*
X230922500Y-100965000D03*
X217995500Y-103505000D03*
X195321250Y-95885000D03*
X208248250Y-93345000D03*
X119121250Y-95885000D03*
X132048250Y-93345000D03*
X95308750Y-95885000D03*
X108235750Y-93345000D03*
X31015000Y-95885000D03*
X43942000Y-93345000D03*
D10*
X47763750Y-74585000D03*
D11*
X47743750Y-74875000D02*
X47783750Y-74295000D01*
D10*
X47783750Y-74295000D03*
X42088751Y-76105000D03*
D11*
X41433750Y-76835000D02*
X42743752Y-75375000D01*
D10*
X42743750Y-75375000D03*
X221595000Y-74585000D03*
D11*
X221575000Y-74875000D02*
X221615000Y-74295000D01*
D10*
X221615000Y-74295000D03*
X215920001Y-76105000D03*
D11*
X215265000Y-76835000D02*
X216575002Y-75375000D01*
D10*
X216575000Y-75375000D03*
X202545000Y-74585000D03*
D11*
X202525000Y-74875000D02*
X202565000Y-74295000D01*
D10*
X202565000Y-74295000D03*
X196870001Y-76105000D03*
D11*
X196215000Y-76835000D02*
X197525002Y-75375000D01*
D10*
X197525000Y-75375000D03*
X145395000Y-74585000D03*
D11*
X145375000Y-74875000D02*
X145415000Y-74295000D01*
D10*
X145415000Y-74295000D03*
X139720001Y-76105000D03*
D11*
X139065000Y-76835000D02*
X140375002Y-75375000D01*
D10*
X140375000Y-75375000D03*
X126345000Y-74585000D03*
D11*
X126325000Y-74875000D02*
X126365000Y-74295000D01*
D10*
X126365000Y-74295000D03*
X120670001Y-76105000D03*
D11*
X120015000Y-76835000D02*
X121325002Y-75375000D01*
D10*
X121325000Y-75375000D03*
X107295000Y-74585000D03*
D11*
X107275000Y-74875000D02*
X107315000Y-74295000D01*
D10*
X107315000Y-74295000D03*
X101620001Y-76105000D03*
D11*
X100965000Y-76835000D02*
X102275002Y-75375000D01*
D10*
X102275000Y-75375000D03*
X88245000Y-74585000D03*
D11*
X88225000Y-74875000D02*
X88265000Y-74295000D01*
D10*
X88265000Y-74295000D03*
X82570001Y-76105000D03*
D11*
X81915000Y-76835000D02*
X83225002Y-75375000D01*
D10*
X83225000Y-75375000D03*
X69195000Y-74585000D03*
D11*
X69175000Y-74875000D02*
X69215000Y-74295000D01*
D10*
X69215000Y-74295000D03*
X63520001Y-76105000D03*
D11*
X62865000Y-76835000D02*
X64175002Y-75375000D01*
D10*
X64175000Y-75375000D03*
X231120000Y-55535000D03*
D11*
X231100000Y-55825000D02*
X231140000Y-55245000D01*
D10*
X231140000Y-55245000D03*
X225445001Y-57055000D03*
D11*
X224790000Y-57785000D02*
X226100002Y-56325000D01*
D10*
X226100000Y-56325000D03*
X212070000Y-55535000D03*
D11*
X212050000Y-55825000D02*
X212090000Y-55245000D01*
D10*
X212090000Y-55245000D03*
X206395001Y-57055000D03*
D11*
X205740000Y-57785000D02*
X207050002Y-56325000D01*
D10*
X207050000Y-56325000D03*
X154920000Y-55535000D03*
D11*
X154900000Y-55825000D02*
X154940000Y-55245000D01*
D10*
X154940000Y-55245000D03*
X149245001Y-57055000D03*
D11*
X148590000Y-57785000D02*
X149900002Y-56325000D01*
D10*
X149900000Y-56325000D03*
X135870000Y-55535000D03*
D11*
X135850000Y-55825000D02*
X135890000Y-55245000D01*
D10*
X135890000Y-55245000D03*
X130195001Y-57055000D03*
D11*
X129540000Y-57785000D02*
X130850002Y-56325000D01*
D10*
X130850000Y-56325000D03*
X116820000Y-55535000D03*
D11*
X116800000Y-55825000D02*
X116840000Y-55245000D01*
D10*
X116840000Y-55245000D03*
X111145001Y-57055000D03*
D11*
X110490000Y-57785000D02*
X111800002Y-56325000D01*
D10*
X111800000Y-56325000D03*
X97770000Y-55535000D03*
D11*
X97750000Y-55825000D02*
X97790000Y-55245000D01*
D10*
X97790000Y-55245000D03*
X92095001Y-57055000D03*
D11*
X91440000Y-57785000D02*
X92750002Y-56325000D01*
D10*
X92750000Y-56325000D03*
X78720000Y-55535000D03*
D11*
X78700000Y-55825000D02*
X78740000Y-55245000D01*
D10*
X78740000Y-55245000D03*
X73045001Y-57055000D03*
D11*
X72390000Y-57785000D02*
X73700002Y-56325000D01*
D10*
X73700000Y-56325000D03*
X226357500Y-36485000D03*
D11*
X226337500Y-36775000D02*
X226377500Y-36195000D01*
D10*
X226377500Y-36195000D03*
X220682501Y-38005000D03*
D11*
X220027500Y-38735000D02*
X221337502Y-37275000D01*
D10*
X221337500Y-37275000D03*
X207307500Y-36485000D03*
D11*
X207287500Y-36775000D02*
X207327500Y-36195000D01*
D10*
X207327500Y-36195000D03*
X201632501Y-38005000D03*
D11*
X200977500Y-38735000D02*
X202287502Y-37275000D01*
D10*
X202287500Y-37275000D03*
X188257500Y-36485000D03*
D11*
X188237500Y-36775000D02*
X188277500Y-36195000D01*
D10*
X188277500Y-36195000D03*
X182582501Y-38005000D03*
D11*
X181927500Y-38735000D02*
X183237502Y-37275000D01*
D10*
X183237500Y-37275000D03*
X169207500Y-36485000D03*
D11*
X169187500Y-36775000D02*
X169227500Y-36195000D01*
D10*
X169227500Y-36195000D03*
X163532501Y-38005000D03*
D11*
X162877500Y-38735000D02*
X164187502Y-37275000D01*
D10*
X164187500Y-37275000D03*
X150157500Y-36485000D03*
D11*
X150137500Y-36775000D02*
X150177500Y-36195000D01*
D10*
X150177500Y-36195000D03*
X144482501Y-38005000D03*
D11*
X143827500Y-38735000D02*
X145137502Y-37275000D01*
D10*
X145137500Y-37275000D03*
X131107500Y-36485000D03*
D11*
X131087500Y-36775000D02*
X131127500Y-36195000D01*
D10*
X131127500Y-36195000D03*
X125432501Y-38005000D03*
D11*
X124777500Y-38735000D02*
X126087502Y-37275000D01*
D10*
X126087500Y-37275000D03*
X112057500Y-36485000D03*
D11*
X112037500Y-36775000D02*
X112077500Y-36195000D01*
D10*
X112077500Y-36195000D03*
X106382501Y-38005000D03*
D11*
X105727500Y-38735000D02*
X107037502Y-37275000D01*
D10*
X107037500Y-37275000D03*
X93007500Y-36485000D03*
D11*
X92987500Y-36775000D02*
X93027500Y-36195000D01*
D10*
X93027500Y-36195000D03*
X87332501Y-38005000D03*
D11*
X86677500Y-38735000D02*
X87987502Y-37275000D01*
D10*
X87987500Y-37275000D03*
X73926500Y-36485000D03*
D11*
X73906500Y-36775000D02*
X73946500Y-36195000D01*
D10*
X73946500Y-36195000D03*
X68251501Y-38005000D03*
D11*
X67596500Y-38735000D02*
X68906502Y-37275000D01*
D10*
X68906500Y-37275000D03*
D15*
X269875000Y-96775000D03*
X269875000Y-100075000D03*
X250825000Y-96775000D03*
X250825000Y-100075000D03*
X231775000Y-90425000D03*
X231775000Y-93725000D03*
X212725000Y-102393750D03*
X212725000Y-105693750D03*
X176022000Y-96014000D03*
X176022000Y-99314000D03*
X135731250Y-96775000D03*
X135731250Y-100075000D03*
X111918750Y-96775000D03*
X111918750Y-100075000D03*
X87312500Y-96775000D03*
X87312500Y-100075000D03*
X65087500Y-96775000D03*
X65087500Y-100075000D03*
X46037500Y-96902000D03*
X46037500Y-100202000D03*
X265112500Y-76931250D03*
X265112500Y-80231250D03*
X244602000Y-84203000D03*
X244602000Y-87503000D03*
X207962500Y-77725000D03*
X207962500Y-81025000D03*
X188912500Y-76931250D03*
X188912500Y-80231250D03*
X169862500Y-77725000D03*
X169862500Y-81025000D03*
X150653750Y-77787500D03*
X150653750Y-81087500D03*
X131762500Y-77725000D03*
X131762500Y-81025000D03*
X112712500Y-77725000D03*
X112712500Y-81025000D03*
X93757750Y-77725000D03*
X93757750Y-81025000D03*
X74612500Y-77725000D03*
X74612500Y-81025000D03*
X54768750Y-77439250D03*
X54768750Y-80739250D03*
X274574000Y-58674000D03*
X274574000Y-61974000D03*
X255587500Y-57023000D03*
X255587500Y-60323000D03*
X222504000Y-52070000D03*
X222504000Y-55370000D03*
X217487500Y-58675000D03*
X217487500Y-61975000D03*
X198437500Y-58675000D03*
X198437500Y-61975000D03*
X179387500Y-58675000D03*
X179387500Y-61975000D03*
X160337500Y-58737500D03*
X160337500Y-62037500D03*
X141287500Y-58548000D03*
X141287500Y-61848000D03*
X122237500Y-58675000D03*
X122237500Y-61975000D03*
X103187500Y-58929000D03*
X103187500Y-62229000D03*
X84137500Y-58675000D03*
X84137500Y-61975000D03*
X272923000Y-37084000D03*
X272923000Y-40384000D03*
X231775000Y-39625000D03*
X231775000Y-42925000D03*
X212725000Y-39625000D03*
X212725000Y-42925000D03*
X193675000Y-39910750D03*
X193675000Y-43210750D03*
X174180500Y-39561500D03*
X174180500Y-42861500D03*
X155225750Y-39561500D03*
X155225750Y-42861500D03*
X136779000Y-39339250D03*
X136779000Y-42639250D03*
X117030500Y-39783750D03*
X117030500Y-43083750D03*
X98425000Y-39815500D03*
X98425000Y-43115500D03*
X79375000Y-39625000D03*
X79375000Y-42925000D03*
D28*
X250521223Y-74530858D03*
D22*
G36*
X250450512Y-75450097D02*
G01*
X249601984Y-74601569D01*
X250591934Y-73611619D01*
X251440462Y-74460147D01*
X250450512Y-75450097D01*
X250450512Y-75450097D01*
G37*
D28*
X252076858Y-72975223D03*
D22*
G36*
X252006147Y-73894462D02*
G01*
X251157619Y-73045934D01*
X252147569Y-72055984D01*
X252996097Y-72904512D01*
X252006147Y-73894462D01*
X252006147Y-73894462D01*
G37*
D28*
X250874777Y-71773142D03*
D22*
G36*
X250804066Y-72692381D02*
G01*
X249955538Y-71843853D01*
X250945488Y-70853903D01*
X251794016Y-71702431D01*
X250804066Y-72692381D01*
X250804066Y-72692381D01*
G37*
D28*
X249319142Y-73328777D03*
D22*
G36*
X249248431Y-74248016D02*
G01*
X248399903Y-73399488D01*
X249389853Y-72409538D01*
X250238381Y-73258066D01*
X249248431Y-74248016D01*
X249248431Y-74248016D01*
G37*
G36*
X237059505Y-54800204D02*
G01*
X237083773Y-54803804D01*
X237107572Y-54809765D01*
X237130671Y-54818030D01*
X237152850Y-54828520D01*
X237173893Y-54841132D01*
X237193599Y-54855747D01*
X237211777Y-54872223D01*
X237228253Y-54890401D01*
X237242868Y-54910107D01*
X237255480Y-54931150D01*
X237265970Y-54953329D01*
X237274235Y-54976428D01*
X237280196Y-55000227D01*
X237283796Y-55024495D01*
X237285000Y-55048999D01*
X237285000Y-55949001D01*
X237283796Y-55973505D01*
X237280196Y-55997773D01*
X237274235Y-56021572D01*
X237265970Y-56044671D01*
X237255480Y-56066850D01*
X237242868Y-56087893D01*
X237228253Y-56107599D01*
X237211777Y-56125777D01*
X237193599Y-56142253D01*
X237173893Y-56156868D01*
X237152850Y-56169480D01*
X237130671Y-56179970D01*
X237107572Y-56188235D01*
X237083773Y-56194196D01*
X237059505Y-56197796D01*
X237035001Y-56199000D01*
X236384999Y-56199000D01*
X236360495Y-56197796D01*
X236336227Y-56194196D01*
X236312428Y-56188235D01*
X236289329Y-56179970D01*
X236267150Y-56169480D01*
X236246107Y-56156868D01*
X236226401Y-56142253D01*
X236208223Y-56125777D01*
X236191747Y-56107599D01*
X236177132Y-56087893D01*
X236164520Y-56066850D01*
X236154030Y-56044671D01*
X236145765Y-56021572D01*
X236139804Y-55997773D01*
X236136204Y-55973505D01*
X236135000Y-55949001D01*
X236135000Y-55048999D01*
X236136204Y-55024495D01*
X236139804Y-55000227D01*
X236145765Y-54976428D01*
X236154030Y-54953329D01*
X236164520Y-54931150D01*
X236177132Y-54910107D01*
X236191747Y-54890401D01*
X236208223Y-54872223D01*
X236226401Y-54855747D01*
X236246107Y-54841132D01*
X236267150Y-54828520D01*
X236289329Y-54818030D01*
X236312428Y-54809765D01*
X236336227Y-54803804D01*
X236360495Y-54800204D01*
X236384999Y-54799000D01*
X237035001Y-54799000D01*
X237059505Y-54800204D01*
X237059505Y-54800204D01*
G37*
D26*
X236710000Y-55499000D03*
D22*
G36*
X239109505Y-54800204D02*
G01*
X239133773Y-54803804D01*
X239157572Y-54809765D01*
X239180671Y-54818030D01*
X239202850Y-54828520D01*
X239223893Y-54841132D01*
X239243599Y-54855747D01*
X239261777Y-54872223D01*
X239278253Y-54890401D01*
X239292868Y-54910107D01*
X239305480Y-54931150D01*
X239315970Y-54953329D01*
X239324235Y-54976428D01*
X239330196Y-55000227D01*
X239333796Y-55024495D01*
X239335000Y-55048999D01*
X239335000Y-55949001D01*
X239333796Y-55973505D01*
X239330196Y-55997773D01*
X239324235Y-56021572D01*
X239315970Y-56044671D01*
X239305480Y-56066850D01*
X239292868Y-56087893D01*
X239278253Y-56107599D01*
X239261777Y-56125777D01*
X239243599Y-56142253D01*
X239223893Y-56156868D01*
X239202850Y-56169480D01*
X239180671Y-56179970D01*
X239157572Y-56188235D01*
X239133773Y-56194196D01*
X239109505Y-56197796D01*
X239085001Y-56199000D01*
X238434999Y-56199000D01*
X238410495Y-56197796D01*
X238386227Y-56194196D01*
X238362428Y-56188235D01*
X238339329Y-56179970D01*
X238317150Y-56169480D01*
X238296107Y-56156868D01*
X238276401Y-56142253D01*
X238258223Y-56125777D01*
X238241747Y-56107599D01*
X238227132Y-56087893D01*
X238214520Y-56066850D01*
X238204030Y-56044671D01*
X238195765Y-56021572D01*
X238189804Y-55997773D01*
X238186204Y-55973505D01*
X238185000Y-55949001D01*
X238185000Y-55048999D01*
X238186204Y-55024495D01*
X238189804Y-55000227D01*
X238195765Y-54976428D01*
X238204030Y-54953329D01*
X238214520Y-54931150D01*
X238227132Y-54910107D01*
X238241747Y-54890401D01*
X238258223Y-54872223D01*
X238276401Y-54855747D01*
X238296107Y-54841132D01*
X238317150Y-54828520D01*
X238339329Y-54818030D01*
X238362428Y-54809765D01*
X238386227Y-54803804D01*
X238410495Y-54800204D01*
X238434999Y-54799000D01*
X239085001Y-54799000D01*
X239109505Y-54800204D01*
X239109505Y-54800204D01*
G37*
D26*
X238760000Y-55499000D03*
D22*
G36*
X232249505Y-83500204D02*
G01*
X232273773Y-83503804D01*
X232297572Y-83509765D01*
X232320671Y-83518030D01*
X232342850Y-83528520D01*
X232363893Y-83541132D01*
X232383599Y-83555747D01*
X232401777Y-83572223D01*
X232418253Y-83590401D01*
X232432868Y-83610107D01*
X232445480Y-83631150D01*
X232455970Y-83653329D01*
X232464235Y-83676428D01*
X232470196Y-83700227D01*
X232473796Y-83724495D01*
X232475000Y-83748999D01*
X232475000Y-84399001D01*
X232473796Y-84423505D01*
X232470196Y-84447773D01*
X232464235Y-84471572D01*
X232455970Y-84494671D01*
X232445480Y-84516850D01*
X232432868Y-84537893D01*
X232418253Y-84557599D01*
X232401777Y-84575777D01*
X232383599Y-84592253D01*
X232363893Y-84606868D01*
X232342850Y-84619480D01*
X232320671Y-84629970D01*
X232297572Y-84638235D01*
X232273773Y-84644196D01*
X232249505Y-84647796D01*
X232225001Y-84649000D01*
X231324999Y-84649000D01*
X231300495Y-84647796D01*
X231276227Y-84644196D01*
X231252428Y-84638235D01*
X231229329Y-84629970D01*
X231207150Y-84619480D01*
X231186107Y-84606868D01*
X231166401Y-84592253D01*
X231148223Y-84575777D01*
X231131747Y-84557599D01*
X231117132Y-84537893D01*
X231104520Y-84516850D01*
X231094030Y-84494671D01*
X231085765Y-84471572D01*
X231079804Y-84447773D01*
X231076204Y-84423505D01*
X231075000Y-84399001D01*
X231075000Y-83748999D01*
X231076204Y-83724495D01*
X231079804Y-83700227D01*
X231085765Y-83676428D01*
X231094030Y-83653329D01*
X231104520Y-83631150D01*
X231117132Y-83610107D01*
X231131747Y-83590401D01*
X231148223Y-83572223D01*
X231166401Y-83555747D01*
X231186107Y-83541132D01*
X231207150Y-83528520D01*
X231229329Y-83518030D01*
X231252428Y-83509765D01*
X231276227Y-83503804D01*
X231300495Y-83500204D01*
X231324999Y-83499000D01*
X232225001Y-83499000D01*
X232249505Y-83500204D01*
X232249505Y-83500204D01*
G37*
D26*
X231775000Y-84074000D03*
D22*
G36*
X232249505Y-81450204D02*
G01*
X232273773Y-81453804D01*
X232297572Y-81459765D01*
X232320671Y-81468030D01*
X232342850Y-81478520D01*
X232363893Y-81491132D01*
X232383599Y-81505747D01*
X232401777Y-81522223D01*
X232418253Y-81540401D01*
X232432868Y-81560107D01*
X232445480Y-81581150D01*
X232455970Y-81603329D01*
X232464235Y-81626428D01*
X232470196Y-81650227D01*
X232473796Y-81674495D01*
X232475000Y-81698999D01*
X232475000Y-82349001D01*
X232473796Y-82373505D01*
X232470196Y-82397773D01*
X232464235Y-82421572D01*
X232455970Y-82444671D01*
X232445480Y-82466850D01*
X232432868Y-82487893D01*
X232418253Y-82507599D01*
X232401777Y-82525777D01*
X232383599Y-82542253D01*
X232363893Y-82556868D01*
X232342850Y-82569480D01*
X232320671Y-82579970D01*
X232297572Y-82588235D01*
X232273773Y-82594196D01*
X232249505Y-82597796D01*
X232225001Y-82599000D01*
X231324999Y-82599000D01*
X231300495Y-82597796D01*
X231276227Y-82594196D01*
X231252428Y-82588235D01*
X231229329Y-82579970D01*
X231207150Y-82569480D01*
X231186107Y-82556868D01*
X231166401Y-82542253D01*
X231148223Y-82525777D01*
X231131747Y-82507599D01*
X231117132Y-82487893D01*
X231104520Y-82466850D01*
X231094030Y-82444671D01*
X231085765Y-82421572D01*
X231079804Y-82397773D01*
X231076204Y-82373505D01*
X231075000Y-82349001D01*
X231075000Y-81698999D01*
X231076204Y-81674495D01*
X231079804Y-81650227D01*
X231085765Y-81626428D01*
X231094030Y-81603329D01*
X231104520Y-81581150D01*
X231117132Y-81560107D01*
X231131747Y-81540401D01*
X231148223Y-81522223D01*
X231166401Y-81505747D01*
X231186107Y-81491132D01*
X231207150Y-81478520D01*
X231229329Y-81468030D01*
X231252428Y-81459765D01*
X231276227Y-81453804D01*
X231300495Y-81450204D01*
X231324999Y-81449000D01*
X232225001Y-81449000D01*
X232249505Y-81450204D01*
X232249505Y-81450204D01*
G37*
D26*
X231775000Y-82024000D03*
D22*
G36*
X251172505Y-65466204D02*
G01*
X251196773Y-65469804D01*
X251220572Y-65475765D01*
X251243671Y-65484030D01*
X251265850Y-65494520D01*
X251286893Y-65507132D01*
X251306599Y-65521747D01*
X251324777Y-65538223D01*
X251341253Y-65556401D01*
X251355868Y-65576107D01*
X251368480Y-65597150D01*
X251378970Y-65619329D01*
X251387235Y-65642428D01*
X251393196Y-65666227D01*
X251396796Y-65690495D01*
X251398000Y-65714999D01*
X251398000Y-66365001D01*
X251396796Y-66389505D01*
X251393196Y-66413773D01*
X251387235Y-66437572D01*
X251378970Y-66460671D01*
X251368480Y-66482850D01*
X251355868Y-66503893D01*
X251341253Y-66523599D01*
X251324777Y-66541777D01*
X251306599Y-66558253D01*
X251286893Y-66572868D01*
X251265850Y-66585480D01*
X251243671Y-66595970D01*
X251220572Y-66604235D01*
X251196773Y-66610196D01*
X251172505Y-66613796D01*
X251148001Y-66615000D01*
X250247999Y-66615000D01*
X250223495Y-66613796D01*
X250199227Y-66610196D01*
X250175428Y-66604235D01*
X250152329Y-66595970D01*
X250130150Y-66585480D01*
X250109107Y-66572868D01*
X250089401Y-66558253D01*
X250071223Y-66541777D01*
X250054747Y-66523599D01*
X250040132Y-66503893D01*
X250027520Y-66482850D01*
X250017030Y-66460671D01*
X250008765Y-66437572D01*
X250002804Y-66413773D01*
X249999204Y-66389505D01*
X249998000Y-66365001D01*
X249998000Y-65714999D01*
X249999204Y-65690495D01*
X250002804Y-65666227D01*
X250008765Y-65642428D01*
X250017030Y-65619329D01*
X250027520Y-65597150D01*
X250040132Y-65576107D01*
X250054747Y-65556401D01*
X250071223Y-65538223D01*
X250089401Y-65521747D01*
X250109107Y-65507132D01*
X250130150Y-65494520D01*
X250152329Y-65484030D01*
X250175428Y-65475765D01*
X250199227Y-65469804D01*
X250223495Y-65466204D01*
X250247999Y-65465000D01*
X251148001Y-65465000D01*
X251172505Y-65466204D01*
X251172505Y-65466204D01*
G37*
D26*
X250698000Y-66040000D03*
D22*
G36*
X251172505Y-67516204D02*
G01*
X251196773Y-67519804D01*
X251220572Y-67525765D01*
X251243671Y-67534030D01*
X251265850Y-67544520D01*
X251286893Y-67557132D01*
X251306599Y-67571747D01*
X251324777Y-67588223D01*
X251341253Y-67606401D01*
X251355868Y-67626107D01*
X251368480Y-67647150D01*
X251378970Y-67669329D01*
X251387235Y-67692428D01*
X251393196Y-67716227D01*
X251396796Y-67740495D01*
X251398000Y-67764999D01*
X251398000Y-68415001D01*
X251396796Y-68439505D01*
X251393196Y-68463773D01*
X251387235Y-68487572D01*
X251378970Y-68510671D01*
X251368480Y-68532850D01*
X251355868Y-68553893D01*
X251341253Y-68573599D01*
X251324777Y-68591777D01*
X251306599Y-68608253D01*
X251286893Y-68622868D01*
X251265850Y-68635480D01*
X251243671Y-68645970D01*
X251220572Y-68654235D01*
X251196773Y-68660196D01*
X251172505Y-68663796D01*
X251148001Y-68665000D01*
X250247999Y-68665000D01*
X250223495Y-68663796D01*
X250199227Y-68660196D01*
X250175428Y-68654235D01*
X250152329Y-68645970D01*
X250130150Y-68635480D01*
X250109107Y-68622868D01*
X250089401Y-68608253D01*
X250071223Y-68591777D01*
X250054747Y-68573599D01*
X250040132Y-68553893D01*
X250027520Y-68532850D01*
X250017030Y-68510671D01*
X250008765Y-68487572D01*
X250002804Y-68463773D01*
X249999204Y-68439505D01*
X249998000Y-68415001D01*
X249998000Y-67764999D01*
X249999204Y-67740495D01*
X250002804Y-67716227D01*
X250008765Y-67692428D01*
X250017030Y-67669329D01*
X250027520Y-67647150D01*
X250040132Y-67626107D01*
X250054747Y-67606401D01*
X250071223Y-67588223D01*
X250089401Y-67571747D01*
X250109107Y-67557132D01*
X250130150Y-67544520D01*
X250152329Y-67534030D01*
X250175428Y-67525765D01*
X250199227Y-67519804D01*
X250223495Y-67516204D01*
X250247999Y-67515000D01*
X251148001Y-67515000D01*
X251172505Y-67516204D01*
X251172505Y-67516204D01*
G37*
D26*
X250698000Y-68090000D03*
D22*
G36*
X254165460Y-70502764D02*
G01*
X254189728Y-70506364D01*
X254213527Y-70512325D01*
X254236626Y-70520590D01*
X254258805Y-70531080D01*
X254279848Y-70543692D01*
X254299554Y-70558307D01*
X254317732Y-70574783D01*
X254777353Y-71034404D01*
X254793829Y-71052582D01*
X254808444Y-71072288D01*
X254821056Y-71093331D01*
X254831546Y-71115510D01*
X254839811Y-71138609D01*
X254845772Y-71162408D01*
X254849372Y-71186676D01*
X254850576Y-71211180D01*
X254849372Y-71235684D01*
X254845772Y-71259952D01*
X254839811Y-71283751D01*
X254831546Y-71306850D01*
X254821056Y-71329029D01*
X254808444Y-71350072D01*
X254793829Y-71369778D01*
X254777353Y-71387956D01*
X254140956Y-72024353D01*
X254122778Y-72040829D01*
X254103072Y-72055444D01*
X254082029Y-72068056D01*
X254059850Y-72078546D01*
X254036751Y-72086811D01*
X254012952Y-72092772D01*
X253988684Y-72096372D01*
X253964180Y-72097576D01*
X253939676Y-72096372D01*
X253915408Y-72092772D01*
X253891609Y-72086811D01*
X253868510Y-72078546D01*
X253846331Y-72068056D01*
X253825288Y-72055444D01*
X253805582Y-72040829D01*
X253787404Y-72024353D01*
X253327783Y-71564732D01*
X253311307Y-71546554D01*
X253296692Y-71526848D01*
X253284080Y-71505805D01*
X253273590Y-71483626D01*
X253265325Y-71460527D01*
X253259364Y-71436728D01*
X253255764Y-71412460D01*
X253254560Y-71387956D01*
X253255764Y-71363452D01*
X253259364Y-71339184D01*
X253265325Y-71315385D01*
X253273590Y-71292286D01*
X253284080Y-71270107D01*
X253296692Y-71249064D01*
X253311307Y-71229358D01*
X253327783Y-71211180D01*
X253964180Y-70574783D01*
X253982358Y-70558307D01*
X254002064Y-70543692D01*
X254023107Y-70531080D01*
X254045286Y-70520590D01*
X254068385Y-70512325D01*
X254092184Y-70506364D01*
X254116452Y-70502764D01*
X254140956Y-70501560D01*
X254165460Y-70502764D01*
X254165460Y-70502764D01*
G37*
D26*
X254052568Y-71299568D03*
D22*
G36*
X252715892Y-69053196D02*
G01*
X252740160Y-69056796D01*
X252763959Y-69062757D01*
X252787058Y-69071022D01*
X252809237Y-69081512D01*
X252830280Y-69094124D01*
X252849986Y-69108739D01*
X252868164Y-69125215D01*
X253327785Y-69584836D01*
X253344261Y-69603014D01*
X253358876Y-69622720D01*
X253371488Y-69643763D01*
X253381978Y-69665942D01*
X253390243Y-69689041D01*
X253396204Y-69712840D01*
X253399804Y-69737108D01*
X253401008Y-69761612D01*
X253399804Y-69786116D01*
X253396204Y-69810384D01*
X253390243Y-69834183D01*
X253381978Y-69857282D01*
X253371488Y-69879461D01*
X253358876Y-69900504D01*
X253344261Y-69920210D01*
X253327785Y-69938388D01*
X252691388Y-70574785D01*
X252673210Y-70591261D01*
X252653504Y-70605876D01*
X252632461Y-70618488D01*
X252610282Y-70628978D01*
X252587183Y-70637243D01*
X252563384Y-70643204D01*
X252539116Y-70646804D01*
X252514612Y-70648008D01*
X252490108Y-70646804D01*
X252465840Y-70643204D01*
X252442041Y-70637243D01*
X252418942Y-70628978D01*
X252396763Y-70618488D01*
X252375720Y-70605876D01*
X252356014Y-70591261D01*
X252337836Y-70574785D01*
X251878215Y-70115164D01*
X251861739Y-70096986D01*
X251847124Y-70077280D01*
X251834512Y-70056237D01*
X251824022Y-70034058D01*
X251815757Y-70010959D01*
X251809796Y-69987160D01*
X251806196Y-69962892D01*
X251804992Y-69938388D01*
X251806196Y-69913884D01*
X251809796Y-69889616D01*
X251815757Y-69865817D01*
X251824022Y-69842718D01*
X251834512Y-69820539D01*
X251847124Y-69799496D01*
X251861739Y-69779790D01*
X251878215Y-69761612D01*
X252514612Y-69125215D01*
X252532790Y-69108739D01*
X252552496Y-69094124D01*
X252573539Y-69081512D01*
X252595718Y-69071022D01*
X252618817Y-69062757D01*
X252642616Y-69056796D01*
X252666884Y-69053196D01*
X252691388Y-69051992D01*
X252715892Y-69053196D01*
X252715892Y-69053196D01*
G37*
D26*
X252603000Y-69850000D03*
D22*
G36*
X247381892Y-74260196D02*
G01*
X247406160Y-74263796D01*
X247429959Y-74269757D01*
X247453058Y-74278022D01*
X247475237Y-74288512D01*
X247496280Y-74301124D01*
X247515986Y-74315739D01*
X247534164Y-74332215D01*
X247993785Y-74791836D01*
X248010261Y-74810014D01*
X248024876Y-74829720D01*
X248037488Y-74850763D01*
X248047978Y-74872942D01*
X248056243Y-74896041D01*
X248062204Y-74919840D01*
X248065804Y-74944108D01*
X248067008Y-74968612D01*
X248065804Y-74993116D01*
X248062204Y-75017384D01*
X248056243Y-75041183D01*
X248047978Y-75064282D01*
X248037488Y-75086461D01*
X248024876Y-75107504D01*
X248010261Y-75127210D01*
X247993785Y-75145388D01*
X247357388Y-75781785D01*
X247339210Y-75798261D01*
X247319504Y-75812876D01*
X247298461Y-75825488D01*
X247276282Y-75835978D01*
X247253183Y-75844243D01*
X247229384Y-75850204D01*
X247205116Y-75853804D01*
X247180612Y-75855008D01*
X247156108Y-75853804D01*
X247131840Y-75850204D01*
X247108041Y-75844243D01*
X247084942Y-75835978D01*
X247062763Y-75825488D01*
X247041720Y-75812876D01*
X247022014Y-75798261D01*
X247003836Y-75781785D01*
X246544215Y-75322164D01*
X246527739Y-75303986D01*
X246513124Y-75284280D01*
X246500512Y-75263237D01*
X246490022Y-75241058D01*
X246481757Y-75217959D01*
X246475796Y-75194160D01*
X246472196Y-75169892D01*
X246470992Y-75145388D01*
X246472196Y-75120884D01*
X246475796Y-75096616D01*
X246481757Y-75072817D01*
X246490022Y-75049718D01*
X246500512Y-75027539D01*
X246513124Y-75006496D01*
X246527739Y-74986790D01*
X246544215Y-74968612D01*
X247180612Y-74332215D01*
X247198790Y-74315739D01*
X247218496Y-74301124D01*
X247239539Y-74288512D01*
X247261718Y-74278022D01*
X247284817Y-74269757D01*
X247308616Y-74263796D01*
X247332884Y-74260196D01*
X247357388Y-74258992D01*
X247381892Y-74260196D01*
X247381892Y-74260196D01*
G37*
D26*
X247269000Y-75057000D03*
D22*
G36*
X248831460Y-75709764D02*
G01*
X248855728Y-75713364D01*
X248879527Y-75719325D01*
X248902626Y-75727590D01*
X248924805Y-75738080D01*
X248945848Y-75750692D01*
X248965554Y-75765307D01*
X248983732Y-75781783D01*
X249443353Y-76241404D01*
X249459829Y-76259582D01*
X249474444Y-76279288D01*
X249487056Y-76300331D01*
X249497546Y-76322510D01*
X249505811Y-76345609D01*
X249511772Y-76369408D01*
X249515372Y-76393676D01*
X249516576Y-76418180D01*
X249515372Y-76442684D01*
X249511772Y-76466952D01*
X249505811Y-76490751D01*
X249497546Y-76513850D01*
X249487056Y-76536029D01*
X249474444Y-76557072D01*
X249459829Y-76576778D01*
X249443353Y-76594956D01*
X248806956Y-77231353D01*
X248788778Y-77247829D01*
X248769072Y-77262444D01*
X248748029Y-77275056D01*
X248725850Y-77285546D01*
X248702751Y-77293811D01*
X248678952Y-77299772D01*
X248654684Y-77303372D01*
X248630180Y-77304576D01*
X248605676Y-77303372D01*
X248581408Y-77299772D01*
X248557609Y-77293811D01*
X248534510Y-77285546D01*
X248512331Y-77275056D01*
X248491288Y-77262444D01*
X248471582Y-77247829D01*
X248453404Y-77231353D01*
X247993783Y-76771732D01*
X247977307Y-76753554D01*
X247962692Y-76733848D01*
X247950080Y-76712805D01*
X247939590Y-76690626D01*
X247931325Y-76667527D01*
X247925364Y-76643728D01*
X247921764Y-76619460D01*
X247920560Y-76594956D01*
X247921764Y-76570452D01*
X247925364Y-76546184D01*
X247931325Y-76522385D01*
X247939590Y-76499286D01*
X247950080Y-76477107D01*
X247962692Y-76456064D01*
X247977307Y-76436358D01*
X247993783Y-76418180D01*
X248630180Y-75781783D01*
X248648358Y-75765307D01*
X248668064Y-75750692D01*
X248689107Y-75738080D01*
X248711286Y-75727590D01*
X248734385Y-75719325D01*
X248758184Y-75713364D01*
X248782452Y-75709764D01*
X248806956Y-75708560D01*
X248831460Y-75709764D01*
X248831460Y-75709764D01*
G37*
D26*
X248718568Y-76506568D03*
D22*
G36*
X224368505Y-67119204D02*
G01*
X224392773Y-67122804D01*
X224416572Y-67128765D01*
X224439671Y-67137030D01*
X224461850Y-67147520D01*
X224482893Y-67160132D01*
X224502599Y-67174747D01*
X224520777Y-67191223D01*
X224537253Y-67209401D01*
X224551868Y-67229107D01*
X224564480Y-67250150D01*
X224574970Y-67272329D01*
X224583235Y-67295428D01*
X224589196Y-67319227D01*
X224592796Y-67343495D01*
X224594000Y-67367999D01*
X224594000Y-68268001D01*
X224592796Y-68292505D01*
X224589196Y-68316773D01*
X224583235Y-68340572D01*
X224574970Y-68363671D01*
X224564480Y-68385850D01*
X224551868Y-68406893D01*
X224537253Y-68426599D01*
X224520777Y-68444777D01*
X224502599Y-68461253D01*
X224482893Y-68475868D01*
X224461850Y-68488480D01*
X224439671Y-68498970D01*
X224416572Y-68507235D01*
X224392773Y-68513196D01*
X224368505Y-68516796D01*
X224344001Y-68518000D01*
X223693999Y-68518000D01*
X223669495Y-68516796D01*
X223645227Y-68513196D01*
X223621428Y-68507235D01*
X223598329Y-68498970D01*
X223576150Y-68488480D01*
X223555107Y-68475868D01*
X223535401Y-68461253D01*
X223517223Y-68444777D01*
X223500747Y-68426599D01*
X223486132Y-68406893D01*
X223473520Y-68385850D01*
X223463030Y-68363671D01*
X223454765Y-68340572D01*
X223448804Y-68316773D01*
X223445204Y-68292505D01*
X223444000Y-68268001D01*
X223444000Y-67367999D01*
X223445204Y-67343495D01*
X223448804Y-67319227D01*
X223454765Y-67295428D01*
X223463030Y-67272329D01*
X223473520Y-67250150D01*
X223486132Y-67229107D01*
X223500747Y-67209401D01*
X223517223Y-67191223D01*
X223535401Y-67174747D01*
X223555107Y-67160132D01*
X223576150Y-67147520D01*
X223598329Y-67137030D01*
X223621428Y-67128765D01*
X223645227Y-67122804D01*
X223669495Y-67119204D01*
X223693999Y-67118000D01*
X224344001Y-67118000D01*
X224368505Y-67119204D01*
X224368505Y-67119204D01*
G37*
D26*
X224019000Y-67818000D03*
D22*
G36*
X226418505Y-67119204D02*
G01*
X226442773Y-67122804D01*
X226466572Y-67128765D01*
X226489671Y-67137030D01*
X226511850Y-67147520D01*
X226532893Y-67160132D01*
X226552599Y-67174747D01*
X226570777Y-67191223D01*
X226587253Y-67209401D01*
X226601868Y-67229107D01*
X226614480Y-67250150D01*
X226624970Y-67272329D01*
X226633235Y-67295428D01*
X226639196Y-67319227D01*
X226642796Y-67343495D01*
X226644000Y-67367999D01*
X226644000Y-68268001D01*
X226642796Y-68292505D01*
X226639196Y-68316773D01*
X226633235Y-68340572D01*
X226624970Y-68363671D01*
X226614480Y-68385850D01*
X226601868Y-68406893D01*
X226587253Y-68426599D01*
X226570777Y-68444777D01*
X226552599Y-68461253D01*
X226532893Y-68475868D01*
X226511850Y-68488480D01*
X226489671Y-68498970D01*
X226466572Y-68507235D01*
X226442773Y-68513196D01*
X226418505Y-68516796D01*
X226394001Y-68518000D01*
X225743999Y-68518000D01*
X225719495Y-68516796D01*
X225695227Y-68513196D01*
X225671428Y-68507235D01*
X225648329Y-68498970D01*
X225626150Y-68488480D01*
X225605107Y-68475868D01*
X225585401Y-68461253D01*
X225567223Y-68444777D01*
X225550747Y-68426599D01*
X225536132Y-68406893D01*
X225523520Y-68385850D01*
X225513030Y-68363671D01*
X225504765Y-68340572D01*
X225498804Y-68316773D01*
X225495204Y-68292505D01*
X225494000Y-68268001D01*
X225494000Y-67367999D01*
X225495204Y-67343495D01*
X225498804Y-67319227D01*
X225504765Y-67295428D01*
X225513030Y-67272329D01*
X225523520Y-67250150D01*
X225536132Y-67229107D01*
X225550747Y-67209401D01*
X225567223Y-67191223D01*
X225585401Y-67174747D01*
X225605107Y-67160132D01*
X225626150Y-67147520D01*
X225648329Y-67137030D01*
X225671428Y-67128765D01*
X225695227Y-67122804D01*
X225719495Y-67119204D01*
X225743999Y-67118000D01*
X226394001Y-67118000D01*
X226418505Y-67119204D01*
X226418505Y-67119204D01*
G37*
D26*
X226069000Y-67818000D03*
D10*
X59670000Y-55535000D03*
D11*
X59650000Y-55825000D02*
X59690000Y-55245000D01*
D10*
X59690000Y-55245000D03*
X53995001Y-57055000D03*
D11*
X53340000Y-57785000D02*
X54650002Y-56325000D01*
D10*
X54650000Y-56325000D03*
X49887500Y-37275000D03*
X49232501Y-38005000D03*
D11*
X48577500Y-38735000D02*
X49887502Y-37275000D01*
D10*
X54927500Y-36195000D03*
X54907500Y-36485000D03*
D11*
X54887500Y-36775000D02*
X54927500Y-36195000D01*
D29*
X229131000Y-48768000D03*
X235331000Y-52468000D03*
X229131000Y-52468000D03*
X235331000Y-48768000D03*
D22*
G36*
X224452642Y-69659174D02*
G01*
X224476303Y-69662684D01*
X224499507Y-69668496D01*
X224522029Y-69676554D01*
X224543653Y-69686782D01*
X224564170Y-69699079D01*
X224583383Y-69713329D01*
X224601107Y-69729393D01*
X224617171Y-69747117D01*
X224631421Y-69766330D01*
X224643718Y-69786847D01*
X224653946Y-69808471D01*
X224662004Y-69830993D01*
X224667816Y-69854197D01*
X224671326Y-69877858D01*
X224672500Y-69901750D01*
X224672500Y-70814250D01*
X224671326Y-70838142D01*
X224667816Y-70861803D01*
X224662004Y-70885007D01*
X224653946Y-70907529D01*
X224643718Y-70929153D01*
X224631421Y-70949670D01*
X224617171Y-70968883D01*
X224601107Y-70986607D01*
X224583383Y-71002671D01*
X224564170Y-71016921D01*
X224543653Y-71029218D01*
X224522029Y-71039446D01*
X224499507Y-71047504D01*
X224476303Y-71053316D01*
X224452642Y-71056826D01*
X224428750Y-71058000D01*
X223941250Y-71058000D01*
X223917358Y-71056826D01*
X223893697Y-71053316D01*
X223870493Y-71047504D01*
X223847971Y-71039446D01*
X223826347Y-71029218D01*
X223805830Y-71016921D01*
X223786617Y-71002671D01*
X223768893Y-70986607D01*
X223752829Y-70968883D01*
X223738579Y-70949670D01*
X223726282Y-70929153D01*
X223716054Y-70907529D01*
X223707996Y-70885007D01*
X223702184Y-70861803D01*
X223698674Y-70838142D01*
X223697500Y-70814250D01*
X223697500Y-69901750D01*
X223698674Y-69877858D01*
X223702184Y-69854197D01*
X223707996Y-69830993D01*
X223716054Y-69808471D01*
X223726282Y-69786847D01*
X223738579Y-69766330D01*
X223752829Y-69747117D01*
X223768893Y-69729393D01*
X223786617Y-69713329D01*
X223805830Y-69699079D01*
X223826347Y-69686782D01*
X223847971Y-69676554D01*
X223870493Y-69668496D01*
X223893697Y-69662684D01*
X223917358Y-69659174D01*
X223941250Y-69658000D01*
X224428750Y-69658000D01*
X224452642Y-69659174D01*
X224452642Y-69659174D01*
G37*
D23*
X224185000Y-70358000D03*
D22*
G36*
X226327642Y-69659174D02*
G01*
X226351303Y-69662684D01*
X226374507Y-69668496D01*
X226397029Y-69676554D01*
X226418653Y-69686782D01*
X226439170Y-69699079D01*
X226458383Y-69713329D01*
X226476107Y-69729393D01*
X226492171Y-69747117D01*
X226506421Y-69766330D01*
X226518718Y-69786847D01*
X226528946Y-69808471D01*
X226537004Y-69830993D01*
X226542816Y-69854197D01*
X226546326Y-69877858D01*
X226547500Y-69901750D01*
X226547500Y-70814250D01*
X226546326Y-70838142D01*
X226542816Y-70861803D01*
X226537004Y-70885007D01*
X226528946Y-70907529D01*
X226518718Y-70929153D01*
X226506421Y-70949670D01*
X226492171Y-70968883D01*
X226476107Y-70986607D01*
X226458383Y-71002671D01*
X226439170Y-71016921D01*
X226418653Y-71029218D01*
X226397029Y-71039446D01*
X226374507Y-71047504D01*
X226351303Y-71053316D01*
X226327642Y-71056826D01*
X226303750Y-71058000D01*
X225816250Y-71058000D01*
X225792358Y-71056826D01*
X225768697Y-71053316D01*
X225745493Y-71047504D01*
X225722971Y-71039446D01*
X225701347Y-71029218D01*
X225680830Y-71016921D01*
X225661617Y-71002671D01*
X225643893Y-70986607D01*
X225627829Y-70968883D01*
X225613579Y-70949670D01*
X225601282Y-70929153D01*
X225591054Y-70907529D01*
X225582996Y-70885007D01*
X225577184Y-70861803D01*
X225573674Y-70838142D01*
X225572500Y-70814250D01*
X225572500Y-69901750D01*
X225573674Y-69877858D01*
X225577184Y-69854197D01*
X225582996Y-69830993D01*
X225591054Y-69808471D01*
X225601282Y-69786847D01*
X225613579Y-69766330D01*
X225627829Y-69747117D01*
X225643893Y-69729393D01*
X225661617Y-69713329D01*
X225680830Y-69699079D01*
X225701347Y-69686782D01*
X225722971Y-69676554D01*
X225745493Y-69668496D01*
X225768697Y-69662684D01*
X225792358Y-69659174D01*
X225816250Y-69658000D01*
X226303750Y-69658000D01*
X226327642Y-69659174D01*
X226327642Y-69659174D01*
G37*
D23*
X226060000Y-70358000D03*
D22*
G36*
X252702142Y-46981674D02*
G01*
X252725803Y-46985184D01*
X252749007Y-46990996D01*
X252771529Y-46999054D01*
X252793153Y-47009282D01*
X252813670Y-47021579D01*
X252832883Y-47035829D01*
X252850607Y-47051893D01*
X252866671Y-47069617D01*
X252880921Y-47088830D01*
X252893218Y-47109347D01*
X252903446Y-47130971D01*
X252911504Y-47153493D01*
X252917316Y-47176697D01*
X252920826Y-47200358D01*
X252922000Y-47224250D01*
X252922000Y-47711750D01*
X252920826Y-47735642D01*
X252917316Y-47759303D01*
X252911504Y-47782507D01*
X252903446Y-47805029D01*
X252893218Y-47826653D01*
X252880921Y-47847170D01*
X252866671Y-47866383D01*
X252850607Y-47884107D01*
X252832883Y-47900171D01*
X252813670Y-47914421D01*
X252793153Y-47926718D01*
X252771529Y-47936946D01*
X252749007Y-47945004D01*
X252725803Y-47950816D01*
X252702142Y-47954326D01*
X252678250Y-47955500D01*
X251765750Y-47955500D01*
X251741858Y-47954326D01*
X251718197Y-47950816D01*
X251694993Y-47945004D01*
X251672471Y-47936946D01*
X251650847Y-47926718D01*
X251630330Y-47914421D01*
X251611117Y-47900171D01*
X251593393Y-47884107D01*
X251577329Y-47866383D01*
X251563079Y-47847170D01*
X251550782Y-47826653D01*
X251540554Y-47805029D01*
X251532496Y-47782507D01*
X251526684Y-47759303D01*
X251523174Y-47735642D01*
X251522000Y-47711750D01*
X251522000Y-47224250D01*
X251523174Y-47200358D01*
X251526684Y-47176697D01*
X251532496Y-47153493D01*
X251540554Y-47130971D01*
X251550782Y-47109347D01*
X251563079Y-47088830D01*
X251577329Y-47069617D01*
X251593393Y-47051893D01*
X251611117Y-47035829D01*
X251630330Y-47021579D01*
X251650847Y-47009282D01*
X251672471Y-46999054D01*
X251694993Y-46990996D01*
X251718197Y-46985184D01*
X251741858Y-46981674D01*
X251765750Y-46980500D01*
X252678250Y-46980500D01*
X252702142Y-46981674D01*
X252702142Y-46981674D01*
G37*
D23*
X252222000Y-47468000D03*
D22*
G36*
X252702142Y-45106674D02*
G01*
X252725803Y-45110184D01*
X252749007Y-45115996D01*
X252771529Y-45124054D01*
X252793153Y-45134282D01*
X252813670Y-45146579D01*
X252832883Y-45160829D01*
X252850607Y-45176893D01*
X252866671Y-45194617D01*
X252880921Y-45213830D01*
X252893218Y-45234347D01*
X252903446Y-45255971D01*
X252911504Y-45278493D01*
X252917316Y-45301697D01*
X252920826Y-45325358D01*
X252922000Y-45349250D01*
X252922000Y-45836750D01*
X252920826Y-45860642D01*
X252917316Y-45884303D01*
X252911504Y-45907507D01*
X252903446Y-45930029D01*
X252893218Y-45951653D01*
X252880921Y-45972170D01*
X252866671Y-45991383D01*
X252850607Y-46009107D01*
X252832883Y-46025171D01*
X252813670Y-46039421D01*
X252793153Y-46051718D01*
X252771529Y-46061946D01*
X252749007Y-46070004D01*
X252725803Y-46075816D01*
X252702142Y-46079326D01*
X252678250Y-46080500D01*
X251765750Y-46080500D01*
X251741858Y-46079326D01*
X251718197Y-46075816D01*
X251694993Y-46070004D01*
X251672471Y-46061946D01*
X251650847Y-46051718D01*
X251630330Y-46039421D01*
X251611117Y-46025171D01*
X251593393Y-46009107D01*
X251577329Y-45991383D01*
X251563079Y-45972170D01*
X251550782Y-45951653D01*
X251540554Y-45930029D01*
X251532496Y-45907507D01*
X251526684Y-45884303D01*
X251523174Y-45860642D01*
X251522000Y-45836750D01*
X251522000Y-45349250D01*
X251523174Y-45325358D01*
X251526684Y-45301697D01*
X251532496Y-45278493D01*
X251540554Y-45255971D01*
X251550782Y-45234347D01*
X251563079Y-45213830D01*
X251577329Y-45194617D01*
X251593393Y-45176893D01*
X251611117Y-45160829D01*
X251630330Y-45146579D01*
X251650847Y-45134282D01*
X251672471Y-45124054D01*
X251694993Y-45115996D01*
X251718197Y-45110184D01*
X251741858Y-45106674D01*
X251765750Y-45105500D01*
X252678250Y-45105500D01*
X252702142Y-45106674D01*
X252702142Y-45106674D01*
G37*
D23*
X252222000Y-45593000D03*
D22*
G36*
X255242142Y-46981674D02*
G01*
X255265803Y-46985184D01*
X255289007Y-46990996D01*
X255311529Y-46999054D01*
X255333153Y-47009282D01*
X255353670Y-47021579D01*
X255372883Y-47035829D01*
X255390607Y-47051893D01*
X255406671Y-47069617D01*
X255420921Y-47088830D01*
X255433218Y-47109347D01*
X255443446Y-47130971D01*
X255451504Y-47153493D01*
X255457316Y-47176697D01*
X255460826Y-47200358D01*
X255462000Y-47224250D01*
X255462000Y-47711750D01*
X255460826Y-47735642D01*
X255457316Y-47759303D01*
X255451504Y-47782507D01*
X255443446Y-47805029D01*
X255433218Y-47826653D01*
X255420921Y-47847170D01*
X255406671Y-47866383D01*
X255390607Y-47884107D01*
X255372883Y-47900171D01*
X255353670Y-47914421D01*
X255333153Y-47926718D01*
X255311529Y-47936946D01*
X255289007Y-47945004D01*
X255265803Y-47950816D01*
X255242142Y-47954326D01*
X255218250Y-47955500D01*
X254305750Y-47955500D01*
X254281858Y-47954326D01*
X254258197Y-47950816D01*
X254234993Y-47945004D01*
X254212471Y-47936946D01*
X254190847Y-47926718D01*
X254170330Y-47914421D01*
X254151117Y-47900171D01*
X254133393Y-47884107D01*
X254117329Y-47866383D01*
X254103079Y-47847170D01*
X254090782Y-47826653D01*
X254080554Y-47805029D01*
X254072496Y-47782507D01*
X254066684Y-47759303D01*
X254063174Y-47735642D01*
X254062000Y-47711750D01*
X254062000Y-47224250D01*
X254063174Y-47200358D01*
X254066684Y-47176697D01*
X254072496Y-47153493D01*
X254080554Y-47130971D01*
X254090782Y-47109347D01*
X254103079Y-47088830D01*
X254117329Y-47069617D01*
X254133393Y-47051893D01*
X254151117Y-47035829D01*
X254170330Y-47021579D01*
X254190847Y-47009282D01*
X254212471Y-46999054D01*
X254234993Y-46990996D01*
X254258197Y-46985184D01*
X254281858Y-46981674D01*
X254305750Y-46980500D01*
X255218250Y-46980500D01*
X255242142Y-46981674D01*
X255242142Y-46981674D01*
G37*
D23*
X254762000Y-47468000D03*
D22*
G36*
X255242142Y-45106674D02*
G01*
X255265803Y-45110184D01*
X255289007Y-45115996D01*
X255311529Y-45124054D01*
X255333153Y-45134282D01*
X255353670Y-45146579D01*
X255372883Y-45160829D01*
X255390607Y-45176893D01*
X255406671Y-45194617D01*
X255420921Y-45213830D01*
X255433218Y-45234347D01*
X255443446Y-45255971D01*
X255451504Y-45278493D01*
X255457316Y-45301697D01*
X255460826Y-45325358D01*
X255462000Y-45349250D01*
X255462000Y-45836750D01*
X255460826Y-45860642D01*
X255457316Y-45884303D01*
X255451504Y-45907507D01*
X255443446Y-45930029D01*
X255433218Y-45951653D01*
X255420921Y-45972170D01*
X255406671Y-45991383D01*
X255390607Y-46009107D01*
X255372883Y-46025171D01*
X255353670Y-46039421D01*
X255333153Y-46051718D01*
X255311529Y-46061946D01*
X255289007Y-46070004D01*
X255265803Y-46075816D01*
X255242142Y-46079326D01*
X255218250Y-46080500D01*
X254305750Y-46080500D01*
X254281858Y-46079326D01*
X254258197Y-46075816D01*
X254234993Y-46070004D01*
X254212471Y-46061946D01*
X254190847Y-46051718D01*
X254170330Y-46039421D01*
X254151117Y-46025171D01*
X254133393Y-46009107D01*
X254117329Y-45991383D01*
X254103079Y-45972170D01*
X254090782Y-45951653D01*
X254080554Y-45930029D01*
X254072496Y-45907507D01*
X254066684Y-45884303D01*
X254063174Y-45860642D01*
X254062000Y-45836750D01*
X254062000Y-45349250D01*
X254063174Y-45325358D01*
X254066684Y-45301697D01*
X254072496Y-45278493D01*
X254080554Y-45255971D01*
X254090782Y-45234347D01*
X254103079Y-45213830D01*
X254117329Y-45194617D01*
X254133393Y-45176893D01*
X254151117Y-45160829D01*
X254170330Y-45146579D01*
X254190847Y-45134282D01*
X254212471Y-45124054D01*
X254234993Y-45115996D01*
X254258197Y-45110184D01*
X254281858Y-45106674D01*
X254305750Y-45105500D01*
X255218250Y-45105500D01*
X255242142Y-45106674D01*
X255242142Y-45106674D01*
G37*
D23*
X254762000Y-45593000D03*
D22*
G36*
X254346142Y-65849174D02*
G01*
X254369803Y-65852684D01*
X254393007Y-65858496D01*
X254415529Y-65866554D01*
X254437153Y-65876782D01*
X254457670Y-65889079D01*
X254476883Y-65903329D01*
X254494607Y-65919393D01*
X254510671Y-65937117D01*
X254524921Y-65956330D01*
X254537218Y-65976847D01*
X254547446Y-65998471D01*
X254555504Y-66020993D01*
X254561316Y-66044197D01*
X254564826Y-66067858D01*
X254566000Y-66091750D01*
X254566000Y-67004250D01*
X254564826Y-67028142D01*
X254561316Y-67051803D01*
X254555504Y-67075007D01*
X254547446Y-67097529D01*
X254537218Y-67119153D01*
X254524921Y-67139670D01*
X254510671Y-67158883D01*
X254494607Y-67176607D01*
X254476883Y-67192671D01*
X254457670Y-67206921D01*
X254437153Y-67219218D01*
X254415529Y-67229446D01*
X254393007Y-67237504D01*
X254369803Y-67243316D01*
X254346142Y-67246826D01*
X254322250Y-67248000D01*
X253834750Y-67248000D01*
X253810858Y-67246826D01*
X253787197Y-67243316D01*
X253763993Y-67237504D01*
X253741471Y-67229446D01*
X253719847Y-67219218D01*
X253699330Y-67206921D01*
X253680117Y-67192671D01*
X253662393Y-67176607D01*
X253646329Y-67158883D01*
X253632079Y-67139670D01*
X253619782Y-67119153D01*
X253609554Y-67097529D01*
X253601496Y-67075007D01*
X253595684Y-67051803D01*
X253592174Y-67028142D01*
X253591000Y-67004250D01*
X253591000Y-66091750D01*
X253592174Y-66067858D01*
X253595684Y-66044197D01*
X253601496Y-66020993D01*
X253609554Y-65998471D01*
X253619782Y-65976847D01*
X253632079Y-65956330D01*
X253646329Y-65937117D01*
X253662393Y-65919393D01*
X253680117Y-65903329D01*
X253699330Y-65889079D01*
X253719847Y-65876782D01*
X253741471Y-65866554D01*
X253763993Y-65858496D01*
X253787197Y-65852684D01*
X253810858Y-65849174D01*
X253834750Y-65848000D01*
X254322250Y-65848000D01*
X254346142Y-65849174D01*
X254346142Y-65849174D01*
G37*
D23*
X254078500Y-66548000D03*
D22*
G36*
X256221142Y-65849174D02*
G01*
X256244803Y-65852684D01*
X256268007Y-65858496D01*
X256290529Y-65866554D01*
X256312153Y-65876782D01*
X256332670Y-65889079D01*
X256351883Y-65903329D01*
X256369607Y-65919393D01*
X256385671Y-65937117D01*
X256399921Y-65956330D01*
X256412218Y-65976847D01*
X256422446Y-65998471D01*
X256430504Y-66020993D01*
X256436316Y-66044197D01*
X256439826Y-66067858D01*
X256441000Y-66091750D01*
X256441000Y-67004250D01*
X256439826Y-67028142D01*
X256436316Y-67051803D01*
X256430504Y-67075007D01*
X256422446Y-67097529D01*
X256412218Y-67119153D01*
X256399921Y-67139670D01*
X256385671Y-67158883D01*
X256369607Y-67176607D01*
X256351883Y-67192671D01*
X256332670Y-67206921D01*
X256312153Y-67219218D01*
X256290529Y-67229446D01*
X256268007Y-67237504D01*
X256244803Y-67243316D01*
X256221142Y-67246826D01*
X256197250Y-67248000D01*
X255709750Y-67248000D01*
X255685858Y-67246826D01*
X255662197Y-67243316D01*
X255638993Y-67237504D01*
X255616471Y-67229446D01*
X255594847Y-67219218D01*
X255574330Y-67206921D01*
X255555117Y-67192671D01*
X255537393Y-67176607D01*
X255521329Y-67158883D01*
X255507079Y-67139670D01*
X255494782Y-67119153D01*
X255484554Y-67097529D01*
X255476496Y-67075007D01*
X255470684Y-67051803D01*
X255467174Y-67028142D01*
X255466000Y-67004250D01*
X255466000Y-66091750D01*
X255467174Y-66067858D01*
X255470684Y-66044197D01*
X255476496Y-66020993D01*
X255484554Y-65998471D01*
X255494782Y-65976847D01*
X255507079Y-65956330D01*
X255521329Y-65937117D01*
X255537393Y-65919393D01*
X255555117Y-65903329D01*
X255574330Y-65889079D01*
X255594847Y-65876782D01*
X255616471Y-65866554D01*
X255638993Y-65858496D01*
X255662197Y-65852684D01*
X255685858Y-65849174D01*
X255709750Y-65848000D01*
X256197250Y-65848000D01*
X256221142Y-65849174D01*
X256221142Y-65849174D01*
G37*
D23*
X255953500Y-66548000D03*
D22*
G36*
X250204504Y-44588204D02*
G01*
X250228773Y-44591804D01*
X250252571Y-44597765D01*
X250275671Y-44606030D01*
X250297849Y-44616520D01*
X250318893Y-44629133D01*
X250338598Y-44643747D01*
X250356777Y-44660223D01*
X250373253Y-44678402D01*
X250387867Y-44698107D01*
X250400480Y-44719151D01*
X250410970Y-44741329D01*
X250419235Y-44764429D01*
X250425196Y-44788227D01*
X250428796Y-44812496D01*
X250430000Y-44837000D01*
X250430000Y-45587000D01*
X250428796Y-45611504D01*
X250425196Y-45635773D01*
X250419235Y-45659571D01*
X250410970Y-45682671D01*
X250400480Y-45704849D01*
X250387867Y-45725893D01*
X250373253Y-45745598D01*
X250356777Y-45763777D01*
X250338598Y-45780253D01*
X250318893Y-45794867D01*
X250297849Y-45807480D01*
X250275671Y-45817970D01*
X250252571Y-45826235D01*
X250228773Y-45832196D01*
X250204504Y-45835796D01*
X250180000Y-45837000D01*
X248930000Y-45837000D01*
X248905496Y-45835796D01*
X248881227Y-45832196D01*
X248857429Y-45826235D01*
X248834329Y-45817970D01*
X248812151Y-45807480D01*
X248791107Y-45794867D01*
X248771402Y-45780253D01*
X248753223Y-45763777D01*
X248736747Y-45745598D01*
X248722133Y-45725893D01*
X248709520Y-45704849D01*
X248699030Y-45682671D01*
X248690765Y-45659571D01*
X248684804Y-45635773D01*
X248681204Y-45611504D01*
X248680000Y-45587000D01*
X248680000Y-44837000D01*
X248681204Y-44812496D01*
X248684804Y-44788227D01*
X248690765Y-44764429D01*
X248699030Y-44741329D01*
X248709520Y-44719151D01*
X248722133Y-44698107D01*
X248736747Y-44678402D01*
X248753223Y-44660223D01*
X248771402Y-44643747D01*
X248791107Y-44629133D01*
X248812151Y-44616520D01*
X248834329Y-44606030D01*
X248857429Y-44597765D01*
X248881227Y-44591804D01*
X248905496Y-44588204D01*
X248930000Y-44587000D01*
X250180000Y-44587000D01*
X250204504Y-44588204D01*
X250204504Y-44588204D01*
G37*
D30*
X249555000Y-45212000D03*
D22*
G36*
X250204504Y-47388204D02*
G01*
X250228773Y-47391804D01*
X250252571Y-47397765D01*
X250275671Y-47406030D01*
X250297849Y-47416520D01*
X250318893Y-47429133D01*
X250338598Y-47443747D01*
X250356777Y-47460223D01*
X250373253Y-47478402D01*
X250387867Y-47498107D01*
X250400480Y-47519151D01*
X250410970Y-47541329D01*
X250419235Y-47564429D01*
X250425196Y-47588227D01*
X250428796Y-47612496D01*
X250430000Y-47637000D01*
X250430000Y-48387000D01*
X250428796Y-48411504D01*
X250425196Y-48435773D01*
X250419235Y-48459571D01*
X250410970Y-48482671D01*
X250400480Y-48504849D01*
X250387867Y-48525893D01*
X250373253Y-48545598D01*
X250356777Y-48563777D01*
X250338598Y-48580253D01*
X250318893Y-48594867D01*
X250297849Y-48607480D01*
X250275671Y-48617970D01*
X250252571Y-48626235D01*
X250228773Y-48632196D01*
X250204504Y-48635796D01*
X250180000Y-48637000D01*
X248930000Y-48637000D01*
X248905496Y-48635796D01*
X248881227Y-48632196D01*
X248857429Y-48626235D01*
X248834329Y-48617970D01*
X248812151Y-48607480D01*
X248791107Y-48594867D01*
X248771402Y-48580253D01*
X248753223Y-48563777D01*
X248736747Y-48545598D01*
X248722133Y-48525893D01*
X248709520Y-48504849D01*
X248699030Y-48482671D01*
X248690765Y-48459571D01*
X248684804Y-48435773D01*
X248681204Y-48411504D01*
X248680000Y-48387000D01*
X248680000Y-47637000D01*
X248681204Y-47612496D01*
X248684804Y-47588227D01*
X248690765Y-47564429D01*
X248699030Y-47541329D01*
X248709520Y-47519151D01*
X248722133Y-47498107D01*
X248736747Y-47478402D01*
X248753223Y-47460223D01*
X248771402Y-47443747D01*
X248791107Y-47429133D01*
X248812151Y-47416520D01*
X248834329Y-47406030D01*
X248857429Y-47397765D01*
X248881227Y-47391804D01*
X248905496Y-47388204D01*
X248930000Y-47387000D01*
X250180000Y-47387000D01*
X250204504Y-47388204D01*
X250204504Y-47388204D01*
G37*
D30*
X249555000Y-48012000D03*
D15*
X65087500Y-58737500D03*
X65087500Y-62037500D03*
X44164250Y-58675000D03*
X44164250Y-61975000D03*
X60325000Y-42987500D03*
X60325000Y-39687500D03*
X41275000Y-39625000D03*
X41275000Y-42925000D03*
D31*
X256540000Y-46736000D03*
X261112000Y-48641000D03*
X263017000Y-44450000D03*
X243967000Y-75565000D03*
X243840000Y-72898000D03*
X235476000Y-57168000D03*
X238760000Y-58801000D03*
X227965000Y-68580000D03*
X233553000Y-81407000D03*
X252476000Y-66675000D03*
X246380000Y-65024000D03*
X266758670Y-47406000D03*
X262001000Y-43688000D03*
X252095000Y-41656006D03*
X267589000Y-45720000D03*
X267499000Y-51218000D03*
X42068750Y-80962500D03*
X254793750Y-87090250D03*
X260730995Y-52196995D03*
X244983000Y-43815000D03*
X55245000Y-92456000D03*
X237617000Y-91186000D03*
X236093000Y-34163000D03*
X254127000Y-42799000D03*
X260349998Y-44068998D03*
X252984000Y-43942000D03*
X261366000Y-46228000D03*
X232156000Y-58039000D03*
X230759000Y-58166000D03*
X226314000Y-62611000D03*
X232537000Y-76660548D03*
X239567581Y-77089000D03*
X250952000Y-61722000D03*
X219837000Y-44450000D03*
X221170500Y-61023500D03*
X271907000Y-42164000D03*
X271907000Y-42164000D03*
X246126000Y-47498000D03*
X258826000Y-57531002D03*
X243840000Y-50546000D03*
X211709000Y-82296000D03*
X211931250Y-88106250D03*
X247459499Y-82486499D03*
X251714000Y-90424000D03*
X215900000Y-92075000D03*
X215900000Y-83343750D03*
X77089000Y-92329000D03*
X199231250Y-84137500D03*
X95377000Y-90043000D03*
X195326000Y-91567000D03*
X119062500Y-92075000D03*
X176212500Y-84931250D03*
X171450000Y-95250000D03*
X235204000Y-58928000D03*
X254889000Y-68072000D03*
X256286000Y-61976000D03*
X245872000Y-68834000D03*
X260350000Y-63881000D03*
D32*
X247590919Y-75057000D02*
X247269000Y-75057000D01*
X249319142Y-73328777D02*
X247590919Y-75057000D01*
X240999944Y-72864509D02*
X242049435Y-73914000D01*
X242557435Y-74422000D02*
X244602000Y-74422000D01*
X242049435Y-73914000D02*
X242557435Y-74422000D01*
X244602000Y-74422000D02*
X244983000Y-74041000D01*
X248634365Y-72644000D02*
X249319142Y-73328777D01*
X246380000Y-72644000D02*
X248634365Y-72644000D01*
X244983000Y-74041000D02*
X246380000Y-72644000D01*
D33*
X239775064Y-64897000D02*
X239833218Y-64838846D01*
X235201668Y-62540750D02*
X237557918Y-64897000D01*
X239833218Y-64838846D02*
X240434258Y-64237806D01*
X235767353Y-75692936D02*
X236368393Y-75091896D01*
X233061976Y-69452024D02*
X233205952Y-69596000D01*
X236368393Y-75091896D02*
X236368393Y-72758441D01*
X230676185Y-67066233D02*
X233061976Y-69452024D01*
X237994736Y-71132098D02*
X236368393Y-72758441D01*
X242131315Y-71733138D02*
X241530275Y-71132098D01*
X237994736Y-64900264D02*
X237998000Y-64897000D01*
X237998000Y-64897000D02*
X239775064Y-64897000D01*
X237557918Y-64897000D02*
X237998000Y-64897000D01*
X245872000Y-62865000D02*
X244157500Y-61150500D01*
X245872000Y-63246000D02*
X245872000Y-62865000D01*
X242823064Y-61849000D02*
X240434258Y-64237806D01*
X243459000Y-61849000D02*
X242823064Y-61849000D01*
X244157500Y-61150500D02*
X243459000Y-61849000D01*
D32*
X250521223Y-74275668D02*
X250521223Y-74530858D01*
X250698000Y-74098891D02*
X250521223Y-74275668D01*
X250698000Y-72136000D02*
X250698000Y-74098891D01*
X250874777Y-71959223D02*
X250698000Y-72136000D01*
X250874777Y-71773142D02*
X250874777Y-71959223D01*
D33*
X252875142Y-74530858D02*
X250521223Y-74530858D01*
X255778000Y-71628000D02*
X252875142Y-74530858D01*
X254323316Y-69284316D02*
X255778000Y-70739000D01*
X253168684Y-69284316D02*
X254323316Y-69284316D01*
X255778000Y-70739000D02*
X255778000Y-71628000D01*
X252603000Y-69850000D02*
X253168684Y-69284316D01*
X250521223Y-74703913D02*
X248718568Y-76506568D01*
X250521223Y-74530858D02*
X250521223Y-74703913D01*
X229903952Y-66294000D02*
X230676185Y-67066233D01*
X225171000Y-66294000D02*
X229903952Y-66294000D01*
X224028000Y-67437000D02*
X225171000Y-66294000D01*
X224028000Y-67818000D02*
X224028000Y-67437000D01*
X224019000Y-70192000D02*
X224185000Y-70358000D01*
X224019000Y-67818000D02*
X224019000Y-70192000D01*
X266065000Y-69811000D02*
X266065000Y-68580000D01*
X265137000Y-70739000D02*
X266065000Y-69811000D01*
X255778000Y-70739000D02*
X265137000Y-70739000D01*
X255143000Y-42164000D02*
X256540000Y-43561000D01*
X255143000Y-39243000D02*
X255143000Y-42164000D01*
X255270000Y-39116000D02*
X255143000Y-39243000D01*
X238125000Y-51562000D02*
X235331000Y-48768000D01*
X238125000Y-53213000D02*
X238125000Y-51562000D01*
X236710000Y-54628000D02*
X238125000Y-53213000D01*
X236710000Y-55499000D02*
X236710000Y-54628000D01*
X270207000Y-44247000D02*
X269292000Y-45162000D01*
X270207000Y-44067000D02*
X270207000Y-44247000D01*
X270207000Y-52527000D02*
X269292000Y-51612000D01*
X270207000Y-52707000D02*
X270207000Y-52527000D01*
X256540000Y-43561000D02*
X256540000Y-46736000D01*
X263428000Y-44450000D02*
X264317000Y-45339000D01*
X263017000Y-44450000D02*
X263428000Y-44450000D01*
X270207000Y-44067000D02*
X274387000Y-44067000D01*
X270207000Y-52707000D02*
X274387000Y-52707000D01*
X263906000Y-51786000D02*
X263936000Y-51816000D01*
X263906000Y-51181000D02*
X263906000Y-51786000D01*
X265176000Y-49911000D02*
X263906000Y-51181000D01*
X265176000Y-49784000D02*
X265176000Y-49911000D01*
X262255000Y-49784000D02*
X262255000Y-50135000D01*
X262255000Y-50135000D02*
X263936000Y-51816000D01*
X261112000Y-48641000D02*
X262255000Y-49784000D01*
X241530275Y-71132098D02*
X237994736Y-71132098D01*
X245364000Y-75565000D02*
X244532685Y-75565000D01*
X244532685Y-75565000D02*
X243967000Y-75565000D01*
X246305568Y-76506568D02*
X245364000Y-75565000D01*
X248718568Y-76506568D02*
X246305568Y-76506568D01*
X243296177Y-72898000D02*
X243840000Y-72898000D01*
X242131315Y-71733138D02*
X243296177Y-72898000D01*
X268555000Y-45162000D02*
X269292000Y-45162000D01*
X267208000Y-43815000D02*
X268555000Y-45162000D01*
X265841000Y-43815000D02*
X267208000Y-43815000D01*
X264317000Y-45339000D02*
X265841000Y-43815000D01*
X266827000Y-53340000D02*
X268555000Y-51612000D01*
X268555000Y-51612000D02*
X269292000Y-51612000D01*
X264922000Y-53340000D02*
X266827000Y-53340000D01*
X263936000Y-52354000D02*
X264922000Y-53340000D01*
X263936000Y-51816000D02*
X263936000Y-52354000D01*
X244729000Y-60579000D02*
X244157500Y-61150500D01*
X244729000Y-59436000D02*
X244729000Y-60579000D01*
X247142000Y-57023000D02*
X244729000Y-59436000D01*
X253365000Y-51562000D02*
X248285000Y-51562000D01*
X248285000Y-51562000D02*
X247142000Y-52705000D01*
X247142000Y-52705000D02*
X247142000Y-57023000D01*
X256540000Y-48387000D02*
X253365000Y-51562000D01*
X256540000Y-46736000D02*
X256540000Y-48387000D01*
X232029000Y-84074000D02*
X231775000Y-84074000D01*
X234950000Y-81534000D02*
X232410000Y-84074000D01*
X234950000Y-76581000D02*
X234950000Y-81534000D01*
X232410000Y-84074000D02*
X232029000Y-84074000D01*
X235767353Y-75763647D02*
X234950000Y-76581000D01*
X235767353Y-75692936D02*
X235767353Y-75763647D01*
X252721000Y-69850000D02*
X250825000Y-67954000D01*
X252730000Y-69850000D02*
X252721000Y-69850000D01*
X234442000Y-61781082D02*
X235201668Y-62540750D01*
X234442000Y-61468000D02*
X234442000Y-61781082D01*
X236710000Y-59200000D02*
X234442000Y-61468000D01*
X236710000Y-57168000D02*
X235476000Y-57168000D01*
X236710000Y-55499000D02*
X236710000Y-57168000D01*
X236710000Y-57168000D02*
X236710000Y-59200000D01*
D32*
X253752513Y-71299568D02*
X254052568Y-71299568D01*
X252076858Y-72975223D02*
X253752513Y-71299568D01*
X243053806Y-73787000D02*
X241565629Y-72298823D01*
X252349000Y-71374000D02*
X250444000Y-69469000D01*
X252076858Y-72975223D02*
X252349000Y-72703081D01*
X248539000Y-69469000D02*
X244221000Y-73787000D01*
X252349000Y-72703081D02*
X252349000Y-71374000D01*
X244221000Y-73787000D02*
X243053806Y-73787000D01*
X250444000Y-69469000D02*
X248539000Y-69469000D01*
X242557435Y-63246000D02*
X243822000Y-63246000D01*
X240999944Y-64803491D02*
X242557435Y-63246000D01*
D33*
X238760000Y-56299000D02*
X238760000Y-55499000D01*
X238760000Y-60325000D02*
X238760000Y-59944000D01*
X238760000Y-59944000D02*
X238760000Y-58801000D01*
X238760000Y-58801000D02*
X238760000Y-56299000D01*
X252808500Y-65024000D02*
X254078500Y-66294000D01*
X238760000Y-60325000D02*
X238379000Y-59944000D01*
X238379000Y-59944000D02*
X237109000Y-59944000D01*
X237109000Y-59944000D02*
X235767353Y-61285647D01*
X235767353Y-61285647D02*
X235767353Y-61975064D01*
X238737202Y-62540750D02*
X238760000Y-62517952D01*
X238760000Y-62517952D02*
X238804992Y-62517952D01*
X239522000Y-61087000D02*
X238760000Y-60325000D01*
X238804992Y-62517952D02*
X239522000Y-61800944D01*
X239522000Y-61800944D02*
X239522000Y-61087000D01*
X248412000Y-48006000D02*
X249428000Y-48006000D01*
X240919000Y-55499000D02*
X248412000Y-48006000D01*
X238760000Y-55499000D02*
X240919000Y-55499000D01*
X260604000Y-68580000D02*
X260985000Y-68580000D01*
X257048000Y-65024000D02*
X260604000Y-68580000D01*
X252808500Y-65024000D02*
X257048000Y-65024000D01*
X229661581Y-67183000D02*
X230110499Y-67631918D01*
X226695000Y-67183000D02*
X229661581Y-67183000D01*
X226822000Y-68580000D02*
X226060000Y-67818000D01*
X226060000Y-67818000D02*
X226695000Y-67183000D01*
X227965000Y-68580000D02*
X226822000Y-68580000D01*
X231775000Y-82024000D02*
X232936000Y-82024000D01*
X232936000Y-82024000D02*
X233553000Y-81407000D01*
X251705000Y-65024000D02*
X252808500Y-65024000D01*
X251705000Y-65904000D02*
X250825000Y-65904000D01*
X250825000Y-65904000D02*
X251705000Y-65024000D01*
X252476000Y-66675000D02*
X251705000Y-65904000D01*
X247142000Y-69596000D02*
X250698000Y-66040000D01*
X245110000Y-71882000D02*
X247142000Y-69850000D01*
X243411548Y-71882000D02*
X245110000Y-71882000D01*
X247142000Y-69850000D02*
X247142000Y-69596000D01*
X242697000Y-71167452D02*
X243411548Y-71882000D01*
X246033990Y-64677990D02*
X246380000Y-65024000D01*
X242256816Y-64677990D02*
X246033990Y-64677990D01*
X241565629Y-65369177D02*
X242256816Y-64677990D01*
X231267000Y-78613000D02*
X231267000Y-81280000D01*
X231267000Y-81280000D02*
X231775000Y-81788000D01*
X235201668Y-75186332D02*
X233680000Y-76708000D01*
X233172000Y-77724000D02*
X232156000Y-77724000D01*
X232156000Y-77724000D02*
X231267000Y-78613000D01*
X233680000Y-77216000D02*
X233172000Y-77724000D01*
X233680000Y-76708000D02*
X233680000Y-77216000D01*
X235201668Y-75127250D02*
X235201668Y-75186332D01*
D32*
X36457500Y-36775000D02*
X35837500Y-36775000D01*
X39307500Y-39625000D02*
X36457500Y-36775000D01*
X41275000Y-39625000D02*
X39307500Y-39625000D01*
X136629000Y-42639250D02*
X134818250Y-44450000D01*
X136779000Y-42639250D02*
X136629000Y-42639250D01*
X117884500Y-43083750D02*
X117030500Y-43083750D01*
X119250750Y-44450000D02*
X117884500Y-43083750D01*
X134818250Y-44450000D02*
X119250750Y-44450000D01*
X116880500Y-43083750D02*
X115514250Y-44450000D01*
X117030500Y-43083750D02*
X116880500Y-43083750D01*
X99279000Y-43115500D02*
X98425000Y-43115500D01*
X100613500Y-44450000D02*
X99279000Y-43115500D01*
X115514250Y-44450000D02*
X100613500Y-44450000D01*
X98275000Y-43115500D02*
X96940500Y-44450000D01*
X98425000Y-43115500D02*
X98275000Y-43115500D01*
X81754000Y-44450000D02*
X80229000Y-42925000D01*
X80229000Y-42925000D02*
X79375000Y-42925000D01*
X96940500Y-44450000D02*
X81754000Y-44450000D01*
X61912500Y-44450000D02*
X60325000Y-42862500D01*
X78554000Y-44450000D02*
X61912500Y-44450000D01*
X79375000Y-43629000D02*
X78554000Y-44450000D01*
X79375000Y-42925000D02*
X79375000Y-43629000D01*
X41425000Y-42925000D02*
X42950000Y-44450000D01*
X41275000Y-42925000D02*
X41425000Y-42925000D01*
X59471000Y-42987500D02*
X60325000Y-42987500D01*
X58008500Y-44450000D02*
X59471000Y-42987500D01*
X42950000Y-44450000D02*
X58008500Y-44450000D01*
X230759000Y-66040000D02*
X230781322Y-66040000D01*
X230781322Y-66040000D02*
X231241870Y-66500548D01*
X230124000Y-65405000D02*
X230759000Y-66040000D01*
X136779000Y-42639250D02*
X136779000Y-51562962D01*
X136779000Y-51562962D02*
X150303538Y-65087500D01*
X217932000Y-65405000D02*
X230124000Y-65405000D01*
X217614500Y-65087500D02*
X217932000Y-65405000D01*
X150303538Y-65087500D02*
X217614500Y-65087500D01*
X58420000Y-39687500D02*
X55507500Y-36775000D01*
X55507500Y-36775000D02*
X54887500Y-36775000D01*
X60325000Y-39687500D02*
X58420000Y-39687500D01*
X74526500Y-36775000D02*
X73906500Y-36775000D01*
X77376500Y-39625000D02*
X74526500Y-36775000D01*
X79375000Y-39625000D02*
X77376500Y-39625000D01*
X141137500Y-61848000D02*
X139485500Y-63500000D01*
X141287500Y-61848000D02*
X141137500Y-61848000D01*
X123091500Y-61975000D02*
X122237500Y-61975000D01*
X124616500Y-63500000D02*
X123091500Y-61975000D01*
X139485500Y-63500000D02*
X124616500Y-63500000D01*
X121383500Y-61975000D02*
X119858500Y-63500000D01*
X122237500Y-61975000D02*
X121383500Y-61975000D01*
X104041500Y-62229000D02*
X103187500Y-62229000D01*
X105312500Y-63500000D02*
X104041500Y-62229000D01*
X119858500Y-63500000D02*
X105312500Y-63500000D01*
X103187500Y-62933000D02*
X102620500Y-63500000D01*
X103187500Y-62229000D02*
X103187500Y-62933000D01*
X84991500Y-61975000D02*
X84137500Y-61975000D01*
X86516500Y-63500000D02*
X84991500Y-61975000D01*
X102620500Y-63500000D02*
X86516500Y-63500000D01*
X84137500Y-62679000D02*
X83316500Y-63500000D01*
X84137500Y-61975000D02*
X84137500Y-62679000D01*
X65941500Y-62037500D02*
X65087500Y-62037500D01*
X67404000Y-63500000D02*
X65941500Y-62037500D01*
X83316500Y-63500000D02*
X67404000Y-63500000D01*
X65087500Y-62741500D02*
X64329000Y-63500000D01*
X65087500Y-62037500D02*
X65087500Y-62741500D01*
X46543250Y-63500000D02*
X44955750Y-61912500D01*
X64329000Y-63500000D02*
X46543250Y-63500000D01*
X44226750Y-61912500D02*
X44164250Y-61975000D01*
X44955750Y-61912500D02*
X44226750Y-61912500D01*
X229616000Y-71755000D02*
X230632000Y-70739000D01*
X222885000Y-71755000D02*
X229616000Y-71755000D01*
X217011250Y-65881250D02*
X222885000Y-71755000D01*
X145470750Y-65881250D02*
X217011250Y-65881250D01*
X141437500Y-61848000D02*
X145470750Y-65881250D01*
X141287500Y-61848000D02*
X141437500Y-61848000D01*
X96648000Y-39815500D02*
X93027500Y-36195000D01*
X98425000Y-39815500D02*
X96648000Y-39815500D01*
D33*
X266735000Y-47406000D02*
X266758670Y-47406000D01*
X265457000Y-47625000D02*
X265425000Y-47657000D01*
X266539670Y-47625000D02*
X265457000Y-47625000D01*
X266758670Y-47406000D02*
X266539670Y-47625000D01*
X264554000Y-46736000D02*
X263398000Y-46736000D01*
X262001000Y-44253685D02*
X262001000Y-43688000D01*
X265425000Y-47607000D02*
X264554000Y-46736000D01*
X265425000Y-47657000D02*
X265425000Y-47607000D01*
X263398000Y-46736000D02*
X262001000Y-45339000D01*
X262001000Y-45339000D02*
X262001000Y-44253685D01*
X252095000Y-39370000D02*
X252095000Y-41090321D01*
X251968000Y-39243000D02*
X252095000Y-39370000D01*
X249555000Y-45212000D02*
X252095000Y-42672000D01*
X252095000Y-41090321D02*
X252095000Y-41656006D01*
X252095000Y-42672000D02*
X252095000Y-42221691D01*
X252095000Y-42221691D02*
X252095000Y-41656006D01*
X267806000Y-45937000D02*
X269292000Y-45937000D01*
X267589000Y-45720000D02*
X267806000Y-45937000D01*
X267880000Y-50837000D02*
X267499000Y-51218000D01*
X269292000Y-50837000D02*
X267880000Y-50837000D01*
D32*
X30956250Y-92075000D02*
X30956250Y-95826250D01*
X42068750Y-80962500D02*
X30956250Y-92075000D01*
X254852500Y-95885000D02*
X254852500Y-87149000D01*
X254852500Y-87149000D02*
X254793750Y-87090250D01*
X243459000Y-76454000D02*
X241300000Y-74295000D01*
X247396000Y-78740000D02*
X245110000Y-76454000D01*
X250571000Y-78740000D02*
X247396000Y-78740000D01*
X241300000Y-74295000D02*
X241299064Y-74295000D01*
X251714000Y-77597000D02*
X250571000Y-78740000D01*
X252603000Y-77597000D02*
X251714000Y-77597000D01*
X241299064Y-74295000D02*
X240434258Y-73430194D01*
X245110000Y-76454000D02*
X243459000Y-76454000D01*
X253365000Y-76835000D02*
X252603000Y-77597000D01*
X259461000Y-50927000D02*
X260730995Y-52196995D01*
X259461000Y-48895000D02*
X259461000Y-50927000D01*
X261112000Y-42037000D02*
X258445000Y-44704000D01*
X258445000Y-47879000D02*
X259461000Y-48895000D01*
X258445000Y-44704000D02*
X258445000Y-47879000D01*
X261112000Y-39338250D02*
X261112000Y-42037000D01*
X260508750Y-38735000D02*
X261112000Y-39338250D01*
X29527500Y-38735000D02*
X34988500Y-33274000D01*
X245364000Y-33274000D02*
X247523000Y-35433000D01*
X246126000Y-42672000D02*
X245382999Y-43415001D01*
X247523000Y-38735000D02*
X246126000Y-40132000D01*
X246126000Y-40132000D02*
X246126000Y-42672000D01*
X34988500Y-33274000D02*
X245364000Y-33274000D01*
X247523000Y-35433000D02*
X247523000Y-38735000D01*
X245382999Y-43415001D02*
X244983000Y-43815000D01*
X239522000Y-75912048D02*
X238737202Y-75127250D01*
X241173000Y-77563048D02*
X239522000Y-75912048D01*
X241173000Y-81153000D02*
X241173000Y-77563048D01*
X241935000Y-81915000D02*
X241173000Y-81153000D01*
X50090000Y-95885000D02*
X53519000Y-92456000D01*
X54679315Y-92456000D02*
X55245000Y-92456000D01*
X53519000Y-92456000D02*
X54679315Y-92456000D01*
X50065000Y-95885000D02*
X50090000Y-95885000D01*
X235802500Y-93000500D02*
X237217001Y-91585999D01*
X235802500Y-95885000D02*
X235802500Y-93000500D01*
X237217001Y-91585999D02*
X237617000Y-91186000D01*
X236061250Y-34131250D02*
X53181250Y-34131250D01*
X53181250Y-34131250D02*
X48577500Y-38735000D01*
X236093000Y-34163000D02*
X236061250Y-34131250D01*
X240919000Y-62586864D02*
X240919000Y-57658000D01*
X239868573Y-63672120D02*
X240469613Y-63071080D01*
X240469613Y-63036251D02*
X240919000Y-62586864D01*
X240469613Y-63071080D02*
X240469613Y-63036251D01*
X251968000Y-50800000D02*
X254762000Y-48006000D01*
X247777000Y-50800000D02*
X251968000Y-50800000D01*
X254762000Y-48006000D02*
X254762000Y-47498000D01*
X240919000Y-57658000D02*
X247777000Y-50800000D01*
X270260000Y-48137000D02*
X269292000Y-48137000D01*
X270510000Y-48387000D02*
X270260000Y-48137000D01*
X270271000Y-49137000D02*
X270510000Y-48898000D01*
X270510000Y-48898000D02*
X270510000Y-48387000D01*
X269292000Y-49137000D02*
X270271000Y-49137000D01*
X268050049Y-49114001D02*
X269240000Y-49114001D01*
X267777058Y-48841010D02*
X268050049Y-49114001D01*
X264340990Y-48841010D02*
X267777058Y-48841010D01*
X263525000Y-49657000D02*
X264340990Y-48841010D01*
X263525000Y-49657000D02*
X263525000Y-49607000D01*
X260349998Y-46431998D02*
X260349998Y-44634683D01*
X263525000Y-49607000D02*
X260349998Y-46431998D01*
X260349998Y-44634683D02*
X260349998Y-44068998D01*
X254127000Y-44450000D02*
X254762000Y-45085000D01*
X254762000Y-45085000D02*
X254762000Y-45593000D01*
X254127000Y-41091000D02*
X254127000Y-44450000D01*
X253586000Y-40550000D02*
X254127000Y-41091000D01*
X253586000Y-39171000D02*
X253586000Y-40550000D01*
X251721066Y-50157934D02*
X247530066Y-50157934D01*
X253111000Y-48387000D02*
X253111000Y-48768000D01*
X253111000Y-48768000D02*
X251721066Y-50157934D01*
X247530066Y-50157934D02*
X240284000Y-57404000D01*
X252222000Y-47498000D02*
X253111000Y-48387000D01*
X240284000Y-57404000D02*
X240284000Y-62125322D01*
X239903927Y-62505395D02*
X239302887Y-63106435D01*
X240284000Y-62125322D02*
X239903927Y-62505395D01*
X268347000Y-48637000D02*
X269292000Y-48637000D01*
X267830000Y-48120000D02*
X268347000Y-48637000D01*
X268313000Y-47637000D02*
X267830000Y-48120000D01*
X269292000Y-47637000D02*
X268313000Y-47637000D01*
X267589000Y-48387000D02*
X267843000Y-48133000D01*
X264414000Y-48387000D02*
X267589000Y-48387000D01*
X263652000Y-47625000D02*
X264414000Y-48387000D01*
X263398000Y-47625000D02*
X263652000Y-47625000D01*
X252222000Y-45339000D02*
X252222000Y-45593000D01*
X252984000Y-44577000D02*
X252222000Y-45339000D01*
X252786000Y-40550000D02*
X252984000Y-40748000D01*
X252786000Y-39171000D02*
X252786000Y-40550000D01*
X262795000Y-47657000D02*
X263525000Y-47657000D01*
X261366000Y-46228000D02*
X262795000Y-47657000D01*
X252984000Y-40748000D02*
X252984000Y-40767000D01*
X252984000Y-40767000D02*
X253365000Y-41148000D01*
X253365000Y-41910000D02*
X252984000Y-42291000D01*
X253365000Y-41148000D02*
X253365000Y-41910000D01*
X252984000Y-42291000D02*
X252984000Y-44577000D01*
X229280581Y-70866000D02*
X230110499Y-70036082D01*
X226695000Y-70866000D02*
X229280581Y-70866000D01*
X226187000Y-70358000D02*
X226695000Y-70866000D01*
X233719774Y-62190226D02*
X233386226Y-62190226D01*
X231775000Y-58420000D02*
X232156000Y-58039000D01*
X231775000Y-60579000D02*
X231775000Y-58420000D01*
X233386226Y-62190226D02*
X231775000Y-60579000D01*
X234635983Y-63106435D02*
X233719774Y-62190226D01*
X232156000Y-58039000D02*
X232156000Y-58039000D01*
X230759000Y-58166000D02*
X230759000Y-58166000D01*
X231267000Y-59182000D02*
X230759000Y-58674000D01*
X230759000Y-58674000D02*
X230759000Y-58166000D01*
X231267000Y-60868823D02*
X231267000Y-59182000D01*
X234070297Y-63672120D02*
X231267000Y-60868823D01*
X227203000Y-62611000D02*
X226314000Y-62611000D01*
X227457000Y-62865000D02*
X227203000Y-62611000D01*
X232131806Y-62865000D02*
X227457000Y-62865000D01*
X233504612Y-64237806D02*
X232131806Y-62865000D01*
X226314000Y-62611000D02*
X226314000Y-62611000D01*
X234635983Y-74561565D02*
X232537000Y-76660548D01*
X238171517Y-75692936D02*
X239567581Y-77089000D01*
X250952000Y-61722000D02*
X250952000Y-61722000D01*
X245872000Y-65913000D02*
X245364000Y-65405000D01*
X247015000Y-65913000D02*
X245872000Y-65913000D01*
X247396000Y-65532000D02*
X247015000Y-65913000D01*
X247396000Y-64516000D02*
X247396000Y-65532000D01*
X242661177Y-65405000D02*
X242131315Y-65934862D01*
X250444000Y-62230000D02*
X249682000Y-62230000D01*
X249682000Y-62230000D02*
X247396000Y-64516000D01*
X245364000Y-65405000D02*
X242661177Y-65405000D01*
X250952000Y-61722000D02*
X250444000Y-62230000D01*
X113871750Y-36775000D02*
X112037500Y-36775000D01*
X116880500Y-39783750D02*
X113871750Y-36775000D01*
X117030500Y-39783750D02*
X116880500Y-39783750D01*
X134271750Y-39339250D02*
X131127500Y-36195000D01*
X136779000Y-39339250D02*
X134271750Y-39339250D01*
X150757500Y-36775000D02*
X150137500Y-36775000D01*
X153544000Y-39561500D02*
X150757500Y-36775000D01*
X155225750Y-39561500D02*
X153544000Y-39561500D01*
X212725000Y-43629000D02*
X211904000Y-44450000D01*
X212725000Y-42925000D02*
X212725000Y-43629000D01*
X194529000Y-43210750D02*
X193675000Y-43210750D01*
X195768250Y-44450000D02*
X194529000Y-43210750D01*
X211904000Y-44450000D02*
X195768250Y-44450000D01*
X193675000Y-43914750D02*
X193139750Y-44450000D01*
X193675000Y-43210750D02*
X193675000Y-43914750D01*
X175034500Y-42861500D02*
X174180500Y-42861500D01*
X176623000Y-44450000D02*
X175034500Y-42861500D01*
X193139750Y-44450000D02*
X176623000Y-44450000D01*
X172243750Y-44450000D02*
X173767750Y-42926000D01*
X155225750Y-42861500D02*
X156079750Y-42861500D01*
X157668250Y-44450000D02*
X172243750Y-44450000D01*
X156079750Y-42861500D02*
X157668250Y-44450000D01*
X174116000Y-42926000D02*
X174180500Y-42861500D01*
X173767750Y-42926000D02*
X174116000Y-42926000D01*
X220402685Y-44450000D02*
X219837000Y-44450000D01*
X231775000Y-42925000D02*
X230921000Y-42925000D01*
X218312000Y-42925000D02*
X219437001Y-44050001D01*
X230921000Y-42925000D02*
X229396000Y-44450000D01*
X229396000Y-44450000D02*
X220402685Y-44450000D01*
X212725000Y-42925000D02*
X218312000Y-42925000D01*
X219437001Y-44050001D02*
X219837000Y-44450000D01*
X221570499Y-61423499D02*
X221170500Y-61023500D01*
X223647000Y-63500000D02*
X221570499Y-61423499D01*
X231648000Y-63500000D02*
X223647000Y-63500000D01*
X232791000Y-64643000D02*
X231648000Y-63500000D01*
X231775000Y-43307000D02*
X233932000Y-45464000D01*
X233932000Y-45464000D02*
X235331000Y-45464000D01*
X231775000Y-42925000D02*
X231775000Y-43307000D01*
X235331000Y-45464000D02*
X236185000Y-45464000D01*
X272923000Y-41148000D02*
X272923000Y-40384000D01*
X271907000Y-42164000D02*
X272923000Y-41148000D01*
X236267000Y-45546000D02*
X235204000Y-44483000D01*
X235204000Y-44483000D02*
X235204000Y-43051000D01*
X236185000Y-45464000D02*
X236267000Y-45546000D01*
X244983000Y-47498000D02*
X246126000Y-47498000D01*
X243713000Y-48768000D02*
X244983000Y-47498000D01*
X239489000Y-48768000D02*
X243713000Y-48768000D01*
X236267000Y-45546000D02*
X239489000Y-48768000D01*
X169807500Y-36775000D02*
X169187500Y-36775000D01*
X172594000Y-39561500D02*
X169807500Y-36775000D01*
X174180500Y-39561500D02*
X172594000Y-39561500D01*
X191993250Y-39910750D02*
X188277500Y-36195000D01*
X193675000Y-39910750D02*
X191993250Y-39910750D01*
X210757500Y-39625000D02*
X207327500Y-36195000D01*
X212725000Y-39625000D02*
X210757500Y-39625000D01*
X229088000Y-39625000D02*
X231775000Y-39625000D01*
X226337500Y-36874500D02*
X229088000Y-39625000D01*
X243682501Y-35070001D02*
X245387500Y-36775000D01*
X239180999Y-35070001D02*
X243682501Y-35070001D01*
X235204000Y-39047000D02*
X239180999Y-35070001D01*
X235204000Y-39751000D02*
X235204000Y-39047000D01*
X267747750Y-37084000D02*
X266858750Y-36195000D01*
X272923000Y-37084000D02*
X267747750Y-37084000D01*
X38838750Y-55825000D02*
X38218750Y-55825000D01*
X41688750Y-58675000D02*
X38838750Y-55825000D01*
X44164250Y-58675000D02*
X41688750Y-58675000D01*
X60814999Y-56369999D02*
X59690000Y-55245000D01*
X63182500Y-58737500D02*
X60814999Y-56369999D01*
X65087500Y-58737500D02*
X63182500Y-58737500D01*
X79320000Y-55825000D02*
X78700000Y-55825000D01*
X82170000Y-58675000D02*
X79320000Y-55825000D01*
X84137500Y-58675000D02*
X82170000Y-58675000D01*
X98914999Y-56369999D02*
X97790000Y-55245000D01*
X101474000Y-58929000D02*
X98914999Y-56369999D01*
X103187500Y-58929000D02*
X101474000Y-58929000D01*
X120270000Y-58675000D02*
X116840000Y-55245000D01*
X122237500Y-58675000D02*
X120270000Y-58675000D01*
X136470000Y-55825000D02*
X135850000Y-55825000D01*
X139193000Y-58548000D02*
X136470000Y-55825000D01*
X141287500Y-58548000D02*
X139193000Y-58548000D01*
X154900000Y-55285000D02*
X154900000Y-55825000D01*
X155520000Y-55825000D02*
X154900000Y-55825000D01*
X158432500Y-58737500D02*
X155520000Y-55825000D01*
X160337500Y-58737500D02*
X158432500Y-58737500D01*
X198437500Y-62679000D02*
X197616500Y-63500000D01*
X198437500Y-61975000D02*
X198437500Y-62679000D01*
X180241500Y-61975000D02*
X179387500Y-61975000D01*
X181766500Y-63500000D02*
X180241500Y-61975000D01*
X197616500Y-63500000D02*
X181766500Y-63500000D01*
X180118750Y-61975000D02*
X179387500Y-61975000D01*
X161191500Y-62037500D02*
X162654000Y-63500000D01*
X160337500Y-62037500D02*
X161191500Y-62037500D01*
X178533500Y-61975000D02*
X179387500Y-61975000D01*
X177008500Y-63500000D02*
X178533500Y-61975000D01*
X162654000Y-63500000D02*
X177008500Y-63500000D01*
X199291500Y-61975000D02*
X198437500Y-61975000D01*
X215900000Y-63500000D02*
X200816500Y-63500000D01*
X200816500Y-63500000D02*
X199291500Y-61975000D01*
X217425000Y-61975000D02*
X215900000Y-63500000D01*
X217487500Y-61975000D02*
X217425000Y-61975000D01*
X231521000Y-64516000D02*
X231521000Y-64516936D01*
X231140000Y-64135000D02*
X231521000Y-64516000D01*
X219797500Y-64135000D02*
X231140000Y-64135000D01*
X217637500Y-61975000D02*
X219797500Y-64135000D01*
X231521000Y-64516936D02*
X232373241Y-65369177D01*
X217487500Y-61975000D02*
X217637500Y-61975000D01*
X217552000Y-61975000D02*
X217487500Y-61975000D01*
X222504000Y-57023000D02*
X217552000Y-61975000D01*
X222504000Y-55370000D02*
X222504000Y-57023000D01*
X270764000Y-62103000D02*
X269875000Y-61214000D01*
X269875000Y-59309000D02*
X265176000Y-54610000D01*
X265176000Y-54610000D02*
X261747002Y-54610000D01*
X261747002Y-54610000D02*
X259225999Y-57131003D01*
X259225999Y-57131003D02*
X258826000Y-57531002D01*
X274574000Y-62103000D02*
X270764000Y-62103000D01*
X269875000Y-61214000D02*
X269875000Y-59309000D01*
X258426001Y-57931001D02*
X258826000Y-57531002D01*
X258426001Y-59581999D02*
X258426001Y-57931001D01*
X257683000Y-60325000D02*
X258426001Y-59581999D01*
X255651000Y-60325000D02*
X257683000Y-60325000D01*
X239903000Y-50546000D02*
X243840000Y-50546000D01*
X236474000Y-47117000D02*
X239903000Y-50546000D01*
X220472000Y-52634000D02*
X220472000Y-50038000D01*
X223393000Y-47117000D02*
X236474000Y-47117000D01*
X220472000Y-50038000D02*
X223393000Y-47117000D01*
X222504000Y-54666000D02*
X220472000Y-52634000D01*
X222504000Y-55370000D02*
X222504000Y-54666000D01*
X174570000Y-55825000D02*
X173950000Y-55825000D01*
X177420000Y-58675000D02*
X174570000Y-55825000D01*
X179387500Y-58675000D02*
X177420000Y-58675000D01*
X193620000Y-55825000D02*
X193000000Y-55825000D01*
X196470000Y-58675000D02*
X193620000Y-55825000D01*
X198437500Y-58675000D02*
X196470000Y-58675000D01*
X215520000Y-58675000D02*
X212090000Y-55245000D01*
X217487500Y-58675000D02*
X215520000Y-58675000D01*
X229815000Y-55825000D02*
X231100000Y-55825000D01*
X226060000Y-52070000D02*
X229815000Y-55825000D01*
X222504000Y-52070000D02*
X226060000Y-52070000D01*
X251968000Y-57023000D02*
X250190000Y-55245000D01*
X255524000Y-57023000D02*
X251968000Y-57023000D01*
X269820000Y-55825000D02*
X269200000Y-55825000D01*
X270002000Y-56007000D02*
X269820000Y-55825000D01*
X271852000Y-55825000D02*
X269200000Y-55825000D01*
X274574000Y-58547000D02*
X271852000Y-55825000D01*
X48363750Y-74875000D02*
X47743750Y-74875000D01*
X50928000Y-77439250D02*
X48363750Y-74875000D01*
X54768750Y-77439250D02*
X50928000Y-77439250D01*
X150503750Y-81087500D02*
X149041250Y-82550000D01*
X150653750Y-81087500D02*
X150503750Y-81087500D01*
X132616500Y-81025000D02*
X131762500Y-81025000D01*
X134141500Y-82550000D02*
X132616500Y-81025000D01*
X149041250Y-82550000D02*
X134141500Y-82550000D01*
X131762500Y-81729000D02*
X130941500Y-82550000D01*
X131762500Y-81025000D02*
X131762500Y-81729000D01*
X113566500Y-81025000D02*
X112712500Y-81025000D01*
X115091500Y-82550000D02*
X113566500Y-81025000D01*
X130941500Y-82550000D02*
X115091500Y-82550000D01*
X111858500Y-81025000D02*
X110333500Y-82550000D01*
X112712500Y-81025000D02*
X111858500Y-81025000D01*
X94611750Y-81025000D02*
X93757750Y-81025000D01*
X96136750Y-82550000D02*
X94611750Y-81025000D01*
X110333500Y-82550000D02*
X96136750Y-82550000D01*
X93757750Y-81729000D02*
X92936750Y-82550000D01*
X93757750Y-81025000D02*
X93757750Y-81729000D01*
X75466500Y-81025000D02*
X74612500Y-81025000D01*
X76991500Y-82550000D02*
X75466500Y-81025000D01*
X92936750Y-82550000D02*
X76991500Y-82550000D01*
X74612500Y-81729000D02*
X73791500Y-82550000D01*
X74612500Y-81025000D02*
X74612500Y-81729000D01*
X55622750Y-80739250D02*
X54768750Y-80739250D01*
X57433500Y-82550000D02*
X55622750Y-80739250D01*
X73791500Y-82550000D02*
X57433500Y-82550000D01*
X232791000Y-74143806D02*
X233504612Y-73430194D01*
X149041250Y-82550000D02*
X149225000Y-82550000D01*
X223742250Y-86518750D02*
X229616000Y-80645000D01*
X153193750Y-86518750D02*
X223742250Y-86518750D01*
X149225000Y-82550000D02*
X153193750Y-86518750D01*
X229616000Y-77318806D02*
X232791000Y-74143806D01*
X229616000Y-80645000D02*
X229616000Y-77318806D01*
X72645000Y-77725000D02*
X69215000Y-74295000D01*
X74612500Y-77725000D02*
X72645000Y-77725000D01*
X88845000Y-74875000D02*
X88225000Y-74875000D01*
X91695000Y-77725000D02*
X88845000Y-74875000D01*
X93757750Y-77725000D02*
X91695000Y-77725000D01*
X110745000Y-77725000D02*
X107315000Y-74295000D01*
X112712500Y-77725000D02*
X110745000Y-77725000D01*
X129795000Y-77725000D02*
X126365000Y-74295000D01*
X131762500Y-77725000D02*
X129795000Y-77725000D01*
X146307250Y-74295000D02*
X145415000Y-74295000D01*
X149799750Y-77787500D02*
X146307250Y-74295000D01*
X150653750Y-77787500D02*
X149799750Y-77787500D01*
X165045000Y-74875000D02*
X164425000Y-74875000D01*
X167895000Y-77725000D02*
X165045000Y-74875000D01*
X169862500Y-77725000D02*
X167895000Y-77725000D01*
X207962500Y-81729000D02*
X207141500Y-82550000D01*
X207962500Y-81025000D02*
X207962500Y-81729000D01*
X189766500Y-80231250D02*
X188912500Y-80231250D01*
X192085250Y-82550000D02*
X189766500Y-80231250D01*
X207141500Y-82550000D02*
X192085250Y-82550000D01*
X188912500Y-80231250D02*
X188912500Y-80935250D01*
X188058500Y-80231250D02*
X188912500Y-80231250D01*
X171537500Y-82550000D02*
X185739750Y-82550000D01*
X185739750Y-82550000D02*
X188058500Y-80231250D01*
X170012500Y-81025000D02*
X171537500Y-82550000D01*
X169862500Y-81025000D02*
X170012500Y-81025000D01*
X210438000Y-81025000D02*
X208816500Y-81025000D01*
X208816500Y-81025000D02*
X207962500Y-81025000D01*
X211709000Y-82296000D02*
X210438000Y-81025000D01*
X220726000Y-82296000D02*
X211677250Y-82296000D01*
X221996000Y-81026000D02*
X220726000Y-82296000D01*
X221996000Y-78359000D02*
X221996000Y-81026000D01*
X223775000Y-76580000D02*
X221996000Y-78359000D01*
X224631250Y-76580000D02*
X223775000Y-76580000D01*
X243586000Y-87503000D02*
X249047000Y-87503000D01*
X249901000Y-87503000D02*
X251618750Y-85785250D01*
X211931250Y-88106250D02*
X242982750Y-88106250D01*
X249047000Y-87503000D02*
X249901000Y-87503000D01*
X242982750Y-88106250D02*
X243586000Y-87503000D01*
X240665000Y-74792307D02*
X239868573Y-73995880D01*
X251618750Y-83978750D02*
X244729000Y-77089000D01*
X242951000Y-77089000D02*
X240665000Y-74803000D01*
X240665000Y-74803000D02*
X240665000Y-74792307D01*
X244729000Y-77089000D02*
X242951000Y-77089000D01*
X251618750Y-85785250D02*
X251618750Y-83978750D01*
X260542750Y-83947000D02*
X264258500Y-80231250D01*
X264258500Y-80231250D02*
X265112500Y-80231250D01*
X251714000Y-83947000D02*
X260542750Y-83947000D01*
X251618750Y-84042250D02*
X251714000Y-83947000D01*
X251618750Y-85785250D02*
X251618750Y-84042250D01*
X186151250Y-76931250D02*
X183515000Y-74295000D01*
X188912500Y-76931250D02*
X186151250Y-76931250D01*
X203689999Y-75419999D02*
X202565000Y-74295000D01*
X205995000Y-77725000D02*
X203689999Y-75419999D01*
X207962500Y-77725000D02*
X205995000Y-77725000D01*
X222195000Y-74875000D02*
X221575000Y-74875000D01*
X223170000Y-73280000D02*
X221575000Y-74875000D01*
X224631250Y-73280000D02*
X223170000Y-73280000D01*
X235585000Y-82864010D02*
X235585000Y-84455000D01*
X243223001Y-85579999D02*
X244602000Y-84201000D01*
X237329999Y-85579999D02*
X243223001Y-85579999D01*
X235625000Y-83875000D02*
X237329999Y-85579999D01*
X262351250Y-76931250D02*
X259715000Y-74295000D01*
X265112500Y-76931250D02*
X262351250Y-76931250D01*
X46037500Y-95415500D02*
X43967000Y-93345000D01*
X43967000Y-93345000D02*
X43942000Y-93345000D01*
X46037500Y-96902000D02*
X46037500Y-95415500D01*
X135731250Y-100779000D02*
X134910250Y-101600000D01*
X135731250Y-100075000D02*
X135731250Y-100779000D01*
X112772750Y-100075000D02*
X111918750Y-100075000D01*
X114297750Y-101600000D02*
X112772750Y-100075000D01*
X111064750Y-100075000D02*
X109539750Y-101600000D01*
X111918750Y-100075000D02*
X111064750Y-100075000D01*
X89691500Y-101600000D02*
X88166500Y-100075000D01*
X88166500Y-100075000D02*
X87312500Y-100075000D01*
X109539750Y-101600000D02*
X89691500Y-101600000D01*
X64233500Y-100075000D02*
X62708500Y-101600000D01*
X65087500Y-100075000D02*
X64233500Y-100075000D01*
X46891500Y-100202000D02*
X46037500Y-100202000D01*
X48289500Y-101600000D02*
X46891500Y-100202000D01*
X62708500Y-101600000D02*
X48289500Y-101600000D01*
X134910250Y-101600000D02*
X115887500Y-101600000D01*
X115887500Y-101600000D02*
X114297750Y-101600000D01*
X87312500Y-100779000D02*
X87312500Y-100075000D01*
X86491500Y-101600000D02*
X87312500Y-100779000D01*
X70614000Y-101600000D02*
X86491500Y-101600000D01*
X69089000Y-100075000D02*
X70614000Y-101600000D01*
X65087500Y-100075000D02*
X69089000Y-100075000D01*
X120761125Y-87995125D02*
X115887500Y-92868750D01*
X145605500Y-87312500D02*
X144922875Y-87995125D01*
X144922875Y-87995125D02*
X120761125Y-87995125D01*
X223964500Y-87312500D02*
X145605500Y-87312500D01*
X230378000Y-80899000D02*
X223964500Y-87312500D01*
X115887500Y-92868750D02*
X115887500Y-101600000D01*
X230378000Y-77688177D02*
X230378000Y-80899000D01*
X234070297Y-73995880D02*
X230378000Y-77688177D01*
X63017000Y-93345000D02*
X62992000Y-93345000D01*
X65087500Y-95415500D02*
X63017000Y-93345000D01*
X65087500Y-96775000D02*
X65087500Y-95415500D01*
X84423250Y-94035750D02*
X84423250Y-93345000D01*
X87162500Y-96775000D02*
X84423250Y-94035750D01*
X87312500Y-96775000D02*
X87162500Y-96775000D01*
X108260750Y-93345000D02*
X108235750Y-93345000D01*
X111690750Y-96775000D02*
X108260750Y-93345000D01*
X111918750Y-96775000D02*
X111690750Y-96775000D01*
X135503250Y-96775000D02*
X135731250Y-96775000D01*
X132073250Y-93345000D02*
X135503250Y-96775000D01*
X132048250Y-93345000D02*
X132073250Y-93345000D01*
X158464250Y-102001000D02*
X158464250Y-103505000D01*
X157226000Y-100762750D02*
X158464250Y-102001000D01*
X157226000Y-97663000D02*
X157226000Y-100762750D01*
X155829000Y-96266000D02*
X157226000Y-97663000D01*
X155829000Y-93376750D02*
X155829000Y-96266000D01*
X155860750Y-93345000D02*
X155829000Y-93376750D01*
X158464250Y-104743250D02*
X158464250Y-103505000D01*
X170942000Y-106299000D02*
X160020000Y-106299000D01*
X173990000Y-103251000D02*
X170942000Y-106299000D01*
X160020000Y-106299000D02*
X158464250Y-104743250D01*
X175872000Y-96014000D02*
X173990000Y-97896000D01*
X173990000Y-97896000D02*
X173990000Y-103251000D01*
X176022000Y-96014000D02*
X175872000Y-96014000D01*
X250004000Y-101600000D02*
X237331250Y-101600000D01*
X250825000Y-100779000D02*
X250004000Y-101600000D01*
X231775000Y-96043750D02*
X231775000Y-93725000D01*
X250825000Y-100075000D02*
X250825000Y-100779000D01*
X250975000Y-100075000D02*
X252603000Y-98447000D01*
X250825000Y-100075000D02*
X250975000Y-100075000D01*
X252603000Y-98447000D02*
X252603000Y-91313000D01*
X252603000Y-91313000D02*
X251714000Y-90424000D01*
X269875000Y-100457000D02*
X269875000Y-100076000D01*
X268732000Y-101600000D02*
X269875000Y-100457000D01*
X253204000Y-101600000D02*
X268732000Y-101600000D01*
X251679000Y-100075000D02*
X253204000Y-101600000D01*
X250825000Y-100075000D02*
X251679000Y-100075000D01*
X234616625Y-98885375D02*
X231775000Y-96043750D01*
X237331250Y-101600000D02*
X234616625Y-98885375D01*
X247396000Y-82423000D02*
X247459499Y-82486499D01*
X244348001Y-77724000D02*
X247396000Y-80771999D01*
X247396000Y-80771999D02*
X247396000Y-82423000D01*
X242465322Y-77724000D02*
X244348001Y-77724000D01*
X239302887Y-74561565D02*
X242465322Y-77724000D01*
X213203250Y-105693750D02*
X212725000Y-105693750D01*
X179797000Y-102235000D02*
X176876000Y-99314000D01*
X201168000Y-102235000D02*
X179797000Y-102235000D01*
X204626750Y-105693750D02*
X201168000Y-102235000D01*
X176876000Y-99314000D02*
X176022000Y-99314000D01*
X212725000Y-105693750D02*
X204626750Y-105693750D01*
X237236000Y-101600000D02*
X237363000Y-101600000D01*
X214249000Y-106299000D02*
X232537000Y-106299000D01*
X232537000Y-106299000D02*
X237236000Y-101600000D01*
X213614000Y-105664000D02*
X214249000Y-106299000D01*
X212754750Y-105664000D02*
X213614000Y-105664000D01*
X212725000Y-105693750D02*
X212754750Y-105664000D01*
X212786375Y-102393750D02*
X212725000Y-102393750D01*
X212693250Y-102393750D02*
X212725000Y-102393750D01*
X208248250Y-95599250D02*
X208248250Y-94849000D01*
X210185000Y-97536000D02*
X208248250Y-95599250D01*
X208248250Y-94849000D02*
X208248250Y-93345000D01*
X210185000Y-99853750D02*
X210185000Y-97536000D01*
X212725000Y-102393750D02*
X210185000Y-99853750D01*
X227298250Y-91841000D02*
X227298250Y-93345000D01*
X228714250Y-90425000D02*
X227298250Y-91841000D01*
X231775000Y-90425000D02*
X228714250Y-90425000D01*
X217805000Y-103505000D02*
X217995500Y-103505000D01*
X211931250Y-97631250D02*
X217805000Y-103505000D01*
X225425000Y-90487500D02*
X214030288Y-90487500D01*
X214030288Y-90487500D02*
X211931250Y-92586538D01*
X227298250Y-92360750D02*
X225425000Y-90487500D01*
X211931250Y-92586538D02*
X211931250Y-97631250D01*
X227298250Y-93345000D02*
X227298250Y-92360750D01*
X248754500Y-93345000D02*
X248729500Y-93345000D01*
X250825000Y-95415500D02*
X248754500Y-93345000D01*
X250825000Y-96775000D02*
X250825000Y-95415500D01*
X269875000Y-95415500D02*
X269875000Y-96520000D01*
X267804500Y-93345000D02*
X269875000Y-95415500D01*
X267779500Y-93345000D02*
X267804500Y-93345000D01*
X230981250Y-100906250D02*
X230922500Y-100965000D01*
X230981250Y-97243752D02*
X230981250Y-100906250D01*
X215500001Y-92474999D02*
X215900000Y-92075000D01*
X214371250Y-93603750D02*
X215500001Y-92474999D01*
X214371250Y-95885000D02*
X214371250Y-93603750D01*
X205105000Y-66675000D02*
X215265000Y-76835000D01*
X91925000Y-66675000D02*
X205105000Y-66675000D01*
X83225000Y-75375000D02*
X91925000Y-66675000D01*
X230762249Y-97024751D02*
X230981250Y-97243752D01*
X230574998Y-96837500D02*
X230762249Y-97024751D01*
X229368498Y-95631000D02*
X230762249Y-97024751D01*
X222631000Y-95631000D02*
X229368498Y-95631000D01*
X220091000Y-93091000D02*
X222631000Y-95631000D01*
X216916000Y-93091000D02*
X220091000Y-93091000D01*
X215900000Y-92075000D02*
X216916000Y-93091000D01*
X71496250Y-95885000D02*
X71521250Y-95885000D01*
X75077250Y-92329000D02*
X76523315Y-92329000D01*
X71521250Y-95885000D02*
X75077250Y-92329000D01*
X76523315Y-92329000D02*
X77089000Y-92329000D01*
X230886000Y-71501000D02*
X230886000Y-71374000D01*
X226568000Y-75819000D02*
X230886000Y-71501000D01*
X226568000Y-79629000D02*
X226568000Y-75819000D01*
X222853250Y-83343750D02*
X226568000Y-79629000D01*
X215900000Y-83343750D02*
X222853250Y-83343750D01*
X110181250Y-67468750D02*
X103399999Y-74250001D01*
X189618750Y-67468750D02*
X110181250Y-67468750D01*
X103399999Y-74250001D02*
X102275000Y-75375000D01*
X197525000Y-75375000D02*
X189618750Y-67468750D01*
X95308750Y-95885000D02*
X95308750Y-90111250D01*
X95308750Y-90111250D02*
X95377000Y-90043000D01*
X195326000Y-95880250D02*
X195321250Y-95885000D01*
X195326000Y-91567000D02*
X195326000Y-95880250D01*
X231023693Y-72517000D02*
X231807555Y-71733138D01*
X231013000Y-72517000D02*
X231023693Y-72517000D01*
X227330000Y-79883000D02*
X227330000Y-76200000D01*
X223075500Y-84137500D02*
X227330000Y-79883000D01*
X227330000Y-76200000D02*
X231013000Y-72517000D01*
X199231250Y-84137500D02*
X223075500Y-84137500D01*
X119062500Y-95826250D02*
X119121250Y-95885000D01*
X119062500Y-92075000D02*
X119062500Y-95826250D01*
X171362500Y-68262500D02*
X175387000Y-72287000D01*
X128587500Y-68262500D02*
X171362500Y-68262500D01*
X175387000Y-72287000D02*
X178475000Y-75375000D01*
X120015000Y-76835000D02*
X128587500Y-68262500D01*
X171450000Y-100906250D02*
X171391250Y-100965000D01*
X171450000Y-95250000D02*
X171450000Y-100906250D01*
X135181750Y-89662000D02*
X141404750Y-95885000D01*
X125349000Y-89662000D02*
X135181750Y-89662000D01*
X122936000Y-92075000D02*
X125349000Y-89662000D01*
X141404750Y-95885000D02*
X142933750Y-95885000D01*
X119062500Y-92075000D02*
X122936000Y-92075000D01*
X228092000Y-80137000D02*
X228092000Y-76580064D01*
X223297750Y-84931250D02*
X228092000Y-80137000D01*
X231648000Y-73024064D02*
X232373241Y-72298823D01*
X228092000Y-76580064D02*
X231648000Y-73024064D01*
X176212500Y-84931250D02*
X223297750Y-84931250D01*
X156281250Y-72231250D02*
X158300001Y-74250001D01*
X139065000Y-76041250D02*
X142875000Y-72231250D01*
X158300001Y-74250001D02*
X159425000Y-75375000D01*
X142875000Y-72231250D02*
X156281250Y-72231250D01*
X139065000Y-76835000D02*
X139065000Y-76041250D01*
X228854000Y-76949435D02*
X232283000Y-73520435D01*
X228854000Y-80391000D02*
X228854000Y-76949435D01*
X166687500Y-85725000D02*
X223520000Y-85725000D01*
X159543750Y-75406250D02*
X162054967Y-75406250D01*
X165100000Y-78451283D02*
X165100000Y-84137500D01*
X165100000Y-84137500D02*
X166687500Y-85725000D01*
X162054967Y-75406250D02*
X165100000Y-78451283D01*
X232283000Y-73520435D02*
X232938926Y-72864509D01*
X223520000Y-85725000D02*
X228854000Y-80391000D01*
X158115000Y-76835000D02*
X159543750Y-75406250D01*
X218313000Y-64770000D02*
X230642693Y-64770000D01*
X151606250Y-64293750D02*
X217836750Y-64293750D01*
X230642693Y-64770000D02*
X231807555Y-65934862D01*
X149225000Y-61912500D02*
X151606250Y-64293750D01*
X217836750Y-64293750D02*
X218313000Y-64770000D01*
X149225000Y-58420000D02*
X149225000Y-61912500D01*
X148590000Y-57785000D02*
X149225000Y-58420000D01*
X254889000Y-68072000D02*
X255953500Y-67007500D01*
X255953500Y-67007500D02*
X255953500Y-66294000D01*
X256851685Y-61976000D02*
X256286000Y-61976000D01*
X262001000Y-61976000D02*
X256851685Y-61976000D01*
X266065000Y-66040000D02*
X262001000Y-61976000D01*
X231521000Y-52451000D02*
X229235000Y-52451000D01*
X234442000Y-55372000D02*
X231521000Y-52451000D01*
X234442000Y-58166000D02*
X234442000Y-55372000D01*
X235204000Y-58928000D02*
X234442000Y-58166000D01*
X245872000Y-70104000D02*
X245872000Y-68834000D01*
X244773193Y-71202807D02*
X245872000Y-70104000D01*
X243863725Y-71202807D02*
X244773193Y-71202807D01*
X243262685Y-70601767D02*
X243863725Y-71202807D01*
X260096000Y-63627000D02*
X260350000Y-63881000D01*
X248666000Y-66040000D02*
X248666000Y-64897000D01*
X249936000Y-63627000D02*
X260096000Y-63627000D01*
X247523000Y-67183000D02*
X248666000Y-66040000D01*
X248666000Y-64897000D02*
X249936000Y-63627000D01*
X244602000Y-66421000D02*
X245364000Y-67183000D01*
X243907918Y-66421000D02*
X244602000Y-66421000D01*
X245364000Y-67183000D02*
X247523000Y-67183000D01*
X243262685Y-67066233D02*
X243907918Y-66421000D01*
X263525000Y-64837919D02*
X263525000Y-66040000D01*
X261552081Y-62865000D02*
X263525000Y-64837919D01*
X248031000Y-65786000D02*
X248031000Y-64706500D01*
X247269000Y-66548000D02*
X248031000Y-65786000D01*
X245618000Y-66548000D02*
X247269000Y-66548000D01*
X245056010Y-65986010D02*
X245618000Y-66548000D01*
X249872500Y-62865000D02*
X261552081Y-62865000D01*
X248031000Y-64706500D02*
X249872500Y-62865000D01*
X245056010Y-65966990D02*
X245056010Y-65986010D01*
X243230558Y-65966990D02*
X245056010Y-65966990D01*
X242697000Y-66500548D02*
X243230558Y-65966990D01*
X250063000Y-64262000D02*
X259207000Y-64262000D01*
X259207000Y-64262000D02*
X260985000Y-66040000D01*
X243828371Y-67631918D02*
X244014453Y-67818000D01*
X249301000Y-65024000D02*
X250063000Y-64262000D01*
X247777000Y-67818000D02*
X249301000Y-66294000D01*
X244014453Y-67818000D02*
X247777000Y-67818000D01*
X249301000Y-66294000D02*
X249301000Y-65024000D01*
X269272000Y-47117000D02*
X269292000Y-47137000D01*
X267716000Y-47117000D02*
X269272000Y-47117000D01*
X266192000Y-45593000D02*
X267716000Y-47117000D01*
X266192000Y-45339000D02*
X266192000Y-45593000D01*
X267942000Y-50137000D02*
X269292000Y-50137000D01*
X266690000Y-50137000D02*
X267942000Y-50137000D01*
X266065000Y-50762000D02*
X266690000Y-50137000D01*
X266065000Y-51562000D02*
X266065000Y-50762000D01*
G36*
X236995548Y-62762125D02*
G01*
X237384456Y-63151033D01*
X237481147Y-63230385D01*
X237481625Y-63230640D01*
X237481881Y-63231120D01*
X237561233Y-63327811D01*
X237950141Y-63716719D01*
X238046832Y-63796071D01*
X238047310Y-63796327D01*
X238047566Y-63796805D01*
X238126918Y-63893496D01*
X238515826Y-64282404D01*
X238612517Y-64361756D01*
X238612997Y-64362012D01*
X238613252Y-64362490D01*
X238692604Y-64459181D01*
X239081512Y-64848089D01*
X239178203Y-64927441D01*
X239179288Y-64928021D01*
X239252859Y-65015093D01*
X239383085Y-65015093D01*
X239408215Y-65022716D01*
X239532697Y-65034976D01*
X239648492Y-65023572D01*
X239637088Y-65139367D01*
X239649348Y-65263849D01*
X239656971Y-65288979D01*
X239656971Y-65419205D01*
X239744043Y-65492776D01*
X239744623Y-65493861D01*
X239823975Y-65590552D01*
X240212883Y-65979460D01*
X240309574Y-66058812D01*
X240310052Y-66059067D01*
X240310308Y-66059547D01*
X240389660Y-66156238D01*
X240778568Y-66545146D01*
X240875259Y-66624498D01*
X240875739Y-66624754D01*
X240875994Y-66625232D01*
X240955346Y-66721923D01*
X241344254Y-67110831D01*
X241440945Y-67190183D01*
X241441423Y-67190438D01*
X241441679Y-67190918D01*
X241521031Y-67287609D01*
X241909939Y-67676517D01*
X242006630Y-67755869D01*
X242007108Y-67756125D01*
X242007364Y-67756603D01*
X242086716Y-67853294D01*
X242475624Y-68242202D01*
X242572315Y-68321554D01*
X242572795Y-68321810D01*
X242573050Y-68322288D01*
X242652402Y-68418979D01*
X243041310Y-68807887D01*
X243073129Y-68834000D01*
X243041310Y-68860113D01*
X242652402Y-69249021D01*
X242573050Y-69345712D01*
X242572795Y-69346190D01*
X242572315Y-69346446D01*
X242475624Y-69425798D01*
X242086716Y-69814706D01*
X242007364Y-69911397D01*
X242007108Y-69911875D01*
X242006630Y-69912131D01*
X241909939Y-69991483D01*
X241521031Y-70380391D01*
X241441679Y-70477082D01*
X241441097Y-70478170D01*
X241354028Y-70551739D01*
X241354028Y-70681961D01*
X241346404Y-70707094D01*
X241334144Y-70831576D01*
X241345548Y-70947371D01*
X241229753Y-70935967D01*
X241105271Y-70948227D01*
X241080138Y-70955851D01*
X240949916Y-70955851D01*
X240876347Y-71042920D01*
X240875259Y-71043502D01*
X240778568Y-71122854D01*
X240389660Y-71511762D01*
X240310308Y-71608453D01*
X240310052Y-71608933D01*
X240309574Y-71609188D01*
X240212883Y-71688540D01*
X239823975Y-72077448D01*
X239744623Y-72174139D01*
X239744368Y-72174617D01*
X239743888Y-72174873D01*
X239647197Y-72254225D01*
X239258289Y-72643133D01*
X239178937Y-72739824D01*
X239178681Y-72740304D01*
X239178203Y-72740559D01*
X239081512Y-72819911D01*
X238692604Y-73208819D01*
X238613252Y-73305510D01*
X238612997Y-73305988D01*
X238612517Y-73306244D01*
X238515826Y-73385596D01*
X238126918Y-73774504D01*
X238047566Y-73871195D01*
X238047310Y-73871673D01*
X238046832Y-73871929D01*
X237950141Y-73951281D01*
X237561233Y-74340189D01*
X237481881Y-74436880D01*
X237481625Y-74437360D01*
X237481147Y-74437615D01*
X237384456Y-74516967D01*
X236995548Y-74905875D01*
X236968422Y-74938928D01*
X236948752Y-74915649D01*
X236724245Y-74915649D01*
X236364250Y-75275644D01*
X236354401Y-75265795D01*
X236377637Y-75242559D01*
X236456989Y-75145868D01*
X236515954Y-75035554D01*
X236552264Y-74915856D01*
X236564524Y-74791374D01*
X236552264Y-74666892D01*
X236544640Y-74641759D01*
X236544640Y-74511537D01*
X236457571Y-74437968D01*
X236456989Y-74436880D01*
X236377637Y-74340189D01*
X235988729Y-73951281D01*
X235892038Y-73871929D01*
X235891560Y-73871673D01*
X235891304Y-73871195D01*
X235811952Y-73774504D01*
X235423044Y-73385596D01*
X235326353Y-73306244D01*
X235325873Y-73305988D01*
X235325618Y-73305510D01*
X235246266Y-73208819D01*
X234857358Y-72819911D01*
X234760667Y-72740559D01*
X234760189Y-72740304D01*
X234759933Y-72739824D01*
X234680581Y-72643133D01*
X234291673Y-72254225D01*
X234194982Y-72174873D01*
X234194502Y-72174617D01*
X234194247Y-72174139D01*
X234114895Y-72077448D01*
X233725987Y-71688540D01*
X233629296Y-71609188D01*
X233628818Y-71608933D01*
X233628562Y-71608453D01*
X233549210Y-71511762D01*
X233160302Y-71122854D01*
X233063611Y-71043502D01*
X233063131Y-71043246D01*
X233062876Y-71042768D01*
X232983524Y-70946077D01*
X232594616Y-70557169D01*
X232497925Y-70477817D01*
X232497447Y-70477562D01*
X232497191Y-70477082D01*
X232417839Y-70380391D01*
X232028931Y-69991483D01*
X231932240Y-69912131D01*
X231931762Y-69911875D01*
X231931506Y-69911397D01*
X231852154Y-69814706D01*
X231463246Y-69425798D01*
X231366555Y-69346446D01*
X231366075Y-69346190D01*
X231365820Y-69345712D01*
X231286468Y-69249021D01*
X230897560Y-68860113D01*
X230865741Y-68834000D01*
X230897560Y-68807887D01*
X231286468Y-68418979D01*
X231365820Y-68322288D01*
X231366400Y-68321203D01*
X231453472Y-68247632D01*
X231453472Y-68117406D01*
X231461095Y-68092276D01*
X231473355Y-67967794D01*
X231461951Y-67852000D01*
X231577746Y-67863404D01*
X231702228Y-67851144D01*
X231727361Y-67843520D01*
X231857584Y-67843520D01*
X231931153Y-67756450D01*
X231932240Y-67755869D01*
X232028931Y-67676517D01*
X232417839Y-67287609D01*
X232497191Y-67190918D01*
X232497447Y-67190438D01*
X232497925Y-67190183D01*
X232594616Y-67110831D01*
X232983524Y-66721923D01*
X233062876Y-66625232D01*
X233063131Y-66624754D01*
X233063611Y-66624498D01*
X233160302Y-66545146D01*
X233549210Y-66156238D01*
X233628562Y-66059547D01*
X233628818Y-66059067D01*
X233629296Y-66058812D01*
X233725987Y-65979460D01*
X234114895Y-65590552D01*
X234194247Y-65493861D01*
X234194502Y-65493383D01*
X234194982Y-65493127D01*
X234291673Y-65413775D01*
X234680581Y-65024867D01*
X234759933Y-64928176D01*
X234760189Y-64927696D01*
X234760667Y-64927441D01*
X234857358Y-64848089D01*
X235246266Y-64459181D01*
X235325618Y-64362490D01*
X235325873Y-64362012D01*
X235326353Y-64361756D01*
X235423044Y-64282404D01*
X235811952Y-63893496D01*
X235891304Y-63796805D01*
X235891885Y-63795718D01*
X235978955Y-63722149D01*
X235978955Y-63591926D01*
X235986579Y-63566793D01*
X235998839Y-63442311D01*
X235987435Y-63326516D01*
X236103229Y-63337920D01*
X236227711Y-63325660D01*
X236252841Y-63318037D01*
X236383067Y-63318037D01*
X236456638Y-63230965D01*
X236457723Y-63230385D01*
X236554414Y-63151033D01*
X236943322Y-62762125D01*
X236969435Y-62730306D01*
X236995548Y-62762125D01*
X236995548Y-62762125D01*
G37*
X236995548Y-62762125D02*
X237384456Y-63151033D01*
X237481147Y-63230385D01*
X237481625Y-63230640D01*
X237481881Y-63231120D01*
X237561233Y-63327811D01*
X237950141Y-63716719D01*
X238046832Y-63796071D01*
X238047310Y-63796327D01*
X238047566Y-63796805D01*
X238126918Y-63893496D01*
X238515826Y-64282404D01*
X238612517Y-64361756D01*
X238612997Y-64362012D01*
X238613252Y-64362490D01*
X238692604Y-64459181D01*
X239081512Y-64848089D01*
X239178203Y-64927441D01*
X239179288Y-64928021D01*
X239252859Y-65015093D01*
X239383085Y-65015093D01*
X239408215Y-65022716D01*
X239532697Y-65034976D01*
X239648492Y-65023572D01*
X239637088Y-65139367D01*
X239649348Y-65263849D01*
X239656971Y-65288979D01*
X239656971Y-65419205D01*
X239744043Y-65492776D01*
X239744623Y-65493861D01*
X239823975Y-65590552D01*
X240212883Y-65979460D01*
X240309574Y-66058812D01*
X240310052Y-66059067D01*
X240310308Y-66059547D01*
X240389660Y-66156238D01*
X240778568Y-66545146D01*
X240875259Y-66624498D01*
X240875739Y-66624754D01*
X240875994Y-66625232D01*
X240955346Y-66721923D01*
X241344254Y-67110831D01*
X241440945Y-67190183D01*
X241441423Y-67190438D01*
X241441679Y-67190918D01*
X241521031Y-67287609D01*
X241909939Y-67676517D01*
X242006630Y-67755869D01*
X242007108Y-67756125D01*
X242007364Y-67756603D01*
X242086716Y-67853294D01*
X242475624Y-68242202D01*
X242572315Y-68321554D01*
X242572795Y-68321810D01*
X242573050Y-68322288D01*
X242652402Y-68418979D01*
X243041310Y-68807887D01*
X243073129Y-68834000D01*
X243041310Y-68860113D01*
X242652402Y-69249021D01*
X242573050Y-69345712D01*
X242572795Y-69346190D01*
X242572315Y-69346446D01*
X242475624Y-69425798D01*
X242086716Y-69814706D01*
X242007364Y-69911397D01*
X242007108Y-69911875D01*
X242006630Y-69912131D01*
X241909939Y-69991483D01*
X241521031Y-70380391D01*
X241441679Y-70477082D01*
X241441097Y-70478170D01*
X241354028Y-70551739D01*
X241354028Y-70681961D01*
X241346404Y-70707094D01*
X241334144Y-70831576D01*
X241345548Y-70947371D01*
X241229753Y-70935967D01*
X241105271Y-70948227D01*
X241080138Y-70955851D01*
X240949916Y-70955851D01*
X240876347Y-71042920D01*
X240875259Y-71043502D01*
X240778568Y-71122854D01*
X240389660Y-71511762D01*
X240310308Y-71608453D01*
X240310052Y-71608933D01*
X240309574Y-71609188D01*
X240212883Y-71688540D01*
X239823975Y-72077448D01*
X239744623Y-72174139D01*
X239744368Y-72174617D01*
X239743888Y-72174873D01*
X239647197Y-72254225D01*
X239258289Y-72643133D01*
X239178937Y-72739824D01*
X239178681Y-72740304D01*
X239178203Y-72740559D01*
X239081512Y-72819911D01*
X238692604Y-73208819D01*
X238613252Y-73305510D01*
X238612997Y-73305988D01*
X238612517Y-73306244D01*
X238515826Y-73385596D01*
X238126918Y-73774504D01*
X238047566Y-73871195D01*
X238047310Y-73871673D01*
X238046832Y-73871929D01*
X237950141Y-73951281D01*
X237561233Y-74340189D01*
X237481881Y-74436880D01*
X237481625Y-74437360D01*
X237481147Y-74437615D01*
X237384456Y-74516967D01*
X236995548Y-74905875D01*
X236968422Y-74938928D01*
X236948752Y-74915649D01*
X236724245Y-74915649D01*
X236364250Y-75275644D01*
X236354401Y-75265795D01*
X236377637Y-75242559D01*
X236456989Y-75145868D01*
X236515954Y-75035554D01*
X236552264Y-74915856D01*
X236564524Y-74791374D01*
X236552264Y-74666892D01*
X236544640Y-74641759D01*
X236544640Y-74511537D01*
X236457571Y-74437968D01*
X236456989Y-74436880D01*
X236377637Y-74340189D01*
X235988729Y-73951281D01*
X235892038Y-73871929D01*
X235891560Y-73871673D01*
X235891304Y-73871195D01*
X235811952Y-73774504D01*
X235423044Y-73385596D01*
X235326353Y-73306244D01*
X235325873Y-73305988D01*
X235325618Y-73305510D01*
X235246266Y-73208819D01*
X234857358Y-72819911D01*
X234760667Y-72740559D01*
X234760189Y-72740304D01*
X234759933Y-72739824D01*
X234680581Y-72643133D01*
X234291673Y-72254225D01*
X234194982Y-72174873D01*
X234194502Y-72174617D01*
X234194247Y-72174139D01*
X234114895Y-72077448D01*
X233725987Y-71688540D01*
X233629296Y-71609188D01*
X233628818Y-71608933D01*
X233628562Y-71608453D01*
X233549210Y-71511762D01*
X233160302Y-71122854D01*
X233063611Y-71043502D01*
X233063131Y-71043246D01*
X233062876Y-71042768D01*
X232983524Y-70946077D01*
X232594616Y-70557169D01*
X232497925Y-70477817D01*
X232497447Y-70477562D01*
X232497191Y-70477082D01*
X232417839Y-70380391D01*
X232028931Y-69991483D01*
X231932240Y-69912131D01*
X231931762Y-69911875D01*
X231931506Y-69911397D01*
X231852154Y-69814706D01*
X231463246Y-69425798D01*
X231366555Y-69346446D01*
X231366075Y-69346190D01*
X231365820Y-69345712D01*
X231286468Y-69249021D01*
X230897560Y-68860113D01*
X230865741Y-68834000D01*
X230897560Y-68807887D01*
X231286468Y-68418979D01*
X231365820Y-68322288D01*
X231366400Y-68321203D01*
X231453472Y-68247632D01*
X231453472Y-68117406D01*
X231461095Y-68092276D01*
X231473355Y-67967794D01*
X231461951Y-67852000D01*
X231577746Y-67863404D01*
X231702228Y-67851144D01*
X231727361Y-67843520D01*
X231857584Y-67843520D01*
X231931153Y-67756450D01*
X231932240Y-67755869D01*
X232028931Y-67676517D01*
X232417839Y-67287609D01*
X232497191Y-67190918D01*
X232497447Y-67190438D01*
X232497925Y-67190183D01*
X232594616Y-67110831D01*
X232983524Y-66721923D01*
X233062876Y-66625232D01*
X233063131Y-66624754D01*
X233063611Y-66624498D01*
X233160302Y-66545146D01*
X233549210Y-66156238D01*
X233628562Y-66059547D01*
X233628818Y-66059067D01*
X233629296Y-66058812D01*
X233725987Y-65979460D01*
X234114895Y-65590552D01*
X234194247Y-65493861D01*
X234194502Y-65493383D01*
X234194982Y-65493127D01*
X234291673Y-65413775D01*
X234680581Y-65024867D01*
X234759933Y-64928176D01*
X234760189Y-64927696D01*
X234760667Y-64927441D01*
X234857358Y-64848089D01*
X235246266Y-64459181D01*
X235325618Y-64362490D01*
X235325873Y-64362012D01*
X235326353Y-64361756D01*
X235423044Y-64282404D01*
X235811952Y-63893496D01*
X235891304Y-63796805D01*
X235891885Y-63795718D01*
X235978955Y-63722149D01*
X235978955Y-63591926D01*
X235986579Y-63566793D01*
X235998839Y-63442311D01*
X235987435Y-63326516D01*
X236103229Y-63337920D01*
X236227711Y-63325660D01*
X236252841Y-63318037D01*
X236383067Y-63318037D01*
X236456638Y-63230965D01*
X236457723Y-63230385D01*
X236554414Y-63151033D01*
X236943322Y-62762125D01*
X236969435Y-62730306D01*
X236995548Y-62762125D01*
G36*
X257175000Y-32684823D02*
G01*
X256944890Y-32707487D01*
X256664967Y-32792401D01*
X256406987Y-32930294D01*
X256180867Y-33115866D01*
X255995294Y-33341986D01*
X255857401Y-33599966D01*
X255772487Y-33879889D01*
X255751000Y-34098050D01*
X255751000Y-35243949D01*
X255772487Y-35462110D01*
X255857401Y-35742033D01*
X255995294Y-36000013D01*
X256180866Y-36226134D01*
X256406986Y-36411706D01*
X256664966Y-36549599D01*
X256944889Y-36634513D01*
X257175000Y-36657177D01*
X257175000Y-37184823D01*
X256944890Y-37207487D01*
X256664967Y-37292401D01*
X256406987Y-37430294D01*
X256180867Y-37615866D01*
X256026123Y-37804421D01*
X255970406Y-37697366D01*
X255892123Y-37599807D01*
X255796311Y-37519396D01*
X255686652Y-37459221D01*
X255567361Y-37421596D01*
X255467750Y-37411000D01*
X255309000Y-37569750D01*
X255309000Y-39044000D01*
X255333000Y-39044000D01*
X255333000Y-39298000D01*
X255309000Y-39298000D01*
X255309000Y-39318000D01*
X255274072Y-39318000D01*
X255274072Y-38046000D01*
X255261812Y-37921518D01*
X255225502Y-37801820D01*
X255166537Y-37691506D01*
X255087185Y-37594815D01*
X255063000Y-37574967D01*
X255063000Y-37569750D01*
X254904250Y-37411000D01*
X254804639Y-37421596D01*
X254785266Y-37427706D01*
X254760482Y-37420188D01*
X254636000Y-37407928D01*
X254136000Y-37407928D01*
X254011518Y-37420188D01*
X253986000Y-37427929D01*
X253960482Y-37420188D01*
X253836000Y-37407928D01*
X253336000Y-37407928D01*
X253211518Y-37420188D01*
X253186000Y-37427929D01*
X253160482Y-37420188D01*
X253036000Y-37407928D01*
X252536000Y-37407928D01*
X252411518Y-37420188D01*
X252386000Y-37427929D01*
X252360482Y-37420188D01*
X252236000Y-37407928D01*
X251736000Y-37407928D01*
X251611518Y-37420188D01*
X251491820Y-37456498D01*
X251381506Y-37515463D01*
X251284815Y-37594815D01*
X251205463Y-37691506D01*
X251146498Y-37801820D01*
X251145754Y-37804271D01*
X250991134Y-37615866D01*
X250765014Y-37430294D01*
X250507034Y-37292401D01*
X250227111Y-37207487D01*
X250063000Y-37191323D01*
X250063000Y-36650677D01*
X250227110Y-36634513D01*
X250507033Y-36549599D01*
X250765013Y-36411706D01*
X250991134Y-36226134D01*
X251176706Y-36000014D01*
X251314599Y-35742034D01*
X251399513Y-35462111D01*
X251421000Y-35243950D01*
X251421000Y-34098050D01*
X251399513Y-33879889D01*
X251314599Y-33599966D01*
X251176706Y-33341986D01*
X250991134Y-33115866D01*
X250765014Y-32930294D01*
X250507034Y-32792401D01*
X250227111Y-32707487D01*
X250063000Y-32691323D01*
X250063000Y-32410000D01*
X257175000Y-32410000D01*
X257175000Y-32684823D01*
X257175000Y-32684823D01*
G37*
X257175000Y-32684823D02*
X256944890Y-32707487D01*
X256664967Y-32792401D01*
X256406987Y-32930294D01*
X256180867Y-33115866D01*
X255995294Y-33341986D01*
X255857401Y-33599966D01*
X255772487Y-33879889D01*
X255751000Y-34098050D01*
X255751000Y-35243949D01*
X255772487Y-35462110D01*
X255857401Y-35742033D01*
X255995294Y-36000013D01*
X256180866Y-36226134D01*
X256406986Y-36411706D01*
X256664966Y-36549599D01*
X256944889Y-36634513D01*
X257175000Y-36657177D01*
X257175000Y-37184823D01*
X256944890Y-37207487D01*
X256664967Y-37292401D01*
X256406987Y-37430294D01*
X256180867Y-37615866D01*
X256026123Y-37804421D01*
X255970406Y-37697366D01*
X255892123Y-37599807D01*
X255796311Y-37519396D01*
X255686652Y-37459221D01*
X255567361Y-37421596D01*
X255467750Y-37411000D01*
X255309000Y-37569750D01*
X255309000Y-39044000D01*
X255333000Y-39044000D01*
X255333000Y-39298000D01*
X255309000Y-39298000D01*
X255309000Y-39318000D01*
X255274072Y-39318000D01*
X255274072Y-38046000D01*
X255261812Y-37921518D01*
X255225502Y-37801820D01*
X255166537Y-37691506D01*
X255087185Y-37594815D01*
X255063000Y-37574967D01*
X255063000Y-37569750D01*
X254904250Y-37411000D01*
X254804639Y-37421596D01*
X254785266Y-37427706D01*
X254760482Y-37420188D01*
X254636000Y-37407928D01*
X254136000Y-37407928D01*
X254011518Y-37420188D01*
X253986000Y-37427929D01*
X253960482Y-37420188D01*
X253836000Y-37407928D01*
X253336000Y-37407928D01*
X253211518Y-37420188D01*
X253186000Y-37427929D01*
X253160482Y-37420188D01*
X253036000Y-37407928D01*
X252536000Y-37407928D01*
X252411518Y-37420188D01*
X252386000Y-37427929D01*
X252360482Y-37420188D01*
X252236000Y-37407928D01*
X251736000Y-37407928D01*
X251611518Y-37420188D01*
X251491820Y-37456498D01*
X251381506Y-37515463D01*
X251284815Y-37594815D01*
X251205463Y-37691506D01*
X251146498Y-37801820D01*
X251145754Y-37804271D01*
X250991134Y-37615866D01*
X250765014Y-37430294D01*
X250507034Y-37292401D01*
X250227111Y-37207487D01*
X250063000Y-37191323D01*
X250063000Y-36650677D01*
X250227110Y-36634513D01*
X250507033Y-36549599D01*
X250765013Y-36411706D01*
X250991134Y-36226134D01*
X251176706Y-36000014D01*
X251314599Y-35742034D01*
X251399513Y-35462111D01*
X251421000Y-35243950D01*
X251421000Y-34098050D01*
X251399513Y-33879889D01*
X251314599Y-33599966D01*
X251176706Y-33341986D01*
X250991134Y-33115866D01*
X250765014Y-32930294D01*
X250507034Y-32792401D01*
X250227111Y-32707487D01*
X250063000Y-32691323D01*
X250063000Y-32410000D01*
X257175000Y-32410000D01*
X257175000Y-32684823D01*
G36*
X270334000Y-52578000D02*
G01*
X270080000Y-52578000D01*
X270080000Y-52560000D01*
X270334000Y-52560000D01*
X270334000Y-52578000D01*
X270334000Y-52578000D01*
G37*
X270334000Y-52578000D02*
X270080000Y-52578000D01*
X270080000Y-52560000D01*
X270334000Y-52560000D01*
X270334000Y-52578000D01*
G36*
X272952000Y-44194002D02*
G01*
X273119045Y-44194002D01*
X272992881Y-44368874D01*
X273072724Y-44591976D01*
X273194631Y-44779764D01*
X273350831Y-44940161D01*
X273535322Y-45067003D01*
X273741013Y-45155415D01*
X273960000Y-45202000D01*
X274260000Y-45202000D01*
X274260000Y-44194000D01*
X274240000Y-44194000D01*
X274240000Y-44069000D01*
X274534000Y-44069000D01*
X274534000Y-44194000D01*
X274514000Y-44194000D01*
X274514000Y-45202000D01*
X274814000Y-45202000D01*
X275032987Y-45155415D01*
X275238678Y-45067003D01*
X275423169Y-44940161D01*
X275565000Y-44794519D01*
X275565000Y-51979481D01*
X275423169Y-51833839D01*
X275238678Y-51706997D01*
X275032987Y-51618585D01*
X274814000Y-51572000D01*
X274514000Y-51572000D01*
X274514000Y-52578000D01*
X274260000Y-52578000D01*
X274260000Y-51572000D01*
X273960000Y-51572000D01*
X273741013Y-51618585D01*
X273535322Y-51706997D01*
X273350831Y-51833839D01*
X273194631Y-51994236D01*
X273072724Y-52182024D01*
X272992881Y-52405126D01*
X273117603Y-52578000D01*
X271726397Y-52578000D01*
X271851119Y-52405126D01*
X271771276Y-52182024D01*
X271649369Y-51994236D01*
X271508794Y-51849884D01*
X271587741Y-51731731D01*
X271660108Y-51557022D01*
X271697000Y-51371552D01*
X271697000Y-51182448D01*
X271660108Y-50996978D01*
X271587741Y-50822269D01*
X271482681Y-50665036D01*
X271348964Y-50531319D01*
X271191731Y-50426259D01*
X271017022Y-50353892D01*
X270831552Y-50317000D01*
X270652117Y-50317000D01*
X270655072Y-50287000D01*
X270655072Y-49987000D01*
X270645223Y-49887000D01*
X270654164Y-49796216D01*
X270696392Y-49773645D01*
X270812422Y-49678422D01*
X270836284Y-49649346D01*
X271022347Y-49463283D01*
X271051422Y-49439422D01*
X271146645Y-49323392D01*
X271217402Y-49191015D01*
X271260974Y-49047378D01*
X271272000Y-48935426D01*
X271272000Y-48935424D01*
X271275686Y-48898001D01*
X271272000Y-48860578D01*
X271272000Y-48424422D01*
X271275686Y-48386999D01*
X271271936Y-48348928D01*
X271260974Y-48237622D01*
X271217402Y-48093985D01*
X271146645Y-47961608D01*
X271051422Y-47845578D01*
X271022346Y-47821716D01*
X270825284Y-47624654D01*
X270801422Y-47595578D01*
X270685392Y-47500355D01*
X270654776Y-47483990D01*
X270645223Y-47387000D01*
X270655072Y-47287000D01*
X270655072Y-46987000D01*
X270645223Y-46887000D01*
X270655072Y-46787000D01*
X270655072Y-46487000D01*
X270652117Y-46457000D01*
X270831552Y-46457000D01*
X271017022Y-46420108D01*
X271191731Y-46347741D01*
X271348964Y-46242681D01*
X271482681Y-46108964D01*
X271587741Y-45951731D01*
X271660108Y-45777022D01*
X271697000Y-45591552D01*
X271697000Y-45402448D01*
X271660108Y-45216978D01*
X271587741Y-45042269D01*
X271508794Y-44924116D01*
X271649369Y-44779764D01*
X271771276Y-44591976D01*
X271851119Y-44368874D01*
X271724955Y-44194002D01*
X271892000Y-44194002D01*
X271892000Y-44069000D01*
X272952000Y-44069000D01*
X272952000Y-44194002D01*
X272952000Y-44194002D01*
G37*
X272952000Y-44194002D02*
X273119045Y-44194002D01*
X272992881Y-44368874D01*
X273072724Y-44591976D01*
X273194631Y-44779764D01*
X273350831Y-44940161D01*
X273535322Y-45067003D01*
X273741013Y-45155415D01*
X273960000Y-45202000D01*
X274260000Y-45202000D01*
X274260000Y-44194000D01*
X274240000Y-44194000D01*
X274240000Y-44069000D01*
X274534000Y-44069000D01*
X274534000Y-44194000D01*
X274514000Y-44194000D01*
X274514000Y-45202000D01*
X274814000Y-45202000D01*
X275032987Y-45155415D01*
X275238678Y-45067003D01*
X275423169Y-44940161D01*
X275565000Y-44794519D01*
X275565000Y-51979481D01*
X275423169Y-51833839D01*
X275238678Y-51706997D01*
X275032987Y-51618585D01*
X274814000Y-51572000D01*
X274514000Y-51572000D01*
X274514000Y-52578000D01*
X274260000Y-52578000D01*
X274260000Y-51572000D01*
X273960000Y-51572000D01*
X273741013Y-51618585D01*
X273535322Y-51706997D01*
X273350831Y-51833839D01*
X273194631Y-51994236D01*
X273072724Y-52182024D01*
X272992881Y-52405126D01*
X273117603Y-52578000D01*
X271726397Y-52578000D01*
X271851119Y-52405126D01*
X271771276Y-52182024D01*
X271649369Y-51994236D01*
X271508794Y-51849884D01*
X271587741Y-51731731D01*
X271660108Y-51557022D01*
X271697000Y-51371552D01*
X271697000Y-51182448D01*
X271660108Y-50996978D01*
X271587741Y-50822269D01*
X271482681Y-50665036D01*
X271348964Y-50531319D01*
X271191731Y-50426259D01*
X271017022Y-50353892D01*
X270831552Y-50317000D01*
X270652117Y-50317000D01*
X270655072Y-50287000D01*
X270655072Y-49987000D01*
X270645223Y-49887000D01*
X270654164Y-49796216D01*
X270696392Y-49773645D01*
X270812422Y-49678422D01*
X270836284Y-49649346D01*
X271022347Y-49463283D01*
X271051422Y-49439422D01*
X271146645Y-49323392D01*
X271217402Y-49191015D01*
X271260974Y-49047378D01*
X271272000Y-48935426D01*
X271272000Y-48935424D01*
X271275686Y-48898001D01*
X271272000Y-48860578D01*
X271272000Y-48424422D01*
X271275686Y-48386999D01*
X271271936Y-48348928D01*
X271260974Y-48237622D01*
X271217402Y-48093985D01*
X271146645Y-47961608D01*
X271051422Y-47845578D01*
X271022346Y-47821716D01*
X270825284Y-47624654D01*
X270801422Y-47595578D01*
X270685392Y-47500355D01*
X270654776Y-47483990D01*
X270645223Y-47387000D01*
X270655072Y-47287000D01*
X270655072Y-46987000D01*
X270645223Y-46887000D01*
X270655072Y-46787000D01*
X270655072Y-46487000D01*
X270652117Y-46457000D01*
X270831552Y-46457000D01*
X271017022Y-46420108D01*
X271191731Y-46347741D01*
X271348964Y-46242681D01*
X271482681Y-46108964D01*
X271587741Y-45951731D01*
X271660108Y-45777022D01*
X271697000Y-45591552D01*
X271697000Y-45402448D01*
X271660108Y-45216978D01*
X271587741Y-45042269D01*
X271508794Y-44924116D01*
X271649369Y-44779764D01*
X271771276Y-44591976D01*
X271851119Y-44368874D01*
X271724955Y-44194002D01*
X271892000Y-44194002D01*
X271892000Y-44069000D01*
X272952000Y-44069000D01*
X272952000Y-44194002D01*
G36*
X270354000Y-44194000D02*
G01*
X270334000Y-44194000D01*
X270334000Y-44214000D01*
X270080000Y-44214000D01*
X270080000Y-44194000D01*
X270060000Y-44194000D01*
X270060000Y-44069000D01*
X270354000Y-44069000D01*
X270354000Y-44194000D01*
X270354000Y-44194000D01*
G37*
X270354000Y-44194000D02*
X270334000Y-44194000D01*
X270334000Y-44214000D01*
X270080000Y-44214000D01*
X270080000Y-44194000D01*
X270060000Y-44194000D01*
X270060000Y-44069000D01*
X270354000Y-44069000D01*
X270354000Y-44194000D01*
G36*
X253971795Y-68562256D02*
G01*
X254085063Y-68731774D01*
X254229226Y-68875937D01*
X254398744Y-68989205D01*
X254587102Y-69067226D01*
X254787061Y-69107000D01*
X254990939Y-69107000D01*
X255190898Y-69067226D01*
X255194944Y-69065550D01*
X256667000Y-70537606D01*
X256667000Y-72593004D01*
X255500106Y-73811760D01*
X255384353Y-73763813D01*
X255262446Y-73706901D01*
X255224486Y-73697595D01*
X255188373Y-73682636D01*
X255056388Y-73656382D01*
X254925728Y-73624349D01*
X254886689Y-73622627D01*
X254848345Y-73615000D01*
X254713758Y-73615000D01*
X254579375Y-73609073D01*
X254540753Y-73615000D01*
X254501655Y-73615000D01*
X254369644Y-73641259D01*
X254236697Y-73661661D01*
X254199976Y-73675008D01*
X254161627Y-73682636D01*
X254037269Y-73734147D01*
X253910863Y-73780091D01*
X253877454Y-73800344D01*
X253841327Y-73815308D01*
X253729400Y-73890095D01*
X253614394Y-73959813D01*
X253585578Y-73986195D01*
X253553065Y-74007919D01*
X253457887Y-74103097D01*
X253422758Y-74135258D01*
X253396837Y-74164147D01*
X253307919Y-74253065D01*
X253281273Y-74292943D01*
X251997284Y-75723953D01*
X251843558Y-75933414D01*
X251696901Y-76247556D01*
X251614349Y-76584274D01*
X251602971Y-76842249D01*
X251564622Y-76846026D01*
X251420985Y-76889598D01*
X251288608Y-76960355D01*
X251172578Y-77055578D01*
X251148721Y-77084648D01*
X250255370Y-77978000D01*
X248911086Y-77978000D01*
X248984673Y-77938667D01*
X249081365Y-77859314D01*
X249372111Y-77564223D01*
X249372111Y-77339717D01*
X248718568Y-76686173D01*
X247976636Y-77428105D01*
X247976636Y-77652611D01*
X248178995Y-77859314D01*
X248275686Y-77938667D01*
X248349273Y-77978000D01*
X247711631Y-77978000D01*
X245675284Y-75941654D01*
X245651422Y-75912578D01*
X245535392Y-75817355D01*
X245403015Y-75746598D01*
X245259378Y-75703026D01*
X245147426Y-75692000D01*
X245147423Y-75692000D01*
X245110000Y-75688314D01*
X245072577Y-75692000D01*
X245035606Y-75692000D01*
X244983000Y-75639394D01*
X244983000Y-75082373D01*
X245027392Y-75058645D01*
X245143422Y-74963422D01*
X245167284Y-74934346D01*
X245548279Y-74553351D01*
X246695631Y-73406000D01*
X247762472Y-73406000D01*
X247774091Y-73523970D01*
X247810401Y-73643668D01*
X247850884Y-73719405D01*
X247817491Y-73752797D01*
X247697238Y-73688520D01*
X247530642Y-73637984D01*
X247357388Y-73620920D01*
X247184134Y-73637984D01*
X247017538Y-73688520D01*
X246864002Y-73770587D01*
X246729427Y-73881030D01*
X246093030Y-74517427D01*
X245982587Y-74652002D01*
X245900520Y-74805538D01*
X245849984Y-74972134D01*
X245832920Y-75145388D01*
X245849984Y-75318642D01*
X245900520Y-75485238D01*
X245982587Y-75638774D01*
X246093030Y-75773349D01*
X246552651Y-76232970D01*
X246687226Y-76343413D01*
X246840762Y-76425480D01*
X247007358Y-76476016D01*
X247180612Y-76493080D01*
X247189051Y-76492249D01*
X247178935Y-76594956D01*
X247191195Y-76719438D01*
X247227505Y-76839136D01*
X247286469Y-76949450D01*
X247365822Y-77046141D01*
X247572525Y-77248500D01*
X247797031Y-77248500D01*
X248538963Y-76506568D01*
X248898173Y-76506568D01*
X249551717Y-77160111D01*
X249776223Y-77160111D01*
X250071314Y-76869365D01*
X250150667Y-76772673D01*
X250209631Y-76662359D01*
X250245941Y-76542661D01*
X250258201Y-76418180D01*
X250245941Y-76293698D01*
X250209631Y-76174000D01*
X250150667Y-76063686D01*
X250071314Y-75966995D01*
X250029404Y-75925966D01*
X250096018Y-75980635D01*
X250206333Y-76039599D01*
X250326031Y-76075908D01*
X250450512Y-76088169D01*
X250574994Y-76075908D01*
X250694692Y-76039599D01*
X250805006Y-75980635D01*
X250901697Y-75901282D01*
X251192444Y-75606191D01*
X251192444Y-75381684D01*
X250521223Y-74710463D01*
X249779291Y-75452395D01*
X249779291Y-75676901D01*
X249882525Y-75782173D01*
X249864611Y-75764636D01*
X249640105Y-75764636D01*
X248898173Y-76506568D01*
X248538963Y-76506568D01*
X248524821Y-76492426D01*
X248704426Y-76312821D01*
X248718568Y-76326963D01*
X249460500Y-75585031D01*
X249460500Y-75360525D01*
X249360891Y-75258777D01*
X249375180Y-75272790D01*
X249599686Y-75272790D01*
X250341618Y-74530858D01*
X250327476Y-74516716D01*
X250507081Y-74337111D01*
X250521223Y-74351253D01*
X250535366Y-74337111D01*
X250714971Y-74516716D01*
X250700828Y-74530858D01*
X251372049Y-75202079D01*
X251596556Y-75202079D01*
X251891647Y-74911332D01*
X251971000Y-74814641D01*
X252029964Y-74704327D01*
X252066273Y-74584629D01*
X252072043Y-74526044D01*
X252130629Y-74520274D01*
X252250327Y-74483964D01*
X252360641Y-74424999D01*
X252457332Y-74345647D01*
X253447282Y-73355697D01*
X253526634Y-73259006D01*
X253585599Y-73148692D01*
X253621909Y-73028994D01*
X253634169Y-72904512D01*
X253621909Y-72780030D01*
X253585599Y-72660332D01*
X253575881Y-72642151D01*
X253624330Y-72668048D01*
X253790926Y-72718584D01*
X253964180Y-72735648D01*
X254137434Y-72718584D01*
X254304030Y-72668048D01*
X254457566Y-72585981D01*
X254592141Y-72475538D01*
X255228538Y-71839141D01*
X255338981Y-71704566D01*
X255421048Y-71551030D01*
X255471584Y-71384434D01*
X255488648Y-71211180D01*
X255471584Y-71037926D01*
X255421048Y-70871330D01*
X255338981Y-70717794D01*
X255228538Y-70583219D01*
X254768917Y-70123598D01*
X254634342Y-70013155D01*
X254480806Y-69931088D01*
X254314210Y-69880552D01*
X254140956Y-69863488D01*
X254132517Y-69864319D01*
X254142633Y-69761612D01*
X254130373Y-69637130D01*
X254094063Y-69517432D01*
X254035099Y-69407118D01*
X253955746Y-69310427D01*
X253749043Y-69108068D01*
X253524537Y-69108068D01*
X252782605Y-69850000D01*
X252796748Y-69864143D01*
X252617143Y-70043748D01*
X252603000Y-70029605D01*
X252588858Y-70043748D01*
X252409253Y-69864143D01*
X252423395Y-69850000D01*
X252409252Y-69835858D01*
X252588858Y-69656252D01*
X252603000Y-69670395D01*
X253344932Y-68928463D01*
X253344932Y-68703957D01*
X253142573Y-68497254D01*
X253088650Y-68453000D01*
X253926539Y-68453000D01*
X253971795Y-68562256D01*
X253971795Y-68562256D01*
G37*
X253971795Y-68562256D02*
X254085063Y-68731774D01*
X254229226Y-68875937D01*
X254398744Y-68989205D01*
X254587102Y-69067226D01*
X254787061Y-69107000D01*
X254990939Y-69107000D01*
X255190898Y-69067226D01*
X255194944Y-69065550D01*
X256667000Y-70537606D01*
X256667000Y-72593004D01*
X255500106Y-73811760D01*
X255384353Y-73763813D01*
X255262446Y-73706901D01*
X255224486Y-73697595D01*
X255188373Y-73682636D01*
X255056388Y-73656382D01*
X254925728Y-73624349D01*
X254886689Y-73622627D01*
X254848345Y-73615000D01*
X254713758Y-73615000D01*
X254579375Y-73609073D01*
X254540753Y-73615000D01*
X254501655Y-73615000D01*
X254369644Y-73641259D01*
X254236697Y-73661661D01*
X254199976Y-73675008D01*
X254161627Y-73682636D01*
X254037269Y-73734147D01*
X253910863Y-73780091D01*
X253877454Y-73800344D01*
X253841327Y-73815308D01*
X253729400Y-73890095D01*
X253614394Y-73959813D01*
X253585578Y-73986195D01*
X253553065Y-74007919D01*
X253457887Y-74103097D01*
X253422758Y-74135258D01*
X253396837Y-74164147D01*
X253307919Y-74253065D01*
X253281273Y-74292943D01*
X251997284Y-75723953D01*
X251843558Y-75933414D01*
X251696901Y-76247556D01*
X251614349Y-76584274D01*
X251602971Y-76842249D01*
X251564622Y-76846026D01*
X251420985Y-76889598D01*
X251288608Y-76960355D01*
X251172578Y-77055578D01*
X251148721Y-77084648D01*
X250255370Y-77978000D01*
X248911086Y-77978000D01*
X248984673Y-77938667D01*
X249081365Y-77859314D01*
X249372111Y-77564223D01*
X249372111Y-77339717D01*
X248718568Y-76686173D01*
X247976636Y-77428105D01*
X247976636Y-77652611D01*
X248178995Y-77859314D01*
X248275686Y-77938667D01*
X248349273Y-77978000D01*
X247711631Y-77978000D01*
X245675284Y-75941654D01*
X245651422Y-75912578D01*
X245535392Y-75817355D01*
X245403015Y-75746598D01*
X245259378Y-75703026D01*
X245147426Y-75692000D01*
X245147423Y-75692000D01*
X245110000Y-75688314D01*
X245072577Y-75692000D01*
X245035606Y-75692000D01*
X244983000Y-75639394D01*
X244983000Y-75082373D01*
X245027392Y-75058645D01*
X245143422Y-74963422D01*
X245167284Y-74934346D01*
X245548279Y-74553351D01*
X246695631Y-73406000D01*
X247762472Y-73406000D01*
X247774091Y-73523970D01*
X247810401Y-73643668D01*
X247850884Y-73719405D01*
X247817491Y-73752797D01*
X247697238Y-73688520D01*
X247530642Y-73637984D01*
X247357388Y-73620920D01*
X247184134Y-73637984D01*
X247017538Y-73688520D01*
X246864002Y-73770587D01*
X246729427Y-73881030D01*
X246093030Y-74517427D01*
X245982587Y-74652002D01*
X245900520Y-74805538D01*
X245849984Y-74972134D01*
X245832920Y-75145388D01*
X245849984Y-75318642D01*
X245900520Y-75485238D01*
X245982587Y-75638774D01*
X246093030Y-75773349D01*
X246552651Y-76232970D01*
X246687226Y-76343413D01*
X246840762Y-76425480D01*
X247007358Y-76476016D01*
X247180612Y-76493080D01*
X247189051Y-76492249D01*
X247178935Y-76594956D01*
X247191195Y-76719438D01*
X247227505Y-76839136D01*
X247286469Y-76949450D01*
X247365822Y-77046141D01*
X247572525Y-77248500D01*
X247797031Y-77248500D01*
X248538963Y-76506568D01*
X248898173Y-76506568D01*
X249551717Y-77160111D01*
X249776223Y-77160111D01*
X250071314Y-76869365D01*
X250150667Y-76772673D01*
X250209631Y-76662359D01*
X250245941Y-76542661D01*
X250258201Y-76418180D01*
X250245941Y-76293698D01*
X250209631Y-76174000D01*
X250150667Y-76063686D01*
X250071314Y-75966995D01*
X250029404Y-75925966D01*
X250096018Y-75980635D01*
X250206333Y-76039599D01*
X250326031Y-76075908D01*
X250450512Y-76088169D01*
X250574994Y-76075908D01*
X250694692Y-76039599D01*
X250805006Y-75980635D01*
X250901697Y-75901282D01*
X251192444Y-75606191D01*
X251192444Y-75381684D01*
X250521223Y-74710463D01*
X249779291Y-75452395D01*
X249779291Y-75676901D01*
X249882525Y-75782173D01*
X249864611Y-75764636D01*
X249640105Y-75764636D01*
X248898173Y-76506568D01*
X248538963Y-76506568D01*
X248524821Y-76492426D01*
X248704426Y-76312821D01*
X248718568Y-76326963D01*
X249460500Y-75585031D01*
X249460500Y-75360525D01*
X249360891Y-75258777D01*
X249375180Y-75272790D01*
X249599686Y-75272790D01*
X250341618Y-74530858D01*
X250327476Y-74516716D01*
X250507081Y-74337111D01*
X250521223Y-74351253D01*
X250535366Y-74337111D01*
X250714971Y-74516716D01*
X250700828Y-74530858D01*
X251372049Y-75202079D01*
X251596556Y-75202079D01*
X251891647Y-74911332D01*
X251971000Y-74814641D01*
X252029964Y-74704327D01*
X252066273Y-74584629D01*
X252072043Y-74526044D01*
X252130629Y-74520274D01*
X252250327Y-74483964D01*
X252360641Y-74424999D01*
X252457332Y-74345647D01*
X253447282Y-73355697D01*
X253526634Y-73259006D01*
X253585599Y-73148692D01*
X253621909Y-73028994D01*
X253634169Y-72904512D01*
X253621909Y-72780030D01*
X253585599Y-72660332D01*
X253575881Y-72642151D01*
X253624330Y-72668048D01*
X253790926Y-72718584D01*
X253964180Y-72735648D01*
X254137434Y-72718584D01*
X254304030Y-72668048D01*
X254457566Y-72585981D01*
X254592141Y-72475538D01*
X255228538Y-71839141D01*
X255338981Y-71704566D01*
X255421048Y-71551030D01*
X255471584Y-71384434D01*
X255488648Y-71211180D01*
X255471584Y-71037926D01*
X255421048Y-70871330D01*
X255338981Y-70717794D01*
X255228538Y-70583219D01*
X254768917Y-70123598D01*
X254634342Y-70013155D01*
X254480806Y-69931088D01*
X254314210Y-69880552D01*
X254140956Y-69863488D01*
X254132517Y-69864319D01*
X254142633Y-69761612D01*
X254130373Y-69637130D01*
X254094063Y-69517432D01*
X254035099Y-69407118D01*
X253955746Y-69310427D01*
X253749043Y-69108068D01*
X253524537Y-69108068D01*
X252782605Y-69850000D01*
X252796748Y-69864143D01*
X252617143Y-70043748D01*
X252603000Y-70029605D01*
X252588858Y-70043748D01*
X252409253Y-69864143D01*
X252423395Y-69850000D01*
X252409252Y-69835858D01*
X252588858Y-69656252D01*
X252603000Y-69670395D01*
X253344932Y-68928463D01*
X253344932Y-68703957D01*
X253142573Y-68497254D01*
X253088650Y-68453000D01*
X253926539Y-68453000D01*
X253971795Y-68562256D01*
G36*
X250397915Y-70500546D02*
G01*
X250203556Y-70697809D01*
X250203556Y-70922316D01*
X250874777Y-71593537D01*
X250888920Y-71579395D01*
X251068525Y-71759000D01*
X251054382Y-71773142D01*
X251068525Y-71787285D01*
X250888920Y-71966890D01*
X250874777Y-71952747D01*
X250860635Y-71966890D01*
X250681030Y-71787285D01*
X250695172Y-71773142D01*
X250023951Y-71101921D01*
X249799444Y-71101921D01*
X249504353Y-71392668D01*
X249425000Y-71489359D01*
X249366036Y-71599673D01*
X249329727Y-71719371D01*
X249323957Y-71777956D01*
X249265371Y-71783726D01*
X249145673Y-71820036D01*
X249035359Y-71879001D01*
X248950269Y-71948832D01*
X248927380Y-71936598D01*
X248783743Y-71893026D01*
X248671791Y-71882000D01*
X248671788Y-71882000D01*
X248634365Y-71878314D01*
X248596942Y-71882000D01*
X247203631Y-71882000D01*
X248854631Y-70231000D01*
X250128370Y-70231000D01*
X250397915Y-70500546D01*
X250397915Y-70500546D01*
G37*
X250397915Y-70500546D02*
X250203556Y-70697809D01*
X250203556Y-70922316D01*
X250874777Y-71593537D01*
X250888920Y-71579395D01*
X251068525Y-71759000D01*
X251054382Y-71773142D01*
X251068525Y-71787285D01*
X250888920Y-71966890D01*
X250874777Y-71952747D01*
X250860635Y-71966890D01*
X250681030Y-71787285D01*
X250695172Y-71773142D01*
X250023951Y-71101921D01*
X249799444Y-71101921D01*
X249504353Y-71392668D01*
X249425000Y-71489359D01*
X249366036Y-71599673D01*
X249329727Y-71719371D01*
X249323957Y-71777956D01*
X249265371Y-71783726D01*
X249145673Y-71820036D01*
X249035359Y-71879001D01*
X248950269Y-71948832D01*
X248927380Y-71936598D01*
X248783743Y-71893026D01*
X248671791Y-71882000D01*
X248671788Y-71882000D01*
X248634365Y-71878314D01*
X248596942Y-71882000D01*
X247203631Y-71882000D01*
X248854631Y-70231000D01*
X250128370Y-70231000D01*
X250397915Y-70500546D01*
M02*
