G04 #@! TF.GenerationSoftware,KiCad,Pcbnew,(5.1.4-0-10_14)*
G04 #@! TF.CreationDate,2019-10-06T23:39:38+09:00*
G04 #@! TF.ProjectId,dombrick45,646f6d62-7269-4636-9b34-352e6b696361,rev?*
G04 #@! TF.SameCoordinates,Original*
G04 #@! TF.FileFunction,Copper,L2,Bot*
G04 #@! TF.FilePolarity,Positive*
%FSLAX46Y46*%
G04 Gerber Fmt 4.6, Leading zero omitted, Abs format (unit mm)*
G04 Created by KiCad (PCBNEW (5.1.4-0-10_14)) date 2019-10-06 23:39:38*
%MOMM*%
%LPD*%
G04 APERTURE LIST*
%ADD10O,1.700000X2.700000*%
%ADD11R,0.500000X2.250000*%
%ADD12R,1.400000X1.200000*%
%ADD13C,0.100000*%
%ADD14C,1.150000*%
%ADD15C,2.250000*%
%ADD16C,2.250000*%
%ADD17R,0.550000X1.500000*%
%ADD18R,1.500000X0.550000*%
%ADD19R,1.800000X1.100000*%
%ADD20C,0.975000*%
%ADD21C,1.250000*%
%ADD22R,1.200000X0.900000*%
%ADD23C,0.800000*%
%ADD24C,0.254000*%
%ADD25C,0.381000*%
G04 APERTURE END LIST*
D10*
X67691000Y-73914000D03*
X74991000Y-73914000D03*
X74991000Y-78414000D03*
X67691000Y-78414000D03*
D11*
X69741000Y-78414000D03*
X70541000Y-78414000D03*
X71341000Y-78414000D03*
X72141000Y-78414000D03*
X72941000Y-78414000D03*
D12*
X91281250Y-78468750D03*
X89081250Y-78468750D03*
X89081250Y-80168750D03*
X91281250Y-80168750D03*
D13*
G36*
X81373505Y-97098204D02*
G01*
X81397773Y-97101804D01*
X81421572Y-97107765D01*
X81444671Y-97116030D01*
X81466850Y-97126520D01*
X81487893Y-97139132D01*
X81507599Y-97153747D01*
X81525777Y-97170223D01*
X81542253Y-97188401D01*
X81556868Y-97208107D01*
X81569480Y-97229150D01*
X81579970Y-97251329D01*
X81588235Y-97274428D01*
X81594196Y-97298227D01*
X81597796Y-97322495D01*
X81599000Y-97346999D01*
X81599000Y-97997001D01*
X81597796Y-98021505D01*
X81594196Y-98045773D01*
X81588235Y-98069572D01*
X81579970Y-98092671D01*
X81569480Y-98114850D01*
X81556868Y-98135893D01*
X81542253Y-98155599D01*
X81525777Y-98173777D01*
X81507599Y-98190253D01*
X81487893Y-98204868D01*
X81466850Y-98217480D01*
X81444671Y-98227970D01*
X81421572Y-98236235D01*
X81397773Y-98242196D01*
X81373505Y-98245796D01*
X81349001Y-98247000D01*
X80448999Y-98247000D01*
X80424495Y-98245796D01*
X80400227Y-98242196D01*
X80376428Y-98236235D01*
X80353329Y-98227970D01*
X80331150Y-98217480D01*
X80310107Y-98204868D01*
X80290401Y-98190253D01*
X80272223Y-98173777D01*
X80255747Y-98155599D01*
X80241132Y-98135893D01*
X80228520Y-98114850D01*
X80218030Y-98092671D01*
X80209765Y-98069572D01*
X80203804Y-98045773D01*
X80200204Y-98021505D01*
X80199000Y-97997001D01*
X80199000Y-97346999D01*
X80200204Y-97322495D01*
X80203804Y-97298227D01*
X80209765Y-97274428D01*
X80218030Y-97251329D01*
X80228520Y-97229150D01*
X80241132Y-97208107D01*
X80255747Y-97188401D01*
X80272223Y-97170223D01*
X80290401Y-97153747D01*
X80310107Y-97139132D01*
X80331150Y-97126520D01*
X80353329Y-97116030D01*
X80376428Y-97107765D01*
X80400227Y-97101804D01*
X80424495Y-97098204D01*
X80448999Y-97097000D01*
X81349001Y-97097000D01*
X81373505Y-97098204D01*
X81373505Y-97098204D01*
G37*
D14*
X80899000Y-97672000D03*
D13*
G36*
X81373505Y-95048204D02*
G01*
X81397773Y-95051804D01*
X81421572Y-95057765D01*
X81444671Y-95066030D01*
X81466850Y-95076520D01*
X81487893Y-95089132D01*
X81507599Y-95103747D01*
X81525777Y-95120223D01*
X81542253Y-95138401D01*
X81556868Y-95158107D01*
X81569480Y-95179150D01*
X81579970Y-95201329D01*
X81588235Y-95224428D01*
X81594196Y-95248227D01*
X81597796Y-95272495D01*
X81599000Y-95296999D01*
X81599000Y-95947001D01*
X81597796Y-95971505D01*
X81594196Y-95995773D01*
X81588235Y-96019572D01*
X81579970Y-96042671D01*
X81569480Y-96064850D01*
X81556868Y-96085893D01*
X81542253Y-96105599D01*
X81525777Y-96123777D01*
X81507599Y-96140253D01*
X81487893Y-96154868D01*
X81466850Y-96167480D01*
X81444671Y-96177970D01*
X81421572Y-96186235D01*
X81397773Y-96192196D01*
X81373505Y-96195796D01*
X81349001Y-96197000D01*
X80448999Y-96197000D01*
X80424495Y-96195796D01*
X80400227Y-96192196D01*
X80376428Y-96186235D01*
X80353329Y-96177970D01*
X80331150Y-96167480D01*
X80310107Y-96154868D01*
X80290401Y-96140253D01*
X80272223Y-96123777D01*
X80255747Y-96105599D01*
X80241132Y-96085893D01*
X80228520Y-96064850D01*
X80218030Y-96042671D01*
X80209765Y-96019572D01*
X80203804Y-95995773D01*
X80200204Y-95971505D01*
X80199000Y-95947001D01*
X80199000Y-95296999D01*
X80200204Y-95272495D01*
X80203804Y-95248227D01*
X80209765Y-95224428D01*
X80218030Y-95201329D01*
X80228520Y-95179150D01*
X80241132Y-95158107D01*
X80255747Y-95138401D01*
X80272223Y-95120223D01*
X80290401Y-95103747D01*
X80310107Y-95089132D01*
X80331150Y-95076520D01*
X80353329Y-95066030D01*
X80376428Y-95057765D01*
X80400227Y-95051804D01*
X80424495Y-95048204D01*
X80448999Y-95047000D01*
X81349001Y-95047000D01*
X81373505Y-95048204D01*
X81373505Y-95048204D01*
G37*
D14*
X80899000Y-95622000D03*
D13*
G36*
X100630755Y-86507454D02*
G01*
X100655023Y-86511054D01*
X100678822Y-86517015D01*
X100701921Y-86525280D01*
X100724100Y-86535770D01*
X100745143Y-86548382D01*
X100764849Y-86562997D01*
X100783027Y-86579473D01*
X100799503Y-86597651D01*
X100814118Y-86617357D01*
X100826730Y-86638400D01*
X100837220Y-86660579D01*
X100845485Y-86683678D01*
X100851446Y-86707477D01*
X100855046Y-86731745D01*
X100856250Y-86756249D01*
X100856250Y-87406251D01*
X100855046Y-87430755D01*
X100851446Y-87455023D01*
X100845485Y-87478822D01*
X100837220Y-87501921D01*
X100826730Y-87524100D01*
X100814118Y-87545143D01*
X100799503Y-87564849D01*
X100783027Y-87583027D01*
X100764849Y-87599503D01*
X100745143Y-87614118D01*
X100724100Y-87626730D01*
X100701921Y-87637220D01*
X100678822Y-87645485D01*
X100655023Y-87651446D01*
X100630755Y-87655046D01*
X100606251Y-87656250D01*
X99706249Y-87656250D01*
X99681745Y-87655046D01*
X99657477Y-87651446D01*
X99633678Y-87645485D01*
X99610579Y-87637220D01*
X99588400Y-87626730D01*
X99567357Y-87614118D01*
X99547651Y-87599503D01*
X99529473Y-87583027D01*
X99512997Y-87564849D01*
X99498382Y-87545143D01*
X99485770Y-87524100D01*
X99475280Y-87501921D01*
X99467015Y-87478822D01*
X99461054Y-87455023D01*
X99457454Y-87430755D01*
X99456250Y-87406251D01*
X99456250Y-86756249D01*
X99457454Y-86731745D01*
X99461054Y-86707477D01*
X99467015Y-86683678D01*
X99475280Y-86660579D01*
X99485770Y-86638400D01*
X99498382Y-86617357D01*
X99512997Y-86597651D01*
X99529473Y-86579473D01*
X99547651Y-86562997D01*
X99567357Y-86548382D01*
X99588400Y-86535770D01*
X99610579Y-86525280D01*
X99633678Y-86517015D01*
X99657477Y-86511054D01*
X99681745Y-86507454D01*
X99706249Y-86506250D01*
X100606251Y-86506250D01*
X100630755Y-86507454D01*
X100630755Y-86507454D01*
G37*
D14*
X100156250Y-87081250D03*
D13*
G36*
X100630755Y-88557454D02*
G01*
X100655023Y-88561054D01*
X100678822Y-88567015D01*
X100701921Y-88575280D01*
X100724100Y-88585770D01*
X100745143Y-88598382D01*
X100764849Y-88612997D01*
X100783027Y-88629473D01*
X100799503Y-88647651D01*
X100814118Y-88667357D01*
X100826730Y-88688400D01*
X100837220Y-88710579D01*
X100845485Y-88733678D01*
X100851446Y-88757477D01*
X100855046Y-88781745D01*
X100856250Y-88806249D01*
X100856250Y-89456251D01*
X100855046Y-89480755D01*
X100851446Y-89505023D01*
X100845485Y-89528822D01*
X100837220Y-89551921D01*
X100826730Y-89574100D01*
X100814118Y-89595143D01*
X100799503Y-89614849D01*
X100783027Y-89633027D01*
X100764849Y-89649503D01*
X100745143Y-89664118D01*
X100724100Y-89676730D01*
X100701921Y-89687220D01*
X100678822Y-89695485D01*
X100655023Y-89701446D01*
X100630755Y-89705046D01*
X100606251Y-89706250D01*
X99706249Y-89706250D01*
X99681745Y-89705046D01*
X99657477Y-89701446D01*
X99633678Y-89695485D01*
X99610579Y-89687220D01*
X99588400Y-89676730D01*
X99567357Y-89664118D01*
X99547651Y-89649503D01*
X99529473Y-89633027D01*
X99512997Y-89614849D01*
X99498382Y-89595143D01*
X99485770Y-89574100D01*
X99475280Y-89551921D01*
X99467015Y-89528822D01*
X99461054Y-89505023D01*
X99457454Y-89480755D01*
X99456250Y-89456251D01*
X99456250Y-88806249D01*
X99457454Y-88781745D01*
X99461054Y-88757477D01*
X99467015Y-88733678D01*
X99475280Y-88710579D01*
X99485770Y-88688400D01*
X99498382Y-88667357D01*
X99512997Y-88647651D01*
X99529473Y-88629473D01*
X99547651Y-88612997D01*
X99567357Y-88598382D01*
X99588400Y-88585770D01*
X99610579Y-88575280D01*
X99633678Y-88567015D01*
X99657477Y-88561054D01*
X99681745Y-88557454D01*
X99706249Y-88556250D01*
X100606251Y-88556250D01*
X100630755Y-88557454D01*
X100630755Y-88557454D01*
G37*
D14*
X100156250Y-89131250D03*
D13*
G36*
X83310255Y-81958204D02*
G01*
X83334523Y-81961804D01*
X83358322Y-81967765D01*
X83381421Y-81976030D01*
X83403600Y-81986520D01*
X83424643Y-81999132D01*
X83444349Y-82013747D01*
X83462527Y-82030223D01*
X83479003Y-82048401D01*
X83493618Y-82068107D01*
X83506230Y-82089150D01*
X83516720Y-82111329D01*
X83524985Y-82134428D01*
X83530946Y-82158227D01*
X83534546Y-82182495D01*
X83535750Y-82206999D01*
X83535750Y-82857001D01*
X83534546Y-82881505D01*
X83530946Y-82905773D01*
X83524985Y-82929572D01*
X83516720Y-82952671D01*
X83506230Y-82974850D01*
X83493618Y-82995893D01*
X83479003Y-83015599D01*
X83462527Y-83033777D01*
X83444349Y-83050253D01*
X83424643Y-83064868D01*
X83403600Y-83077480D01*
X83381421Y-83087970D01*
X83358322Y-83096235D01*
X83334523Y-83102196D01*
X83310255Y-83105796D01*
X83285751Y-83107000D01*
X82385749Y-83107000D01*
X82361245Y-83105796D01*
X82336977Y-83102196D01*
X82313178Y-83096235D01*
X82290079Y-83087970D01*
X82267900Y-83077480D01*
X82246857Y-83064868D01*
X82227151Y-83050253D01*
X82208973Y-83033777D01*
X82192497Y-83015599D01*
X82177882Y-82995893D01*
X82165270Y-82974850D01*
X82154780Y-82952671D01*
X82146515Y-82929572D01*
X82140554Y-82905773D01*
X82136954Y-82881505D01*
X82135750Y-82857001D01*
X82135750Y-82206999D01*
X82136954Y-82182495D01*
X82140554Y-82158227D01*
X82146515Y-82134428D01*
X82154780Y-82111329D01*
X82165270Y-82089150D01*
X82177882Y-82068107D01*
X82192497Y-82048401D01*
X82208973Y-82030223D01*
X82227151Y-82013747D01*
X82246857Y-81999132D01*
X82267900Y-81986520D01*
X82290079Y-81976030D01*
X82313178Y-81967765D01*
X82336977Y-81961804D01*
X82361245Y-81958204D01*
X82385749Y-81957000D01*
X83285751Y-81957000D01*
X83310255Y-81958204D01*
X83310255Y-81958204D01*
G37*
D14*
X82835750Y-82532000D03*
D13*
G36*
X83310255Y-84008204D02*
G01*
X83334523Y-84011804D01*
X83358322Y-84017765D01*
X83381421Y-84026030D01*
X83403600Y-84036520D01*
X83424643Y-84049132D01*
X83444349Y-84063747D01*
X83462527Y-84080223D01*
X83479003Y-84098401D01*
X83493618Y-84118107D01*
X83506230Y-84139150D01*
X83516720Y-84161329D01*
X83524985Y-84184428D01*
X83530946Y-84208227D01*
X83534546Y-84232495D01*
X83535750Y-84256999D01*
X83535750Y-84907001D01*
X83534546Y-84931505D01*
X83530946Y-84955773D01*
X83524985Y-84979572D01*
X83516720Y-85002671D01*
X83506230Y-85024850D01*
X83493618Y-85045893D01*
X83479003Y-85065599D01*
X83462527Y-85083777D01*
X83444349Y-85100253D01*
X83424643Y-85114868D01*
X83403600Y-85127480D01*
X83381421Y-85137970D01*
X83358322Y-85146235D01*
X83334523Y-85152196D01*
X83310255Y-85155796D01*
X83285751Y-85157000D01*
X82385749Y-85157000D01*
X82361245Y-85155796D01*
X82336977Y-85152196D01*
X82313178Y-85146235D01*
X82290079Y-85137970D01*
X82267900Y-85127480D01*
X82246857Y-85114868D01*
X82227151Y-85100253D01*
X82208973Y-85083777D01*
X82192497Y-85065599D01*
X82177882Y-85045893D01*
X82165270Y-85024850D01*
X82154780Y-85002671D01*
X82146515Y-84979572D01*
X82140554Y-84955773D01*
X82136954Y-84931505D01*
X82135750Y-84907001D01*
X82135750Y-84256999D01*
X82136954Y-84232495D01*
X82140554Y-84208227D01*
X82146515Y-84184428D01*
X82154780Y-84161329D01*
X82165270Y-84139150D01*
X82177882Y-84118107D01*
X82192497Y-84098401D01*
X82208973Y-84080223D01*
X82227151Y-84063747D01*
X82246857Y-84049132D01*
X82267900Y-84036520D01*
X82290079Y-84026030D01*
X82313178Y-84017765D01*
X82336977Y-84011804D01*
X82361245Y-84008204D01*
X82385749Y-84007000D01*
X83285751Y-84007000D01*
X83310255Y-84008204D01*
X83310255Y-84008204D01*
G37*
D14*
X82835750Y-84582000D03*
D13*
G36*
X79484255Y-90995204D02*
G01*
X79508523Y-90998804D01*
X79532322Y-91004765D01*
X79555421Y-91013030D01*
X79577600Y-91023520D01*
X79598643Y-91036132D01*
X79618349Y-91050747D01*
X79636527Y-91067223D01*
X79653003Y-91085401D01*
X79667618Y-91105107D01*
X79680230Y-91126150D01*
X79690720Y-91148329D01*
X79698985Y-91171428D01*
X79704946Y-91195227D01*
X79708546Y-91219495D01*
X79709750Y-91243999D01*
X79709750Y-92144001D01*
X79708546Y-92168505D01*
X79704946Y-92192773D01*
X79698985Y-92216572D01*
X79690720Y-92239671D01*
X79680230Y-92261850D01*
X79667618Y-92282893D01*
X79653003Y-92302599D01*
X79636527Y-92320777D01*
X79618349Y-92337253D01*
X79598643Y-92351868D01*
X79577600Y-92364480D01*
X79555421Y-92374970D01*
X79532322Y-92383235D01*
X79508523Y-92389196D01*
X79484255Y-92392796D01*
X79459751Y-92394000D01*
X78809749Y-92394000D01*
X78785245Y-92392796D01*
X78760977Y-92389196D01*
X78737178Y-92383235D01*
X78714079Y-92374970D01*
X78691900Y-92364480D01*
X78670857Y-92351868D01*
X78651151Y-92337253D01*
X78632973Y-92320777D01*
X78616497Y-92302599D01*
X78601882Y-92282893D01*
X78589270Y-92261850D01*
X78578780Y-92239671D01*
X78570515Y-92216572D01*
X78564554Y-92192773D01*
X78560954Y-92168505D01*
X78559750Y-92144001D01*
X78559750Y-91243999D01*
X78560954Y-91219495D01*
X78564554Y-91195227D01*
X78570515Y-91171428D01*
X78578780Y-91148329D01*
X78589270Y-91126150D01*
X78601882Y-91105107D01*
X78616497Y-91085401D01*
X78632973Y-91067223D01*
X78651151Y-91050747D01*
X78670857Y-91036132D01*
X78691900Y-91023520D01*
X78714079Y-91013030D01*
X78737178Y-91004765D01*
X78760977Y-90998804D01*
X78785245Y-90995204D01*
X78809749Y-90994000D01*
X79459751Y-90994000D01*
X79484255Y-90995204D01*
X79484255Y-90995204D01*
G37*
D14*
X79134750Y-91694000D03*
D13*
G36*
X81534255Y-90995204D02*
G01*
X81558523Y-90998804D01*
X81582322Y-91004765D01*
X81605421Y-91013030D01*
X81627600Y-91023520D01*
X81648643Y-91036132D01*
X81668349Y-91050747D01*
X81686527Y-91067223D01*
X81703003Y-91085401D01*
X81717618Y-91105107D01*
X81730230Y-91126150D01*
X81740720Y-91148329D01*
X81748985Y-91171428D01*
X81754946Y-91195227D01*
X81758546Y-91219495D01*
X81759750Y-91243999D01*
X81759750Y-92144001D01*
X81758546Y-92168505D01*
X81754946Y-92192773D01*
X81748985Y-92216572D01*
X81740720Y-92239671D01*
X81730230Y-92261850D01*
X81717618Y-92282893D01*
X81703003Y-92302599D01*
X81686527Y-92320777D01*
X81668349Y-92337253D01*
X81648643Y-92351868D01*
X81627600Y-92364480D01*
X81605421Y-92374970D01*
X81582322Y-92383235D01*
X81558523Y-92389196D01*
X81534255Y-92392796D01*
X81509751Y-92394000D01*
X80859749Y-92394000D01*
X80835245Y-92392796D01*
X80810977Y-92389196D01*
X80787178Y-92383235D01*
X80764079Y-92374970D01*
X80741900Y-92364480D01*
X80720857Y-92351868D01*
X80701151Y-92337253D01*
X80682973Y-92320777D01*
X80666497Y-92302599D01*
X80651882Y-92282893D01*
X80639270Y-92261850D01*
X80628780Y-92239671D01*
X80620515Y-92216572D01*
X80614554Y-92192773D01*
X80610954Y-92168505D01*
X80609750Y-92144001D01*
X80609750Y-91243999D01*
X80610954Y-91219495D01*
X80614554Y-91195227D01*
X80620515Y-91171428D01*
X80628780Y-91148329D01*
X80639270Y-91126150D01*
X80651882Y-91105107D01*
X80666497Y-91085401D01*
X80682973Y-91067223D01*
X80701151Y-91050747D01*
X80720857Y-91036132D01*
X80741900Y-91023520D01*
X80764079Y-91013030D01*
X80787178Y-91004765D01*
X80810977Y-90998804D01*
X80835245Y-90995204D01*
X80859749Y-90994000D01*
X81509751Y-90994000D01*
X81534255Y-90995204D01*
X81534255Y-90995204D01*
G37*
D14*
X81184750Y-91694000D03*
D13*
G36*
X86199505Y-77776204D02*
G01*
X86223773Y-77779804D01*
X86247572Y-77785765D01*
X86270671Y-77794030D01*
X86292850Y-77804520D01*
X86313893Y-77817132D01*
X86333599Y-77831747D01*
X86351777Y-77848223D01*
X86368253Y-77866401D01*
X86382868Y-77886107D01*
X86395480Y-77907150D01*
X86405970Y-77929329D01*
X86414235Y-77952428D01*
X86420196Y-77976227D01*
X86423796Y-78000495D01*
X86425000Y-78024999D01*
X86425000Y-78675001D01*
X86423796Y-78699505D01*
X86420196Y-78723773D01*
X86414235Y-78747572D01*
X86405970Y-78770671D01*
X86395480Y-78792850D01*
X86382868Y-78813893D01*
X86368253Y-78833599D01*
X86351777Y-78851777D01*
X86333599Y-78868253D01*
X86313893Y-78882868D01*
X86292850Y-78895480D01*
X86270671Y-78905970D01*
X86247572Y-78914235D01*
X86223773Y-78920196D01*
X86199505Y-78923796D01*
X86175001Y-78925000D01*
X85274999Y-78925000D01*
X85250495Y-78923796D01*
X85226227Y-78920196D01*
X85202428Y-78914235D01*
X85179329Y-78905970D01*
X85157150Y-78895480D01*
X85136107Y-78882868D01*
X85116401Y-78868253D01*
X85098223Y-78851777D01*
X85081747Y-78833599D01*
X85067132Y-78813893D01*
X85054520Y-78792850D01*
X85044030Y-78770671D01*
X85035765Y-78747572D01*
X85029804Y-78723773D01*
X85026204Y-78699505D01*
X85025000Y-78675001D01*
X85025000Y-78024999D01*
X85026204Y-78000495D01*
X85029804Y-77976227D01*
X85035765Y-77952428D01*
X85044030Y-77929329D01*
X85054520Y-77907150D01*
X85067132Y-77886107D01*
X85081747Y-77866401D01*
X85098223Y-77848223D01*
X85116401Y-77831747D01*
X85136107Y-77817132D01*
X85157150Y-77804520D01*
X85179329Y-77794030D01*
X85202428Y-77785765D01*
X85226227Y-77779804D01*
X85250495Y-77776204D01*
X85274999Y-77775000D01*
X86175001Y-77775000D01*
X86199505Y-77776204D01*
X86199505Y-77776204D01*
G37*
D14*
X85725000Y-78350000D03*
D13*
G36*
X86199505Y-79826204D02*
G01*
X86223773Y-79829804D01*
X86247572Y-79835765D01*
X86270671Y-79844030D01*
X86292850Y-79854520D01*
X86313893Y-79867132D01*
X86333599Y-79881747D01*
X86351777Y-79898223D01*
X86368253Y-79916401D01*
X86382868Y-79936107D01*
X86395480Y-79957150D01*
X86405970Y-79979329D01*
X86414235Y-80002428D01*
X86420196Y-80026227D01*
X86423796Y-80050495D01*
X86425000Y-80074999D01*
X86425000Y-80725001D01*
X86423796Y-80749505D01*
X86420196Y-80773773D01*
X86414235Y-80797572D01*
X86405970Y-80820671D01*
X86395480Y-80842850D01*
X86382868Y-80863893D01*
X86368253Y-80883599D01*
X86351777Y-80901777D01*
X86333599Y-80918253D01*
X86313893Y-80932868D01*
X86292850Y-80945480D01*
X86270671Y-80955970D01*
X86247572Y-80964235D01*
X86223773Y-80970196D01*
X86199505Y-80973796D01*
X86175001Y-80975000D01*
X85274999Y-80975000D01*
X85250495Y-80973796D01*
X85226227Y-80970196D01*
X85202428Y-80964235D01*
X85179329Y-80955970D01*
X85157150Y-80945480D01*
X85136107Y-80932868D01*
X85116401Y-80918253D01*
X85098223Y-80901777D01*
X85081747Y-80883599D01*
X85067132Y-80863893D01*
X85054520Y-80842850D01*
X85044030Y-80820671D01*
X85035765Y-80797572D01*
X85029804Y-80773773D01*
X85026204Y-80749505D01*
X85025000Y-80725001D01*
X85025000Y-80074999D01*
X85026204Y-80050495D01*
X85029804Y-80026227D01*
X85035765Y-80002428D01*
X85044030Y-79979329D01*
X85054520Y-79957150D01*
X85067132Y-79936107D01*
X85081747Y-79916401D01*
X85098223Y-79898223D01*
X85116401Y-79881747D01*
X85136107Y-79867132D01*
X85157150Y-79854520D01*
X85179329Y-79844030D01*
X85202428Y-79835765D01*
X85226227Y-79829804D01*
X85250495Y-79826204D01*
X85274999Y-79825000D01*
X86175001Y-79825000D01*
X86199505Y-79826204D01*
X86199505Y-79826204D01*
G37*
D14*
X85725000Y-80400000D03*
D13*
G36*
X94930755Y-79826204D02*
G01*
X94955023Y-79829804D01*
X94978822Y-79835765D01*
X95001921Y-79844030D01*
X95024100Y-79854520D01*
X95045143Y-79867132D01*
X95064849Y-79881747D01*
X95083027Y-79898223D01*
X95099503Y-79916401D01*
X95114118Y-79936107D01*
X95126730Y-79957150D01*
X95137220Y-79979329D01*
X95145485Y-80002428D01*
X95151446Y-80026227D01*
X95155046Y-80050495D01*
X95156250Y-80074999D01*
X95156250Y-80725001D01*
X95155046Y-80749505D01*
X95151446Y-80773773D01*
X95145485Y-80797572D01*
X95137220Y-80820671D01*
X95126730Y-80842850D01*
X95114118Y-80863893D01*
X95099503Y-80883599D01*
X95083027Y-80901777D01*
X95064849Y-80918253D01*
X95045143Y-80932868D01*
X95024100Y-80945480D01*
X95001921Y-80955970D01*
X94978822Y-80964235D01*
X94955023Y-80970196D01*
X94930755Y-80973796D01*
X94906251Y-80975000D01*
X94006249Y-80975000D01*
X93981745Y-80973796D01*
X93957477Y-80970196D01*
X93933678Y-80964235D01*
X93910579Y-80955970D01*
X93888400Y-80945480D01*
X93867357Y-80932868D01*
X93847651Y-80918253D01*
X93829473Y-80901777D01*
X93812997Y-80883599D01*
X93798382Y-80863893D01*
X93785770Y-80842850D01*
X93775280Y-80820671D01*
X93767015Y-80797572D01*
X93761054Y-80773773D01*
X93757454Y-80749505D01*
X93756250Y-80725001D01*
X93756250Y-80074999D01*
X93757454Y-80050495D01*
X93761054Y-80026227D01*
X93767015Y-80002428D01*
X93775280Y-79979329D01*
X93785770Y-79957150D01*
X93798382Y-79936107D01*
X93812997Y-79916401D01*
X93829473Y-79898223D01*
X93847651Y-79881747D01*
X93867357Y-79867132D01*
X93888400Y-79854520D01*
X93910579Y-79844030D01*
X93933678Y-79835765D01*
X93957477Y-79829804D01*
X93981745Y-79826204D01*
X94006249Y-79825000D01*
X94906251Y-79825000D01*
X94930755Y-79826204D01*
X94930755Y-79826204D01*
G37*
D14*
X94456250Y-80400000D03*
D13*
G36*
X94930755Y-77776204D02*
G01*
X94955023Y-77779804D01*
X94978822Y-77785765D01*
X95001921Y-77794030D01*
X95024100Y-77804520D01*
X95045143Y-77817132D01*
X95064849Y-77831747D01*
X95083027Y-77848223D01*
X95099503Y-77866401D01*
X95114118Y-77886107D01*
X95126730Y-77907150D01*
X95137220Y-77929329D01*
X95145485Y-77952428D01*
X95151446Y-77976227D01*
X95155046Y-78000495D01*
X95156250Y-78024999D01*
X95156250Y-78675001D01*
X95155046Y-78699505D01*
X95151446Y-78723773D01*
X95145485Y-78747572D01*
X95137220Y-78770671D01*
X95126730Y-78792850D01*
X95114118Y-78813893D01*
X95099503Y-78833599D01*
X95083027Y-78851777D01*
X95064849Y-78868253D01*
X95045143Y-78882868D01*
X95024100Y-78895480D01*
X95001921Y-78905970D01*
X94978822Y-78914235D01*
X94955023Y-78920196D01*
X94930755Y-78923796D01*
X94906251Y-78925000D01*
X94006249Y-78925000D01*
X93981745Y-78923796D01*
X93957477Y-78920196D01*
X93933678Y-78914235D01*
X93910579Y-78905970D01*
X93888400Y-78895480D01*
X93867357Y-78882868D01*
X93847651Y-78868253D01*
X93829473Y-78851777D01*
X93812997Y-78833599D01*
X93798382Y-78813893D01*
X93785770Y-78792850D01*
X93775280Y-78770671D01*
X93767015Y-78747572D01*
X93761054Y-78723773D01*
X93757454Y-78699505D01*
X93756250Y-78675001D01*
X93756250Y-78024999D01*
X93757454Y-78000495D01*
X93761054Y-77976227D01*
X93767015Y-77952428D01*
X93775280Y-77929329D01*
X93785770Y-77907150D01*
X93798382Y-77886107D01*
X93812997Y-77866401D01*
X93829473Y-77848223D01*
X93847651Y-77831747D01*
X93867357Y-77817132D01*
X93888400Y-77804520D01*
X93910579Y-77794030D01*
X93933678Y-77785765D01*
X93957477Y-77779804D01*
X93981745Y-77776204D01*
X94006249Y-77775000D01*
X94906251Y-77775000D01*
X94930755Y-77776204D01*
X94930755Y-77776204D01*
G37*
D14*
X94456250Y-78350000D03*
D13*
G36*
X93637005Y-100901204D02*
G01*
X93661273Y-100904804D01*
X93685072Y-100910765D01*
X93708171Y-100919030D01*
X93730350Y-100929520D01*
X93751393Y-100942132D01*
X93771099Y-100956747D01*
X93789277Y-100973223D01*
X93805753Y-100991401D01*
X93820368Y-101011107D01*
X93832980Y-101032150D01*
X93843470Y-101054329D01*
X93851735Y-101077428D01*
X93857696Y-101101227D01*
X93861296Y-101125495D01*
X93862500Y-101149999D01*
X93862500Y-102050001D01*
X93861296Y-102074505D01*
X93857696Y-102098773D01*
X93851735Y-102122572D01*
X93843470Y-102145671D01*
X93832980Y-102167850D01*
X93820368Y-102188893D01*
X93805753Y-102208599D01*
X93789277Y-102226777D01*
X93771099Y-102243253D01*
X93751393Y-102257868D01*
X93730350Y-102270480D01*
X93708171Y-102280970D01*
X93685072Y-102289235D01*
X93661273Y-102295196D01*
X93637005Y-102298796D01*
X93612501Y-102300000D01*
X92962499Y-102300000D01*
X92937995Y-102298796D01*
X92913727Y-102295196D01*
X92889928Y-102289235D01*
X92866829Y-102280970D01*
X92844650Y-102270480D01*
X92823607Y-102257868D01*
X92803901Y-102243253D01*
X92785723Y-102226777D01*
X92769247Y-102208599D01*
X92754632Y-102188893D01*
X92742020Y-102167850D01*
X92731530Y-102145671D01*
X92723265Y-102122572D01*
X92717304Y-102098773D01*
X92713704Y-102074505D01*
X92712500Y-102050001D01*
X92712500Y-101149999D01*
X92713704Y-101125495D01*
X92717304Y-101101227D01*
X92723265Y-101077428D01*
X92731530Y-101054329D01*
X92742020Y-101032150D01*
X92754632Y-101011107D01*
X92769247Y-100991401D01*
X92785723Y-100973223D01*
X92803901Y-100956747D01*
X92823607Y-100942132D01*
X92844650Y-100929520D01*
X92866829Y-100919030D01*
X92889928Y-100910765D01*
X92913727Y-100904804D01*
X92937995Y-100901204D01*
X92962499Y-100900000D01*
X93612501Y-100900000D01*
X93637005Y-100901204D01*
X93637005Y-100901204D01*
G37*
D14*
X93287500Y-101600000D03*
D13*
G36*
X95687005Y-100901204D02*
G01*
X95711273Y-100904804D01*
X95735072Y-100910765D01*
X95758171Y-100919030D01*
X95780350Y-100929520D01*
X95801393Y-100942132D01*
X95821099Y-100956747D01*
X95839277Y-100973223D01*
X95855753Y-100991401D01*
X95870368Y-101011107D01*
X95882980Y-101032150D01*
X95893470Y-101054329D01*
X95901735Y-101077428D01*
X95907696Y-101101227D01*
X95911296Y-101125495D01*
X95912500Y-101149999D01*
X95912500Y-102050001D01*
X95911296Y-102074505D01*
X95907696Y-102098773D01*
X95901735Y-102122572D01*
X95893470Y-102145671D01*
X95882980Y-102167850D01*
X95870368Y-102188893D01*
X95855753Y-102208599D01*
X95839277Y-102226777D01*
X95821099Y-102243253D01*
X95801393Y-102257868D01*
X95780350Y-102270480D01*
X95758171Y-102280970D01*
X95735072Y-102289235D01*
X95711273Y-102295196D01*
X95687005Y-102298796D01*
X95662501Y-102300000D01*
X95012499Y-102300000D01*
X94987995Y-102298796D01*
X94963727Y-102295196D01*
X94939928Y-102289235D01*
X94916829Y-102280970D01*
X94894650Y-102270480D01*
X94873607Y-102257868D01*
X94853901Y-102243253D01*
X94835723Y-102226777D01*
X94819247Y-102208599D01*
X94804632Y-102188893D01*
X94792020Y-102167850D01*
X94781530Y-102145671D01*
X94773265Y-102122572D01*
X94767304Y-102098773D01*
X94763704Y-102074505D01*
X94762500Y-102050001D01*
X94762500Y-101149999D01*
X94763704Y-101125495D01*
X94767304Y-101101227D01*
X94773265Y-101077428D01*
X94781530Y-101054329D01*
X94792020Y-101032150D01*
X94804632Y-101011107D01*
X94819247Y-100991401D01*
X94835723Y-100973223D01*
X94853901Y-100956747D01*
X94873607Y-100942132D01*
X94894650Y-100929520D01*
X94916829Y-100919030D01*
X94939928Y-100910765D01*
X94963727Y-100904804D01*
X94987995Y-100901204D01*
X95012499Y-100900000D01*
X95662501Y-100900000D01*
X95687005Y-100901204D01*
X95687005Y-100901204D01*
G37*
D14*
X95337500Y-101600000D03*
D15*
X129262500Y-96806250D03*
X128607501Y-97536250D03*
D16*
X127952500Y-98266250D02*
X129262502Y-96806250D01*
D15*
X134302500Y-95726250D03*
X134282500Y-96016250D03*
D16*
X134262500Y-96306250D02*
X134302500Y-95726250D01*
D15*
X110212500Y-96806250D03*
X109557501Y-97536250D03*
D16*
X108902500Y-98266250D02*
X110212502Y-96806250D01*
D15*
X115252500Y-95726250D03*
X115232500Y-96016250D03*
D16*
X115212500Y-96306250D02*
X115252500Y-95726250D01*
D15*
X129262500Y-77756250D03*
X128607501Y-78486250D03*
D16*
X127952500Y-79216250D02*
X129262502Y-77756250D01*
D15*
X134302500Y-76676250D03*
X134282500Y-76966250D03*
D16*
X134262500Y-77256250D02*
X134302500Y-76676250D01*
D15*
X110212500Y-77756250D03*
X109557501Y-78486250D03*
D16*
X108902500Y-79216250D02*
X110212502Y-77756250D01*
D15*
X115252500Y-76676250D03*
X115232500Y-76966250D03*
D16*
X115212500Y-77256250D02*
X115252500Y-76676250D01*
D17*
X86487500Y-97775000D03*
X87287500Y-97775000D03*
X88087500Y-97775000D03*
X88887500Y-97775000D03*
X89687500Y-97775000D03*
X90487500Y-97775000D03*
X91287500Y-97775000D03*
X92087500Y-97775000D03*
X92887500Y-97775000D03*
X93687500Y-97775000D03*
X94487500Y-97775000D03*
D18*
X96187500Y-96075000D03*
X96187500Y-95275000D03*
X96187500Y-94475000D03*
X96187500Y-93675000D03*
X96187500Y-92875000D03*
X96187500Y-92075000D03*
X96187500Y-91275000D03*
X96187500Y-90475000D03*
X96187500Y-89675000D03*
X96187500Y-88875000D03*
X96187500Y-88075000D03*
D17*
X94487500Y-86375000D03*
X93687500Y-86375000D03*
X92887500Y-86375000D03*
X92087500Y-86375000D03*
X91287500Y-86375000D03*
X90487500Y-86375000D03*
X89687500Y-86375000D03*
X88887500Y-86375000D03*
X88087500Y-86375000D03*
X87287500Y-86375000D03*
X86487500Y-86375000D03*
D18*
X84787500Y-88075000D03*
X84787500Y-88875000D03*
X84787500Y-89675000D03*
X84787500Y-90475000D03*
X84787500Y-91275000D03*
X84787500Y-92075000D03*
X84787500Y-92875000D03*
X84787500Y-93675000D03*
X84787500Y-94475000D03*
X84787500Y-95275000D03*
X84787500Y-96075000D03*
D19*
X68782000Y-102252000D03*
X74982000Y-98552000D03*
X68782000Y-98552000D03*
X74982000Y-102252000D03*
D13*
G36*
X100683142Y-95604174D02*
G01*
X100706803Y-95607684D01*
X100730007Y-95613496D01*
X100752529Y-95621554D01*
X100774153Y-95631782D01*
X100794670Y-95644079D01*
X100813883Y-95658329D01*
X100831607Y-95674393D01*
X100847671Y-95692117D01*
X100861921Y-95711330D01*
X100874218Y-95731847D01*
X100884446Y-95753471D01*
X100892504Y-95775993D01*
X100898316Y-95799197D01*
X100901826Y-95822858D01*
X100903000Y-95846750D01*
X100903000Y-96334250D01*
X100901826Y-96358142D01*
X100898316Y-96381803D01*
X100892504Y-96405007D01*
X100884446Y-96427529D01*
X100874218Y-96449153D01*
X100861921Y-96469670D01*
X100847671Y-96488883D01*
X100831607Y-96506607D01*
X100813883Y-96522671D01*
X100794670Y-96536921D01*
X100774153Y-96549218D01*
X100752529Y-96559446D01*
X100730007Y-96567504D01*
X100706803Y-96573316D01*
X100683142Y-96576826D01*
X100659250Y-96578000D01*
X99746750Y-96578000D01*
X99722858Y-96576826D01*
X99699197Y-96573316D01*
X99675993Y-96567504D01*
X99653471Y-96559446D01*
X99631847Y-96549218D01*
X99611330Y-96536921D01*
X99592117Y-96522671D01*
X99574393Y-96506607D01*
X99558329Y-96488883D01*
X99544079Y-96469670D01*
X99531782Y-96449153D01*
X99521554Y-96427529D01*
X99513496Y-96405007D01*
X99507684Y-96381803D01*
X99504174Y-96358142D01*
X99503000Y-96334250D01*
X99503000Y-95846750D01*
X99504174Y-95822858D01*
X99507684Y-95799197D01*
X99513496Y-95775993D01*
X99521554Y-95753471D01*
X99531782Y-95731847D01*
X99544079Y-95711330D01*
X99558329Y-95692117D01*
X99574393Y-95674393D01*
X99592117Y-95658329D01*
X99611330Y-95644079D01*
X99631847Y-95631782D01*
X99653471Y-95621554D01*
X99675993Y-95613496D01*
X99699197Y-95607684D01*
X99722858Y-95604174D01*
X99746750Y-95603000D01*
X100659250Y-95603000D01*
X100683142Y-95604174D01*
X100683142Y-95604174D01*
G37*
D20*
X100203000Y-96090500D03*
D13*
G36*
X100683142Y-97479174D02*
G01*
X100706803Y-97482684D01*
X100730007Y-97488496D01*
X100752529Y-97496554D01*
X100774153Y-97506782D01*
X100794670Y-97519079D01*
X100813883Y-97533329D01*
X100831607Y-97549393D01*
X100847671Y-97567117D01*
X100861921Y-97586330D01*
X100874218Y-97606847D01*
X100884446Y-97628471D01*
X100892504Y-97650993D01*
X100898316Y-97674197D01*
X100901826Y-97697858D01*
X100903000Y-97721750D01*
X100903000Y-98209250D01*
X100901826Y-98233142D01*
X100898316Y-98256803D01*
X100892504Y-98280007D01*
X100884446Y-98302529D01*
X100874218Y-98324153D01*
X100861921Y-98344670D01*
X100847671Y-98363883D01*
X100831607Y-98381607D01*
X100813883Y-98397671D01*
X100794670Y-98411921D01*
X100774153Y-98424218D01*
X100752529Y-98434446D01*
X100730007Y-98442504D01*
X100706803Y-98448316D01*
X100683142Y-98451826D01*
X100659250Y-98453000D01*
X99746750Y-98453000D01*
X99722858Y-98451826D01*
X99699197Y-98448316D01*
X99675993Y-98442504D01*
X99653471Y-98434446D01*
X99631847Y-98424218D01*
X99611330Y-98411921D01*
X99592117Y-98397671D01*
X99574393Y-98381607D01*
X99558329Y-98363883D01*
X99544079Y-98344670D01*
X99531782Y-98324153D01*
X99521554Y-98302529D01*
X99513496Y-98280007D01*
X99507684Y-98256803D01*
X99504174Y-98233142D01*
X99503000Y-98209250D01*
X99503000Y-97721750D01*
X99504174Y-97697858D01*
X99507684Y-97674197D01*
X99513496Y-97650993D01*
X99521554Y-97628471D01*
X99531782Y-97606847D01*
X99544079Y-97586330D01*
X99558329Y-97567117D01*
X99574393Y-97549393D01*
X99592117Y-97533329D01*
X99611330Y-97519079D01*
X99631847Y-97506782D01*
X99653471Y-97496554D01*
X99675993Y-97488496D01*
X99699197Y-97482684D01*
X99722858Y-97479174D01*
X99746750Y-97478000D01*
X100659250Y-97478000D01*
X100683142Y-97479174D01*
X100683142Y-97479174D01*
G37*
D20*
X100203000Y-97965500D03*
D13*
G36*
X69949142Y-83938674D02*
G01*
X69972803Y-83942184D01*
X69996007Y-83947996D01*
X70018529Y-83956054D01*
X70040153Y-83966282D01*
X70060670Y-83978579D01*
X70079883Y-83992829D01*
X70097607Y-84008893D01*
X70113671Y-84026617D01*
X70127921Y-84045830D01*
X70140218Y-84066347D01*
X70150446Y-84087971D01*
X70158504Y-84110493D01*
X70164316Y-84133697D01*
X70167826Y-84157358D01*
X70169000Y-84181250D01*
X70169000Y-84668750D01*
X70167826Y-84692642D01*
X70164316Y-84716303D01*
X70158504Y-84739507D01*
X70150446Y-84762029D01*
X70140218Y-84783653D01*
X70127921Y-84804170D01*
X70113671Y-84823383D01*
X70097607Y-84841107D01*
X70079883Y-84857171D01*
X70060670Y-84871421D01*
X70040153Y-84883718D01*
X70018529Y-84893946D01*
X69996007Y-84902004D01*
X69972803Y-84907816D01*
X69949142Y-84911326D01*
X69925250Y-84912500D01*
X69012750Y-84912500D01*
X68988858Y-84911326D01*
X68965197Y-84907816D01*
X68941993Y-84902004D01*
X68919471Y-84893946D01*
X68897847Y-84883718D01*
X68877330Y-84871421D01*
X68858117Y-84857171D01*
X68840393Y-84841107D01*
X68824329Y-84823383D01*
X68810079Y-84804170D01*
X68797782Y-84783653D01*
X68787554Y-84762029D01*
X68779496Y-84739507D01*
X68773684Y-84716303D01*
X68770174Y-84692642D01*
X68769000Y-84668750D01*
X68769000Y-84181250D01*
X68770174Y-84157358D01*
X68773684Y-84133697D01*
X68779496Y-84110493D01*
X68787554Y-84087971D01*
X68797782Y-84066347D01*
X68810079Y-84045830D01*
X68824329Y-84026617D01*
X68840393Y-84008893D01*
X68858117Y-83992829D01*
X68877330Y-83978579D01*
X68897847Y-83966282D01*
X68919471Y-83956054D01*
X68941993Y-83947996D01*
X68965197Y-83942184D01*
X68988858Y-83938674D01*
X69012750Y-83937500D01*
X69925250Y-83937500D01*
X69949142Y-83938674D01*
X69949142Y-83938674D01*
G37*
D20*
X69469000Y-84425000D03*
D13*
G36*
X69949142Y-82063674D02*
G01*
X69972803Y-82067184D01*
X69996007Y-82072996D01*
X70018529Y-82081054D01*
X70040153Y-82091282D01*
X70060670Y-82103579D01*
X70079883Y-82117829D01*
X70097607Y-82133893D01*
X70113671Y-82151617D01*
X70127921Y-82170830D01*
X70140218Y-82191347D01*
X70150446Y-82212971D01*
X70158504Y-82235493D01*
X70164316Y-82258697D01*
X70167826Y-82282358D01*
X70169000Y-82306250D01*
X70169000Y-82793750D01*
X70167826Y-82817642D01*
X70164316Y-82841303D01*
X70158504Y-82864507D01*
X70150446Y-82887029D01*
X70140218Y-82908653D01*
X70127921Y-82929170D01*
X70113671Y-82948383D01*
X70097607Y-82966107D01*
X70079883Y-82982171D01*
X70060670Y-82996421D01*
X70040153Y-83008718D01*
X70018529Y-83018946D01*
X69996007Y-83027004D01*
X69972803Y-83032816D01*
X69949142Y-83036326D01*
X69925250Y-83037500D01*
X69012750Y-83037500D01*
X68988858Y-83036326D01*
X68965197Y-83032816D01*
X68941993Y-83027004D01*
X68919471Y-83018946D01*
X68897847Y-83008718D01*
X68877330Y-82996421D01*
X68858117Y-82982171D01*
X68840393Y-82966107D01*
X68824329Y-82948383D01*
X68810079Y-82929170D01*
X68797782Y-82908653D01*
X68787554Y-82887029D01*
X68779496Y-82864507D01*
X68773684Y-82841303D01*
X68770174Y-82817642D01*
X68769000Y-82793750D01*
X68769000Y-82306250D01*
X68770174Y-82282358D01*
X68773684Y-82258697D01*
X68779496Y-82235493D01*
X68787554Y-82212971D01*
X68797782Y-82191347D01*
X68810079Y-82170830D01*
X68824329Y-82151617D01*
X68840393Y-82133893D01*
X68858117Y-82117829D01*
X68877330Y-82103579D01*
X68897847Y-82091282D01*
X68919471Y-82081054D01*
X68941993Y-82072996D01*
X68965197Y-82067184D01*
X68988858Y-82063674D01*
X69012750Y-82062500D01*
X69925250Y-82062500D01*
X69949142Y-82063674D01*
X69949142Y-82063674D01*
G37*
D20*
X69469000Y-82550000D03*
D13*
G36*
X72870142Y-83938674D02*
G01*
X72893803Y-83942184D01*
X72917007Y-83947996D01*
X72939529Y-83956054D01*
X72961153Y-83966282D01*
X72981670Y-83978579D01*
X73000883Y-83992829D01*
X73018607Y-84008893D01*
X73034671Y-84026617D01*
X73048921Y-84045830D01*
X73061218Y-84066347D01*
X73071446Y-84087971D01*
X73079504Y-84110493D01*
X73085316Y-84133697D01*
X73088826Y-84157358D01*
X73090000Y-84181250D01*
X73090000Y-84668750D01*
X73088826Y-84692642D01*
X73085316Y-84716303D01*
X73079504Y-84739507D01*
X73071446Y-84762029D01*
X73061218Y-84783653D01*
X73048921Y-84804170D01*
X73034671Y-84823383D01*
X73018607Y-84841107D01*
X73000883Y-84857171D01*
X72981670Y-84871421D01*
X72961153Y-84883718D01*
X72939529Y-84893946D01*
X72917007Y-84902004D01*
X72893803Y-84907816D01*
X72870142Y-84911326D01*
X72846250Y-84912500D01*
X71933750Y-84912500D01*
X71909858Y-84911326D01*
X71886197Y-84907816D01*
X71862993Y-84902004D01*
X71840471Y-84893946D01*
X71818847Y-84883718D01*
X71798330Y-84871421D01*
X71779117Y-84857171D01*
X71761393Y-84841107D01*
X71745329Y-84823383D01*
X71731079Y-84804170D01*
X71718782Y-84783653D01*
X71708554Y-84762029D01*
X71700496Y-84739507D01*
X71694684Y-84716303D01*
X71691174Y-84692642D01*
X71690000Y-84668750D01*
X71690000Y-84181250D01*
X71691174Y-84157358D01*
X71694684Y-84133697D01*
X71700496Y-84110493D01*
X71708554Y-84087971D01*
X71718782Y-84066347D01*
X71731079Y-84045830D01*
X71745329Y-84026617D01*
X71761393Y-84008893D01*
X71779117Y-83992829D01*
X71798330Y-83978579D01*
X71818847Y-83966282D01*
X71840471Y-83956054D01*
X71862993Y-83947996D01*
X71886197Y-83942184D01*
X71909858Y-83938674D01*
X71933750Y-83937500D01*
X72846250Y-83937500D01*
X72870142Y-83938674D01*
X72870142Y-83938674D01*
G37*
D20*
X72390000Y-84425000D03*
D13*
G36*
X72870142Y-82063674D02*
G01*
X72893803Y-82067184D01*
X72917007Y-82072996D01*
X72939529Y-82081054D01*
X72961153Y-82091282D01*
X72981670Y-82103579D01*
X73000883Y-82117829D01*
X73018607Y-82133893D01*
X73034671Y-82151617D01*
X73048921Y-82170830D01*
X73061218Y-82191347D01*
X73071446Y-82212971D01*
X73079504Y-82235493D01*
X73085316Y-82258697D01*
X73088826Y-82282358D01*
X73090000Y-82306250D01*
X73090000Y-82793750D01*
X73088826Y-82817642D01*
X73085316Y-82841303D01*
X73079504Y-82864507D01*
X73071446Y-82887029D01*
X73061218Y-82908653D01*
X73048921Y-82929170D01*
X73034671Y-82948383D01*
X73018607Y-82966107D01*
X73000883Y-82982171D01*
X72981670Y-82996421D01*
X72961153Y-83008718D01*
X72939529Y-83018946D01*
X72917007Y-83027004D01*
X72893803Y-83032816D01*
X72870142Y-83036326D01*
X72846250Y-83037500D01*
X71933750Y-83037500D01*
X71909858Y-83036326D01*
X71886197Y-83032816D01*
X71862993Y-83027004D01*
X71840471Y-83018946D01*
X71818847Y-83008718D01*
X71798330Y-82996421D01*
X71779117Y-82982171D01*
X71761393Y-82966107D01*
X71745329Y-82948383D01*
X71731079Y-82929170D01*
X71718782Y-82908653D01*
X71708554Y-82887029D01*
X71700496Y-82864507D01*
X71694684Y-82841303D01*
X71691174Y-82817642D01*
X71690000Y-82793750D01*
X71690000Y-82306250D01*
X71691174Y-82282358D01*
X71694684Y-82258697D01*
X71700496Y-82235493D01*
X71708554Y-82212971D01*
X71718782Y-82191347D01*
X71731079Y-82170830D01*
X71745329Y-82151617D01*
X71761393Y-82133893D01*
X71779117Y-82117829D01*
X71798330Y-82103579D01*
X71818847Y-82091282D01*
X71840471Y-82081054D01*
X71862993Y-82072996D01*
X71886197Y-82067184D01*
X71909858Y-82063674D01*
X71933750Y-82062500D01*
X72846250Y-82062500D01*
X72870142Y-82063674D01*
X72870142Y-82063674D01*
G37*
D20*
X72390000Y-82550000D03*
D13*
G36*
X79855142Y-82190674D02*
G01*
X79878803Y-82194184D01*
X79902007Y-82199996D01*
X79924529Y-82208054D01*
X79946153Y-82218282D01*
X79966670Y-82230579D01*
X79985883Y-82244829D01*
X80003607Y-82260893D01*
X80019671Y-82278617D01*
X80033921Y-82297830D01*
X80046218Y-82318347D01*
X80056446Y-82339971D01*
X80064504Y-82362493D01*
X80070316Y-82385697D01*
X80073826Y-82409358D01*
X80075000Y-82433250D01*
X80075000Y-82920750D01*
X80073826Y-82944642D01*
X80070316Y-82968303D01*
X80064504Y-82991507D01*
X80056446Y-83014029D01*
X80046218Y-83035653D01*
X80033921Y-83056170D01*
X80019671Y-83075383D01*
X80003607Y-83093107D01*
X79985883Y-83109171D01*
X79966670Y-83123421D01*
X79946153Y-83135718D01*
X79924529Y-83145946D01*
X79902007Y-83154004D01*
X79878803Y-83159816D01*
X79855142Y-83163326D01*
X79831250Y-83164500D01*
X78918750Y-83164500D01*
X78894858Y-83163326D01*
X78871197Y-83159816D01*
X78847993Y-83154004D01*
X78825471Y-83145946D01*
X78803847Y-83135718D01*
X78783330Y-83123421D01*
X78764117Y-83109171D01*
X78746393Y-83093107D01*
X78730329Y-83075383D01*
X78716079Y-83056170D01*
X78703782Y-83035653D01*
X78693554Y-83014029D01*
X78685496Y-82991507D01*
X78679684Y-82968303D01*
X78676174Y-82944642D01*
X78675000Y-82920750D01*
X78675000Y-82433250D01*
X78676174Y-82409358D01*
X78679684Y-82385697D01*
X78685496Y-82362493D01*
X78693554Y-82339971D01*
X78703782Y-82318347D01*
X78716079Y-82297830D01*
X78730329Y-82278617D01*
X78746393Y-82260893D01*
X78764117Y-82244829D01*
X78783330Y-82230579D01*
X78803847Y-82218282D01*
X78825471Y-82208054D01*
X78847993Y-82199996D01*
X78871197Y-82194184D01*
X78894858Y-82190674D01*
X78918750Y-82189500D01*
X79831250Y-82189500D01*
X79855142Y-82190674D01*
X79855142Y-82190674D01*
G37*
D20*
X79375000Y-82677000D03*
D13*
G36*
X79855142Y-84065674D02*
G01*
X79878803Y-84069184D01*
X79902007Y-84074996D01*
X79924529Y-84083054D01*
X79946153Y-84093282D01*
X79966670Y-84105579D01*
X79985883Y-84119829D01*
X80003607Y-84135893D01*
X80019671Y-84153617D01*
X80033921Y-84172830D01*
X80046218Y-84193347D01*
X80056446Y-84214971D01*
X80064504Y-84237493D01*
X80070316Y-84260697D01*
X80073826Y-84284358D01*
X80075000Y-84308250D01*
X80075000Y-84795750D01*
X80073826Y-84819642D01*
X80070316Y-84843303D01*
X80064504Y-84866507D01*
X80056446Y-84889029D01*
X80046218Y-84910653D01*
X80033921Y-84931170D01*
X80019671Y-84950383D01*
X80003607Y-84968107D01*
X79985883Y-84984171D01*
X79966670Y-84998421D01*
X79946153Y-85010718D01*
X79924529Y-85020946D01*
X79902007Y-85029004D01*
X79878803Y-85034816D01*
X79855142Y-85038326D01*
X79831250Y-85039500D01*
X78918750Y-85039500D01*
X78894858Y-85038326D01*
X78871197Y-85034816D01*
X78847993Y-85029004D01*
X78825471Y-85020946D01*
X78803847Y-85010718D01*
X78783330Y-84998421D01*
X78764117Y-84984171D01*
X78746393Y-84968107D01*
X78730329Y-84950383D01*
X78716079Y-84931170D01*
X78703782Y-84910653D01*
X78693554Y-84889029D01*
X78685496Y-84866507D01*
X78679684Y-84843303D01*
X78676174Y-84819642D01*
X78675000Y-84795750D01*
X78675000Y-84308250D01*
X78676174Y-84284358D01*
X78679684Y-84260697D01*
X78685496Y-84237493D01*
X78693554Y-84214971D01*
X78703782Y-84193347D01*
X78716079Y-84172830D01*
X78730329Y-84153617D01*
X78746393Y-84135893D01*
X78764117Y-84119829D01*
X78783330Y-84105579D01*
X78803847Y-84093282D01*
X78825471Y-84083054D01*
X78847993Y-84074996D01*
X78871197Y-84069184D01*
X78894858Y-84065674D01*
X78918750Y-84064500D01*
X79831250Y-84064500D01*
X79855142Y-84065674D01*
X79855142Y-84065674D01*
G37*
D20*
X79375000Y-84552000D03*
D13*
G36*
X69229504Y-87130204D02*
G01*
X69253773Y-87133804D01*
X69277571Y-87139765D01*
X69300671Y-87148030D01*
X69322849Y-87158520D01*
X69343893Y-87171133D01*
X69363598Y-87185747D01*
X69381777Y-87202223D01*
X69398253Y-87220402D01*
X69412867Y-87240107D01*
X69425480Y-87261151D01*
X69435970Y-87283329D01*
X69444235Y-87306429D01*
X69450196Y-87330227D01*
X69453796Y-87354496D01*
X69455000Y-87379000D01*
X69455000Y-88129000D01*
X69453796Y-88153504D01*
X69450196Y-88177773D01*
X69444235Y-88201571D01*
X69435970Y-88224671D01*
X69425480Y-88246849D01*
X69412867Y-88267893D01*
X69398253Y-88287598D01*
X69381777Y-88305777D01*
X69363598Y-88322253D01*
X69343893Y-88336867D01*
X69322849Y-88349480D01*
X69300671Y-88359970D01*
X69277571Y-88368235D01*
X69253773Y-88374196D01*
X69229504Y-88377796D01*
X69205000Y-88379000D01*
X67955000Y-88379000D01*
X67930496Y-88377796D01*
X67906227Y-88374196D01*
X67882429Y-88368235D01*
X67859329Y-88359970D01*
X67837151Y-88349480D01*
X67816107Y-88336867D01*
X67796402Y-88322253D01*
X67778223Y-88305777D01*
X67761747Y-88287598D01*
X67747133Y-88267893D01*
X67734520Y-88246849D01*
X67724030Y-88224671D01*
X67715765Y-88201571D01*
X67709804Y-88177773D01*
X67706204Y-88153504D01*
X67705000Y-88129000D01*
X67705000Y-87379000D01*
X67706204Y-87354496D01*
X67709804Y-87330227D01*
X67715765Y-87306429D01*
X67724030Y-87283329D01*
X67734520Y-87261151D01*
X67747133Y-87240107D01*
X67761747Y-87220402D01*
X67778223Y-87202223D01*
X67796402Y-87185747D01*
X67816107Y-87171133D01*
X67837151Y-87158520D01*
X67859329Y-87148030D01*
X67882429Y-87139765D01*
X67906227Y-87133804D01*
X67930496Y-87130204D01*
X67955000Y-87129000D01*
X69205000Y-87129000D01*
X69229504Y-87130204D01*
X69229504Y-87130204D01*
G37*
D21*
X68580000Y-87754000D03*
D13*
G36*
X69229504Y-89930204D02*
G01*
X69253773Y-89933804D01*
X69277571Y-89939765D01*
X69300671Y-89948030D01*
X69322849Y-89958520D01*
X69343893Y-89971133D01*
X69363598Y-89985747D01*
X69381777Y-90002223D01*
X69398253Y-90020402D01*
X69412867Y-90040107D01*
X69425480Y-90061151D01*
X69435970Y-90083329D01*
X69444235Y-90106429D01*
X69450196Y-90130227D01*
X69453796Y-90154496D01*
X69455000Y-90179000D01*
X69455000Y-90929000D01*
X69453796Y-90953504D01*
X69450196Y-90977773D01*
X69444235Y-91001571D01*
X69435970Y-91024671D01*
X69425480Y-91046849D01*
X69412867Y-91067893D01*
X69398253Y-91087598D01*
X69381777Y-91105777D01*
X69363598Y-91122253D01*
X69343893Y-91136867D01*
X69322849Y-91149480D01*
X69300671Y-91159970D01*
X69277571Y-91168235D01*
X69253773Y-91174196D01*
X69229504Y-91177796D01*
X69205000Y-91179000D01*
X67955000Y-91179000D01*
X67930496Y-91177796D01*
X67906227Y-91174196D01*
X67882429Y-91168235D01*
X67859329Y-91159970D01*
X67837151Y-91149480D01*
X67816107Y-91136867D01*
X67796402Y-91122253D01*
X67778223Y-91105777D01*
X67761747Y-91087598D01*
X67747133Y-91067893D01*
X67734520Y-91046849D01*
X67724030Y-91024671D01*
X67715765Y-91001571D01*
X67709804Y-90977773D01*
X67706204Y-90953504D01*
X67705000Y-90929000D01*
X67705000Y-90179000D01*
X67706204Y-90154496D01*
X67709804Y-90130227D01*
X67715765Y-90106429D01*
X67724030Y-90083329D01*
X67734520Y-90061151D01*
X67747133Y-90040107D01*
X67761747Y-90020402D01*
X67778223Y-90002223D01*
X67796402Y-89985747D01*
X67816107Y-89971133D01*
X67837151Y-89958520D01*
X67859329Y-89948030D01*
X67882429Y-89939765D01*
X67906227Y-89933804D01*
X67930496Y-89930204D01*
X67955000Y-89929000D01*
X69205000Y-89929000D01*
X69229504Y-89930204D01*
X69229504Y-89930204D01*
G37*
D21*
X68580000Y-90554000D03*
D22*
X139700000Y-99156250D03*
X139700000Y-102456250D03*
X120650000Y-99156250D03*
X120650000Y-102456250D03*
X139700000Y-80168750D03*
X139700000Y-83468750D03*
X120650000Y-80168750D03*
X120650000Y-83468750D03*
D23*
X83058000Y-90932000D03*
X83083000Y-95275000D03*
X96901000Y-101727000D03*
X102743000Y-89027000D03*
X81153000Y-83058000D03*
X76835000Y-98552000D03*
X76835000Y-83185000D03*
D24*
X94225000Y-80168750D02*
X94456250Y-80400000D01*
X91281250Y-80168750D02*
X94225000Y-80168750D01*
X91281250Y-81022750D02*
X91281250Y-80168750D01*
X91281250Y-83851750D02*
X91281250Y-81022750D01*
X90487500Y-84645500D02*
X91281250Y-83851750D01*
X90487500Y-86375000D02*
X90487500Y-84645500D01*
D25*
X85725000Y-80400000D02*
X84083000Y-80400000D01*
X84083000Y-80400000D02*
X83820000Y-80137000D01*
X83820000Y-80137000D02*
X83820000Y-77216000D01*
X83820000Y-77216000D02*
X84328000Y-76708000D01*
X91281250Y-77184250D02*
X91281250Y-78468750D01*
X90805000Y-76708000D02*
X91281250Y-77184250D01*
X88887500Y-85447098D02*
X88887500Y-86375000D01*
X89154000Y-76708000D02*
X90805000Y-76708000D01*
X84328000Y-76708000D02*
X89154000Y-76708000D01*
X93687500Y-98906000D02*
X93687500Y-97775000D01*
X93687500Y-100400000D02*
X93687500Y-98906000D01*
X93287500Y-100800000D02*
X93687500Y-100400000D01*
X93287500Y-101600000D02*
X93287500Y-100800000D01*
X89384152Y-80168750D02*
X89081250Y-80168750D01*
D24*
X91084152Y-78468750D02*
X89384152Y-80168750D01*
D25*
X91281250Y-78468750D02*
X91084152Y-78468750D01*
X96525250Y-87081250D02*
X96187500Y-87419000D01*
X96187500Y-87419000D02*
X96187500Y-88075000D01*
X100156250Y-87081250D02*
X96525250Y-87081250D01*
X94337500Y-78468750D02*
X94456250Y-78350000D01*
X91281250Y-78468750D02*
X94337500Y-78468750D01*
X94043000Y-88075000D02*
X92456000Y-89662000D01*
X92456000Y-89662000D02*
X92456000Y-94361000D01*
X96187500Y-88075000D02*
X94043000Y-88075000D01*
X87287500Y-94447098D02*
X87287500Y-97775000D01*
X93687500Y-95592500D02*
X93687500Y-97775000D01*
X92456000Y-94361000D02*
X93687500Y-95592500D01*
X88887500Y-87506000D02*
X88887500Y-86375000D01*
X91043500Y-89662000D02*
X88887500Y-87506000D01*
X92456000Y-89662000D02*
X91043500Y-89662000D01*
X85763000Y-92875000D02*
X84787500Y-92875000D01*
X85849901Y-92961901D02*
X85763000Y-92875000D01*
X85763000Y-92875000D02*
X87249000Y-94361000D01*
X92456000Y-94361000D02*
X87249000Y-94361000D01*
X82423000Y-104267000D02*
X72023000Y-104267000D01*
X70063000Y-102307000D02*
X68782000Y-102307000D01*
X72023000Y-104267000D02*
X70063000Y-102307000D01*
X87287500Y-97775000D02*
X87287500Y-99402500D01*
X93287500Y-102558500D02*
X93287500Y-101600000D01*
X94234000Y-103505000D02*
X93287500Y-102558500D01*
X98552000Y-103505000D02*
X94234000Y-103505000D01*
X100203000Y-101854000D02*
X98552000Y-103505000D01*
X100203000Y-97965500D02*
X100203000Y-101854000D01*
X73914000Y-80893000D02*
X72941000Y-79920000D01*
X72941000Y-79920000D02*
X72941000Y-78414000D01*
X73914000Y-91313000D02*
X73914000Y-80893000D01*
X75692000Y-93091000D02*
X73914000Y-91313000D01*
X82258000Y-92875000D02*
X82042000Y-93091000D01*
X84787500Y-92875000D02*
X82258000Y-92875000D01*
X79134750Y-92950250D02*
X78994000Y-93091000D01*
X79134750Y-91694000D02*
X79134750Y-92950250D01*
X78994000Y-93091000D02*
X75692000Y-93091000D01*
X82042000Y-93091000D02*
X78994000Y-93091000D01*
X85788500Y-100901500D02*
X82423000Y-104267000D01*
X84128500Y-100901500D02*
X85788500Y-100901500D01*
X80899000Y-97672000D02*
X84128500Y-100901500D01*
X87287500Y-99402500D02*
X85788500Y-100901500D01*
X88887500Y-84696500D02*
X88887500Y-86375000D01*
X82853750Y-82550000D02*
X86741000Y-82550000D01*
X86741000Y-82550000D02*
X88887500Y-84696500D01*
X82835750Y-82532000D02*
X82853750Y-82550000D01*
X85725000Y-81534000D02*
X85725000Y-80400000D01*
X86741000Y-82550000D02*
X85725000Y-81534000D01*
X72941000Y-78414000D02*
X72941000Y-75989000D01*
D24*
X87341125Y-79467125D02*
X87341125Y-82261125D01*
X87341125Y-82261125D02*
X89687500Y-84607500D01*
X89687500Y-84607500D02*
X89687500Y-86375000D01*
X87341125Y-79467125D02*
X87341125Y-79254875D01*
X87341125Y-79254875D02*
X87341125Y-79213125D01*
X88962500Y-78350000D02*
X89081250Y-78468750D01*
X85725000Y-78350000D02*
X88962500Y-78350000D01*
X85725000Y-78350000D02*
X86525000Y-78350000D01*
X87341125Y-79254875D02*
X87341125Y-79848125D01*
X87341125Y-79848125D02*
X87341125Y-79467125D01*
X87341125Y-79848125D02*
X87341125Y-82261125D01*
X87341125Y-79848125D02*
X87341125Y-79663875D01*
X88127250Y-78468750D02*
X89081250Y-78468750D01*
X87341125Y-79254875D02*
X88127250Y-78468750D01*
X82240750Y-92075000D02*
X83783500Y-92075000D01*
X81859750Y-91694000D02*
X82240750Y-92075000D01*
X83783500Y-92075000D02*
X84787500Y-92075000D01*
X81184750Y-91694000D02*
X81859750Y-91694000D01*
D25*
X99900000Y-88875000D02*
X100156250Y-89131250D01*
X96187500Y-88875000D02*
X99900000Y-88875000D01*
X94487500Y-100750000D02*
X95337500Y-101600000D01*
X94487500Y-97775000D02*
X94487500Y-100750000D01*
X82805750Y-84552000D02*
X82835750Y-84582000D01*
X83401000Y-91275000D02*
X84787500Y-91275000D01*
X83058000Y-90932000D02*
X83401000Y-91275000D01*
X83083000Y-95275000D02*
X84787500Y-95275000D01*
X95464500Y-101727000D02*
X95337500Y-101600000D01*
X96901000Y-101727000D02*
X95464500Y-101727000D01*
X100260500Y-89027000D02*
X100156250Y-89131250D01*
X102743000Y-89027000D02*
X100260500Y-89027000D01*
X73648000Y-95622000D02*
X80899000Y-95622000D01*
X68580000Y-90554000D02*
X73648000Y-95622000D01*
X82736000Y-95622000D02*
X83083000Y-95275000D01*
X80899000Y-95622000D02*
X82736000Y-95622000D01*
X86487500Y-98805500D02*
X86487500Y-97775000D01*
X83083000Y-97942000D02*
X84836000Y-99695000D01*
X85598000Y-99695000D02*
X86487500Y-98805500D01*
X84836000Y-99695000D02*
X85598000Y-99695000D01*
X83083000Y-95275000D02*
X83083000Y-97942000D01*
X88087500Y-84912500D02*
X88087500Y-86375000D01*
X84709000Y-83947000D02*
X87122000Y-83947000D01*
X87122000Y-83947000D02*
X88087500Y-84912500D01*
X84074000Y-84582000D02*
X84709000Y-83947000D01*
X82835750Y-84582000D02*
X84074000Y-84582000D01*
X82677000Y-84582000D02*
X81153000Y-83058000D01*
X82835750Y-84582000D02*
X82677000Y-84582000D01*
X79892510Y-82462641D02*
X79740934Y-82311065D01*
X79756000Y-83058000D02*
X79375000Y-82677000D01*
X81153000Y-83058000D02*
X79756000Y-83058000D01*
D24*
X118125000Y-80168750D02*
X120650000Y-80168750D01*
X115212500Y-77256250D02*
X118125000Y-80168750D01*
X120650000Y-84172750D02*
X120650000Y-83468750D01*
X113547750Y-91275000D02*
X120650000Y-84172750D01*
X96187500Y-91275000D02*
X113547750Y-91275000D01*
X137478750Y-84836000D02*
X138846000Y-83468750D01*
X122167250Y-84836000D02*
X137478750Y-84836000D01*
X120800000Y-83468750D02*
X122167250Y-84836000D01*
X138846000Y-83468750D02*
X139700000Y-83468750D01*
X120650000Y-83468750D02*
X120800000Y-83468750D01*
X134882500Y-77256250D02*
X134262500Y-77256250D01*
X137795000Y-80168750D02*
X134882500Y-77256250D01*
X139700000Y-80168750D02*
X137795000Y-80168750D01*
X118062500Y-99156250D02*
X120650000Y-99156250D01*
X115212500Y-96306250D02*
X118062500Y-99156250D01*
X121504000Y-102456250D02*
X122806750Y-103759000D01*
X120650000Y-102456250D02*
X121504000Y-102456250D01*
X138846000Y-102456250D02*
X139700000Y-102456250D01*
X137543250Y-103759000D02*
X138846000Y-102456250D01*
X122806750Y-103759000D02*
X137543250Y-103759000D01*
X118493250Y-103759000D02*
X119796000Y-102456250D01*
X105537000Y-95377000D02*
X105537000Y-101346000D01*
X105537000Y-101346000D02*
X107950000Y-103759000D01*
X119796000Y-102456250D02*
X120650000Y-102456250D01*
X103835000Y-93675000D02*
X105537000Y-95377000D01*
X107950000Y-103759000D02*
X118493250Y-103759000D01*
X96187500Y-93675000D02*
X103835000Y-93675000D01*
X137112500Y-99156250D02*
X139700000Y-99156250D01*
X134262500Y-96306250D02*
X137112500Y-99156250D01*
D25*
X67619000Y-81225000D02*
X68924000Y-79920000D01*
X67619000Y-85399000D02*
X67619000Y-81225000D01*
X68924000Y-79920000D02*
X69741000Y-79920000D01*
X68580000Y-86360000D02*
X67619000Y-85399000D01*
X69741000Y-79920000D02*
X69741000Y-78414000D01*
X68580000Y-87754000D02*
X68580000Y-86360000D01*
D24*
X108902500Y-97091500D02*
X104686000Y-92875000D01*
X104686000Y-92875000D02*
X96187500Y-92875000D01*
X108902500Y-98266250D02*
X108902500Y-97091500D01*
X127952500Y-79216250D02*
X127952500Y-80200500D01*
X127952500Y-98234500D02*
X127952500Y-98266250D01*
X121793000Y-92075000D02*
X127952500Y-98234500D01*
X96187500Y-92075000D02*
X121793000Y-92075000D01*
X74982000Y-98552000D02*
X76835000Y-98552000D01*
X79375000Y-85217000D02*
X79375000Y-84552000D01*
X87287500Y-86375000D02*
X87287500Y-85371000D01*
X84074000Y-85852000D02*
X80010000Y-85852000D01*
X80010000Y-85852000D02*
X79375000Y-85217000D01*
X85090000Y-84836000D02*
X84074000Y-85852000D01*
X86752500Y-84836000D02*
X85090000Y-84836000D01*
X87287500Y-85371000D02*
X86752500Y-84836000D01*
X78008000Y-83185000D02*
X76835000Y-83185000D01*
X79375000Y-84552000D02*
X78008000Y-83185000D01*
X83693000Y-93853000D02*
X83871000Y-93675000D01*
X83871000Y-93675000D02*
X84787500Y-93675000D01*
X74937066Y-93853000D02*
X83693000Y-93853000D01*
X72390000Y-91305934D02*
X74937066Y-93853000D01*
X72390000Y-84425000D02*
X72390000Y-91305934D01*
X71251000Y-81411000D02*
X72390000Y-82550000D01*
X71341000Y-79793000D02*
X71251000Y-79883000D01*
X71251000Y-79883000D02*
X71251000Y-81411000D01*
X71341000Y-78414000D02*
X71341000Y-79793000D01*
X71882000Y-86838000D02*
X69469000Y-84425000D01*
X71882000Y-91567000D02*
X71882000Y-86838000D01*
X74676000Y-94361000D02*
X71882000Y-91567000D01*
X83693000Y-94361000D02*
X74676000Y-94361000D01*
X83808170Y-94476170D02*
X83693000Y-94361000D01*
X83935170Y-94476170D02*
X83808170Y-94476170D01*
X84787500Y-94475000D02*
X83935170Y-94476170D01*
X70541000Y-78414000D02*
X70541000Y-79812000D01*
X70541000Y-79812000D02*
X70739000Y-80010000D01*
X70739000Y-80010000D02*
X70739000Y-81280000D01*
X70739000Y-81280000D02*
X70294500Y-81724500D01*
X70294500Y-81724500D02*
X69469000Y-82550000D01*
X100187500Y-96075000D02*
X100203000Y-96090500D01*
X96187500Y-96075000D02*
X100187500Y-96075000D01*
G36*
X89208250Y-80041750D02*
G01*
X89228250Y-80041750D01*
X89228250Y-80295750D01*
X89208250Y-80295750D01*
X89208250Y-81245000D01*
X89367000Y-81403750D01*
X89781250Y-81406822D01*
X89905732Y-81394562D01*
X90025430Y-81358252D01*
X90135744Y-81299287D01*
X90181250Y-81261941D01*
X90226756Y-81299287D01*
X90337070Y-81358252D01*
X90456768Y-81394562D01*
X90519251Y-81400716D01*
X90519250Y-83536119D01*
X90108369Y-83947000D01*
X90104631Y-83947000D01*
X88103125Y-81945495D01*
X88103125Y-81340108D01*
X88137070Y-81358252D01*
X88256768Y-81394562D01*
X88381250Y-81406822D01*
X88795500Y-81403750D01*
X88954250Y-81245000D01*
X88954250Y-80295750D01*
X88934250Y-80295750D01*
X88934250Y-80041750D01*
X88954250Y-80041750D01*
X88954250Y-80021750D01*
X89208250Y-80021750D01*
X89208250Y-80041750D01*
X89208250Y-80041750D01*
G37*
X89208250Y-80041750D02*
X89228250Y-80041750D01*
X89228250Y-80295750D01*
X89208250Y-80295750D01*
X89208250Y-81245000D01*
X89367000Y-81403750D01*
X89781250Y-81406822D01*
X89905732Y-81394562D01*
X90025430Y-81358252D01*
X90135744Y-81299287D01*
X90181250Y-81261941D01*
X90226756Y-81299287D01*
X90337070Y-81358252D01*
X90456768Y-81394562D01*
X90519251Y-81400716D01*
X90519250Y-83536119D01*
X90108369Y-83947000D01*
X90104631Y-83947000D01*
X88103125Y-81945495D01*
X88103125Y-81340108D01*
X88137070Y-81358252D01*
X88256768Y-81394562D01*
X88381250Y-81406822D01*
X88795500Y-81403750D01*
X88954250Y-81245000D01*
X88954250Y-80295750D01*
X88934250Y-80295750D01*
X88934250Y-80041750D01*
X88954250Y-80041750D01*
X88954250Y-80021750D01*
X89208250Y-80021750D01*
X89208250Y-80041750D01*
G36*
X96901000Y-83947000D02*
G01*
X92037555Y-83947000D01*
X92043250Y-83889176D01*
X92043250Y-83889174D01*
X92046936Y-83851751D01*
X92043250Y-83814328D01*
X92043250Y-81400716D01*
X92105732Y-81394562D01*
X92225430Y-81358252D01*
X92335744Y-81299287D01*
X92432435Y-81219935D01*
X92511787Y-81123244D01*
X92570752Y-81012930D01*
X92595681Y-80930750D01*
X93145099Y-80930750D01*
X93185778Y-81064851D01*
X93267845Y-81218387D01*
X93378288Y-81352962D01*
X93512863Y-81463405D01*
X93666399Y-81545472D01*
X93832995Y-81596008D01*
X94006249Y-81613072D01*
X94906251Y-81613072D01*
X95079505Y-81596008D01*
X95246101Y-81545472D01*
X95399637Y-81463405D01*
X95534212Y-81352962D01*
X95644655Y-81218387D01*
X95726722Y-81064851D01*
X95777258Y-80898255D01*
X95794322Y-80725001D01*
X95794322Y-80074999D01*
X95777258Y-79901745D01*
X95726722Y-79735149D01*
X95644655Y-79581613D01*
X95534212Y-79447038D01*
X95527656Y-79441658D01*
X95607435Y-79376185D01*
X95686787Y-79279494D01*
X95745752Y-79169180D01*
X95782062Y-79049482D01*
X95794322Y-78925000D01*
X95791250Y-78635750D01*
X95632500Y-78477000D01*
X94583250Y-78477000D01*
X94583250Y-78497000D01*
X94329250Y-78497000D01*
X94329250Y-78477000D01*
X93280000Y-78477000D01*
X93121250Y-78635750D01*
X93118178Y-78925000D01*
X93130438Y-79049482D01*
X93166748Y-79169180D01*
X93225713Y-79279494D01*
X93305065Y-79376185D01*
X93342309Y-79406750D01*
X92595681Y-79406750D01*
X92570752Y-79324570D01*
X92567641Y-79318750D01*
X92570752Y-79312930D01*
X92607062Y-79193232D01*
X92619322Y-79068750D01*
X92616250Y-78754500D01*
X92457500Y-78595750D01*
X91408250Y-78595750D01*
X91408250Y-78615750D01*
X91154250Y-78615750D01*
X91154250Y-78595750D01*
X91134250Y-78595750D01*
X91134250Y-78341750D01*
X91154250Y-78341750D01*
X91154250Y-77392500D01*
X91408250Y-77392500D01*
X91408250Y-78341750D01*
X92457500Y-78341750D01*
X92616250Y-78183000D01*
X92619322Y-77868750D01*
X92610089Y-77775000D01*
X93118178Y-77775000D01*
X93121250Y-78064250D01*
X93280000Y-78223000D01*
X94329250Y-78223000D01*
X94329250Y-77298750D01*
X94583250Y-77298750D01*
X94583250Y-78223000D01*
X95632500Y-78223000D01*
X95791250Y-78064250D01*
X95794322Y-77775000D01*
X95782062Y-77650518D01*
X95745752Y-77530820D01*
X95686787Y-77420506D01*
X95607435Y-77323815D01*
X95510744Y-77244463D01*
X95400430Y-77185498D01*
X95280732Y-77149188D01*
X95156250Y-77136928D01*
X94742000Y-77140000D01*
X94583250Y-77298750D01*
X94329250Y-77298750D01*
X94170500Y-77140000D01*
X93756250Y-77136928D01*
X93631768Y-77149188D01*
X93512070Y-77185498D01*
X93401756Y-77244463D01*
X93305065Y-77323815D01*
X93225713Y-77420506D01*
X93166748Y-77530820D01*
X93130438Y-77650518D01*
X93118178Y-77775000D01*
X92610089Y-77775000D01*
X92607062Y-77744268D01*
X92570752Y-77624570D01*
X92511787Y-77514256D01*
X92432435Y-77417565D01*
X92335744Y-77338213D01*
X92225430Y-77279248D01*
X92105732Y-77242938D01*
X91981250Y-77230678D01*
X91567000Y-77233750D01*
X91408250Y-77392500D01*
X91154250Y-77392500D01*
X90995500Y-77233750D01*
X90581250Y-77230678D01*
X90456768Y-77242938D01*
X90337070Y-77279248D01*
X90226756Y-77338213D01*
X90181250Y-77375559D01*
X90135744Y-77338213D01*
X90025430Y-77279248D01*
X89905732Y-77242938D01*
X89781250Y-77230678D01*
X88381250Y-77230678D01*
X88256768Y-77242938D01*
X88137070Y-77279248D01*
X88026756Y-77338213D01*
X87930065Y-77417565D01*
X87850713Y-77514256D01*
X87811295Y-77588000D01*
X86943545Y-77588000D01*
X86913405Y-77531613D01*
X86802962Y-77397038D01*
X86668387Y-77286595D01*
X86514851Y-77204528D01*
X86348255Y-77153992D01*
X86175001Y-77136928D01*
X85274999Y-77136928D01*
X85101745Y-77153992D01*
X84935149Y-77204528D01*
X84781613Y-77286595D01*
X84647038Y-77397038D01*
X84536595Y-77531613D01*
X84454528Y-77685149D01*
X84403992Y-77851745D01*
X84386928Y-78024999D01*
X84386928Y-78675001D01*
X84403992Y-78848255D01*
X84454528Y-79014851D01*
X84536595Y-79168387D01*
X84647038Y-79302962D01*
X84653594Y-79308342D01*
X84573815Y-79373815D01*
X84494463Y-79470506D01*
X84435498Y-79580820D01*
X84399188Y-79700518D01*
X84386928Y-79825000D01*
X84390000Y-80114250D01*
X84548750Y-80273000D01*
X85598000Y-80273000D01*
X85598000Y-80253000D01*
X85852000Y-80253000D01*
X85852000Y-80273000D01*
X85872000Y-80273000D01*
X85872000Y-80527000D01*
X85852000Y-80527000D01*
X85852000Y-81451250D01*
X86010750Y-81610000D01*
X86425000Y-81613072D01*
X86549482Y-81600812D01*
X86579126Y-81591820D01*
X86579126Y-82223692D01*
X86575439Y-82261125D01*
X86590152Y-82410503D01*
X86633724Y-82554140D01*
X86704480Y-82686517D01*
X86775846Y-82773476D01*
X86799704Y-82802547D01*
X86828774Y-82826404D01*
X87120066Y-83117696D01*
X87081450Y-83121500D01*
X84749550Y-83121500D01*
X84709000Y-83117506D01*
X84668449Y-83121500D01*
X84668447Y-83121500D01*
X84547174Y-83133444D01*
X84391566Y-83180647D01*
X84248157Y-83257301D01*
X84153958Y-83334608D01*
X84153957Y-83334609D01*
X84122459Y-83360459D01*
X84116245Y-83368031D01*
X84125252Y-83351180D01*
X84161562Y-83231482D01*
X84173822Y-83107000D01*
X84170750Y-82817750D01*
X84012000Y-82659000D01*
X83693000Y-82659000D01*
X83693000Y-82405000D01*
X84012000Y-82405000D01*
X84170750Y-82246250D01*
X84173822Y-81957000D01*
X84161562Y-81832518D01*
X84125252Y-81712820D01*
X84066287Y-81602506D01*
X83986935Y-81505815D01*
X83890244Y-81426463D01*
X83779930Y-81367498D01*
X83693000Y-81341128D01*
X83693000Y-80975000D01*
X84386928Y-80975000D01*
X84399188Y-81099482D01*
X84435498Y-81219180D01*
X84494463Y-81329494D01*
X84573815Y-81426185D01*
X84670506Y-81505537D01*
X84780820Y-81564502D01*
X84900518Y-81600812D01*
X85025000Y-81613072D01*
X85439250Y-81610000D01*
X85598000Y-81451250D01*
X85598000Y-80527000D01*
X84548750Y-80527000D01*
X84390000Y-80685750D01*
X84386928Y-80975000D01*
X83693000Y-80975000D01*
X83693000Y-75692000D01*
X96901000Y-75692000D01*
X96901000Y-83947000D01*
X96901000Y-83947000D01*
G37*
X96901000Y-83947000D02*
X92037555Y-83947000D01*
X92043250Y-83889176D01*
X92043250Y-83889174D01*
X92046936Y-83851751D01*
X92043250Y-83814328D01*
X92043250Y-81400716D01*
X92105732Y-81394562D01*
X92225430Y-81358252D01*
X92335744Y-81299287D01*
X92432435Y-81219935D01*
X92511787Y-81123244D01*
X92570752Y-81012930D01*
X92595681Y-80930750D01*
X93145099Y-80930750D01*
X93185778Y-81064851D01*
X93267845Y-81218387D01*
X93378288Y-81352962D01*
X93512863Y-81463405D01*
X93666399Y-81545472D01*
X93832995Y-81596008D01*
X94006249Y-81613072D01*
X94906251Y-81613072D01*
X95079505Y-81596008D01*
X95246101Y-81545472D01*
X95399637Y-81463405D01*
X95534212Y-81352962D01*
X95644655Y-81218387D01*
X95726722Y-81064851D01*
X95777258Y-80898255D01*
X95794322Y-80725001D01*
X95794322Y-80074999D01*
X95777258Y-79901745D01*
X95726722Y-79735149D01*
X95644655Y-79581613D01*
X95534212Y-79447038D01*
X95527656Y-79441658D01*
X95607435Y-79376185D01*
X95686787Y-79279494D01*
X95745752Y-79169180D01*
X95782062Y-79049482D01*
X95794322Y-78925000D01*
X95791250Y-78635750D01*
X95632500Y-78477000D01*
X94583250Y-78477000D01*
X94583250Y-78497000D01*
X94329250Y-78497000D01*
X94329250Y-78477000D01*
X93280000Y-78477000D01*
X93121250Y-78635750D01*
X93118178Y-78925000D01*
X93130438Y-79049482D01*
X93166748Y-79169180D01*
X93225713Y-79279494D01*
X93305065Y-79376185D01*
X93342309Y-79406750D01*
X92595681Y-79406750D01*
X92570752Y-79324570D01*
X92567641Y-79318750D01*
X92570752Y-79312930D01*
X92607062Y-79193232D01*
X92619322Y-79068750D01*
X92616250Y-78754500D01*
X92457500Y-78595750D01*
X91408250Y-78595750D01*
X91408250Y-78615750D01*
X91154250Y-78615750D01*
X91154250Y-78595750D01*
X91134250Y-78595750D01*
X91134250Y-78341750D01*
X91154250Y-78341750D01*
X91154250Y-77392500D01*
X91408250Y-77392500D01*
X91408250Y-78341750D01*
X92457500Y-78341750D01*
X92616250Y-78183000D01*
X92619322Y-77868750D01*
X92610089Y-77775000D01*
X93118178Y-77775000D01*
X93121250Y-78064250D01*
X93280000Y-78223000D01*
X94329250Y-78223000D01*
X94329250Y-77298750D01*
X94583250Y-77298750D01*
X94583250Y-78223000D01*
X95632500Y-78223000D01*
X95791250Y-78064250D01*
X95794322Y-77775000D01*
X95782062Y-77650518D01*
X95745752Y-77530820D01*
X95686787Y-77420506D01*
X95607435Y-77323815D01*
X95510744Y-77244463D01*
X95400430Y-77185498D01*
X95280732Y-77149188D01*
X95156250Y-77136928D01*
X94742000Y-77140000D01*
X94583250Y-77298750D01*
X94329250Y-77298750D01*
X94170500Y-77140000D01*
X93756250Y-77136928D01*
X93631768Y-77149188D01*
X93512070Y-77185498D01*
X93401756Y-77244463D01*
X93305065Y-77323815D01*
X93225713Y-77420506D01*
X93166748Y-77530820D01*
X93130438Y-77650518D01*
X93118178Y-77775000D01*
X92610089Y-77775000D01*
X92607062Y-77744268D01*
X92570752Y-77624570D01*
X92511787Y-77514256D01*
X92432435Y-77417565D01*
X92335744Y-77338213D01*
X92225430Y-77279248D01*
X92105732Y-77242938D01*
X91981250Y-77230678D01*
X91567000Y-77233750D01*
X91408250Y-77392500D01*
X91154250Y-77392500D01*
X90995500Y-77233750D01*
X90581250Y-77230678D01*
X90456768Y-77242938D01*
X90337070Y-77279248D01*
X90226756Y-77338213D01*
X90181250Y-77375559D01*
X90135744Y-77338213D01*
X90025430Y-77279248D01*
X89905732Y-77242938D01*
X89781250Y-77230678D01*
X88381250Y-77230678D01*
X88256768Y-77242938D01*
X88137070Y-77279248D01*
X88026756Y-77338213D01*
X87930065Y-77417565D01*
X87850713Y-77514256D01*
X87811295Y-77588000D01*
X86943545Y-77588000D01*
X86913405Y-77531613D01*
X86802962Y-77397038D01*
X86668387Y-77286595D01*
X86514851Y-77204528D01*
X86348255Y-77153992D01*
X86175001Y-77136928D01*
X85274999Y-77136928D01*
X85101745Y-77153992D01*
X84935149Y-77204528D01*
X84781613Y-77286595D01*
X84647038Y-77397038D01*
X84536595Y-77531613D01*
X84454528Y-77685149D01*
X84403992Y-77851745D01*
X84386928Y-78024999D01*
X84386928Y-78675001D01*
X84403992Y-78848255D01*
X84454528Y-79014851D01*
X84536595Y-79168387D01*
X84647038Y-79302962D01*
X84653594Y-79308342D01*
X84573815Y-79373815D01*
X84494463Y-79470506D01*
X84435498Y-79580820D01*
X84399188Y-79700518D01*
X84386928Y-79825000D01*
X84390000Y-80114250D01*
X84548750Y-80273000D01*
X85598000Y-80273000D01*
X85598000Y-80253000D01*
X85852000Y-80253000D01*
X85852000Y-80273000D01*
X85872000Y-80273000D01*
X85872000Y-80527000D01*
X85852000Y-80527000D01*
X85852000Y-81451250D01*
X86010750Y-81610000D01*
X86425000Y-81613072D01*
X86549482Y-81600812D01*
X86579126Y-81591820D01*
X86579126Y-82223692D01*
X86575439Y-82261125D01*
X86590152Y-82410503D01*
X86633724Y-82554140D01*
X86704480Y-82686517D01*
X86775846Y-82773476D01*
X86799704Y-82802547D01*
X86828774Y-82826404D01*
X87120066Y-83117696D01*
X87081450Y-83121500D01*
X84749550Y-83121500D01*
X84709000Y-83117506D01*
X84668449Y-83121500D01*
X84668447Y-83121500D01*
X84547174Y-83133444D01*
X84391566Y-83180647D01*
X84248157Y-83257301D01*
X84153958Y-83334608D01*
X84153957Y-83334609D01*
X84122459Y-83360459D01*
X84116245Y-83368031D01*
X84125252Y-83351180D01*
X84161562Y-83231482D01*
X84173822Y-83107000D01*
X84170750Y-82817750D01*
X84012000Y-82659000D01*
X83693000Y-82659000D01*
X83693000Y-82405000D01*
X84012000Y-82405000D01*
X84170750Y-82246250D01*
X84173822Y-81957000D01*
X84161562Y-81832518D01*
X84125252Y-81712820D01*
X84066287Y-81602506D01*
X83986935Y-81505815D01*
X83890244Y-81426463D01*
X83779930Y-81367498D01*
X83693000Y-81341128D01*
X83693000Y-80975000D01*
X84386928Y-80975000D01*
X84399188Y-81099482D01*
X84435498Y-81219180D01*
X84494463Y-81329494D01*
X84573815Y-81426185D01*
X84670506Y-81505537D01*
X84780820Y-81564502D01*
X84900518Y-81600812D01*
X85025000Y-81613072D01*
X85439250Y-81610000D01*
X85598000Y-81451250D01*
X85598000Y-80527000D01*
X84548750Y-80527000D01*
X84390000Y-80685750D01*
X84386928Y-80975000D01*
X83693000Y-80975000D01*
X83693000Y-75692000D01*
X96901000Y-75692000D01*
X96901000Y-83947000D01*
G36*
X88961315Y-87576185D02*
G01*
X89058006Y-87655537D01*
X89081167Y-87667917D01*
X89173250Y-87760000D01*
X89286837Y-87750454D01*
X89288018Y-87750812D01*
X89412500Y-87763072D01*
X89962500Y-87763072D01*
X90086982Y-87750812D01*
X90087500Y-87750655D01*
X90088018Y-87750812D01*
X90212500Y-87763072D01*
X90762500Y-87763072D01*
X90886982Y-87750812D01*
X90887500Y-87750655D01*
X90888018Y-87750812D01*
X91012500Y-87763072D01*
X91562500Y-87763072D01*
X91686982Y-87750812D01*
X91687500Y-87750655D01*
X91688018Y-87750812D01*
X91812500Y-87763072D01*
X92362500Y-87763072D01*
X92486982Y-87750812D01*
X92487500Y-87750655D01*
X92488018Y-87750812D01*
X92612500Y-87763072D01*
X93162500Y-87763072D01*
X93286982Y-87750812D01*
X93287500Y-87750655D01*
X93288018Y-87750812D01*
X93412500Y-87763072D01*
X93962500Y-87763072D01*
X94086982Y-87750812D01*
X94087500Y-87750655D01*
X94088018Y-87750812D01*
X94212500Y-87763072D01*
X94762500Y-87763072D01*
X94805052Y-87758881D01*
X94802500Y-87789250D01*
X94961250Y-87948000D01*
X94996000Y-87948000D01*
X94996000Y-88140867D01*
X94986315Y-88148815D01*
X94906963Y-88245506D01*
X94894583Y-88268667D01*
X94802500Y-88360750D01*
X94812046Y-88474337D01*
X94811688Y-88475518D01*
X94799428Y-88600000D01*
X94799428Y-89150000D01*
X94811688Y-89274482D01*
X94811845Y-89275000D01*
X94811688Y-89275518D01*
X94799428Y-89400000D01*
X94799428Y-89950000D01*
X94811688Y-90074482D01*
X94811845Y-90075000D01*
X94811688Y-90075518D01*
X94799428Y-90200000D01*
X94799428Y-90750000D01*
X94811688Y-90874482D01*
X94811845Y-90875000D01*
X94811688Y-90875518D01*
X94799428Y-91000000D01*
X94799428Y-91550000D01*
X94811688Y-91674482D01*
X94811845Y-91675000D01*
X94811688Y-91675518D01*
X94799428Y-91800000D01*
X94799428Y-92350000D01*
X94811688Y-92474482D01*
X94811845Y-92475000D01*
X94811688Y-92475518D01*
X94799428Y-92600000D01*
X94799428Y-93150000D01*
X94811688Y-93274482D01*
X94811845Y-93275000D01*
X94811688Y-93275518D01*
X94799428Y-93400000D01*
X94799428Y-93950000D01*
X94811688Y-94074482D01*
X94811845Y-94075000D01*
X94811688Y-94075518D01*
X94799428Y-94200000D01*
X94799428Y-94750000D01*
X94811688Y-94874482D01*
X94811845Y-94875000D01*
X94811688Y-94875518D01*
X94799428Y-95000000D01*
X94799428Y-95550000D01*
X94811688Y-95674482D01*
X94811845Y-95675000D01*
X94811688Y-95675518D01*
X94799428Y-95800000D01*
X94799428Y-96350000D01*
X94803462Y-96390962D01*
X94762500Y-96386928D01*
X94212500Y-96386928D01*
X94088018Y-96399188D01*
X94086837Y-96399546D01*
X93973250Y-96390000D01*
X93881167Y-96482083D01*
X93858006Y-96494463D01*
X93761315Y-96573815D01*
X93701254Y-96647000D01*
X93673746Y-96647000D01*
X93613685Y-96573815D01*
X93516994Y-96494463D01*
X93493833Y-96482083D01*
X93401750Y-96390000D01*
X93288163Y-96399546D01*
X93286982Y-96399188D01*
X93162500Y-96386928D01*
X92612500Y-96386928D01*
X92488018Y-96399188D01*
X92487500Y-96399345D01*
X92486982Y-96399188D01*
X92362500Y-96386928D01*
X91812500Y-96386928D01*
X91688018Y-96399188D01*
X91687500Y-96399345D01*
X91686982Y-96399188D01*
X91562500Y-96386928D01*
X91012500Y-96386928D01*
X90888018Y-96399188D01*
X90887500Y-96399345D01*
X90886982Y-96399188D01*
X90762500Y-96386928D01*
X90212500Y-96386928D01*
X90088018Y-96399188D01*
X90087500Y-96399345D01*
X90086982Y-96399188D01*
X89962500Y-96386928D01*
X89412500Y-96386928D01*
X89288018Y-96399188D01*
X89287500Y-96399345D01*
X89286982Y-96399188D01*
X89162500Y-96386928D01*
X88612500Y-96386928D01*
X88488018Y-96399188D01*
X88487500Y-96399345D01*
X88486982Y-96399188D01*
X88362500Y-96386928D01*
X87812500Y-96386928D01*
X87688018Y-96399188D01*
X87686837Y-96399546D01*
X87573250Y-96390000D01*
X87481167Y-96482083D01*
X87458006Y-96494463D01*
X87361315Y-96573815D01*
X87301254Y-96647000D01*
X87273746Y-96647000D01*
X87213685Y-96573815D01*
X87116994Y-96494463D01*
X87093833Y-96482083D01*
X87001750Y-96390000D01*
X86888163Y-96399546D01*
X86886982Y-96399188D01*
X86762500Y-96386928D01*
X86212500Y-96386928D01*
X86171538Y-96390962D01*
X86175572Y-96350000D01*
X86175572Y-95800000D01*
X86163312Y-95675518D01*
X86163155Y-95675000D01*
X86163312Y-95674482D01*
X86175572Y-95550000D01*
X86175572Y-95000000D01*
X86163312Y-94875518D01*
X86163155Y-94875000D01*
X86163312Y-94874482D01*
X86175572Y-94750000D01*
X86175572Y-94200000D01*
X86163312Y-94075518D01*
X86163155Y-94075000D01*
X86163312Y-94074482D01*
X86175572Y-93950000D01*
X86175572Y-93400000D01*
X86163312Y-93275518D01*
X86162954Y-93274337D01*
X86172500Y-93160750D01*
X86080417Y-93068667D01*
X86068037Y-93045506D01*
X85988685Y-92948815D01*
X85898741Y-92875000D01*
X85988685Y-92801185D01*
X86068037Y-92704494D01*
X86080417Y-92681333D01*
X86172500Y-92589250D01*
X86162954Y-92475663D01*
X86163312Y-92474482D01*
X86175572Y-92350000D01*
X86175572Y-91800000D01*
X86163312Y-91675518D01*
X86163155Y-91675000D01*
X86163312Y-91674482D01*
X86175572Y-91550000D01*
X86175572Y-91000000D01*
X86163312Y-90875518D01*
X86163155Y-90875000D01*
X86163312Y-90874482D01*
X86175572Y-90750000D01*
X86175572Y-90200000D01*
X86163312Y-90075518D01*
X86163155Y-90075000D01*
X86163312Y-90074482D01*
X86175572Y-89950000D01*
X86175572Y-89400000D01*
X86163312Y-89275518D01*
X86163155Y-89275000D01*
X86163312Y-89274482D01*
X86175572Y-89150000D01*
X86175572Y-88600000D01*
X86163312Y-88475518D01*
X86163155Y-88475000D01*
X86163312Y-88474482D01*
X86175572Y-88350000D01*
X86175572Y-87800000D01*
X86171538Y-87759038D01*
X86212500Y-87763072D01*
X86762500Y-87763072D01*
X86886982Y-87750812D01*
X86887500Y-87750655D01*
X86888018Y-87750812D01*
X87012500Y-87763072D01*
X87562500Y-87763072D01*
X87686982Y-87750812D01*
X87687500Y-87750655D01*
X87688018Y-87750812D01*
X87812500Y-87763072D01*
X88362500Y-87763072D01*
X88486982Y-87750812D01*
X88488163Y-87750454D01*
X88601750Y-87760000D01*
X88693833Y-87667917D01*
X88716994Y-87655537D01*
X88813685Y-87576185D01*
X88887500Y-87486241D01*
X88961315Y-87576185D01*
X88961315Y-87576185D01*
G37*
X88961315Y-87576185D02*
X89058006Y-87655537D01*
X89081167Y-87667917D01*
X89173250Y-87760000D01*
X89286837Y-87750454D01*
X89288018Y-87750812D01*
X89412500Y-87763072D01*
X89962500Y-87763072D01*
X90086982Y-87750812D01*
X90087500Y-87750655D01*
X90088018Y-87750812D01*
X90212500Y-87763072D01*
X90762500Y-87763072D01*
X90886982Y-87750812D01*
X90887500Y-87750655D01*
X90888018Y-87750812D01*
X91012500Y-87763072D01*
X91562500Y-87763072D01*
X91686982Y-87750812D01*
X91687500Y-87750655D01*
X91688018Y-87750812D01*
X91812500Y-87763072D01*
X92362500Y-87763072D01*
X92486982Y-87750812D01*
X92487500Y-87750655D01*
X92488018Y-87750812D01*
X92612500Y-87763072D01*
X93162500Y-87763072D01*
X93286982Y-87750812D01*
X93287500Y-87750655D01*
X93288018Y-87750812D01*
X93412500Y-87763072D01*
X93962500Y-87763072D01*
X94086982Y-87750812D01*
X94087500Y-87750655D01*
X94088018Y-87750812D01*
X94212500Y-87763072D01*
X94762500Y-87763072D01*
X94805052Y-87758881D01*
X94802500Y-87789250D01*
X94961250Y-87948000D01*
X94996000Y-87948000D01*
X94996000Y-88140867D01*
X94986315Y-88148815D01*
X94906963Y-88245506D01*
X94894583Y-88268667D01*
X94802500Y-88360750D01*
X94812046Y-88474337D01*
X94811688Y-88475518D01*
X94799428Y-88600000D01*
X94799428Y-89150000D01*
X94811688Y-89274482D01*
X94811845Y-89275000D01*
X94811688Y-89275518D01*
X94799428Y-89400000D01*
X94799428Y-89950000D01*
X94811688Y-90074482D01*
X94811845Y-90075000D01*
X94811688Y-90075518D01*
X94799428Y-90200000D01*
X94799428Y-90750000D01*
X94811688Y-90874482D01*
X94811845Y-90875000D01*
X94811688Y-90875518D01*
X94799428Y-91000000D01*
X94799428Y-91550000D01*
X94811688Y-91674482D01*
X94811845Y-91675000D01*
X94811688Y-91675518D01*
X94799428Y-91800000D01*
X94799428Y-92350000D01*
X94811688Y-92474482D01*
X94811845Y-92475000D01*
X94811688Y-92475518D01*
X94799428Y-92600000D01*
X94799428Y-93150000D01*
X94811688Y-93274482D01*
X94811845Y-93275000D01*
X94811688Y-93275518D01*
X94799428Y-93400000D01*
X94799428Y-93950000D01*
X94811688Y-94074482D01*
X94811845Y-94075000D01*
X94811688Y-94075518D01*
X94799428Y-94200000D01*
X94799428Y-94750000D01*
X94811688Y-94874482D01*
X94811845Y-94875000D01*
X94811688Y-94875518D01*
X94799428Y-95000000D01*
X94799428Y-95550000D01*
X94811688Y-95674482D01*
X94811845Y-95675000D01*
X94811688Y-95675518D01*
X94799428Y-95800000D01*
X94799428Y-96350000D01*
X94803462Y-96390962D01*
X94762500Y-96386928D01*
X94212500Y-96386928D01*
X94088018Y-96399188D01*
X94086837Y-96399546D01*
X93973250Y-96390000D01*
X93881167Y-96482083D01*
X93858006Y-96494463D01*
X93761315Y-96573815D01*
X93701254Y-96647000D01*
X93673746Y-96647000D01*
X93613685Y-96573815D01*
X93516994Y-96494463D01*
X93493833Y-96482083D01*
X93401750Y-96390000D01*
X93288163Y-96399546D01*
X93286982Y-96399188D01*
X93162500Y-96386928D01*
X92612500Y-96386928D01*
X92488018Y-96399188D01*
X92487500Y-96399345D01*
X92486982Y-96399188D01*
X92362500Y-96386928D01*
X91812500Y-96386928D01*
X91688018Y-96399188D01*
X91687500Y-96399345D01*
X91686982Y-96399188D01*
X91562500Y-96386928D01*
X91012500Y-96386928D01*
X90888018Y-96399188D01*
X90887500Y-96399345D01*
X90886982Y-96399188D01*
X90762500Y-96386928D01*
X90212500Y-96386928D01*
X90088018Y-96399188D01*
X90087500Y-96399345D01*
X90086982Y-96399188D01*
X89962500Y-96386928D01*
X89412500Y-96386928D01*
X89288018Y-96399188D01*
X89287500Y-96399345D01*
X89286982Y-96399188D01*
X89162500Y-96386928D01*
X88612500Y-96386928D01*
X88488018Y-96399188D01*
X88487500Y-96399345D01*
X88486982Y-96399188D01*
X88362500Y-96386928D01*
X87812500Y-96386928D01*
X87688018Y-96399188D01*
X87686837Y-96399546D01*
X87573250Y-96390000D01*
X87481167Y-96482083D01*
X87458006Y-96494463D01*
X87361315Y-96573815D01*
X87301254Y-96647000D01*
X87273746Y-96647000D01*
X87213685Y-96573815D01*
X87116994Y-96494463D01*
X87093833Y-96482083D01*
X87001750Y-96390000D01*
X86888163Y-96399546D01*
X86886982Y-96399188D01*
X86762500Y-96386928D01*
X86212500Y-96386928D01*
X86171538Y-96390962D01*
X86175572Y-96350000D01*
X86175572Y-95800000D01*
X86163312Y-95675518D01*
X86163155Y-95675000D01*
X86163312Y-95674482D01*
X86175572Y-95550000D01*
X86175572Y-95000000D01*
X86163312Y-94875518D01*
X86163155Y-94875000D01*
X86163312Y-94874482D01*
X86175572Y-94750000D01*
X86175572Y-94200000D01*
X86163312Y-94075518D01*
X86163155Y-94075000D01*
X86163312Y-94074482D01*
X86175572Y-93950000D01*
X86175572Y-93400000D01*
X86163312Y-93275518D01*
X86162954Y-93274337D01*
X86172500Y-93160750D01*
X86080417Y-93068667D01*
X86068037Y-93045506D01*
X85988685Y-92948815D01*
X85898741Y-92875000D01*
X85988685Y-92801185D01*
X86068037Y-92704494D01*
X86080417Y-92681333D01*
X86172500Y-92589250D01*
X86162954Y-92475663D01*
X86163312Y-92474482D01*
X86175572Y-92350000D01*
X86175572Y-91800000D01*
X86163312Y-91675518D01*
X86163155Y-91675000D01*
X86163312Y-91674482D01*
X86175572Y-91550000D01*
X86175572Y-91000000D01*
X86163312Y-90875518D01*
X86163155Y-90875000D01*
X86163312Y-90874482D01*
X86175572Y-90750000D01*
X86175572Y-90200000D01*
X86163312Y-90075518D01*
X86163155Y-90075000D01*
X86163312Y-90074482D01*
X86175572Y-89950000D01*
X86175572Y-89400000D01*
X86163312Y-89275518D01*
X86163155Y-89275000D01*
X86163312Y-89274482D01*
X86175572Y-89150000D01*
X86175572Y-88600000D01*
X86163312Y-88475518D01*
X86163155Y-88475000D01*
X86163312Y-88474482D01*
X86175572Y-88350000D01*
X86175572Y-87800000D01*
X86171538Y-87759038D01*
X86212500Y-87763072D01*
X86762500Y-87763072D01*
X86886982Y-87750812D01*
X86887500Y-87750655D01*
X86888018Y-87750812D01*
X87012500Y-87763072D01*
X87562500Y-87763072D01*
X87686982Y-87750812D01*
X87687500Y-87750655D01*
X87688018Y-87750812D01*
X87812500Y-87763072D01*
X88362500Y-87763072D01*
X88486982Y-87750812D01*
X88488163Y-87750454D01*
X88601750Y-87760000D01*
X88693833Y-87667917D01*
X88716994Y-87655537D01*
X88813685Y-87576185D01*
X88887500Y-87486241D01*
X88961315Y-87576185D01*
G36*
X73527487Y-73122889D02*
G01*
X73506000Y-73341050D01*
X73506000Y-74486949D01*
X73527487Y-74705110D01*
X73612401Y-74985033D01*
X73750294Y-75243013D01*
X73935866Y-75469134D01*
X74161986Y-75654706D01*
X74419966Y-75792599D01*
X74699889Y-75877513D01*
X74991000Y-75906185D01*
X75057000Y-75899685D01*
X75057000Y-76428315D01*
X74991000Y-76421815D01*
X74699890Y-76450487D01*
X74419967Y-76535401D01*
X74161987Y-76673294D01*
X73935867Y-76858866D01*
X73781123Y-77047421D01*
X73725406Y-76940366D01*
X73647123Y-76842807D01*
X73551311Y-76762396D01*
X73441652Y-76702221D01*
X73322361Y-76664596D01*
X73222750Y-76654000D01*
X73064000Y-76812750D01*
X73064000Y-78287000D01*
X73088000Y-78287000D01*
X73088000Y-78541000D01*
X73064000Y-78541000D01*
X73064000Y-78561000D01*
X73029072Y-78561000D01*
X73029072Y-77289000D01*
X73016812Y-77164518D01*
X72980502Y-77044820D01*
X72921537Y-76934506D01*
X72842185Y-76837815D01*
X72818000Y-76817967D01*
X72818000Y-76812750D01*
X72659250Y-76654000D01*
X72559639Y-76664596D01*
X72540266Y-76670706D01*
X72515482Y-76663188D01*
X72391000Y-76650928D01*
X71891000Y-76650928D01*
X71766518Y-76663188D01*
X71741000Y-76670929D01*
X71715482Y-76663188D01*
X71591000Y-76650928D01*
X71091000Y-76650928D01*
X70966518Y-76663188D01*
X70941000Y-76670929D01*
X70915482Y-76663188D01*
X70791000Y-76650928D01*
X70291000Y-76650928D01*
X70166518Y-76663188D01*
X70141000Y-76670929D01*
X70115482Y-76663188D01*
X69991000Y-76650928D01*
X69491000Y-76650928D01*
X69366518Y-76663188D01*
X69246820Y-76699498D01*
X69136506Y-76758463D01*
X69039815Y-76837815D01*
X68960463Y-76934506D01*
X68901498Y-77044820D01*
X68900754Y-77047271D01*
X68746134Y-76858866D01*
X68520014Y-76673294D01*
X68262034Y-76535401D01*
X67982111Y-76450487D01*
X67691000Y-76421815D01*
X67691000Y-75906185D01*
X67982110Y-75877513D01*
X68262033Y-75792599D01*
X68520013Y-75654706D01*
X68746134Y-75469134D01*
X68931706Y-75243014D01*
X69069599Y-74985034D01*
X69154513Y-74705111D01*
X69176000Y-74486950D01*
X69176000Y-73341050D01*
X69154513Y-73122889D01*
X69084246Y-72891250D01*
X73597754Y-72891250D01*
X73527487Y-73122889D01*
X73527487Y-73122889D01*
G37*
X73527487Y-73122889D02*
X73506000Y-73341050D01*
X73506000Y-74486949D01*
X73527487Y-74705110D01*
X73612401Y-74985033D01*
X73750294Y-75243013D01*
X73935866Y-75469134D01*
X74161986Y-75654706D01*
X74419966Y-75792599D01*
X74699889Y-75877513D01*
X74991000Y-75906185D01*
X75057000Y-75899685D01*
X75057000Y-76428315D01*
X74991000Y-76421815D01*
X74699890Y-76450487D01*
X74419967Y-76535401D01*
X74161987Y-76673294D01*
X73935867Y-76858866D01*
X73781123Y-77047421D01*
X73725406Y-76940366D01*
X73647123Y-76842807D01*
X73551311Y-76762396D01*
X73441652Y-76702221D01*
X73322361Y-76664596D01*
X73222750Y-76654000D01*
X73064000Y-76812750D01*
X73064000Y-78287000D01*
X73088000Y-78287000D01*
X73088000Y-78541000D01*
X73064000Y-78541000D01*
X73064000Y-78561000D01*
X73029072Y-78561000D01*
X73029072Y-77289000D01*
X73016812Y-77164518D01*
X72980502Y-77044820D01*
X72921537Y-76934506D01*
X72842185Y-76837815D01*
X72818000Y-76817967D01*
X72818000Y-76812750D01*
X72659250Y-76654000D01*
X72559639Y-76664596D01*
X72540266Y-76670706D01*
X72515482Y-76663188D01*
X72391000Y-76650928D01*
X71891000Y-76650928D01*
X71766518Y-76663188D01*
X71741000Y-76670929D01*
X71715482Y-76663188D01*
X71591000Y-76650928D01*
X71091000Y-76650928D01*
X70966518Y-76663188D01*
X70941000Y-76670929D01*
X70915482Y-76663188D01*
X70791000Y-76650928D01*
X70291000Y-76650928D01*
X70166518Y-76663188D01*
X70141000Y-76670929D01*
X70115482Y-76663188D01*
X69991000Y-76650928D01*
X69491000Y-76650928D01*
X69366518Y-76663188D01*
X69246820Y-76699498D01*
X69136506Y-76758463D01*
X69039815Y-76837815D01*
X68960463Y-76934506D01*
X68901498Y-77044820D01*
X68900754Y-77047271D01*
X68746134Y-76858866D01*
X68520014Y-76673294D01*
X68262034Y-76535401D01*
X67982111Y-76450487D01*
X67691000Y-76421815D01*
X67691000Y-75906185D01*
X67982110Y-75877513D01*
X68262033Y-75792599D01*
X68520013Y-75654706D01*
X68746134Y-75469134D01*
X68931706Y-75243014D01*
X69069599Y-74985034D01*
X69154513Y-74705111D01*
X69176000Y-74486950D01*
X69176000Y-73341050D01*
X69154513Y-73122889D01*
X69084246Y-72891250D01*
X73597754Y-72891250D01*
X73527487Y-73122889D01*
M02*
